<svg xmlns="http://www.w3.org/2000/svg" xmlns:xlink="http://www.w3.org/1999/xlink" width="1298" height="730"><defs><path id="fjzva" d="M1298 2215H1v730h1267a30 30 0 0 0 30-30z"/><path id="fjzvc" d="M2 2764.5s142-49.81 333-49.81 253.5 135.81 463.5 135.81 490-148.5 490-148.5"/><path id="fjzvd" d="M0 2782.5s142-49.81 333-49.81 253.5 135.81 463.5 135.81 490-148.5 490-148.5"/><path id="fjzve" d="M0 2801.5s142-49.81 333-49.81 253.5 135.81 463.5 135.81 490-148.5 490-148.5"/><linearGradient id="fjzvb" x1="665.1" x2="770.62" y1="2891.18" y2="1908.42" gradientUnits="userSpaceOnUse"><stop offset="0" stop-color="#f3f6ff"/><stop offset="1" stop-color="#fff"/></linearGradient></defs><use fill="url(#fjzvb)" xlink:href="#fjzva" transform="translate(0 -2215)"/><use fill="#fff" fill-opacity="0" stroke="#95a6d3" stroke-miterlimit="50" xlink:href="#fjzvc" opacity=".28" transform="translate(0 -2215)"/><use fill="#fff" fill-opacity="0" stroke="#95a6d3" stroke-miterlimit="50" xlink:href="#fjzvd" opacity=".48" transform="translate(0 -2215)"/><use fill="#fff" fill-opacity="0" stroke="#95a6d3" stroke-miterlimit="50" xlink:href="#fjzve" opacity=".69" transform="translate(0 -2215)"/></svg>