<svg xmlns="http://www.w3.org/2000/svg" xmlns:xlink="http://www.w3.org/1999/xlink" width="148" height="48" viewBox="0 0 148 48"><defs><path id="uom9a" d="M142.52 3351.95c-.38 0-.75 0-1.13-.02-.78 0-1.57-.08-2.34-.2a7.35 7.35 0 0 1-2.07-.69 6.76 6.76 0 0 1-3.02-3.02 7.17 7.17 0 0 1-.68-2.07c-.13-.78-.2-1.57-.21-2.35l-.02-1.15v-28.92l.02-1.12c0-.79.08-1.57.2-2.35a7.21 7.21 0 0 1 1.95-3.83 6.96 6.96 0 0 1 3.83-1.96c.77-.13 1.56-.2 2.34-.2l1.13-.02h128.53l1.15.02c.77 0 1.55.07 2.32.2a7 7 0 0 1 5.78 5.78c.13.78.2 1.57.22 2.36v1.12l.01 1.37v27.55l-.01 1.16c-.02.78-.09 1.56-.22 2.32a6.86 6.86 0 0 1-3.7 5.1c-.65.34-1.35.57-2.08.7-.77.12-1.55.2-2.34.2l-1.12.02h-1.36z"/><path id="uom9b" d="M266.57 3334.43a2.73 2.73 0 0 0-2.78-2.88 2.87 2.87 0 0 0-2.89 2.88zm2.2 3.38c-.3 2.06-2.31 3.47-4.88 3.47-3.3 0-5.34-2.21-5.34-5.76s2.06-5.86 5.25-5.86c3.13 0 5.1 2.16 5.1 5.6v.8h-8v.13a2.95 2.95 0 0 0 3.05 3.21c1.13.1 2.2-.54 2.62-1.6zm-16.52-8h2.22v1.92h.06a2.7 2.7 0 0 1 2.73-2.05c.26 0 .53.03.8.09v2.18c-.34-.1-.7-.15-1.05-.14a2.35 2.35 0 0 0-2.43 2.6v6.73h-2.33zm-4.27 5.66c0-2.45-1.12-3.89-3-3.89-1.9 0-3.02 1.46-3.02 3.9 0 2.45 1.13 3.88 3.01 3.88 1.89 0 3.01-1.43 3.01-3.89zm-8.38 0c0-3.57 2.1-5.8 5.38-5.8 3.29 0 5.38 2.23 5.38 5.8 0 3.58-2.08 5.8-5.38 5.8s-5.38-2.22-5.38-5.8zm-3.4-8.35v2.68h2.16v1.84h-2.16v6.25c0 .97.43 1.42 1.38 1.42.26 0 .51-.02.77-.05v1.83a6.4 6.4 0 0 1-1.3.1c-2.29 0-3.19-.86-3.19-3.06v-6.49h-1.64v-1.84h1.64v-2.68zm-14.55 9.69c.17 1.54 1.67 2.55 3.71 2.55 1.96 0 3.37-1.01 3.37-2.4 0-1.2-.85-1.93-2.86-2.43l-2.02-.48c-2.85-.7-4.17-2.03-4.17-4.2 0-2.68 2.33-4.52 5.65-4.52 3.29 0 5.54 1.84 5.61 4.53h-2.35c-.14-1.56-1.42-2.5-3.3-2.5-1.87 0-3.15.95-3.15 2.33 0 1.1.82 1.75 2.82 2.25l1.72.42c3.19.75 4.51 2.03 4.51 4.3 0 2.92-2.32 4.74-6 4.74-3.45 0-5.77-1.78-5.92-4.6zm-10.62-1.34c0-2.3-1.19-3.8-3-3.8-1.78 0-2.97 1.54-2.97 3.8 0 2.28 1.2 3.8 2.97 3.8 1.81 0 3-1.5 3-3.8zm2.38 0c0 3.52-1.88 5.79-4.73 5.79a3.84 3.84 0 0 1-3.56-1.99h-.05v5.62h-2.33v-15.09H205v1.89h.05a4.02 4.02 0 0 1 3.6-2c2.87 0 4.77 2.27 4.77 5.78zm-14.84 0c0-2.3-1.19-3.8-3-3.8-1.78 0-2.97 1.54-2.97 3.8 0 2.28 1.2 3.8 2.97 3.8 1.81 0 3-1.5 3-3.8zm2.39 0c0 3.52-1.89 5.79-4.73 5.79a3.84 3.84 0 0 1-3.57-1.99h-.05v5.62h-2.33v-15.09h2.25v1.89h.05a4.02 4.02 0 0 1 3.6-2c2.88 0 4.78 2.27 4.78 5.78zm-21.4-.47h4.7l-2.31-6.82h-.07zm5.32 1.94h-5.93l-1.42 4.2h-2.51l5.61-15.55h2.6l5.62 15.55h-2.55z"/><path id="uom9c" d="M259.07 3318.02a1.44 1.44 0 0 1 1.46-1.46 1.36 1.36 0 0 1 1.39 1.46zm2.84 1.82c-.27.48-.8.75-1.34.68a1.49 1.49 0 0 1-1.5-1.61v-.07h3.98v-.39c0-1.77-.95-2.84-2.51-2.84a2.6 2.6 0 0 0-2.6 2.95 2.56 2.56 0 0 0 2.6 2.9c1.1.13 2.13-.56 2.44-1.62zm-10.26 1.52h1.12v-3.3a1.32 1.32 0 0 1 1.42-1.42c.79 0 1.2.45 1.2 1.35v3.37h1.12v-3.64a1.86 1.86 0 0 0-1.94-2.1 1.74 1.74 0 0 0-1.72 1h-.1v-3.1h-1.1zm-3.85-7.04v1.43h-.9v.93h.9v3.19c0 1.09.5 1.52 1.73 1.52.2 0 .4-.02.6-.06v-.92a3.7 3.7 0 0 1-.42.02c-.55 0-.8-.26-.8-.85v-2.9h1.23v-.93h-1.22v-1.43zm-9.95 7.04h1.12v-3.3a1.3 1.3 0 0 1 1.34-1.43c.83 0 1.22.45 1.22 1.36v3.37h1.12v-3.65a1.83 1.83 0 0 0-1.96-2.1c-.72-.06-1.4.35-1.68 1h-.09v-.89h-1.07zm-4.14-.88c-.97 0-1.51-.71-1.51-1.94 0-1.22.54-1.94 1.5-1.94.97 0 1.52.72 1.52 1.94s-.55 1.94-1.51 1.94zm-2.66-1.94a2.67 2.67 0 0 0 4.06 2.53 2.67 2.67 0 0 0 1.24-2.53 2.67 2.67 0 0 0-4.05-2.53 2.67 2.67 0 0 0-1.25 2.53zm-8.71 0c0-1.19.57-1.91 1.5-1.91.94 0 1.52.74 1.52 1.9 0 1.19-.58 1.91-1.52 1.91-.94 0-1.5-.71-1.5-1.9zm1.19 2.91c.73.03 1.4-.35 1.77-.98h.09v.89h1.06v-7.84h-1.11v3.1h-.08c-.34-.64-1.01-1.03-1.73-1-1.42 0-2.34 1.14-2.34 2.92s.9 2.91 2.34 2.91zm-5.37-1.24c-.28.23-.64.34-1 .3-.6 0-1.04-.29-1.04-.8 0-.5.35-.76 1.13-.81l1.37-.09v.47c-.02.36-.19.7-.46.93zm-3.16-.45a1.7 1.7 0 0 0 1.88 1.7 1.9 1.9 0 0 0 1.7-.9h.08v.8h1.07v-3.85c0-1.2-.8-1.9-2.2-1.9-1.28 0-2.2.62-2.3 1.6h1.07c.12-.4.55-.63 1.17-.63.76 0 1.15.33 1.15.93v.48l-1.52.1c-1.34.07-2.1.66-2.1 1.67zm-2.31-1.22c0 1.22-.55 1.94-1.51 1.94-.97 0-1.51-.71-1.51-1.94 0-1.22.54-1.94 1.5-1.94.97 0 1.52.72 1.52 1.94zm-4.17 0a2.67 2.67 0 1 0 5.31 0 2.67 2.67 0 1 0-5.3 0zm-2.65 2.82h1.1v-7.84h-1.1zm-6.56 0h1.11v-3.3a1.3 1.3 0 0 1 1.35-1.43c.82 0 1.21.45 1.21 1.36v3.37h1.11v-3.65a1.84 1.84 0 0 0-1.95-2.1c-.71-.06-1.39.35-1.68 1h-.08v-.89h-1.07zm-1.3-5.64h-1.1l-1.01 4.3h-.1l-1.15-4.3h-1.07l-1.16 4.3h-.08l-1.01-4.3h-1.13l1.56 5.64h1.14l1.16-4.15h.09l1.16 4.15h1.16zm-9.74 2.82c0 1.22-.56 1.94-1.52 1.94-.97 0-1.52-.71-1.52-1.94 0-1.22.55-1.94 1.52-1.94.96 0 1.52.72 1.52 1.94zm-2.94 2.53a2.67 2.67 0 0 0 4.07-2.53 2.67 2.67 0 1 0-5.31 0c-.1 1.01.38 1.99 1.24 2.53zm-7.6-6.13h1.4a2.35 2.35 0 0 1 2.47 2.68 2.35 2.35 0 0 1-2.46 2.68h-1.41zm-1.16-1.05v7.47h2.7c2.22 0 3.5-1.37 3.5-3.76a3.3 3.3 0 0 0-3.5-3.71z"/><path id="uom9d" d="M160.91 3313.88a6.2 6.2 0 0 0-4 2.08 5.82 5.82 0 0 0-1.44 4.21c1.57.02 3.07-.69 4.05-1.91a6.12 6.12 0 0 0 1.4-4.38zm4.97 9.3a6.33 6.33 0 0 0-4.99-2.7c-2.1-.22-4.13 1.26-5.2 1.26-1.1 0-2.74-1.24-4.52-1.2a6.65 6.65 0 0 0-5.6 3.41c-2.41 4.2-.6 10.36 1.71 13.75 1.16 1.66 2.52 3.51 4.29 3.45 1.73-.08 2.38-1.11 4.47-1.11 2.08 0 2.69 1.1 4.5 1.06 1.86-.03 3.03-1.66 4.15-3.34a13.74 13.74 0 0 0 1.9-3.87 5.99 5.99 0 0 1-3.65-5.51 6.2 6.2 0 0 1 2.94-5.2z"/></defs><g><g transform="translate(-133 -3304)"><g><use fill="#222326" xlink:href="#uom9a"/></g><g><use fill="#fff" xlink:href="#uom9b"/></g><g><use fill="#fff" xlink:href="#uom9c"/></g><g><use fill="#fff" xlink:href="#uom9d"/></g></g></g></svg>