<svg xmlns="http://www.w3.org/2000/svg" xmlns:xlink="http://www.w3.org/1999/xlink" width="163" height="48" viewBox="0 0 163 48"><defs><path id="vdhba" d="M296.47 3351.9c-.38 0-.75 0-1.13-.02-.78 0-1.57-.08-2.34-.2a7.35 7.35 0 0 1-2.07-.69 6.76 6.76 0 0 1-3.02-3.02 7.17 7.17 0 0 1-.68-2.07c-.13-.78-.2-1.57-.21-2.35l-.02-1.15v-28.92l.02-1.12c0-.79.08-1.57.2-2.35a7.21 7.21 0 0 1 1.95-3.83 6.96 6.96 0 0 1 3.83-1.96c.77-.13 1.56-.2 2.34-.2l1.13-.02H440l1.15.02c.77 0 1.55.07 2.32.2a7 7 0 0 1 5.78 5.78c.13.78.2 1.57.22 2.36v1.12l.01 1.37v27.55l-.01 1.16c-.02.78-.09 1.56-.22 2.32a6.86 6.86 0 0 1-3.7 5.1c-.65.34-1.35.57-2.08.7-.77.12-1.55.2-2.34.2l-1.12.02h-1.36z"/><path id="vdhbb" d="M415.31 3325h2.25v15h-2.25zm22.68 5.4l-6.15 14.13h-2.35l2.29-5.04-4-9.1h2.4l2.67 6.5h.07l2.57-6.5zm-15.2 7.88a2.71 2.71 0 0 0 2.63-2.39 4.01 4.01 0 0 0-2.04-.5c-1.13 0-2.4.4-2.4 1.59 0 .9 1.02 1.27 1.75 1.27zm.28-8.2c2.56 0 4.55 1.52 4.55 4.14v5.78h-2.16v-1.2h-.07a3.16 3.16 0 0 1-2.89 1.44 3.47 3.47 0 0 1-3.72-3.3c0-2.18 2.17-3.38 4.32-3.38.82 0 1.62.2 2.35.58v-.16a2.16 2.16 0 0 0-2.4-1.93 2.13 2.13 0 0 0-2.05 1.1l-2-.82a4.2 4.2 0 0 1 4-2.3zm-13.84 2.15a2.58 2.58 0 1 0 0-5.15h-3.2v5.12h3.15zm-.05-7.23a4.67 4.67 0 1 1 0 9.31h-3.13v5.7h-2.25V3325zm-29.26 13.3h-.01zm0 0a2.86 2.86 0 0 0 2.73-3.1 2.88 2.88 0 0 0-2.73-3.1 3.11 3.11 0 0 0 0 6.2zm2.57-7.9h2.07v9.08c0 3.77-2.18 5.32-4.8 5.32a4.86 4.86 0 0 1-4.54-3.02l1.96-.81a2.82 2.82 0 0 0 2.57 1.81c1.68 0 2.73-1.04 2.73-3v-.73h-.07a3.48 3.48 0 0 1-2.7 1.2 5.11 5.11 0 0 1 0-10.21c1.03 0 2.01.43 2.7 1.2h.08zm3.66-5.4h2.26v15h-2.26zm10.1 8.16a1.98 1.98 0 0 0-1.89-1.08 2.8 2.8 0 0 0-2.66 2.97zm2.66.73l-6.83 2.82a2.6 2.6 0 0 0 2.47 1.55c1.03 0 1.98-.54 2.51-1.42l1.74 1.2a5.08 5.08 0 0 1-4.25 2.26 5 5 0 0 1-5.06-5.1 4.8 4.8 0 0 1 4.8-5.1 4.8 4.8 0 0 1 4.37 3.25zm-47.33-2.28c.09.45.13.9.12 1.35a7.2 7.2 0 0 1-1.87 5.07 7.2 7.2 0 0 1-5.54 2.22 7.94 7.94 0 1 1 0-15.85c2.05-.02 4 .79 5.44 2.24l-1.52 1.52a5.76 5.76 0 1 0-3.93 9.97 5.3 5.3 0 0 0 4-1.58c.7-.74 1.12-1.7 1.2-2.72h-5.19v-2.16zm6.01 6.68a2.96 2.96 0 0 0 2.88-3.1 3.1 3.1 0 1 0-2.87 3.1zm0-8.2a5.03 5.03 0 0 1 5.13 5.1 5.1 5.1 0 1 1-5.12-5.1zm11.18 8.2a2.95 2.95 0 0 0 2.88-3.1 3.1 3.1 0 1 0-2.88 3.1zm0-8.2a5.03 5.03 0 0 1 5.13 5.1 5.1 5.1 0 1 1-5.13-5.1z"/><path id="vdhbc" d="M377.7 3319.6v-7.2h1.12l3.5 5.6v-5.6h.93v7.2h-.96l-3.66-5.87v5.86zm-3.06-1.53a3.08 3.08 0 0 0 0-4.14 2.76 2.76 0 0 0-3.9 0 3.08 3.08 0 0 0 0 4.14 2.76 2.76 0 0 0 3.9 0zm-4.6.59a3.9 3.9 0 0 1 0-5.34 3.71 3.71 0 0 1 5.28 0 3.88 3.88 0 0 1 0 5.34 3.74 3.74 0 0 1-5.27 0zm-6.08.93h-.93v-6.3h-2.02v-.9h4.96v.9h-2.01zm-5.04 0v-7.2h.93v7.2zm-5.58 0h-.93v-6.3h-2.02v-.9h5.02v.9h-2.07zm-3.94-6.3h-3.24v2.27h2.95v.87h-2.95v2.28h3.24v.88h-4.2v-7.2h4.2zm-6.4 5.38a3.78 3.78 0 0 1-5.3-5.37 3.6 3.6 0 0 1 2.66-1.07c.5 0 1.01.1 1.48.3.43.17.82.45 1.12.8l-.63.63a2.4 2.4 0 0 0-1.97-.85 2.79 2.79 0 0 0-2.8 2.88 2.83 2.83 0 0 0 4.8 2.07c.37-.4.59-.92.6-1.46h-2.6v-.86h3.5c.02.18.04.36.04.54.04.89-.28 1.75-.9 2.4z"/><path id="vdhbd" d="M299.53 3313.04a2.4 2.4 0 0 0-.56 1.68v26.55a2.4 2.4 0 0 0 .56 1.68l.08.08 14.87-14.85v-.35l-14.87-14.87z"/><path id="vdhbf" d="M319.4 3333.13l-4.92-4.95v-.35l4.92-4.97.1.06 5.9 3.35c1.68.95 1.68 2.5 0 3.47l-5.87 3.33z"/><path id="vdhbh" d="M319.55 3333.06l-5.07-5.06-14.95 14.95c.7.62 1.75.65 2.5.07l17.53-9.96"/><path id="vdhbj" d="M319.55 3322.93l-17.53-9.96a1.96 1.96 0 0 0-2.5.08l14.96 14.95z"/><path id="vdhbl" d="M319.4 3332.96l-17.39 9.9a2 2 0 0 1-2.4 0l-.08.08.08.09a2 2 0 0 0 2.4 0l17.54-9.96z"/><path id="vdhbm" d="M325.4 3329.56l-6 3.4.1.1 5.9-3.33a2.1 2.1 0 0 0 1.2-1.73 2.23 2.23 0 0 1-1.2 1.56zm-25.87 13.22a2.4 2.4 0 0 1-.56-1.68v.18a2.4 2.4 0 0 0 .56 1.68l.08-.08z"/><path id="vdhbn" d="M302 3313.15l23.4 13.3c.62.3 1.06.88 1.2 1.55a2.1 2.1 0 0 0-1.2-1.72l-23.4-13.3c-1.67-.95-3.04-.16-3.04 1.76v.18c.04-1.93 1.38-2.72 3.05-1.77z"/><linearGradient id="vdhbe" x1="313.16" x2="293.02" y1="3314.45" y2="3334.59" gradientUnits="userSpaceOnUse"><stop offset="0" stop-color="#00a0ff"/><stop offset=".01" stop-color="#00a1ff"/><stop offset=".26" stop-color="#00beff"/><stop offset=".51" stop-color="#00d2ff"/><stop offset=".76" stop-color="#00dfff"/><stop offset="1" stop-color="#00e3ff"/></linearGradient><linearGradient id="vdhbg" x1="327.6" x2="298.57" y1="3328" y2="3328" gradientUnits="userSpaceOnUse"><stop offset="0" stop-color="#ffe000"/><stop offset=".41" stop-color="#ffbd00"/><stop offset=".78" stop-color="orange"/><stop offset="1" stop-color="#ff9c00"/></linearGradient><linearGradient id="vdhbi" x1="316.8" x2="289.48" y1="3330.76" y2="3358.06" gradientUnits="userSpaceOnUse"><stop offset="0" stop-color="#ff3a44"/><stop offset="1" stop-color="#c31162"/></linearGradient><linearGradient id="vdhbk" x1="295.77" x2="307.95" y1="3304.21" y2="3316.41" gradientUnits="userSpaceOnUse"><stop offset="0" stop-color="#32a071"/><stop offset=".07" stop-color="#2da771"/><stop offset=".48" stop-color="#15cf74"/><stop offset=".8" stop-color="#06e775"/><stop offset="1" stop-color="#00f076"/></linearGradient></defs><g><g transform="translate(-287 -3304)"><g><use fill="#222326" xlink:href="#vdhba"/></g><g><use fill="#fff" xlink:href="#vdhbb"/></g><g><use fill="#fff" xlink:href="#vdhbc"/><use fill="#fff" fill-opacity="0" stroke="#fff" stroke-miterlimit="50" stroke-width=".5" xlink:href="#vdhbc"/></g><g><g><use fill="url(#vdhbe)" xlink:href="#vdhbd"/></g><g><use fill="url(#vdhbg)" xlink:href="#vdhbf"/></g><g><use fill="url(#vdhbi)" xlink:href="#vdhbh"/></g><g><use fill="url(#vdhbk)" xlink:href="#vdhbj"/></g><g opacity=".2"><use xlink:href="#vdhbl"/></g><g opacity=".12"><use xlink:href="#vdhbm"/></g><g opacity=".25"><use fill="#fff" xlink:href="#vdhbn"/></g></g></g></g></svg>