<svg version="1.1" id="Calque_1" xmlns="http://www.w3.org/2000/svg" x="0" y="0" viewBox="0 0 595.3 595.3" xml:space="preserve"><style>.st0{fill:#a2acb5}</style><path class="st0" d="M35.9-222.6c0 144.5 117.3 261.8 261.8 261.8S559.5-78.1 559.5-222.6 442.2-484.4 297.7-484.4c-144.6 0-261.8 117.3-261.8 261.8zM352.1-459l14.3 3.7 12.3 4.5 3.6 22.1c6.7 8.9 13.9 18.1 21.4 27.7.6 7 1.4 14.2 2.1 21.4-.1.3-.1.6-.2.9 6.3 7.7 12.9 15.6 19.6 23.7 1.4 7.1 2.8 14.2 4.3 21.5 4.1 9.2 8.3 18.5 12.6 27.9-.9 3.6-1.7 7.2-2.6 10.9-20.1 6.5-40.5 13.2-61.1 20-6.9 8.7-13.9 17.5-20.8 26.2-18.8 3.3-37.5 6.5-56.2 9.8-6 1-12 2-17.9 3-4.2-5.2-8.3-10.3-12.4-15.3-7.6 2.1-15.1 4.2-22.6 6.3 1.2.8 2.3 1.5 3.5 2.3-5 5.6-9.8 11.1-14.7 16.6-4.1 1.3-8.2 2.6-12.3 4-.2 4.1-.4 8.1-.5 12.2l-3.9 5.4c-6.6-5.8-13.3-11.4-19.8-17-4.6 5.1-9.1 10.2-13.5 15.2 0 .2 0 .3-.1.5 4.4 7.9 8.9 15.9 13.5 24 8.5 4 17 8 25.6 12 5.7-5.1 11.4-10.2 17.2-15.4 2 1.6 4 3.2 5.9 4.8 1.6 7.2 3.2 14.5 4.9 21.8 4.4 9.7 9 19.5 13.5 29.3v.5c5.9 6.8 11.8 13.7 17.7 20.6 9.2 2.9 18.4 5.7 27.6 8.6 1.2 5.1 2.3 10.3 3.5 15.4-5.4 3.6-10.8 7.1-16.1 10.6 8.9 3.2 17.9 6.4 26.8 9.6 3.9 6.4 7.8 12.9 11.7 19.3.1.4.3.7.4 1.1-7.2 14.1-14.1 28.1-20.6 41.8-4.9-2.2-10-4.5-15-6.8-3.6 4.1-7.1 8.2-10.6 12.2-6.7-1.8-13.3-3.8-20-5.7 1-9.5 2.1-19.1 3.3-28.8 0-.8.1-1.6.1-2.5-6.5-8.9-13.1-17.8-19.6-26.7-2.3 7.6-4.5 15.2-6.6 22.8v.5c-7.1 1.3-14.2 2.4-21.2 3.5-.4-.1-.9-.2-1.4-.3.5 6.8 1 13.6 1.6 20.4v1.9l16.3 19.2L224 2.6c-45-14-84.4-41-113.7-76.5l-5.7-7.7 6.8-16.5c-2.6-2-5.2-4-7.8-5.9-3.1-14.4-5.6-28.8-7.7-43 7.2-16.7 15.5-33.8 24.9-51.2 5.5-5.1 11.1-10.3 16.8-15.6 1.6-.1 3.3-.2 4.9-.3-3.4 4.9-6.7 9.9-10 14.8-1.6 4.2-3.1 8.4-4.5 12.6 2.8-3.5 5.7-7.1 8.6-10.7 10.7-9.7 21.8-19.7 33.2-29.8 10.1-2.3 20.3-4.7 30.6-7.1 13.9-4.8 27.9-9.6 42-14.6.2.1.4.3.6.4l-.3-.6c7.6-4.5 15.3-8.9 22.9-13.5.6-16 1.6-31.8 2.9-47.3 17.1-18 34.3-36.1 51.3-54.1 8-29.1 16.9-57.3 26.5-84.2l5.8-10.8zm171.2 225.8l11.3.3.3 6.6c0 33.1-6.7 64.6-18.9 93.3l-.8 1.6-5.8-14.8c-7.2-11-14.4-22.1-21.6-33.2 2.8-9.8 5.7-19.7 8.4-29.5 9.2-8.2 18.2-16.3 27.1-24.3zm-225.3 20c-.9 2.6-1.9 5.2-2.8 7.8-.5.1-1.1.2-1.6.3-8.1.2-16.2.3-24.2.5-.5.1-1 .2-1.6.3-4.7 1.7-9.4 3.5-14.1 5.2-5-1.6-10-3.3-15-4.9 6.9-3.2 13.9-6.5 20.9-9.8 6.5-1 12.9-2.1 19.4-3.2 6.4 1.3 12.7 2.5 19 3.8zm56.6 141c-2.5 7-4.9 14-7.3 20.9 0 .3-.1.7-.1 1-3.9-4.6-7.8-9.1-11.7-13.7-.5-.4-.9-.8-1.4-1.3.9-3.9 1.8-7.9 2.7-11.9l15.6-2.7c.7 2.7 1.5 5.2 2.2 7.7z" transform="matrix(1 0 0 -1 0 75)"/><path class="st0" d="M307.7 13.8l9.2-.5-6.5-1.7-2.7 2.2z" transform="matrix(1 0 0 -1 0 75)"/></svg>