<svg xmlns="http://www.w3.org/2000/svg" xmlns:xlink="http://www.w3.org/1999/xlink" width="388" height="390"><defs><path id="lx0za" d="M729 4874.71c0-95.68 77.57-173.25 173.25-173.25s173.25 77.57 173.25 173.25-77.57 173.25-173.25 173.25S729 4970.39 729 4874.71z"/><path id="lx0zt" d="M919 4872v-5h5v5zm0 13v-5h5v5zm0 13v-5h5v5zm0 13v-5h5v5zm0 13v-5h5v5zm0 13v-5h5v5zm0 13v-5h5v5zm13-78v-5h5v5zm0 13v-5h5v5zm0 13v-5h5v5zm0 13v-5h5v5zm0 13v-5h5v5zm0 13v-5h5v5zm0 13v-5h5v5zm13-78v-5h5v5zm0 13v-5h5v5zm0 13v-5h5v5zm0 13v-5h5v5zm0 13v-5h5v5zm0 13v-5h5v5zm0 13v-5h5v5zm13-78v-5h5v5zm0 13v-5h5v5zm0 13v-5h5v5zm0 13v-5h5v5zm0 13v-5h5v5zm0 13v-5h5v5zm0 13v-5h5v5zm13-78v-5h5v5zm13 0v-5h5v5zm13 0v-5h5v5zm-26 13v-5h5v5zm13 0v-5h5v5zm13 0v-5h5v5zm-26 13v-5h5v5zm13 0v-5h5v5zm13 0v-5h5v5zm-26 13v-5h5v5zm13 0v-5h5v5zm13 0v-5h5v5zm-26 13v-5h5v5zm13 0v-5h5v5zm13 0v-5h5v5zm-26 13v-5h5v5zm13 0v-5h5v5zm13 0v-5h5v5zm-26 13v-5h5v5zm13 0v-5h5v5zm13 0v-5h5v5zm13-78v-5h5v5zm0 13v-5h5v5zm0 13v-5h5v5zm0 13v-5h5v5zm0 13v-5h5v5zm0 13v-5h5v5zm0 13v-5h5v5zm13-78v-5h5v5zm0 13v-5h5v5zm0 13v-5h5v5zm0 13v-5h5v5zm0 13v-5h5v5zm0 13v-5h5v5zm0 13v-5h5v5zm13-78v-5h5v5zm0 13v-5h5v5zm0 13v-5h5v5zm0 13v-5h5v5zm0 13v-5h5v5zm0 13v-5h5v5zm0 13v-5h5v5zm13-78v-5h5v5zm0 13v-5h5v5zm0 13v-5h5v5zm0 13v-5h5v5zm0 13v-5h5v5zm0 13v-5h5v5zm0 13v-5h5v5zm13-78v-5h5v5zm13 0v-5h5v5zm13 0v-5h5v5zm-26 13v-5h5v5zm13 0v-5h5v5zm13 0v-5h5v5zm-26 13v-5h5v5zm13 0v-5h5v5zm13 0v-5h5v5zm-26 13v-5h5v5zm13 0v-5h5v5zm13 0v-5h5v5zm-26 13v-5h5v5zm13 0v-5h5v5zm13 0v-5h5v5zm-26 13v-5h5v5zm13 0v-5h5v5zm13 0v-5h5v5zm-26 13v-5h5v5zm13 0v-5h5v5zm13 0v-5h5v5zm-78 13v-5h5v5zm0 13v-5h5v5zm0 13v-5h5v5zm0 13v-5h5v5zm0 13v-5h5v5zm0 13v-5h5v5zm0 13v-5h5v5zm13-78v-5h5v5zm0 13v-5h5v5zm0 13v-5h5v5zm0 13v-5h5v5zm0 13v-5h5v5zm0 13v-5h5v5zm0 13v-5h5v5zm13-78v-5h5v5zm0 13v-5h5v5zm0 13v-5h5v5zm0 13v-5h5v5zm0 13v-5h5v5zm0 13v-5h5v5zm0 13v-5h5v5zm13-78v-5h5v5zm0 13v-5h5v5zm0 13v-5h5v5zm0 13v-5h5v5zm0 13v-5h5v5zm0 13v-5h5v5zm0 13v-5h5v5zm13-78v-5h5v5zm13 0v-5h5v5zm13 0v-5h5v5zm-26 13v-5h5v5zm13 0v-5h5v5zm13 0v-5h5v5zm-26 13v-5h5v5zm13 0v-5h5v5zm13 0v-5h5v5zm-26 13v-5h5v5zm13 0v-5h5v5zm13 0v-5h5v5zm-26 13v-5h5v5zm13 0v-5h5v5zm13 0v-5h5v5zm-26 13v-5h5v5zm13 0v-5h5v5zm13 0v-5h5v5zm-26 13v-5h5v5zm13 0v-5h5v5zm13 0v-5h5v5zm-169-78v-5h5v5zm0 13v-5h5v5zm0 13v-5h5v5zm0 13v-5h5v5zm0 13v-5h5v5zm0 13v-5h5v5zm0 13v-5h5v5zm13-78v-5h5v5zm0 13v-5h5v5zm0 13v-5h5v5zm0 13v-5h5v5zm0 13v-5h5v5zm0 13v-5h5v5zm0 13v-5h5v5zm13-78v-5h5v5zm0 13v-5h5v5zm0 13v-5h5v5zm0 13v-5h5v5zm0 13v-5h5v5zm0 13v-5h5v5zm0 13v-5h5v5zm13-78v-5h5v5zm0 13v-5h5v5zm0 13v-5h5v5zm0 13v-5h5v5zm0 13v-5h5v5zm0 13v-5h5v5zm0 13v-5h5v5zm13-78v-5h5v5zm13 0v-5h5v5zm13 0v-5h5v5zm-26 13v-5h5v5zm13 0v-5h5v5zm13 0v-5h5v5zm-26 13v-5h5v5zm13 0v-5h5v5zm13 0v-5h5v5zm-26 13v-5h5v5zm13 0v-5h5v5zm13 0v-5h5v5zm-26 13v-5h5v5zm13 0v-5h5v5zm13 0v-5h5v5zm-26 13v-5h5v5zm13 0v-5h5v5zm13 0v-5h5v5zm-26 13v-5h5v5zm13 0v-5h5v5zm13 0v-5h5v5z"/><path id="lx0zy" d="M1447.17 5119.7H774.92c-4.22 0-7.64-3.64-7.64-8.14v-372.2c0-4.5 3.42-8.15 7.64-8.15h672.25c4.22 0 7.64 3.65 7.64 8.15v372.2c0 4.5-3.42 8.15-7.64 8.15"/><path id="lx0zz" d="M815.54 4824.1h382.5v-20.16h-382.5z"/><path id="lx0zA" d="M807.8 4743.11h-33.46c-4.28 0-7.75 3.67-7.75 8.2v360.6c0 4.53 3.47 8.2 7.75 8.2h33.46c4.28 0 7.75-3.67 7.75-8.2v-360.6c0-4.53-3.47-8.2-7.75-8.2"/><path id="lx0zB" d="M791.37 4866.38c.83 0 1.51.68 1.51 1.52v.23a5.09 5.09 0 0 1 3.68 4.88v4.21c0 .21.17.38.38.38h.02c.8 0 1.34.62 1.34 1.54v.02c0 .92-.54 1.54-1.34 1.54h-3.73a1.9 1.9 0 0 1-1.83 1.74h-.03a1.9 1.9 0 0 1-1.84-1.74h-3.62c-.85 0-1.54-.7-1.54-1.54v-.02c0-.85.69-1.54 1.54-1.54h.02c.2 0 .38-.17.38-.38v-4.26a5.04 5.04 0 0 1 3.48-4.79v-.27c0-.84.68-1.52 1.51-1.52zm-.8 1.62a5 5 0 0 1 .77-.06h.14c.21 0 .42.01.63.04v-.08a.75.75 0 0 0-.74-.75h-.07c-.4 0-.74.34-.74.75zm.82 13.67c.54 0 .98-.46 1.06-.97h-2.14c.08.51.52.97 1.06.97zm-5.48-3.3a.76.76 0 0 0-.77.76v.03c0 .42.35.75.77.75h11.06c.51 0 .57-.52.57-.75v-.03c0-.22-.06-.75-.57-.75zm9.88-5.36c0-2.38-1.94-4.3-4.31-4.3h-.14a4.26 4.26 0 0 0-4.26 4.25v4.26c0 .14-.02.26-.07.38h8.84a1.14 1.14 0 0 1-.06-.38z"/><path id="lx0zC" d="M792.88 4867.9v.23a5.09 5.09 0 0 1 3.68 4.88v4.21c0 .21.17.38.38.38h.02c.8 0 1.34.62 1.34 1.54v.02c0 .92-.54 1.54-1.34 1.54h-3.73a1.9 1.9 0 0 1-1.83 1.74h-.03a1.9 1.9 0 0 1-1.84-1.74h-3.62c-.85 0-1.54-.7-1.54-1.54v-.02c0-.85.69-1.54 1.54-1.54h.02c.2 0 .38-.17.38-.38v-4.26a5.04 5.04 0 0 1 3.48-4.79v-.27c0-.84.68-1.52 1.51-1.52h.07c.83 0 1.51.68 1.51 1.52zm-2.32.1a5 5 0 0 1 .78-.06h.14c.21 0 .42.01.63.04v-.08a.75.75 0 0 0-.74-.75h-.07c-.4 0-.74.34-.74.75zm1.89 12.7h-2.14c.08.51.52.97 1.06.97h.02c.54 0 .98-.46 1.06-.97zm-6.54-2.32a.76.76 0 0 0-.77.75v.03c0 .42.35.75.77.75h11.06c.51 0 .57-.52.57-.75v-.03c0-.22-.06-.75-.57-.75zm5.57-9.68h-.14a4.26 4.26 0 0 0-4.26 4.26v4.26c0 .14-.02.26-.07.38h8.84a1.14 1.14 0 0 1-.06-.38v-4.21c0-2.38-1.94-4.3-4.31-4.3z"/><path id="lx0zD" d="M791.94 4908.78a3.7 3.7 0 1 0 7.39 0 3.7 3.7 0 0 0-7.39 0m6.27 0a2.58 2.58 0 1 1-5.16 0 2.58 2.58 0 0 1 5.16 0"/><path id="lx0zE" d="M791.94 4908.78a3.7 3.7 0 1 0 7.39 0 3.7 3.7 0 0 0-7.39 0zm6.27 0a2.58 2.58 0 1 1-5.16 0 2.58 2.58 0 0 1 5.16 0z"/><path id="lx0zF" d="M799.99 4917.44h1.23c0-2.35-1.9-4.25-4.24-4.25h-2.7c-1.35 0-2.56.64-3.33 1.62a4.22 4.22 0 0 0-2.56-.86h-2.7a4.25 4.25 0 0 0-4.25 4.24h1.23a3.01 3.01 0 0 1 3.02-3h2.7a3.01 3.01 0 0 1 3 3h1.24a4.23 4.23 0 0 0-.81-2.49 3 3 0 0 1 2.46-1.28h2.7a3.01 3.01 0 0 1 3 3.02"/><path id="lx0zG" d="M799.99 4917.44h1.23c0-2.35-1.9-4.25-4.24-4.25h-2.7c-1.35 0-2.56.64-3.33 1.62a4.22 4.22 0 0 0-2.56-.86h-2.7a4.25 4.25 0 0 0-4.25 4.24h1.23a3.01 3.01 0 0 1 3.02-3h2.7a3.01 3.01 0 0 1 3 3h1.24a4.23 4.23 0 0 0-.81-2.49 3 3 0 0 1 2.46-1.28h2.7a3.01 3.01 0 0 1 3 3.02z"/><path id="lx0zH" d="M783.35 4909.54a3.7 3.7 0 1 0 7.39 0 3.7 3.7 0 0 0-7.39 0m3.69-2.58a2.58 2.58 0 1 1 0 5.16 2.58 2.58 0 0 1 0-5.16"/><path id="lx0zI" d="M783.35 4909.54a3.7 3.7 0 1 0 7.39 0 3.7 3.7 0 0 0-7.39 0zm3.69-2.58a2.58 2.58 0 1 1 0 5.16 2.58 2.58 0 0 1 0-5.16z"/><path id="lx0zJ" d="M798 4841.76c-.1.1-.24.16-.4.16h-10.4a.57.57 0 0 1-.41-.16.54.54 0 0 1-.16-.4v-.52c0-.15.05-.29.16-.4.11-.1.25-.16.4-.16h10.42c.15 0 .29.05.4.16.1.11.16.25.16.4v.52c0 .16-.05.3-.16.4m0-8.3c-.11.12-.25.17-.4.17H787.2a.57.57 0 0 1-.41-.16.59.59 0 0 1-.16-.41v-.52c0-.15.05-.28.16-.4a.56.56 0 0 1 .4-.17h10.42c.15 0 .29.06.4.17.1.12.16.25.16.4v.52c0 .15-.05.29-.16.4m0 2.83c.1.11.16.25.16.4v.52c0 .16-.05.29-.16.4a.53.53 0 0 1-.4.17H787.2a.55.55 0 0 1-.41-.17.54.54 0 0 1-.16-.4v-.52c0-.15.05-.29.16-.4a.56.56 0 0 1 .4-.17h10.42c.15 0 .29.06.4.17m-13.64-.09a.8.8 0 0 1 .59-.24.82.82 0 0 1 .83.83.82.82 0 0 1-.83.82.8.8 0 0 1-.59-.24.8.8 0 0 1-.24-.58c0-.23.08-.42.24-.59m-.24-3.4c0-.23.08-.42.24-.59a.8.8 0 0 1 .59-.24.82.82 0 0 1 .83.83.82.82 0 0 1-.83.83.8.8 0 0 1-.59-.24.82.82 0 0 1-.24-.59m1.42 7.72c.16.16.24.36.24.59 0 .23-.08.42-.24.57a.83.83 0 0 1-.6.24.8.8 0 0 1-.58-.24.77.77 0 0 1-.24-.57c0-.23.08-.43.24-.6a.8.8 0 0 1 .59-.23c.23 0 .42.08.59.24"/><path id="lx0zK" d="M889.15 4816.2l-1.87-1.86a.22.22 0 0 0-.31.31l2.02 2.02a.22.22 0 0 0 .31 0l2.03-2.02a.22.22 0 0 0 0-.32.22.22 0 0 0-.31 0z"/><path id="lx0zL" d="M832.26 4852.19h-6.55a1.9 1.9 0 0 1-1.9-1.9v-6.56c0-1.04.85-1.89 1.9-1.89h6.55c1.05 0 1.9.85 1.9 1.9v6.55a1.9 1.9 0 0 1-1.9 1.9"/><path id="lx0zM" d="M832.26 4852.19h-6.55a1.9 1.9 0 0 1-1.9-1.9v-6.56c0-1.04.85-1.89 1.9-1.89h6.55c1.05 0 1.9.85 1.9 1.9v6.55a1.9 1.9 0 0 1-1.9 1.9z"/><path id="lx0zb" d="M849.4 4834.13c-1.15 0-2.08.93-2.08 2.08v21.7c0 1.15.93 2.08 2.08 2.08H865c1.15 0 2.08-.93 2.08-2.09v-19.22a.7.7 0 0 0-.23-.54l-3.86-3.78a.83.83 0 0 0-.54-.23z"/><path id="lx0zP" d="M859.21 4846.4h-.23v-1c0-1.08-.85-1.93-1.93-1.93s-1.93.85-1.93 1.93v1h-.08a.7.7 0 0 0-.69.7v2.93c0 .39.3.7.7.7h4.08c.4 0 .7-.31.7-.7v-2.93c.08-.39-.23-.7-.62-.7zm-3.32 0v-1c0-.7.54-1.24 1.24-1.24s1.23.54 1.23 1.24v1z"/><path id="lx0zc" d="M856.51 4848.64c0 .34.28.61.62.61.34 0 .62-.27.62-.61a.62.62 0 1 0-1.24 0"/><path id="lx0zS" d="M862.22 4834.52v3.62c0 .39.3.7.7.7h3.62c.16 0 .31-.16.39-.23 0-.16-.08-.31-.23-.47l-3.7-3.78a.84.84 0 0 0-.55-.23.42.42 0 0 0-.23.39"/><path id="lx0zT" d="M863.15 4834.98v-.39l-.16-.23a.83.83 0 0 0-.54-.23h-.23v.85z"/><path id="lx0zU" d="M866.77 4838.14l-.23-.23h-1.62v.93H867v-.16a.83.83 0 0 0-.23-.54"/><path id="lx0zV" d="M832.26 4895.69h-6.55a1.9 1.9 0 0 1-1.9-1.9v-6.56c0-1.04.85-1.89 1.9-1.89h6.55c1.05 0 1.9.85 1.9 1.9v6.55a1.9 1.9 0 0 1-1.9 1.9"/><path id="lx0zW" d="M832.26 4895.69h-6.55a1.9 1.9 0 0 1-1.9-1.9v-6.56c0-1.04.85-1.89 1.9-1.89h6.55c1.05 0 1.9.85 1.9 1.9v6.55a1.9 1.9 0 0 1-1.9 1.9z"/><path id="lx0zd" d="M849.4 4877.64c-1.15 0-2.08.93-2.08 2.08v21.7c0 1.15.93 2.08 2.08 2.08H865c1.15 0 2.08-.93 2.08-2.09v-19.22a.7.7 0 0 0-.23-.54l-3.86-3.78a.83.83 0 0 0-.54-.23z"/><path id="lx0zZ" d="M859.21 4889.91h-.23v-1c0-1.08-.85-1.93-1.93-1.93s-1.93.85-1.93 1.93v1h-.08a.7.7 0 0 0-.69.7v2.93c0 .39.3.7.7.7h4.08c.4 0 .7-.31.7-.7v-2.93c.08-.39-.23-.7-.62-.7zm-3.32 0v-1c0-.7.54-1.24 1.24-1.24s1.23.54 1.23 1.24v1z"/><path id="lx0ze" d="M856.51 4892.15c0 .34.28.61.62.61.34 0 .62-.27.62-.61a.62.62 0 1 0-1.24 0"/><path id="lx0zac" d="M862.22 4878.03v3.62c0 .39.3.7.7.7h3.62c.16 0 .31-.16.39-.23 0-.16-.08-.31-.23-.47l-3.7-3.78a.84.84 0 0 0-.55-.23.42.42 0 0 0-.23.39"/><path id="lx0zad" d="M863.15 4878.49v-.39l-.16-.23a.83.83 0 0 0-.54-.23h-.23v.85z"/><path id="lx0zae" d="M866.77 4881.65l-.23-.23h-1.62v.93H867v-.16a.83.83 0 0 0-.23-.54"/><path id="lx0zaf" d="M832.26 4937.62h-6.55a1.9 1.9 0 0 1-1.9-1.9v-6.56c0-1.04.85-1.89 1.9-1.89h6.55c1.05 0 1.9.85 1.9 1.9v6.55a1.9 1.9 0 0 1-1.9 1.9"/><path id="lx0zag" d="M832.26 4937.62h-6.55a1.9 1.9 0 0 1-1.9-1.9v-6.56c0-1.04.85-1.89 1.9-1.89h6.55c1.05 0 1.9.85 1.9 1.9v6.55a1.9 1.9 0 0 1-1.9 1.9z"/><path id="lx0zf" d="M849.41 4919.56c-1.15 0-2.08.93-2.08 2.08v21.7c0 1.15.93 2.08 2.08 2.08h15.6c1.15 0 2.08-.93 2.08-2.09v-19.22a.7.7 0 0 0-.23-.54l-3.86-3.78a.83.83 0 0 0-.54-.23z"/><path id="lx0zaj" d="M859.21 4931.83h-.23v-1c0-1.08-.85-1.93-1.93-1.93s-1.93.85-1.93 1.93v1h-.08a.7.7 0 0 0-.69.7v2.93c0 .39.3.7.7.7h4.08c.4 0 .7-.31.7-.7v-2.93c.08-.39-.23-.7-.62-.7zm-3.32 0v-1c0-.7.54-1.23 1.24-1.23s1.23.53 1.23 1.23v1z"/><path id="lx0zg" d="M856.51 4934.08c0 .34.28.61.62.61.34 0 .61-.27.61-.61a.62.62 0 1 0-1.23 0"/><path id="lx0zam" d="M862.22 4919.95v3.62c0 .39.3.7.7.7h3.62c.16 0 .31-.16.39-.23 0-.16-.08-.31-.23-.47l-3.7-3.78a.84.84 0 0 0-.55-.23.42.42 0 0 0-.23.39"/><path id="lx0zan" d="M863.15 4920.4v-.38l-.16-.23a.83.83 0 0 0-.54-.23h-.23v.85z"/><path id="lx0zao" d="M866.77 4923.57l-.23-.23h-1.62v.93H867v-.16a.83.83 0 0 0-.23-.54"/><path id="lx0zap" d="M832.26 4980.24h-6.55a1.9 1.9 0 0 1-1.9-1.9v-6.56c0-1.04.85-1.89 1.9-1.89h6.55c1.05 0 1.9.85 1.9 1.9v6.55a1.9 1.9 0 0 1-1.9 1.9"/><path id="lx0zaq" d="M832.26 4980.24h-6.55a1.9 1.9 0 0 1-1.9-1.9v-6.56c0-1.04.85-1.89 1.9-1.89h6.55c1.05 0 1.9.85 1.9 1.9v6.55a1.9 1.9 0 0 1-1.9 1.9z"/><path id="lx0zh" d="M849.41 4962.19c-1.15 0-2.08.93-2.08 2.08v21.7c0 1.15.93 2.08 2.08 2.08h15.6c1.15 0 2.08-.93 2.08-2.09v-19.22a.7.7 0 0 0-.23-.54l-3.86-3.78a.83.83 0 0 0-.54-.23z"/><path id="lx0zat" d="M859.21 4974.45h-.23v-1c0-1.08-.85-1.93-1.93-1.93s-1.93.85-1.93 1.93v1h-.08a.7.7 0 0 0-.69.7v2.93c0 .39.3.7.7.7h4.08c.4 0 .7-.31.7-.7v-2.93c.08-.39-.23-.7-.62-.7zm-3.32 0v-1c0-.7.54-1.23 1.24-1.23s1.23.53 1.23 1.23v1z"/><path id="lx0zi" d="M856.51 4976.7c0 .34.28.61.62.61.34 0 .61-.27.61-.61a.62.62 0 0 0-1.23 0"/><path id="lx0zaw" d="M862.22 4962.58v3.62c0 .39.3.7.7.7h3.62c.16 0 .31-.16.39-.23 0-.16-.08-.31-.23-.47l-3.7-3.78a.84.84 0 0 0-.55-.23.42.42 0 0 0-.23.39"/><path id="lx0zax" d="M863.15 4963.04v-.39l-.16-.23a.83.83 0 0 0-.54-.23h-.23v.85z"/><path id="lx0zay" d="M866.77 4966.2l-.23-.23h-1.62v.93H867v-.16a.83.83 0 0 0-.23-.54"/><path id="lx0zaz" d="M832.26 5021.57h-6.56a1.9 1.9 0 0 1-1.89-1.9v-6.56c0-1.04.85-1.89 1.9-1.89h6.55c1.05 0 1.9.85 1.9 1.9v6.55a1.9 1.9 0 0 1-1.9 1.9"/><path id="lx0zaA" d="M832.26 5021.57h-6.56a1.9 1.9 0 0 1-1.89-1.9v-6.56c0-1.04.85-1.89 1.9-1.89h6.55c1.05 0 1.9.85 1.9 1.9v6.55a1.9 1.9 0 0 1-1.9 1.9z"/><path id="lx0zj" d="M849.4 5003.52c-1.15 0-2.08.93-2.08 2.08v21.7c0 1.15.93 2.08 2.08 2.08H865c1.15 0 2.08-.93 2.08-2.09v-19.22a.7.7 0 0 0-.23-.54l-3.86-3.78a.83.83 0 0 0-.54-.23z"/><path id="lx0zaD" d="M859.21 5015.8h-.23v-1.01c0-1.08-.85-1.93-1.93-1.93s-1.93.85-1.93 1.93v1h-.08a.7.7 0 0 0-.69.7v2.93c0 .39.3.7.7.7h4.08c.4 0 .7-.31.7-.7v-2.93c.08-.39-.23-.7-.62-.7zm-3.32 0v-1.01c0-.7.54-1.24 1.24-1.24s1.23.54 1.23 1.24v1z"/><path id="lx0zk" d="M856.51 5018.03c0 .34.28.61.62.61.34 0 .61-.27.61-.61a.62.62 0 1 0-1.23 0"/><path id="lx0zaG" d="M862.22 5003.9v3.63c0 .39.3.7.7.7h3.62c.16 0 .31-.16.39-.23 0-.16-.08-.31-.23-.47l-3.7-3.78a.84.84 0 0 0-.55-.23.42.42 0 0 0-.23.39"/><path id="lx0zaH" d="M863.15 5004.37v-.39l-.16-.23a.83.83 0 0 0-.54-.23h-.23v.85z"/><path id="lx0zaI" d="M866.77 5007.53l-.23-.23h-1.62v.93H867v-.16a.83.83 0 0 0-.23-.54"/><path id="lx0zaJ" d="M832.26 5062.9h-6.56a1.9 1.9 0 0 1-1.89-1.9v-6.56c0-1.04.85-1.89 1.9-1.89h6.55c1.05 0 1.9.85 1.9 1.9v6.55a1.9 1.9 0 0 1-1.9 1.9"/><path id="lx0zaK" d="M832.26 5062.9h-6.56a1.9 1.9 0 0 1-1.89-1.9v-6.56c0-1.04.85-1.89 1.9-1.89h6.55c1.05 0 1.9.85 1.9 1.9v6.55a1.9 1.9 0 0 1-1.9 1.9z"/><path id="lx0zl" d="M849.4 5044.85c-1.15 0-2.08.93-2.08 2.08v21.7c0 1.15.93 2.08 2.08 2.08H865c1.15 0 2.08-.93 2.08-2.09v-19.22a.7.7 0 0 0-.23-.54l-3.86-3.78a.84.84 0 0 0-.54-.23z"/><path id="lx0zaN" d="M859.21 5057.12h-.23v-1c0-1.08-.85-1.93-1.93-1.93s-1.93.85-1.93 1.93v1h-.08a.7.7 0 0 0-.69.7v2.93c0 .39.3.7.7.7h4.08c.4 0 .7-.31.7-.7v-2.93c.08-.39-.23-.7-.62-.7zm-3.32 0v-1c0-.7.54-1.24 1.24-1.24s1.23.54 1.23 1.24v1z"/><path id="lx0zm" d="M856.51 5059.36a.62.62 0 1 0 1.23 0 .62.62 0 0 0-1.23 0"/><path id="lx0zaQ" d="M862.22 5045.24v3.62c0 .39.3.7.7.7h3.62c.16 0 .31-.16.39-.23 0-.16-.08-.31-.23-.47l-3.7-3.78a.84.84 0 0 0-.55-.23.42.42 0 0 0-.23.39"/><path id="lx0zaR" d="M863.15 5045.7v-.39l-.16-.23a.83.83 0 0 0-.54-.23h-.23v.85z"/><path id="lx0zaS" d="M866.77 5048.86l-.23-.23h-1.62v.93H867v-.16a.83.83 0 0 0-.23-.54"/><path id="lx0zaT" d="M1447.17 4767.68a7.64 7.64 0 0 0 7.64-7.64v-21.7a7.64 7.64 0 0 0-7.64-7.64H774.92a7.64 7.64 0 0 0-7.64 7.64v29.34z"/><path id="lx0zaU" d="M804.03 4755.8c-1.31 0-2.3-.2-2.97-.6a.16.16 0 0 1-.07-.16l.16-1.55a.16.16 0 0 1 .25-.12 4.3 4.3 0 0 0 1.04.47 6.25 6.25 0 0 0 1.52.29c.5 0 .86-.1 1.07-.3.2-.18.3-.42.3-.7 0-.26-.07-.46-.21-.6a1.84 1.84 0 0 0-.63-.36l-.98-.33c-.39-.11-.82-.29-1.3-.53-.36-.2-.63-.45-.81-.75a2.73 2.73 0 0 1-.14-2.31c.13-.35.32-.65.59-.91.26-.27.6-.48 1.02-.65.58-.22 1.33-.3 2.26-.2.2.02.4.05.6.1.62.13 1.09.29 1.4.48.05.03.08.09.07.15l-.15 1.52a.16.16 0 0 1-.26.11 4.19 4.19 0 0 0-1.55-.71 3.2 3.2 0 0 0-.7-.08c-.43 0-.8.08-1.08.24a.8.8 0 0 0-.42.75c0 .3.1.5.28.65.19.15.43.28.74.4h.02l.3.09a5.64 5.64 0 0 0 .72.2c.37.1.71.23 1.02.38.3.14.57.32.79.54.21.22.38.48.5.78a3 3 0 0 1 .17 1.06c0 1.77-1.19 2.66-3.55 2.66"/><path id="lx0zaV" d="M816.59 4751.6h-5.52c-.1 0-.18.1-.16.2.14.68.44 1.2.91 1.57.52.4 1.1.6 1.75.6a6.55 6.55 0 0 0 2.57-.63c.11-.05.23.02.24.14l.09 1.53c0 .07-.03.13-.1.16-.85.43-1.82.64-2.91.64-.8 0-1.5-.12-2.1-.36a4.05 4.05 0 0 1-2.48-2.47 5.46 5.46 0 0 1-.02-3.68c.2-.56.48-1.06.86-1.49.37-.42.82-.76 1.36-1a4.38 4.38 0 0 1 1.82-.36c.56 0 1.09.1 1.58.28a3.7 3.7 0 0 1 2.1 2.03c.2.48.3 1.02.3 1.61 0 .3-.05.67-.13 1.1a.17.17 0 0 1-.16.13m-5.45-1.52h3.28c.1 0 .17-.08.17-.17-.03-.4-.16-.76-.4-1.08-.26-.36-.67-.54-1.23-.54-.56 0-1 .17-1.34.49-.3.28-.5.65-.64 1.1-.03.1.05.2.16.2"/><path id="lx0zaW" d="M826.16 4753.97l-.18 1.7c-.01.08-.08.14-.17.14h-.66c-.9 0-1.54-.3-1.93-.88-.05-.08-.17-.09-.24-.02-.62.6-1.5.9-2.62.9-.37 0-.72-.06-1.04-.2a2.43 2.43 0 0 1-1.38-1.38c-.13-.33-.2-.71-.2-1.13 0-.62.18-1.13.54-1.54.36-.4.8-.73 1.32-.98a6.64 6.64 0 0 1 1.65-.53c.52-.1.98-.16 1.4-.18.1 0 .16-.08.16-.17-.05-.46-.18-.78-.4-.98-.23-.23-.64-.34-1.22-.34-.66 0-1.41.2-2.27.6a.16.16 0 0 1-.23-.14l-.16-1.48c0-.07.03-.14.1-.17a7.6 7.6 0 0 1 3.17-.74c2.19 0 3.28 1.21 3.28 3.63v2.44c0 .33 0 .59.02.78.02.19.06.34.11.44.05.1.14.17.24.19.11.02.25.04.42.04zm-3.34-.61v-1.8c0-.1-.08-.17-.17-.16-.29.02-.57.07-.84.13-.33.07-.62.17-.88.31-.25.14-.45.3-.6.5-.16.19-.24.41-.24.66 0 .72.4 1.08 1.2 1.08.55 0 1.04-.2 1.48-.6a.17.17 0 0 0 .05-.12z"/><path id="lx0zaX" d="M830.71 4754.15l-.16 1.51c0 .09-.08.15-.16.15h-.67c-.77 0-1.35-.22-1.73-.66a2.5 2.5 0 0 1-.58-1.7v-11.2c0-.1.07-.17.17-.17h1.9c.1 0 .17.07.17.17v10.27c0 .35 0 .62.03.82.02.19.06.33.13.42a.5.5 0 0 0 .33.17c.1.02.25.03.41.04.1 0 .17.09.16.18"/><path id="lx0zaY" d="M840.15 4755.63h-1.8a.16.16 0 0 1-.16-.15l-.03-.36c-.67.46-1.4.7-2.2.7-.71 0-1.34-.13-1.9-.37-.54-.24-1-.57-1.37-1a4.51 4.51 0 0 1-.86-1.5 5.48 5.48 0 0 1 .88-5.14c.38-.42.85-.76 1.4-1a4.56 4.56 0 0 1 3.73.1c.1.06.23-.03.23-.15v-4.52c0-.09.07-.16.16-.16h1.92c.09 0 .16.07.16.16v13.23c0 .09-.07.16-.16.16m-4.04-7.33a2 2 0 0 0-1.67.76c-.4.52-.6 1.2-.6 2.07 0 .87.2 1.56.6 2.07a2 2 0 0 0 1.67.77c.7 0 1.21-.25 1.56-.76.34-.5.5-1.2.5-2.08 0-.88-.16-1.57-.5-2.08-.35-.5-.86-.75-1.56-.75"/><path id="lx0zaZ" d="M791.56 4748.13a6.31 6.31 0 1 1-12.62 0 6.31 6.31 0 0 1 12.62 0"/><path id="lx0zba" d="M797.03 4754.14a6.31 6.31 0 1 1-12.62 0 6.31 6.31 0 0 1 12.62 0"/><path id="lx0zn" d="M785.25 4754.57a5.49 5.49 0 0 0 10.94 0z"/><path id="lx0zo" d="M779.78 4747.7h10.94a5.49 5.49 0 0 0-10.94 0"/><path id="lx0zp" d="M779.78 4748.6a5.49 5.49 0 0 0 5.47 5.07h10.94a5.49 5.49 0 0 0-5.47-5.07z"/><path id="lx0zbh" d="M832.26 4820.68h-6.56a1.9 1.9 0 0 1-1.89-1.9v-6.55c0-1.05.85-1.9 1.9-1.9h6.55c1.05 0 1.9.85 1.9 1.9v6.55a1.9 1.9 0 0 1-1.9 1.9"/><path id="lx0zbi" d="M832.26 4820.68h-6.56a1.9 1.9 0 0 1-1.89-1.9v-6.55c0-1.05.85-1.9 1.9-1.9h6.55c1.05 0 1.9.85 1.9 1.9v6.55a1.9 1.9 0 0 1-1.9 1.9z"/><path id="lx0zbj" d="M1092.56 4794.74H980.28a8.2 8.2 0 0 1-8.18-8.19 8.2 8.2 0 0 1 8.18-8.18h112.28a8.2 8.2 0 0 1 8.19 8.18 8.2 8.2 0 0 1-8.19 8.19"/><path id="lx0zbk" d="M1092.56 4794.74H980.28a8.2 8.2 0 0 1-8.18-8.19 8.2 8.2 0 0 1 8.18-8.18h112.28a8.2 8.2 0 0 1 8.19 8.18 8.2 8.2 0 0 1-8.19 8.19z"/><path id="lx0zbl" d="M985.37 4790.1l-2.54-2.56a3.19 3.19 0 0 0-2.6-5.02 3.19 3.19 0 0 0-3.18 3.18 3.19 3.19 0 0 0 5.02 2.6l2.56 2.56c.21.2.54.2.76 0 .2-.22.2-.56-.02-.76m-7.26-4.4c0-1.17.95-2.12 2.12-2.12a2.13 2.13 0 0 1 0 4.24 2.13 2.13 0 0 1-2.12-2.12"/><path id="lx0zbm" d="M1121.13 4781.7c.52 0 .94.42.94.94v8.91c0 .52-.42.94-.94.94h-10.07a.94.94 0 0 1-.93-.94v-8.91c0-.52.42-.94.93-.94h.58v-.17c0-.51.42-.93.93-.93h.02c.5 0 .93.42.93.93v.17h5.16v-.17c0-.51.42-.93.93-.93h.01c.52 0 .94.42.94.93v.17zm-2.09 1.5c0 .3.26.56.57.56h.01c.31 0 .56-.25.56-.56v-1.67c0-.3-.25-.56-.56-.56h-.01a.56.56 0 0 0-.57.56zm-7.03 0c0 .3.26.56.57.56h.01c.32 0 .57-.25.57-.56v-1.67c0-.3-.25-.56-.57-.56a.57.57 0 0 0-.58.56zm9.3 1.8h-10.43v6.55c0 .1.08.19.18.19h10.07c.1 0 .18-.09.18-.19z"/><path id="lx0zbn" d="M1128.98 4788.47l2.26-2.26c.2-.2.06-.56-.23-.56h-4.52c-.3 0-.44.35-.23.56l2.26 2.26c.12.13.33.13.46 0"/><path id="lx0zbo" d="M928.53 4791.34h-3.73a.45.45 0 0 1-.46-.45v-3.68c0-.15.06-.3.17-.42l1.01-1a.59.59 0 0 1 .42-.18h2.6c.25 0 .45.2.45.45v4.83c0 .25-.2.45-.46.45zm-2.59-5.37a.23.23 0 0 0-.16.07l-1.01 1a.23.23 0 0 0-.07.17v3.68c0 .05.04.09.1.09h3.73c.06 0 .1-.04.1-.1v-4.82a.1.1 0 0 0-.1-.1z"/><path id="lx0zbp" d="M923.4 4789.89v-3.95l1.28-1.26h2.87l.15.4v4.81l-.2.18z"/><path id="lx0zbq" d="M927.41 4790.24h-3.73a.45.45 0 0 1-.46-.45v-3.68c0-.15.06-.3.17-.42l1.01-1a.59.59 0 0 1 .42-.18h2.6c.25 0 .45.2.45.45v4.83c0 .25-.2.45-.46.45zm-2.59-5.37a.23.23 0 0 0-.16.07l-1.01 1a.23.23 0 0 0-.07.17v3.68c0 .05.04.09.1.09h3.73c.06 0 .1-.04.1-.1v-4.82a.1.1 0 0 0-.1-.1z"/><path id="lx0zbr" d="M925.1 4785.18c-.1 0-.17.08-.17.18v.84h-.84a.18.18 0 0 0 0 .36h1.02c.1 0 .17-.09.17-.18v-1.02c0-.1-.08-.18-.17-.18"/><path id="lx0zbs" d="M925.1 4785.18c-.1 0-.17.08-.17.18v.84h-.84a.18.18 0 0 0 0 .36h1.02c.1 0 .17-.09.17-.18v-1.02c0-.1-.08-.18-.17-.18z"/><path id="lx0zbt" d="M802.48 4812.07h-22.77a3 3 0 0 1-3.01-3v-22.78a3 3 0 0 1 3-3.01h22.78a3 3 0 0 1 3 3v22.78a3 3 0 0 1-3 3"/><path id="lx0zbu" d="M797.48 4806.65h-9.82a1.2 1.2 0 0 1-1.21-1.17v-9.67c0-.41.17-.81.46-1.1l2.66-2.66c.29-.3.68-.46 1.1-.46h6.81c.67 0 1.2.53 1.2 1.18v12.7a1.2 1.2 0 0 1-1.2 1.18zm-6.81-14.12a.6.6 0 0 0-.44.18l-2.66 2.66a.62.62 0 0 0-.18.44v9.67c0 .13.12.23.27.23h9.82c.15 0 .27-.1.27-.23v-12.71c0-.13-.12-.24-.27-.24z"/><path id="lx0zbv" d="M783.97 4802.83v-10.38l3.37-3.32h7.55l.38 1.06v12.64l-.53.49z"/><path id="lx0zbw" d="M794.53 4803.75h-9.82a1.2 1.2 0 0 1-1.21-1.17v-9.67c0-.41.17-.81.46-1.1l2.66-2.66c.29-.3.68-.46 1.1-.46h6.81c.67 0 1.2.53 1.2 1.18v12.7a1.2 1.2 0 0 1-1.2 1.18zm-6.81-14.12a.6.6 0 0 0-.44.18l-2.66 2.66a.62.62 0 0 0-.18.44v9.67c0 .13.12.23.27.23h9.82c.15 0 .27-.1.27-.23v-12.71c0-.13-.12-.24-.27-.24z"/><path id="lx0zbx" d="M788.46 4790.46a.47.47 0 0 0-.47.47v2.2h-2.2a.47.47 0 0 0-.48.48c0 .25.21.47.47.47h2.68c.26 0 .47-.22.47-.47v-2.68a.47.47 0 0 0-.47-.47"/><path id="lx0zby" d="M788.46 4790.46a.47.47 0 0 0-.47.47v2.2h-2.2a.47.47 0 0 0-.48.48c0 .25.21.47.47.47h2.68c.26 0 .47-.22.47-.47v-2.68a.47.47 0 0 0-.47-.47z"/><path id="lx0zbz" d="M766.86 4767.36v-36.73h251.56v36.73z"/><path id="lx0zbA" d="M807.21 4772h-33.46c-4.28 0-7.75 2-7.75 4.45v195.92c0 2.46 3.47 4.45 7.75 4.45h33.46c4.28 0 7.75-2 7.75-4.45v-195.92c0-2.46-3.47-4.45-7.75-4.45"/><path id="lx0zbB" d="M784.77 4741.09a6.1 6.1 0 0 1 6.14 6.08 6.1 6.1 0 0 1-6.14 6.08 6.1 6.1 0 0 1-6.13-6.08 6.1 6.1 0 0 1 6.13-6.08"/><path id="lx0zbC" d="M790.1 4746.87a6.1 6.1 0 0 1 6.13 6.08 6.1 6.1 0 0 1-6.14 6.08 6.1 6.1 0 0 1-6.13-6.08 6.1 6.1 0 0 1 6.13-6.08"/><path id="lx0zq" d="M784.78 4753.37a5.31 5.31 0 0 0 5.32 4.89 5.31 5.31 0 0 0 5.32-4.89z"/><path id="lx0zr" d="M779.46 4746.75h10.64a5.31 5.31 0 0 0-5.32-4.89 5.31 5.31 0 0 0-5.32 4.89"/><path id="lx0zs" d="M779.46 4747.61a5.31 5.31 0 0 0 5.32 4.89h10.63a5.31 5.31 0 0 0-5.31-4.89z"/><path id="lx0zbJ" d="M801.85 4754.31a5.13 5.13 0 0 1-2.63-.54.14.14 0 0 1-.07-.14l.14-1.36c.01-.1.13-.16.22-.1l.3.15a5.45 5.45 0 0 0 1.98.51c.45 0 .76-.08.94-.25a.82.82 0 0 0 .28-.62c0-.23-.07-.41-.2-.53a1.63 1.63 0 0 0-.55-.32c-.24-.1-.53-.19-.87-.29-.35-.1-.73-.25-1.16-.47-.32-.18-.56-.4-.72-.66a2.39 2.39 0 0 1-.12-2.03c.11-.3.29-.57.52-.8.24-.23.54-.42.9-.57.52-.2 1.2-.26 2.01-.18.18.02.36.05.53.09.56.11.97.26 1.25.42.05.03.07.08.07.14l-.14 1.33a.14.14 0 0 1-.23.1 3.88 3.88 0 0 0-.76-.43 3.7 3.7 0 0 0-1.24-.27c-.38 0-.7.08-.95.22a.7.7 0 0 0-.38.66c0 .25.08.44.25.57a2.62 2.62 0 0 0 .67.35l.27.08a5.23 5.23 0 0 0 .64.17c.33.1.63.21.9.34.28.12.5.28.7.47.2.2.34.42.44.69.1.26.16.58.16.94 0 1.55-1.05 2.33-3.15 2.33"/><path id="lx0zbK" d="M813 4750.6h-4.9c-.08 0-.15.1-.14.18.13.6.4 1.07.82 1.39.45.34.97.52 1.55.52a4.08 4.08 0 0 0 1.25-.18 7.11 7.11 0 0 0 1.04-.37c.09-.05.2.02.2.12l.08 1.35c0 .06-.03.11-.08.14a5.8 5.8 0 0 1-2.6.56c-.7 0-1.32-.1-1.86-.32a3.55 3.55 0 0 1-2.2-2.17 4.77 4.77 0 0 1-.02-3.23c.18-.5.43-.93.77-1.31.33-.38.73-.67 1.2-.88a3.92 3.92 0 0 1 1.62-.32c.5 0 .97.08 1.4.25a3.18 3.18 0 0 1 1.86 1.79c.18.42.27.89.27 1.4 0 .28-.04.6-.1.97a.15.15 0 0 1-.15.12m-4.84-1.34h2.92c.08 0 .15-.07.14-.15a1.77 1.77 0 0 0-.35-.94c-.23-.32-.6-.48-1.1-.48-.49 0-.89.14-1.19.43a2.2 2.2 0 0 0-.57.96c-.02.1.05.18.15.18"/><path id="lx0zbL" d="M821.5 4752.69l-.17 1.5c0 .07-.07.12-.14.12h-.6c-.79 0-1.36-.26-1.7-.77-.05-.08-.16-.08-.22-.02-.55.53-1.33.8-2.32.8a2.5 2.5 0 0 1-.93-.18 2.15 2.15 0 0 1-1.22-1.22c-.12-.3-.18-.62-.18-1 0-.53.16-.98.48-1.34.32-.36.71-.65 1.17-.87.46-.22.95-.37 1.47-.47.46-.08.87-.13 1.24-.15.08 0 .14-.07.14-.16-.04-.4-.16-.68-.35-.86-.21-.2-.57-.29-1.09-.29-.58 0-1.25.17-2 .52a.15.15 0 0 1-.22-.12l-.14-1.3c0-.06.03-.12.09-.15a6.8 6.8 0 0 1 2.82-.65c1.93 0 2.9 1.06 2.9 3.2v2.14c0 .28 0 .51.03.68.01.17.04.3.1.4.04.08.11.14.2.16.1.02.23.03.38.03zm-2.96-.53v-1.58a.15.15 0 0 0-.16-.15c-.25.02-.5.06-.74.11-.3.07-.56.16-.78.28-.22.12-.4.27-.54.44a.9.9 0 0 0-.21.59c0 .63.35.95 1.07.95.48 0 .92-.17 1.31-.53a.15.15 0 0 0 .05-.1z"/><path id="lx0zbM" d="M825.53 4752.86l-.14 1.33c-.01.07-.07.13-.15.13h-.59c-.68 0-1.2-.2-1.54-.58a2.18 2.18 0 0 1-.51-1.5v-9.85c0-.08.07-.15.15-.15h1.7c.07 0 .14.07.14.15v9.03c0 .31 0 .55.02.72.02.17.06.3.12.37.07.08.16.13.3.15.09.02.21.03.36.03.09 0 .15.08.14.17"/><path id="lx0zbN" d="M833.91 4754.16h-1.6a.14.14 0 0 1-.14-.14l-.02-.3c-.6.4-1.26.6-1.96.6-.63 0-1.19-.11-1.68-.32-.48-.21-.9-.5-1.22-.88a3.96 3.96 0 0 1-.77-1.31 4.77 4.77 0 0 1 .8-4.53c.33-.37.74-.67 1.23-.88a4.08 4.08 0 0 1 3.3.08c.1.06.22-.02.22-.12v-3.98c0-.08.06-.14.14-.14h1.7c.08 0 .14.06.14.14v11.63c0 .08-.06.15-.14.15m-3.58-6.46c-.64 0-1.14.23-1.49.68a2.88 2.88 0 0 0-.53 1.81c0 .77.18 1.37.53 1.82.35.45.85.68 1.49.68.61 0 1.07-.23 1.38-.67.3-.45.45-1.05.45-1.83a3.2 3.2 0 0 0-.45-1.82c-.3-.45-.77-.67-1.38-.67"/><linearGradient id="lx0zu" x1="954.8" x2="1069.94" y1="4858.6" y2="5054.36" gradientUnits="userSpaceOnUse"><stop offset="0" stop-color="#3975fb"/><stop offset="1" stop-color="#0acdfa"/></linearGradient><mask id="lx0zw" width="2" height="2" x="-1" y="-1"><path fill="#fff" d="M729 4701h347v347H729z"/><use xlink:href="#lx0za"/></mask><filter id="lx0zv" width="427" height="438" x="719" y="4691" filterUnits="userSpaceOnUse"><feOffset dx="8" dy="19" in="SourceGraphic" result="FeOffset2232Out"/><feGaussianBlur in="FeOffset2232Out" result="FeGaussianBlur2233Out" stdDeviation="10.4 10.4"/></filter><linearGradient id="lx0zx" x1="992.85" x2="902.25" y1="4711.52" y2="5047.96" gradientUnits="userSpaceOnUse"><stop offset="0" stop-color="#3c6ffb"/><stop offset="1" stop-color="#307fef"/></linearGradient><linearGradient id="lx0zO" x1="847.32" x2="866.98" y1="4847.06" y2="4847.06" gradientUnits="userSpaceOnUse"><stop offset="0" stop-color="#2d8cfb"/><stop offset="1" stop-color="#17b3fb"/></linearGradient><linearGradient id="lx0zR" x1="847.35" x2="866.97" y1="4848.64" y2="4848.64" gradientUnits="userSpaceOnUse"><stop offset="0" stop-color="#2d8cfb"/><stop offset="1" stop-color="#17b3fb"/></linearGradient><linearGradient id="lx0zY" x1="847.32" x2="866.98" y1="4890.57" y2="4890.57" gradientUnits="userSpaceOnUse"><stop offset="0" stop-color="#2d8cfb"/><stop offset="1" stop-color="#17b3fb"/></linearGradient><linearGradient id="lx0zab" x1="847.35" x2="866.97" y1="4892.15" y2="4892.15" gradientUnits="userSpaceOnUse"><stop offset="0" stop-color="#2d8cfb"/><stop offset="1" stop-color="#17b3fb"/></linearGradient><linearGradient id="lx0zai" x1="847.33" x2="866.98" y1="4932.49" y2="4932.49" gradientUnits="userSpaceOnUse"><stop offset="0" stop-color="#2d8cfb"/><stop offset="1" stop-color="#17b3fb"/></linearGradient><linearGradient id="lx0zal" x1="847.34" x2="866.98" y1="4934.07" y2="4934.07" gradientUnits="userSpaceOnUse"><stop offset="0" stop-color="#2d8cfb"/><stop offset="1" stop-color="#17b3fb"/></linearGradient><linearGradient id="lx0zas" x1="847.33" x2="866.98" y1="4975.11" y2="4975.11" gradientUnits="userSpaceOnUse"><stop offset="0" stop-color="#2d8cfb"/><stop offset="1" stop-color="#17b3fb"/></linearGradient><linearGradient id="lx0zav" x1="847.27" x2="867.06" y1="4976.7" y2="4976.7" gradientUnits="userSpaceOnUse"><stop offset="0" stop-color="#2d8cfb"/><stop offset="1" stop-color="#17b3fb"/></linearGradient><linearGradient id="lx0zaC" x1="847.32" x2="866.98" y1="5016.45" y2="5016.45" gradientUnits="userSpaceOnUse"><stop offset="0" stop-color="#2d8cfb"/><stop offset="1" stop-color="#17b3fb"/></linearGradient><linearGradient id="lx0zaF" x1="847.34" x2="866.98" y1="5018.03" y2="5018.03" gradientUnits="userSpaceOnUse"><stop offset="0" stop-color="#2d8cfb"/><stop offset="1" stop-color="#17b3fb"/></linearGradient><linearGradient id="lx0zaM" x1="847.32" x2="866.98" y1="5057.78" y2="5057.78" gradientUnits="userSpaceOnUse"><stop offset="0" stop-color="#2d8cfb"/><stop offset="1" stop-color="#17b3fb"/></linearGradient><linearGradient id="lx0zaP" x1="847.34" x2="866.98" y1="5059.36" y2="5059.36" gradientUnits="userSpaceOnUse"><stop offset="0" stop-color="#2d8cfb"/><stop offset="1" stop-color="#17b3fb"/></linearGradient><linearGradient id="lx0zbc" x1="785.25" x2="796.19" y1="4757.11" y2="4757.11" gradientUnits="userSpaceOnUse"><stop offset="0" stop-color="#17b3fb"/><stop offset="1" stop-color="#01dbf9"/></linearGradient><linearGradient id="lx0zbe" x1="779.78" x2="790.72" y1="4745.16" y2="4745.16" gradientUnits="userSpaceOnUse"><stop offset="0" stop-color="#445dfb"/><stop offset="1" stop-color="#2d8cfb"/></linearGradient><linearGradient id="lx0zbg" x1="779.78" x2="796.19" y1="4751.13" y2="4751.13" gradientUnits="userSpaceOnUse"><stop offset="0" stop-color="#2d8cfb"/><stop offset="1" stop-color="#17b3fb"/></linearGradient><linearGradient id="lx0zbE" x1="784.78" x2="795.41" y1="4755.81" y2="4755.81" gradientUnits="userSpaceOnUse"><stop offset="0" stop-color="#17b3fb"/><stop offset="1" stop-color="#01dbf9"/></linearGradient><linearGradient id="lx0zbG" x1="779.46" x2="790.1" y1="4744.3" y2="4744.3" gradientUnits="userSpaceOnUse"><stop offset="0" stop-color="#445dfb"/><stop offset="1" stop-color="#2d8cfb"/></linearGradient><linearGradient id="lx0zbI" x1="779.46" x2="795.41" y1="4750.06" y2="4750.06" gradientUnits="userSpaceOnUse"><stop offset="0" stop-color="#2d8cfb"/><stop offset="1" stop-color="#17b3fb"/></linearGradient><clipPath id="lx0zN"><use xlink:href="#lx0zb"/></clipPath><clipPath id="lx0zQ"><use xlink:href="#lx0zc"/></clipPath><clipPath id="lx0zX"><use xlink:href="#lx0zd"/></clipPath><clipPath id="lx0zaa"><use xlink:href="#lx0ze"/></clipPath><clipPath id="lx0zah"><use xlink:href="#lx0zf"/></clipPath><clipPath id="lx0zak"><use xlink:href="#lx0zg"/></clipPath><clipPath id="lx0zar"><use xlink:href="#lx0zh"/></clipPath><clipPath id="lx0zau"><use xlink:href="#lx0zi"/></clipPath><clipPath id="lx0zaB"><use xlink:href="#lx0zj"/></clipPath><clipPath id="lx0zaE"><use xlink:href="#lx0zk"/></clipPath><clipPath id="lx0zaL"><use xlink:href="#lx0zl"/></clipPath><clipPath id="lx0zaO"><use xlink:href="#lx0zm"/></clipPath><clipPath id="lx0zbb"><use xlink:href="#lx0zn"/></clipPath><clipPath id="lx0zbd"><use xlink:href="#lx0zo"/></clipPath><clipPath id="lx0zbf"><use xlink:href="#lx0zp"/></clipPath><clipPath id="lx0zbD"><use xlink:href="#lx0zq"/></clipPath><clipPath id="lx0zbF"><use xlink:href="#lx0zr"/></clipPath><clipPath id="lx0zbH"><use xlink:href="#lx0zs"/></clipPath></defs><use fill="url(#lx0zu)" xlink:href="#lx0zt" opacity=".68" transform="translate(-717 -4699)"/><g transform="translate(-717 -4699)"><g filter="url(#lx0zv)"><use fill="none" stroke-opacity=".18" stroke-width="0" mask="url(&quot;#lx0zw&quot;)" xlink:href="#lx0za"/><use fill="#2f5ec2" fill-opacity=".18" xlink:href="#lx0za"/></g><use fill="url(#lx0zx)" xlink:href="#lx0za"/><use fill="#fff" fill-opacity="0" stroke="#000" stroke-miterlimit="50" stroke-width="1.54" xlink:href="#lx0za"/></g><use fill="#fff" xlink:href="#lx0zy" transform="translate(-717 -4699)"/><g clip-path="url(#clip-7F13C684-DE64-400B-AB76-F9636588D2E9)" transform="translate(-717 -4699)"><use fill="#f5f8fa" xlink:href="#lx0zz"/></g><g clip-path="url(#clip-73247BF8-3D22-46B9-A8D6-435626A80030)" transform="translate(-717 -4699)"><use fill="#192558" xlink:href="#lx0zA"/></g><use fill="#505d87" xlink:href="#lx0zB" transform="translate(-717 -4699)"/><use fill="#fff" fill-opacity="0" stroke="#505d87" stroke-miterlimit="50" stroke-width=".67" xlink:href="#lx0zC" transform="translate(-717 -4699)"/><use fill="#505d87" xlink:href="#lx0zD" transform="translate(-717 -4699)"/><use fill="#fff" fill-opacity="0" stroke="#505d87" stroke-miterlimit="50" stroke-width=".67" xlink:href="#lx0zE" transform="translate(-717 -4699)"/><use fill="#505d87" xlink:href="#lx0zF" transform="translate(-717 -4699)"/><use fill="#fff" fill-opacity="0" stroke="#505d87" stroke-miterlimit="50" stroke-width=".67" xlink:href="#lx0zG" transform="translate(-717 -4699)"/><use fill="#505d87" xlink:href="#lx0zH" transform="translate(-717 -4699)"/><use fill="#fff" fill-opacity="0" stroke="#505d87" stroke-miterlimit="50" stroke-width=".67" xlink:href="#lx0zI" transform="translate(-717 -4699)"/><use fill="#505d87" xlink:href="#lx0zJ" transform="translate(-717 -4699)"/><text dominant-baseline="text-before-edge" font-family="Helvetica, Arial, sans-serif" transform="translate(242 109)" fill="#7f8fa4" font-size="7"><tspan>Émet</tspan><tspan letter-spacing="-.04">t</tspan><tspan>eur</tspan></text><text dominant-baseline="text-before-edge" font-family="Helvetica, Arial, sans-serif" transform="translate(130 110)" fill="#7f8fa4" font-size="7"><tspan>Nom ˜chier</tspan></text><use fill="#7f8fa4" xlink:href="#lx0zK" transform="translate(-717 -4699)"/><use fill="#fff" fill-opacity="0" stroke="#7f8fa4" stroke-miterlimit="50" stroke-width=".67" xlink:href="#lx0zK" transform="translate(-717 -4699)"/><text dominant-baseline="text-before-edge" font-family="Helvetica, Arial, sans-serif" transform="translate(324 110)" fill="#7f8fa4" font-size="7"><tspan letter-spacing=".02">O</tspan><tspan>u</tspan><tspan letter-spacing="-.07">v</tspan><tspan>e</tspan><tspan letter-spacing=".17">r</tspan><tspan>tu</tspan><tspan letter-spacing="-.07">r</tspan><tspan>e</tspan></text><use fill="#fff" xlink:href="#lx0zL" transform="translate(-717 -4699)"/><use fill="#fff" fill-opacity="0" stroke="#cfd6df" stroke-miterlimit="50" stroke-width=".67" xlink:href="#lx0zM" transform="translate(-717 -4699)"/><g clip-path="url(#lx0zN)" transform="translate(-717 -4699)"><use fill="url(#lx0zO)" xlink:href="#lx0zb"/></g><use fill="#fff" xlink:href="#lx0zP" transform="translate(-717 -4699)"/><g clip-path="url(#lx0zQ)" transform="translate(-717 -4699)"><use fill="url(#lx0zR)" xlink:href="#lx0zc"/></g><use fill="#2e2952" xlink:href="#lx0zS" transform="translate(-717 -4699)"/><use fill="#2e2952" xlink:href="#lx0zT" transform="translate(-717 -4699)"/><use fill="#2e2952" xlink:href="#lx0zU" transform="translate(-717 -4699)"/><text dominant-baseline="text-before-edge" font-family="Helvetica, Arial, sans-serif" transform="translate(159 140)" fill="#354052" font-size="8"><tspan>Cont</tspan><tspan letter-spacing="-.11">r</tspan><tspan>at_42.pdf</tspan></text><text dominant-baseline="text-before-edge" font-family="Helvetica, Arial, sans-serif" transform="translate(242 133)" fill="#354052" font-size="8"><tspan>Henry Be</tspan><tspan letter-spacing="-.11">r</tspan><tspan>ane</tspan></text><text dominant-baseline="text-before-edge" font-family="Helvetica, Arial, sans-serif" transform="translate(242 144)" fill="#7f8fa4" font-size="7"><tspan>henr</tspan><tspan letter-spacing="-.23">y</tspan><tspan>.be</tspan><tspan letter-spacing="-.05">r</tspan><tspan>ane@i</tspan><tspan letter-spacing="-.05">n</tspan><tspan letter-spacing="-.1">f</tspan><tspan>odigital</tspan></text><text dominant-baseline="text-before-edge" font-family="Helvetica, Arial, sans-serif" transform="translate(242 152)" fill="#7f8fa4" font-size="7"><tspan letter-spacing="-.06">c</tspan><tspan>om</tspan><tspan>p</tspan><tspan>a</tspan><tspan letter-spacing="-.08">n</tspan><tspan letter-spacing="-.23">y</tspan><tspan>.</tspan><tspan letter-spacing="-.06">c</tspan><tspan>om</tspan></text><text dominant-baseline="text-before-edge" font-family="Helvetica, Arial, sans-serif" transform="translate(336 139)" fill="#9c49cb" font-size="7"><tspan>15</tspan></text><use fill="#fff" xlink:href="#lx0zV" transform="translate(-717 -4699)"/><use fill="#fff" fill-opacity="0" stroke="#cfd6df" stroke-miterlimit="50" stroke-width=".67" xlink:href="#lx0zW" transform="translate(-717 -4699)"/><g clip-path="url(#lx0zX)" transform="translate(-717 -4699)"><use fill="url(#lx0zY)" xlink:href="#lx0zd"/></g><use fill="#fff" xlink:href="#lx0zZ" transform="translate(-717 -4699)"/><g clip-path="url(#lx0zaa)" transform="translate(-717 -4699)"><use fill="url(#lx0zab)" xlink:href="#lx0ze"/></g><use fill="#2e2952" xlink:href="#lx0zac" transform="translate(-717 -4699)"/><use fill="#2e2952" xlink:href="#lx0zad" transform="translate(-717 -4699)"/><use fill="#2e2952" xlink:href="#lx0zae" transform="translate(-717 -4699)"/><text dominant-baseline="text-before-edge" font-family="Helvetica, Arial, sans-serif" transform="translate(159 184)" fill="#354052" font-size="8"><tspan>Iban_19362902.pdf</tspan></text><text dominant-baseline="text-before-edge" font-family="Helvetica, Arial, sans-serif" transform="translate(242 177)" fill="#354052" font-size="8"><tspan>Emma Sc</tspan><tspan letter-spacing="-.07">h</tspan><tspan>wab</tspan></text><text dominant-baseline="text-before-edge" font-family="Helvetica, Arial, sans-serif" transform="translate(242 187)" fill="#7f8fa4" font-size="7"><tspan>emma.sc</tspan><tspan letter-spacing="-.02">h</tspan><tspan letter-spacing="-.04">w</tspan><tspan>ab@i</tspan><tspan letter-spacing="-.05">n</tspan><tspan letter-spacing="-.1">f</tspan><tspan>odigital</tspan></text><text dominant-baseline="text-before-edge" font-family="Helvetica, Arial, sans-serif" transform="translate(242 179)" fill="#7f8fa4" font-size="7"><tspan letter-spacing="-.06">c</tspan><tspan>om</tspan><tspan>p</tspan><tspan>a</tspan><tspan letter-spacing="-.08">n</tspan><tspan letter-spacing="-.23">y</tspan><tspan>.</tspan><tspan letter-spacing="-.06">c</tspan><tspan>om</tspan></text><text dominant-baseline="text-before-edge" font-family="Helvetica, Arial, sans-serif" transform="translate(336 182)" fill="#9c49cb" font-size="7"><tspan>37</tspan></text><use fill="#fff" xlink:href="#lx0zaf" transform="translate(-717 -4699)"/><use fill="#fff" fill-opacity="0" stroke="#cfd6df" stroke-miterlimit="50" stroke-width=".67" xlink:href="#lx0zag" transform="translate(-717 -4699)"/><g clip-path="url(#lx0zah)" transform="translate(-717 -4699)"><use fill="url(#lx0zai)" xlink:href="#lx0zf"/></g><use fill="#fff" xlink:href="#lx0zaj" transform="translate(-717 -4699)"/><g clip-path="url(#lx0zak)" transform="translate(-717 -4699)"><use fill="url(#lx0zal)" xlink:href="#lx0zg"/></g><use fill="#2e2952" xlink:href="#lx0zam" transform="translate(-717 -4699)"/><use fill="#2e2952" xlink:href="#lx0zan" transform="translate(-717 -4699)"/><use fill="#2e2952" xlink:href="#lx0zao" transform="translate(-717 -4699)"/><text dominant-baseline="text-before-edge" font-family="Helvetica, Arial, sans-serif" transform="translate(159 226)" fill="#354052" font-size="8"><tspan>Projet_Arma.pdf</tspan></text><text dominant-baseline="text-before-edge" font-family="Helvetica, Arial, sans-serif" transform="translate(242 218)" fill="#354052" font-size="8"><tspan>Amélie </tspan><tspan letter-spacing="-.79">T</tspan><tspan>ouba</tspan></text><text dominant-baseline="text-before-edge" font-family="Helvetica, Arial, sans-serif" transform="translate(242 229)" fill="#7f8fa4" font-size="7"><tspan>amelie.</tspan><tspan letter-spacing="-.02">t</tspan><tspan>ouba@i</tspan><tspan letter-spacing="-.05">n</tspan><tspan letter-spacing="-.1">f</tspan><tspan>odigital</tspan></text><text dominant-baseline="text-before-edge" font-family="Helvetica, Arial, sans-serif" transform="translate(242 237)" fill="#7f8fa4" font-size="7"><tspan letter-spacing="-.06">c</tspan><tspan>om</tspan><tspan>p</tspan><tspan>a</tspan><tspan letter-spacing="-.08">n</tspan><tspan letter-spacing="-.23">y</tspan><tspan>.</tspan><tspan letter-spacing="-.06">c</tspan><tspan>om</tspan></text><text dominant-baseline="text-before-edge" font-family="Helvetica, Arial, sans-serif" transform="translate(336 224)" fill="#9c49cb" font-size="7"><tspan>21</tspan></text><use fill="#fff" xlink:href="#lx0zap" transform="translate(-717 -4699)"/><use fill="#fff" fill-opacity="0" stroke="#cfd6df" stroke-miterlimit="50" stroke-width=".67" xlink:href="#lx0zaq" transform="translate(-717 -4699)"/><g clip-path="url(#lx0zar)" transform="translate(-717 -4699)"><use fill="url(#lx0zas)" xlink:href="#lx0zh"/></g><use fill="#fff" xlink:href="#lx0zat" transform="translate(-717 -4699)"/><g clip-path="url(#lx0zau)" transform="translate(-717 -4699)"><use fill="url(#lx0zav)" xlink:href="#lx0zi"/></g><use fill="#2e2952" xlink:href="#lx0zaw" transform="translate(-717 -4699)"/><use fill="#2e2952" xlink:href="#lx0zax" transform="translate(-717 -4699)"/><use fill="#2e2952" xlink:href="#lx0zay" transform="translate(-717 -4699)"/><text dominant-baseline="text-before-edge" font-family="Helvetica, Arial, sans-serif" transform="translate(159 269)" fill="#354052" font-size="8"><tspan letter-spacing="-.79">T</tspan><tspan>erm_sheet_1.pdf</tspan></text><text dominant-baseline="text-before-edge" font-family="Helvetica, Arial, sans-serif" transform="translate(242 261)" fill="#354052" font-size="8"><tspan>Pierre Roza</tspan></text><text dominant-baseline="text-before-edge" font-family="Helvetica, Arial, sans-serif" transform="translate(242 272)" fill="#7f8fa4" font-size="7"><tspan>p</tspan><tspan>ier</tspan><tspan letter-spacing="-.12">r</tspan><tspan>e.</tspan><tspan letter-spacing="-.12">r</tspan><tspan letter-spacing="-.06">o</tspan><tspan>za@i</tspan><tspan letter-spacing="-.05">n</tspan><tspan letter-spacing="-.1">f</tspan><tspan>odigital</tspan></text><text dominant-baseline="text-before-edge" font-family="Helvetica, Arial, sans-serif" transform="translate(242 264)" fill="#7f8fa4" font-size="7"><tspan letter-spacing="-.06">c</tspan><tspan>om</tspan><tspan>p</tspan><tspan>a</tspan><tspan letter-spacing="-.08">n</tspan><tspan letter-spacing="-.23">y</tspan><tspan>.</tspan><tspan letter-spacing="-.06">c</tspan><tspan>om</tspan></text><text dominant-baseline="text-before-edge" font-family="Helvetica, Arial, sans-serif" transform="translate(336 267)" fill="#9c49cb" font-size="7"><tspan>82</tspan></text><use fill="#fff" xlink:href="#lx0zaz" transform="translate(-717 -4699)"/><use fill="#fff" fill-opacity="0" stroke="#cfd6df" stroke-miterlimit="50" stroke-width=".67" xlink:href="#lx0zaA" transform="translate(-717 -4699)"/><g clip-path="url(#lx0zaB)" transform="translate(-717 -4699)"><use fill="url(#lx0zaC)" xlink:href="#lx0zj"/></g><use fill="#fff" xlink:href="#lx0zaD" transform="translate(-717 -4699)"/><g clip-path="url(#lx0zaE)" transform="translate(-717 -4699)"><use fill="url(#lx0zaF)" xlink:href="#lx0zk"/></g><use fill="#2e2952" xlink:href="#lx0zaG" transform="translate(-717 -4699)"/><use fill="#2e2952" xlink:href="#lx0zaH" transform="translate(-717 -4699)"/><use fill="#2e2952" xlink:href="#lx0zaI" transform="translate(-717 -4699)"/><text dominant-baseline="text-before-edge" font-family="Helvetica, Arial, sans-serif" transform="translate(159 310)" fill="#354052" font-size="8"><tspan letter-spacing="-.79">T</tspan><tspan>erm_sheet_2.pdf</tspan></text><text dominant-baseline="text-before-edge" font-family="Helvetica, Arial, sans-serif" transform="translate(242 302)" fill="#354052" font-size="8"><tspan>Pierre Roza</tspan></text><text dominant-baseline="text-before-edge" font-family="Helvetica, Arial, sans-serif" transform="translate(242 313)" fill="#7f8fa4" font-size="7"><tspan>p</tspan><tspan>ier</tspan><tspan letter-spacing="-.12">r</tspan><tspan>e.</tspan><tspan letter-spacing="-.12">r</tspan><tspan letter-spacing="-.06">o</tspan><tspan>za@i</tspan><tspan letter-spacing="-.05">n</tspan><tspan letter-spacing="-.1">f</tspan><tspan>odigital</tspan></text><text dominant-baseline="text-before-edge" font-family="Helvetica, Arial, sans-serif" transform="translate(242 305)" fill="#7f8fa4" font-size="7"><tspan letter-spacing="-.06">c</tspan><tspan>om</tspan><tspan>p</tspan><tspan>a</tspan><tspan letter-spacing="-.08">n</tspan><tspan letter-spacing="-.23">y</tspan><tspan>.</tspan><tspan letter-spacing="-.06">c</tspan><tspan>om</tspan></text><text dominant-baseline="text-before-edge" font-family="Helvetica, Arial, sans-serif" transform="translate(336 308)" fill="#9c49cb" font-size="7"><tspan>28</tspan></text><use fill="#fff" xlink:href="#lx0zaJ" transform="translate(-717 -4699)"/><use fill="#fff" fill-opacity="0" stroke="#cfd6df" stroke-miterlimit="50" stroke-width=".67" xlink:href="#lx0zaK" transform="translate(-717 -4699)"/><g clip-path="url(#lx0zaL)" transform="translate(-717 -4699)"><use fill="url(#lx0zaM)" xlink:href="#lx0zl"/></g><use fill="#fff" xlink:href="#lx0zaN" transform="translate(-717 -4699)"/><g clip-path="url(#lx0zaO)" transform="translate(-717 -4699)"><use fill="url(#lx0zaP)" xlink:href="#lx0zm"/></g><use fill="#2e2952" xlink:href="#lx0zaQ" transform="translate(-717 -4699)"/><use fill="#2e2952" xlink:href="#lx0zaR" transform="translate(-717 -4699)"/><use fill="#2e2952" xlink:href="#lx0zaS" transform="translate(-717 -4699)"/><text dominant-baseline="text-before-edge" font-family="Helvetica, Arial, sans-serif" transform="translate(242 344)" fill="#354052" font-size="8"><tspan>Emma Sc</tspan><tspan letter-spacing="-.07">h</tspan><tspan>wab</tspan></text><text dominant-baseline="text-before-edge" font-family="Helvetica, Arial, sans-serif" transform="translate(242 347)" fill="#7f8fa4" font-size="7"><tspan letter-spacing="-.06">c</tspan><tspan>om</tspan><tspan>p</tspan><tspan>a</tspan><tspan letter-spacing="-.08">n</tspan><tspan letter-spacing="-.23">y</tspan><tspan>.</tspan><tspan letter-spacing="-.06">c</tspan><tspan>om</tspan></text><use fill="#050f2c" xlink:href="#lx0zaT" transform="translate(-717 -4699)"/><use fill="#fff" xlink:href="#lx0zaU" transform="translate(-717 -4699)"/><use fill="#fff" xlink:href="#lx0zaV" transform="translate(-717 -4699)"/><use fill="#fff" xlink:href="#lx0zaW" transform="translate(-717 -4699)"/><use fill="#fff" xlink:href="#lx0zaX" transform="translate(-717 -4699)"/><use fill="#fff" xlink:href="#lx0zaY" transform="translate(-717 -4699)"/><use fill="#fff" xlink:href="#lx0zaZ" transform="translate(-717 -4699)"/><use fill="#fff" xlink:href="#lx0zba" transform="translate(-717 -4699)"/><g clip-path="url(#lx0zbb)" transform="translate(-717 -4699)"><use fill="url(#lx0zbc)" xlink:href="#lx0zn"/></g><g clip-path="url(#lx0zbd)" transform="translate(-717 -4699)"><use fill="url(#lx0zbe)" xlink:href="#lx0zo"/></g><g clip-path="url(#lx0zbf)" transform="translate(-717 -4699)"><use fill="url(#lx0zbg)" xlink:href="#lx0zp"/></g><g fill="#fff" transform="translate(-717 -4699)"><use xlink:href="#lx0zbh"/><use fill-opacity="0" stroke="#cfd6df" stroke-miterlimit="50" stroke-width=".67" xlink:href="#lx0zbi"/></g><text dominant-baseline="text-before-edge" font-family="Helvetica, Arial, sans-serif" transform="translate(106 76)" fill="#192558" font-size="13"><tspan letter-spacing="-.16">E</tspan><tspan>mails/</tspan><tspan letter-spacing="-.02">F</tspan><tspan>ichie</tspan><tspan letter-spacing="-.04">r</tspan><tspan>s</tspan></text><g transform="translate(-717 -4699)"><use fill="#fff" xlink:href="#lx0zbj"/><use fill="#fff" fill-opacity="0" stroke="#8996c5" stroke-miterlimit="50" stroke-width=".68" xlink:href="#lx0zbk"/><use fill="#1eaffc" xlink:href="#lx0zbl"/></g><text dominant-baseline="text-before-edge" font-family="Helvetica, Arial, sans-serif" transform="translate(272 82)" fill="#ced4dd" font-size="6"><tspan letter-spacing="-.2">R</tspan><tspan>eche</tspan><tspan letter-spacing="-.12">r</tspan><tspan>c</tspan><tspan>h</tspan><tspan>e dans les ﬁc</tspan><tspan>h</tspan><tspan>ie</tspan><tspan letter-spacing="-.02">r</tspan><tspan>s...</tspan></text><use fill="#192558" xlink:href="#lx0zbm" transform="translate(-717 -4699)"/><use fill="#1eaffc" xlink:href="#lx0zbn" transform="translate(-717 -4699)"/><text dominant-baseline="text-before-edge" font-family="Helvetica, Arial, sans-serif" transform="translate(214 82)" fill="#192558" font-size="8"><tspan>216 648</tspan></text><g transform="translate(-717 -4699)"><use fill="#192558" xlink:href="#lx0zbo"/><use fill="#fff" fill-opacity="0" stroke="#192558" stroke-miterlimit="50" stroke-width=".67" xlink:href="#lx0zbo"/><use fill="#f9f9f9" xlink:href="#lx0zbp"/><use fill="#192558" xlink:href="#lx0zbq"/><use fill="#fff" fill-opacity="0" stroke="#192558" stroke-miterlimit="50" stroke-width=".67" xlink:href="#lx0zbq"/><use fill="#192558" xlink:href="#lx0zbr"/><use fill="#fff" fill-opacity="0" stroke="#192558" stroke-miterlimit="50" stroke-width=".67" xlink:href="#lx0zbs"/></g><use fill="#fff" xlink:href="#lx0zbt" transform="translate(-717 -4699)"/><use fill="#2d8cfb" xlink:href="#lx0zbu" transform="translate(-717 -4699)"/><use fill="#fff" fill-opacity="0" stroke="#2d8cfb" stroke-miterlimit="50" stroke-width=".67" xlink:href="#lx0zbu" transform="translate(-717 -4699)"/><use fill="#fff" xlink:href="#lx0zbv" transform="translate(-717 -4699)"/><use fill="#2d8cfb" xlink:href="#lx0zbw" transform="translate(-717 -4699)"/><use fill="#fff" fill-opacity="0" stroke="#2d8cfb" stroke-miterlimit="50" stroke-width=".67" xlink:href="#lx0zbw" transform="translate(-717 -4699)"/><use fill="#2d8cfb" xlink:href="#lx0zbx" transform="translate(-717 -4699)"/><use fill="#fff" fill-opacity="0" stroke="#2d8cfb" stroke-miterlimit="50" stroke-width=".67" xlink:href="#lx0zby" transform="translate(-717 -4699)"/><use fill="#050f2c" xlink:href="#lx0zbz" transform="translate(-717 -4699)"/><use fill="#192558" xlink:href="#lx0zbA" transform="translate(-717 -4699)"/><use fill="#fff" xlink:href="#lx0zbB" transform="translate(-717 -4699)"/><use fill="#fff" xlink:href="#lx0zbC" transform="translate(-717 -4699)"/><g clip-path="url(#lx0zbD)" transform="translate(-717 -4699)"><use fill="url(#lx0zbE)" xlink:href="#lx0zq"/></g><g clip-path="url(#lx0zbF)" transform="translate(-717 -4699)"><use fill="url(#lx0zbG)" xlink:href="#lx0zr"/></g><g clip-path="url(#lx0zbH)" transform="translate(-717 -4699)"><use fill="url(#lx0zbI)" xlink:href="#lx0zs"/></g><g fill="#fff" transform="translate(-717 -4699)"><use xlink:href="#lx0zbJ"/><use xlink:href="#lx0zbK"/><use xlink:href="#lx0zbL"/><use xlink:href="#lx0zbM"/><use xlink:href="#lx0zbN"/></g></svg>