<svg version="1.1" id="Calque_1" xmlns="http://www.w3.org/2000/svg" x="0" y="0" viewBox="0 0 483.61 483.61" xml:space="preserve"><circle fill="#239EFB" cx="241.805" cy="241.805" r="209.697"/><path fill="#FFF" stroke="#FFF" stroke-width="4.744" stroke-miterlimit="10" d="M353.061 127.019c-6.893-4.552-16.258-2.601-20.81 4.292L214.283 320.424l-65.292-63.471c-6.113-5.723-15.608-5.333-21.2.78-5.593 6.113-5.203 15.608.78 21.2l78.559 76.348.52.39 1.171 1.171 2.081.78 2.471 1.04 2.471.39h3.642l1.431-.39 4.162-1.821.65-.52 2.601-1.821 1.171-1.951v-.13l127.723-204.721c4.681-6.893 2.73-16.127-4.163-20.679z"/></svg>