<svg width="424" height="315" xmlns="http://www.w3.org/2000/svg" xmlns:xlink="http://www.w3.org/1999/xlink"><defs><rect id="path-1" x="0" y="0" width="362.88" height="254.592" rx="4.8"/><filter x="-12%" y="-17.1%" width="126.7%" height="138.1%" filterUnits="objectBoundingBox" id="filter-2"><feMorphology radius=".96" operator="dilate" in="SourceAlpha" result="shadowSpreadOuter1"/><feOffset dx="5" dy="5" in="shadowSpreadOuter1" result="shadowOffsetOuter1"/><feGaussianBlur stdDeviation="15" in="shadowOffsetOuter1" result="shadowBlurOuter1"/><feComposite in="shadowBlurOuter1" in2="SourceAlpha" operator="out" result="shadowBlurOuter1"/><feColorMatrix values="0 0 0 0 0.235294118 0 0 0 0 0.615686275 0 0 0 0 0.97254902 0 0 0 0.0859091938 0" in="shadowBlurOuter1"/></filter><path d="M.027.032C.195 2.32 2.072 4.124 4.363 4.124 6.655 4.124 8.531 2.32 8.7.032H.027z" id="path-3"/><linearGradient x1="0%" y1="50%" x2="100%" y2="50%" id="linearGradient-5"><stop stop-color="#17B3FB" offset="0%"/><stop stop-color="#01DBF9" offset="100%"/></linearGradient><path d="M.044 4.122h8.672C8.548 1.834 6.672.03 4.38.03 2.088.03.212 1.834.044 4.122" id="path-6"/><linearGradient x1="0%" y1="50%" x2="100%" y2="50%" id="linearGradient-8"><stop stop-color="#445DFB" offset="0%"/><stop stop-color="#2D8CFB" offset="100%"/></linearGradient><path d="M.044.031C.212 2.32 2.088 4.123 4.38 4.123h8.672C12.884 1.835 11.008.031 8.716.031H.044z" id="path-9"/><linearGradient x1="0%" y1="50%" x2="100%" y2="50%" id="linearGradient-11"><stop stop-color="#2D8CFB" offset="0%"/><stop stop-color="#17B3FB" offset="100%"/></linearGradient><path id="path-12" d="M.031.008h6.355v10.113H.031z"/><linearGradient x1="109.179%" y1="0%" x2="-72.819%" y2="100%" id="linearGradient-14"><stop stop-color="#3975FB" offset="0%"/><stop stop-color="#0ACDFA" offset="100%"/></linearGradient><path d="M3.595.468c-1.723 0-3.1 1.418-3.1 3.192v29.877c0 1.774 1.377 3.193 3.1 3.193h23.197c1.722 0 3.1-1.42 3.1-3.193V7.444c0-.354-.115-.591-.344-.827L23.806.822a1.223 1.223 0 0 0-.804-.354H3.595z" id="path-15"/></defs><g id="Page-1" stroke="none" stroke-width="1" fill="none" fill-rule="evenodd"><g id="Pas-d'installation-necessaire" transform="translate(-263 -76)"><g id="Group-3" transform="translate(288 101)"><g id="Group-2"><g id="Group-18" transform="translate(.384 .384)"><g id="Rectangle-39"><use fill="#000" filter="url(#filter-2)" xlink:href="#path-1"/><rect stroke="#EEEFF2" stroke-width=".96" fill="#FCFCFC" x="-.48" y="-.48" width="363.84" height="255.552" rx="4.8"/></g><path id="Rectangle-4" stroke="#EEEFF2" stroke-width=".96" fill="#FFF" d="M-.48 56.928h363.84V26.016H-.48z"/><g id="Logo-seald" transform="translate(18.432 34.56)"><g id="Group-21"><g id="Group-9" transform="translate(4.353 9.67)"><mask id="mask-4" fill="#fff"><use xlink:href="#path-3"/></mask><path d="M.027.032C.195 2.32 2.072 4.124 4.363 4.124 6.655 4.124 8.531 2.32 8.7.032H.027z" id="Fill-7" fill="url(#linearGradient-5)" mask="url(#mask-4)"/></g><g id="Group-12" transform="translate(0 .032)"><mask id="mask-7" fill="#fff"><use xlink:href="#path-6"/></mask><path d="M.044 4.122h8.672C8.548 1.834 6.672.03 4.38.03 2.088.03.212 1.834.044 4.122" id="Fill-10" fill="url(#linearGradient-8)" mask="url(#mask-7)"/></g><g id="Group-15" transform="translate(0 4.85)"><mask id="mask-10" fill="#fff"><use xlink:href="#path-9"/></mask><path d="M.044.031C.212 2.32 2.088 4.123 4.38 4.123h8.672C12.884 1.835 11.008.031 8.716.031H.044z" id="Fill-13" fill="url(#linearGradient-11)" mask="url(#mask-10)"/></g></g><g id="Group-27" transform="translate(16.073 .372)"><path d="M2.229 10.121c-.953 0-1.67-.15-2.15-.453a.12.12 0 0 1-.053-.113l.117-1.142a.116.116 0 0 1 .176-.088c.072.044.153.088.242.133a4.39 4.39 0 0 0 1.066.366c.192.04.375.06.55.06.365 0 .623-.071.77-.214a.691.691 0 0 0 .223-.518c0-.195-.052-.344-.157-.446a1.322 1.322 0 0 0-.45-.266 10.482 10.482 0 0 0-.713-.24 5.808 5.808 0 0 1-.942-.392 1.593 1.593 0 0 1-.588-.553c-.131-.217-.21-.52-.236-.911 0-.275.046-.539.137-.792a1.86 1.86 0 0 1 .425-.672c.192-.195.438-.352.74-.472.42-.168.965-.218 1.634-.151.145.014.29.038.433.069.452.098.79.217 1.017.355a.118.118 0 0 1 .053.114l-.114 1.118a.115.115 0 0 1-.185.082 2.778 2.778 0 0 0-.623-.363 2.969 2.969 0 0 0-.496-.16 2.283 2.283 0 0 0-.51-.06c-.314 0-.574.06-.778.18a.596.596 0 0 0-.308.552c0 .213.068.373.203.48a2.12 2.12 0 0 0 .549.294l.216.065a4.2 4.2 0 0 0 .255.073c.118.031.207.055.268.073.27.08.517.173.739.28.222.106.412.239.569.399.157.16.277.35.36.572.082.222.124.483.124.785 0 1.304-.855 1.956-2.563 1.956" id="Fill-16" fill="#222326"/><path d="M7.377 5.903h2.378a.12.12 0 0 0 .119-.126 1.504 1.504 0 0 0-.285-.792c-.193-.266-.49-.4-.893-.4s-.728.12-.973.36a1.784 1.784 0 0 0-.461.806.12.12 0 0 0 .115.152m3.945 1.118H7.328a.121.121 0 0 0-.118.144c.102.505.323.892.663 1.16.372.292.794.439 1.266.439.149 0 .31-.014.486-.04a5.041 5.041 0 0 0 1.062-.286c.113-.043.218-.089.316-.137.075-.037.162.018.167.103l.064 1.13a.123.123 0 0 1-.066.118c-.62.313-1.324.469-2.113.469-.576 0-1.084-.089-1.524-.266A3.22 3.22 0 0 1 6.42 9.13a2.976 2.976 0 0 1-.68-1.091 3.973 3.973 0 0 1-.23-1.364c0-.48.073-.927.217-1.344a3.34 3.34 0 0 1 .62-1.098c.27-.315.6-.561.988-.739a3.125 3.125 0 0 1 1.314-.266c.41 0 .791.069 1.144.206.353.138.658.333.916.586.257.253.457.557.601.912.144.354.216.75.216 1.184 0 .224-.029.493-.086.804-.01.057-.06.1-.118.1" id="Fill-18" fill="#222326"/><path d="M15.841 8.323v-1.33a.12.12 0 0 0-.13-.121 5.08 5.08 0 0 0-.609.095 2.34 2.34 0 0 0-.634.233 1.482 1.482 0 0 0-.444.366.766.766 0 0 0-.17.493c0 .532.292.798.876.798.393 0 .75-.147 1.071-.442a.127.127 0 0 0 .04-.092zm2.406.44l-.132 1.25a.12.12 0 0 1-.118.108h-.482c-.646 0-1.11-.216-1.391-.647-.04-.062-.128-.064-.18-.012-.45.44-1.08.659-1.894.659-.27 0-.521-.047-.752-.14a1.752 1.752 0 0 1-.602-.399 1.837 1.837 0 0 1-.399-.625 2.256 2.256 0 0 1-.143-.832c0-.452.13-.83.392-1.131.261-.302.58-.543.955-.725a4.754 4.754 0 0 1 1.196-.393 7.56 7.56 0 0 1 1.011-.128.118.118 0 0 0 .112-.129c-.03-.334-.124-.574-.28-.72-.174-.165-.47-.247-.889-.247-.476 0-1.023.144-1.64.433a.119.119 0 0 1-.17-.095l-.116-1.089a.124.124 0 0 1 .07-.125c.783-.365 1.55-.548 2.3-.548 1.579 0 2.368.892 2.368 2.675v1.796c0 .24.006.43.02.572a.888.888 0 0 0 .078.326c.04.076.098.122.176.14.079.018.179.027.301.027h.21z" id="Fill-20" fill="#222326"/><path d="M21.541 8.899l-.118 1.113a.121.121 0 0 1-.12.109h-.48c-.558 0-.976-.162-1.255-.486-.28-.323-.418-.743-.418-1.257V.13a.12.12 0 0 1 .12-.122h1.38c.067 0 .121.055.121.122V7.7c0 .257.007.456.02.598a.597.597 0 0 0 .098.313c.052.066.13.108.235.126.079.013.179.022.302.025.07.002.123.066.115.137" id="Fill-22" fill="#222326"/><g id="Group-26" transform="translate(22.1)"><mask id="mask-13" fill="#fff"><use xlink:href="#path-12"/></mask><path d="M3.346 4.585c-.521 0-.925.19-1.212.566-.286.377-.43.885-.43 1.524 0 .638.144 1.146.43 1.523.287.377.69.566 1.212.566.503 0 .878-.187 1.126-.56.247-.372.371-.882.371-1.53 0-.647-.124-1.157-.371-1.53-.248-.372-.623-.559-1.126-.559m2.923 5.403H4.965a.118.118 0 0 1-.117-.11l-.018-.263a2.75 2.75 0 0 1-1.595.506c-.515 0-.97-.089-1.367-.266a2.805 2.805 0 0 1-1-.739A3.337 3.337 0 0 1 .247 8.02 4.093 4.093 0 0 1 .03 6.675c0-.48.074-.93.222-1.351a3.28 3.28 0 0 1 .635-1.098c.274-.31.61-.554 1.006-.732a3.249 3.249 0 0 1 1.34-.266c.51 0 .964.112 1.361.335.076.043.17-.018.17-.106V.127c0-.066.052-.119.117-.119h1.387c.065 0 .117.053.117.12v9.74c0 .067-.052.12-.117.12" id="Fill-24" fill="#222326" mask="url(#mask-13)"/></g></g></g><g id="Group" transform="translate(42.624 71.424)"><rect id="Rectangle-5" stroke="#EDEFF2" stroke-width=".96" fill="#FFF" x=".48" y=".48" width="277.824" height="159.168" rx="3.456"/><path d="M80.297 78.318a.338.338 0 0 1 .244.104l.694.73a2.884 2.884 0 0 1-1.143.9c-.458.202-1 .303-1.625.303a3.872 3.872 0 0 1-1.542-.293 3.338 3.338 0 0 1-1.156-.809 3.561 3.561 0 0 1-.729-1.223 4.518 4.518 0 0 1-.254-1.537c0-.563.092-1.081.275-1.553a3.478 3.478 0 0 1 1.965-2.02 3.99 3.99 0 0 1 1.53-.284 3.915 3.915 0 0 1 1.503.283 3.209 3.209 0 0 1 1.088.723l-.59.793a.752.752 0 0 1-.136.132.35.35 0 0 1-.217.06.389.389 0 0 1-.177-.042 1.948 1.948 0 0 1-.176-.1 31.09 31.09 0 0 0-.205-.13 1.571 1.571 0 0 0-.264-.13 2.185 2.185 0 0 0-.358-.101 2.44 2.44 0 0 0-.48-.042c-.29 0-.555.054-.795.161-.24.107-.447.264-.622.47a2.17 2.17 0 0 0-.404.756c-.095.299-.143.64-.143 1.024 0 .387.053.73.158 1.031.106.301.249.554.43.76.182.206.394.362.635.47.242.106.502.16.778.16.16 0 .304-.008.436-.024a1.98 1.98 0 0 0 .368-.077 1.5 1.5 0 0 0 .321-.145c.1-.06.202-.138.306-.231a.613.613 0 0 1 .135-.086.353.353 0 0 1 .15-.033zm3.074-5.806v7.76h-1.607v-7.76h1.607zm2.68 2.384v5.376h-1.607v-5.376h1.607zm.166-1.472a.85.85 0 0 1-.078.36.948.948 0 0 1-.212.296 1.04 1.04 0 0 1-.314.202.973.973 0 0 1-.749 0 1.035 1.035 0 0 1-.303-.202.933.933 0 0 1-.208-.296.905.905 0 0 1 0-.728.955.955 0 0 1 .511-.503 1.004 1.004 0 0 1 1.063.202.97.97 0 0 1 .212.3.879.879 0 0 1 .078.369zm4.858 2.747a.889.889 0 0 1-.14.14.309.309 0 0 1-.192.052.413.413 0 0 1-.215-.057 44.5 44.5 0 0 0-.216-.127 1.632 1.632 0 0 0-.28-.127 1.205 1.205 0 0 0-.399-.057c-.197 0-.367.036-.51.11a.946.946 0 0 0-.355.31c-.094.135-.163.3-.208.495a2.957 2.957 0 0 0-.067.661c0 .515.1.91.298 1.187a.957.957 0 0 0 .822.415c.186 0 .334-.023.443-.07.109-.047.201-.098.277-.156l.21-.158a.388.388 0 0 1 .241-.072c.128 0 .225.046.29.14l.467.575a2.539 2.539 0 0 1-1.086.744 2.903 2.903 0 0 1-.578.14 4.256 4.256 0 0 1-.565.039c-.328 0-.642-.062-.94-.187a2.305 2.305 0 0 1-.789-.541 2.595 2.595 0 0 1-.539-.874c-.133-.346-.2-.74-.2-1.182 0-.387.058-.749.174-1.086.116-.337.287-.629.513-.876a2.39 2.39 0 0 1 .84-.583 2.94 2.94 0 0 1 1.159-.213c.421 0 .791.068 1.11.202.317.135.604.332.86.591l-.425.565zm2.649-3.66v4.35h.238c.1 0 .176-.015.228-.044a.533.533 0 0 0 .156-.148l1.016-1.514a.642.642 0 0 1 .212-.194.637.637 0 0 1 .306-.065h1.472l-1.389 1.913a1.705 1.705 0 0 1-.467.425c.08.059.153.127.218.205.066.078.128.165.187.262l1.514 2.571h-1.452a.74.74 0 0 1-.311-.06.497.497 0 0 1-.218-.21L94.418 78.1a.397.397 0 0 0-.15-.169.541.541 0 0 0-.233-.038h-.311v2.379h-1.607v-7.76h1.607zm8.398 7.844a1.88 1.88 0 0 1-.677-.112 1.344 1.344 0 0 1-.492-.316 1.348 1.348 0 0 1-.304-.495 1.917 1.917 0 0 1-.103-.648v-2.778h-.456a.304.304 0 0 1-.213-.08c-.059-.054-.088-.133-.088-.237v-.627l.855-.166.316-1.311c.042-.166.16-.25.353-.25h.84v1.572h1.332v1.099h-1.332v2.67c0 .124.03.227.09.308.06.081.148.122.262.122a.514.514 0 0 0 .252-.06.905.905 0 0 1 .083-.041.213.213 0 0 1 .09-.019.19.19 0 0 1 .117.034c.03.023.06.058.09.106l.488.762c-.207.156-.44.273-.7.35a2.771 2.771 0 0 1-.803.117zm4.432-5.542c.408 0 .78.064 1.115.192.335.128.622.311.863.55.24.238.426.527.56.868.133.34.2.723.2 1.148 0 .429-.067.815-.2 1.159-.134.344-.32.636-.56.876-.24.24-.528.425-.863.555-.336.13-.707.194-1.115.194-.411 0-.785-.065-1.122-.194a2.505 2.505 0 0 1-.871-.555 2.456 2.456 0 0 1-.565-.876 3.19 3.19 0 0 1-.2-1.159c0-.425.067-.808.2-1.148.133-.34.321-.63.565-.868.243-.239.534-.422.87-.55a3.141 3.141 0 0 1 1.123-.192zm0 4.35c.37 0 .642-.13.816-.392.175-.26.262-.657.262-1.19 0-.532-.087-.927-.262-1.187-.174-.259-.446-.388-.816-.388-.38 0-.658.13-.835.388-.176.26-.264.655-.264 1.188 0 .532.088.928.264 1.19.177.26.455.39.835.39zm8.315-4.35c.408 0 .78.064 1.115.192.335.128.623.311.863.55.24.238.427.527.56.868.133.34.2.723.2 1.148 0 .429-.067.815-.2 1.159-.133.344-.32.636-.56.876-.24.24-.528.425-.863.555-.336.13-.707.194-1.115.194-.411 0-.785-.065-1.122-.194a2.505 2.505 0 0 1-.871-.555 2.456 2.456 0 0 1-.565-.876 3.19 3.19 0 0 1-.2-1.159c0-.425.067-.808.2-1.148.133-.34.321-.63.565-.868.243-.239.534-.422.87-.55a3.141 3.141 0 0 1 1.123-.192zm0 4.35c.37 0 .642-.13.817-.392.174-.26.261-.657.261-1.19 0-.532-.087-.927-.261-1.187-.175-.259-.447-.388-.817-.388-.38 0-.658.13-.835.388-.176.26-.264.655-.264 1.188 0 .532.088.928.264 1.19.177.26.455.39.835.39zm5.101-.353c.121.131.252.225.394.28.142.055.29.083.446.083a.96.96 0 0 0 .41-.088.834.834 0 0 0 .323-.283c.092-.13.164-.298.216-.505.051-.207.077-.46.077-.757 0-.283-.02-.522-.062-.715-.041-.194-.1-.35-.173-.47a.674.674 0 0 0-.267-.256.766.766 0 0 0-.348-.078c-.235 0-.428.043-.58.13a1.615 1.615 0 0 0-.436.378v2.281zm-.098-3.25c.21-.225.45-.409.718-.552.267-.144.586-.215.956-.215.28 0 .54.062.778.186.238.125.444.304.617.54.172.234.308.522.407.862.098.34.147.727.147 1.159 0 .404-.056.778-.168 1.12-.113.342-.27.64-.472.891-.202.253-.444.45-.726.591a2.052 2.052 0 0 1-.935.213c-.28 0-.515-.04-.705-.12a1.914 1.914 0 0 1-.519-.32v2.063h-1.607v-7.082h.995c.2 0 .332.09.394.27l.12.394zm7.745 1.379c0-.128-.017-.253-.05-.374a.905.905 0 0 0-.16-.324.818.818 0 0 0-.293-.23 1.002 1.002 0 0 0-.44-.088c-.305 0-.544.087-.716.261-.173.175-.287.426-.342.755h2zm-2.022.933c.052.45.188.775.41.977.22.202.506.303.855.303.186 0 .347-.022.482-.067a2.44 2.44 0 0 0 .36-.15c.105-.056.202-.106.29-.15a.603.603 0 0 1 .278-.068.33.33 0 0 1 .29.14l.467.575c-.166.19-.345.345-.537.464-.192.12-.389.213-.59.28a3.203 3.203 0 0 1-.607.14 4.552 4.552 0 0 1-.578.039c-.377 0-.73-.061-1.06-.184a2.436 2.436 0 0 1-.866-.547 2.58 2.58 0 0 1-.586-.902c-.144-.36-.215-.778-.215-1.255 0-.359.061-.7.184-1.02.122-.322.299-.604.529-.846a2.51 2.51 0 0 1 .834-.575 2.755 2.755 0 0 1 1.107-.213c.356 0 .682.056.977.166a2.104 2.104 0 0 1 1.26 1.257c.12.306.179.653.179 1.04 0 .12-.005.22-.016.295a.468.468 0 0 1-.057.182.217.217 0 0 1-.111.093.522.522 0 0 1-.18.026h-3.1zm5.697-2.395c.104-.097.21-.187.321-.27.111-.083.23-.153.356-.21a2.108 2.108 0 0 1 .889-.184c.293 0 .553.051.78.153.226.102.417.244.573.425.155.182.273.398.352.648.08.25.12.523.12.817v3.416h-1.608v-3.416c0-.263-.06-.468-.181-.615-.121-.146-.3-.22-.534-.22-.176 0-.341.037-.495.112a1.992 1.992 0 0 0-.449.303v3.836h-1.607v-5.376h.996c.2 0 .331.09.394.27l.093.31zm8.642 4.878a1.88 1.88 0 0 1-.677-.112 1.344 1.344 0 0 1-.492-.316 1.348 1.348 0 0 1-.304-.495 1.917 1.917 0 0 1-.103-.648v-2.778h-.456a.304.304 0 0 1-.213-.08c-.059-.054-.088-.133-.088-.237v-.627l.855-.166.317-1.311c.041-.166.158-.25.352-.25h.84v1.572h1.332v1.099h-1.332v2.67c0 .124.03.227.09.308a.308.308 0 0 0 .262.122.514.514 0 0 0 .252-.06c.03-.016.057-.03.083-.041a.213.213 0 0 1 .09-.019.19.19 0 0 1 .117.034c.03.023.06.058.09.106l.488.762c-.207.156-.44.273-.7.35a2.771 2.771 0 0 1-.803.117zm3.613-4.987c.194-.166.403-.3.63-.402.226-.102.497-.153.811-.153.294 0 .554.051.78.153.227.102.418.244.573.425.156.182.273.398.353.648.08.25.119.523.119.817v3.416h-1.607v-3.416c0-.263-.06-.468-.182-.615-.12-.146-.299-.22-.534-.22-.176 0-.34.037-.495.112a1.992 1.992 0 0 0-.448.303v3.836h-1.607v-7.76h1.607v2.856zm7.595 1.57c0-.127-.017-.252-.05-.373a.905.905 0 0 0-.16-.324.818.818 0 0 0-.293-.23 1.002 1.002 0 0 0-.441-.088c-.304 0-.543.087-.715.261-.173.175-.287.426-.342.755h2zm-2.022.934c.052.45.188.775.41.977.22.202.506.303.855.303.186 0 .347-.022.482-.067a2.44 2.44 0 0 0 .36-.15c.105-.056.202-.106.29-.15a.603.603 0 0 1 .278-.068.33.33 0 0 1 .29.14l.467.575c-.166.19-.345.345-.537.464-.192.12-.389.213-.59.28a3.203 3.203 0 0 1-.607.14 4.552 4.552 0 0 1-.578.039c-.377 0-.73-.061-1.06-.184a2.436 2.436 0 0 1-.866-.547 2.58 2.58 0 0 1-.586-.902c-.144-.36-.215-.778-.215-1.255 0-.359.061-.7.184-1.02.122-.322.299-.604.529-.846a2.51 2.51 0 0 1 .834-.575 2.755 2.755 0 0 1 1.107-.213c.356 0 .682.056.977.166a2.104 2.104 0 0 1 1.26 1.257c.12.306.179.653.179 1.04 0 .12-.005.22-.016.295a.468.468 0 0 1-.057.182.217.217 0 0 1-.111.093.522.522 0 0 1-.18.026h-3.1zm9.818-1.535a1.016 1.016 0 0 0-.394-.282 1.25 1.25 0 0 0-.446-.08.947.947 0 0 0-.41.088.834.834 0 0 0-.323.282 1.5 1.5 0 0 0-.215.506 3.14 3.14 0 0 0-.078.751c0 .284.02.522.062.716.042.193.1.35.174.469a.664.664 0 0 0 .267.256c.104.052.22.078.347.078.118 0 .224-.011.319-.034a1.087 1.087 0 0 0 .487-.254c.071-.063.141-.137.21-.22v-2.276zm1.607-3.825v7.76h-.995c-.2 0-.332-.09-.394-.27l-.124-.41c-.108.115-.22.219-.337.312a2.015 2.015 0 0 1-.822.397 2.269 2.269 0 0 1-.51.054c-.28 0-.54-.062-.778-.187a1.792 1.792 0 0 1-.617-.539 2.72 2.72 0 0 1-.407-.863 4.192 4.192 0 0 1-.148-1.164c0-.4.055-.773.166-1.117.11-.344.267-.641.47-.892a2.17 2.17 0 0 1 .728-.588c.283-.142.596-.212.938-.212.28 0 .515.04.705.119.19.08.363.186.518.321v-2.721h1.607zm3.515 2.301c.408 0 .78.064 1.115.192.335.128.623.311.863.55.24.238.427.527.56.868.133.34.2.723.2 1.148 0 .429-.067.815-.2 1.159-.133.344-.32.636-.56.876-.24.24-.528.425-.863.555-.336.13-.707.194-1.115.194-.411 0-.785-.065-1.122-.194a2.505 2.505 0 0 1-.871-.555 2.456 2.456 0 0 1-.565-.876 3.19 3.19 0 0 1-.2-1.159c0-.425.067-.808.2-1.148.133-.34.321-.63.565-.868.243-.239.534-.422.87-.55a3.141 3.141 0 0 1 1.123-.192zm0 4.35c.37 0 .642-.13.817-.392.174-.26.261-.657.261-1.19 0-.532-.087-.927-.261-1.187-.175-.259-.447-.388-.817-.388-.38 0-.658.13-.835.388-.176.26-.264.655-.264 1.188 0 .532.088.928.264 1.19.177.26.455.39.835.39zm7.444-2.992a.889.889 0 0 1-.14.14.309.309 0 0 1-.191.052.413.413 0 0 1-.216-.057l-.215-.127a1.632 1.632 0 0 0-.28-.127 1.205 1.205 0 0 0-.399-.057c-.197 0-.367.036-.51.11a.946.946 0 0 0-.356.31c-.093.135-.162.3-.207.495a2.957 2.957 0 0 0-.067.661c0 .515.099.91.298 1.187a.957.957 0 0 0 .821.415c.187 0 .335-.023.444-.07.108-.047.2-.098.277-.156l.21-.158a.388.388 0 0 1 .241-.072c.128 0 .225.046.29.14l.467.575a2.539 2.539 0 0 1-1.086.744 2.903 2.903 0 0 1-.578.14 4.256 4.256 0 0 1-.565.039c-.329 0-.642-.062-.941-.187a2.305 2.305 0 0 1-.788-.541 2.595 2.595 0 0 1-.54-.874 3.299 3.299 0 0 1-.199-1.182c0-.387.058-.749.174-1.086.116-.337.287-.629.513-.876.226-.247.506-.442.84-.583.333-.142.72-.213 1.158-.213.422 0 .792.068 1.11.202.318.135.605.332.86.591l-.425.565zm5.863-1.275v5.376h-.995c-.2 0-.332-.09-.394-.27l-.093-.31c-.104.1-.211.19-.322.272a1.967 1.967 0 0 1-.764.342 2.192 2.192 0 0 1-.48.049c-.294 0-.554-.051-.78-.153a1.605 1.605 0 0 1-.573-.428 1.865 1.865 0 0 1-.352-.648 2.68 2.68 0 0 1-.12-.819v-3.41h1.607v3.41c0 .266.061.472.182.617.12.145.299.218.534.218.176 0 .341-.037.495-.112.154-.074.303-.175.448-.303v-3.83h1.607zm1.037 5.376v-5.376h.996c.2 0 .331.09.394.27l.088.29c.09-.093.183-.179.28-.257a1.8 1.8 0 0 1 .676-.337c.13-.032.272-.049.428-.049.325 0 .593.084.806.252.212.167.374.391.485.671.09-.166.2-.308.329-.425.13-.118.27-.213.42-.285.15-.073.309-.126.477-.16.167-.035.334-.053.5-.053.307 0 .58.046.819.138.238.091.438.224.599.399.16.174.282.389.365.643.083.254.125.541.125.863v3.416h-1.607v-3.416c0-.557-.239-.835-.716-.835a.734.734 0 0 0-.542.215c-.143.144-.215.35-.215.62v3.416h-1.607v-3.416c0-.308-.06-.524-.181-.648-.121-.125-.3-.187-.534-.187a.9.9 0 0 0-.412.099c-.13.065-.252.153-.366.264v3.888h-1.607zm12.115-3.333c0-.128-.016-.253-.049-.374a.905.905 0 0 0-.16-.324.818.818 0 0 0-.294-.23 1.002 1.002 0 0 0-.44-.088c-.304 0-.543.087-.716.261-.172.175-.287.426-.342.755h2.001zm-2.022.933c.052.45.189.775.41.977.221.202.506.303.855.303.187 0 .348-.022.482-.067a2.44 2.44 0 0 0 .36-.15c.106-.056.203-.106.291-.15a.603.603 0 0 1 .277-.068c.128 0 .225.046.29.14l.467.575c-.166.19-.344.345-.536.464-.192.12-.39.213-.591.28a3.203 3.203 0 0 1-.607.14 4.552 4.552 0 0 1-.578.039c-.377 0-.73-.061-1.06-.184a2.436 2.436 0 0 1-.866-.547 2.58 2.58 0 0 1-.585-.902c-.144-.36-.216-.778-.216-1.255 0-.359.062-.7.184-1.02a2.49 2.49 0 0 1 1.364-1.421 2.755 2.755 0 0 1 1.107-.213c.356 0 .681.056.977.166.295.11.55.271.762.482.212.211.378.47.498.775.119.306.178.653.178 1.04 0 .12-.005.22-.015.295a.468.468 0 0 1-.057.182.217.217 0 0 1-.112.093.522.522 0 0 1-.179.026h-3.1zm5.698-2.395a3.7 3.7 0 0 1 .321-.27c.11-.083.229-.153.355-.21a2.108 2.108 0 0 1 .89-.184c.293 0 .553.051.78.153.226.102.417.244.572.425.156.182.273.398.353.648.08.25.119.523.119.817v3.416h-1.607v-3.416c0-.263-.06-.468-.181-.615-.121-.146-.3-.22-.534-.22-.177 0-.342.037-.496.112a1.992 1.992 0 0 0-.448.303v3.836h-1.607v-5.376h.995c.2 0 .332.09.394.27l.094.31zm6.226 4.878a1.88 1.88 0 0 1-.677-.112 1.344 1.344 0 0 1-.492-.316 1.348 1.348 0 0 1-.304-.495 1.917 1.917 0 0 1-.103-.648v-2.778h-.456a.304.304 0 0 1-.213-.08c-.059-.054-.088-.133-.088-.237v-.627l.855-.166.316-1.311c.042-.166.16-.25.353-.25h.84v1.572h1.332v1.099h-1.332v2.67c0 .124.03.227.09.308.06.081.148.122.262.122a.514.514 0 0 0 .252-.06c.03-.016.057-.03.083-.041a.213.213 0 0 1 .09-.019.19.19 0 0 1 .117.034c.03.023.06.058.09.106l.488.762c-.207.156-.44.273-.7.35a2.771 2.771 0 0 1-.803.117zm1.788-.897a.86.86 0 0 1 .262-.627.915.915 0 0 1 .65-.26.947.947 0 0 1 .648.26.858.858 0 0 1 .265.627.879.879 0 0 1-.264.633.91.91 0 0 1-.648.254.955.955 0 0 1-.363-.068.87.87 0 0 1-.55-.82z" id="Click-to-open-the-do" fill="#222326"/><rect id="Rectangle-2" fill="#3BC398" x="97.344" y="94.848" width="84.864" height="19.776" rx="1.152"/><path d="M115.49 104.795c0 .356-.058.686-.176.99a2.323 2.323 0 0 1-.499.787 2.267 2.267 0 0 1-.776.52 2.627 2.627 0 0 1-1.008.186c-.367 0-.702-.062-1.005-.187a2.285 2.285 0 0 1-.778-.519 2.331 2.331 0 0 1-.502-.788 2.693 2.693 0 0 1-.178-.99c0-.355.06-.685.178-.989.119-.303.286-.566.502-.788.217-.221.476-.395.778-.519a2.618 2.618 0 0 1 1.005-.186c.246 0 .478.028.695.085.218.057.417.138.598.242.182.104.345.231.49.38.144.149.266.315.367.499.101.184.178.383.23.598.053.215.08.441.08.679zm-.924 0a2.23 2.23 0 0 0-.107-.718 1.538 1.538 0 0 0-.306-.539 1.31 1.31 0 0 0-.482-.34 1.659 1.659 0 0 0-.64-.117c-.238 0-.45.04-.64.118-.19.078-.35.191-.484.34a1.523 1.523 0 0 0-.307.538 2.23 2.23 0 0 0-.108.718c0 .266.036.505.108.717a1.5 1.5 0 0 0 .307.538c.133.146.295.259.484.337.19.079.402.118.64.118.237 0 .45-.04.64-.118a1.3 1.3 0 0 0 .482-.337 1.52 1.52 0 0 0 .306-.538 2.23 2.23 0 0 0 .107-.717zm2.329 1.535a.817.817 0 0 0 .307.242.915.915 0 0 0 .7 0 .665.665 0 0 0 .258-.215c.07-.096.125-.218.163-.364.038-.147.057-.32.057-.52 0-.201-.016-.372-.049-.512a.99.99 0 0 0-.14-.341.55.55 0 0 0-.22-.192.686.686 0 0 0-.293-.06.839.839 0 0 0-.44.11 1.336 1.336 0 0 0-.343.307v1.545zm-.044-2.083c.141-.159.301-.288.48-.386.18-.099.39-.148.632-.148.189 0 .36.039.516.117.156.079.29.192.403.341.113.15.2.333.262.551.062.219.093.47.093.751 0 .258-.035.497-.104.716-.07.22-.169.41-.298.571a1.374 1.374 0 0 1-.467.378 1.353 1.353 0 0 1-.613.136c-.193 0-.357-.03-.494-.089a1.207 1.207 0 0 1-.366-.247v1.412h-.83v-4.573h.507c.108 0 .178.05.212.15l.067.32zm5.218.857a.999.999 0 0 0-.045-.304.723.723 0 0 0-.136-.25.633.633 0 0 0-.23-.17.79.79 0 0 0-.325-.062c-.24 0-.428.068-.566.205-.137.136-.225.33-.263.58h1.565zm-1.582.5c.013.177.045.33.094.46.05.128.114.234.195.318a.75.75 0 0 0 .287.188c.11.042.233.063.368.063.134 0 .25-.016.348-.047a1.63 1.63 0 0 0 .255-.105 4.8 4.8 0 0 0 .192-.104.321.321 0 0 1 .16-.047c.069 0 .12.026.154.078l.238.302a1.383 1.383 0 0 1-.309.27 1.734 1.734 0 0 1-.358.175c-.124.044-.25.075-.38.093a2.719 2.719 0 0 1-.374.026c-.24 0-.463-.04-.669-.119a1.497 1.497 0 0 1-.537-.353 1.655 1.655 0 0 1-.36-.578 2.236 2.236 0 0 1-.13-.798c0-.235.037-.456.113-.663a1.542 1.542 0 0 1 .848-.906c.206-.09.437-.134.695-.134.217 0 .417.035.601.104.184.07.342.17.474.304.132.133.236.297.31.49.076.194.113.416.113.664 0 .126-.013.21-.04.254-.027.044-.079.065-.155.065h-2.133zm3.692-1.404c.07-.07.143-.134.22-.193a1.39 1.39 0 0 1 .523-.249c.098-.023.206-.035.322-.035.189 0 .356.032.501.096a.99.99 0 0 1 .365.268c.097.116.171.254.221.414.05.16.076.336.076.529v2.194h-.83v-2.194c0-.21-.048-.374-.144-.489-.097-.115-.243-.173-.44-.173a.864.864 0 0 0-.404.097 1.445 1.445 0 0 0-.356.266v2.493h-.83v-3.447h.508c.107 0 .178.05.211.15l.057.273zm5.73 3.078c-.301 0-.531-.085-.691-.254-.16-.169-.24-.403-.24-.7v-1.926h-.353a.162.162 0 0 1-.115-.043c-.031-.03-.047-.073-.047-.131v-.33l.555-.09.174-.941a.184.184 0 0 1 .064-.104.19.19 0 0 1 .121-.037h.43v1.085h.921v.591h-.92v1.868c0 .108.026.192.078.252.053.06.125.091.217.091a.39.39 0 0 0 .13-.018.712.712 0 0 0 .159-.078.115.115 0 0 1 .06-.018c.025 0 .045.006.061.018a.28.28 0 0 1 .05.056l.249.403c-.121.1-.26.177-.417.228a1.55 1.55 0 0 1-.487.078zm2.146-3.132c.135-.125.282-.227.444-.306.161-.078.35-.117.568-.117.188 0 .355.032.5.096a.99.99 0 0 1 .365.268c.097.116.171.254.222.414.05.16.075.336.075.529v2.194h-.83v-2.194c0-.21-.048-.374-.144-.489-.097-.115-.243-.173-.44-.173a.864.864 0 0 0-.404.097 1.445 1.445 0 0 0-.356.266v2.493h-.83v-4.993h.83v1.915zm5.148.958a.999.999 0 0 0-.046-.304.723.723 0 0 0-.136-.25.633.633 0 0 0-.23-.17.79.79 0 0 0-.324-.062c-.24 0-.429.068-.566.205-.138.136-.226.33-.264.58h1.566zm-1.583.5c.014.177.045.33.094.46.05.128.114.234.195.318.08.084.177.147.287.188.111.042.234.063.368.063.135 0 .25-.016.348-.047a1.63 1.63 0 0 0 .255-.105 4.8 4.8 0 0 0 .192-.104.321.321 0 0 1 .16-.047c.069 0 .12.026.154.078l.239.302a1.383 1.383 0 0 1-.31.27 1.734 1.734 0 0 1-.357.175 1.952 1.952 0 0 1-.38.093 2.719 2.719 0 0 1-.375.026c-.24 0-.462-.04-.668-.119a1.497 1.497 0 0 1-.538-.353 1.655 1.655 0 0 1-.36-.578 2.236 2.236 0 0 1-.13-.798c0-.235.038-.456.114-.663a1.542 1.542 0 0 1 .848-.906c.205-.09.436-.134.694-.134.217 0 .418.035.602.104.183.07.341.17.473.304.132.133.236.297.311.49.075.194.113.416.113.664 0 .126-.014.21-.04.254-.028.044-.08.065-.155.065h-2.134zm6.68-.947a.817.817 0 0 0-.308-.242.907.907 0 0 0-.697 0 .683.683 0 0 0-.259.213 1.026 1.026 0 0 0-.164.363c-.038.147-.057.32-.057.52 0 .201.016.372.048.512.033.14.08.254.14.343.06.088.134.152.222.191a.69.69 0 0 0 .292.059c.172 0 .32-.036.44-.108.121-.071.235-.173.343-.305v-1.546zm.83-2.426v4.993h-.508c-.11 0-.179-.05-.208-.151l-.07-.333a1.74 1.74 0 0 1-.48.387c-.18.098-.39.147-.63.147-.187 0-.36-.039-.517-.117a1.153 1.153 0 0 1-.405-.341 1.635 1.635 0 0 1-.262-.553 2.791 2.791 0 0 1-.092-.753c0-.255.035-.492.104-.712.07-.22.17-.41.3-.571.129-.161.285-.287.466-.378a1.36 1.36 0 0 1 .612-.136c.192 0 .357.03.494.09.136.061.258.143.366.246v-1.818h.83zm2.311 1.492c.256 0 .488.041.698.124.21.083.388.2.537.353.15.152.264.338.345.558.08.22.12.465.12.736 0 .273-.04.52-.12.739a1.505 1.505 0 0 1-.882.917 1.88 1.88 0 0 1-.698.124c-.257 0-.491-.041-.702-.124a1.502 1.502 0 0 1-.885-.917 2.106 2.106 0 0 1-.123-.74c0-.27.041-.516.123-.735.082-.22.197-.406.346-.558a1.53 1.53 0 0 1 .54-.353c.21-.083.444-.124.701-.124zm0 2.913c.287 0 .5-.096.637-.289.138-.193.207-.475.207-.847s-.07-.655-.207-.85c-.138-.195-.35-.292-.637-.292-.29 0-.506.098-.646.294-.14.196-.21.479-.21.848 0 .37.07.652.21.845.14.194.355.291.646.291zm4.772-2.13a.414.414 0 0 1-.073.074.167.167 0 0 1-.102.027.228.228 0 0 1-.124-.04 4 4 0 0 0-.145-.086.919.919 0 0 0-.487-.126.876.876 0 0 0-.383.079.726.726 0 0 0-.274.226 1.022 1.022 0 0 0-.163.358c-.036.14-.054.299-.054.476 0 .183.02.347.06.49.038.144.095.264.169.361a.73.73 0 0 0 .269.222.82.82 0 0 0 .356.076.885.885 0 0 0 .32-.049.95.95 0 0 0 .207-.108 3.4 3.4 0 0 0 .146-.107.22.22 0 0 1 .14-.049c.067 0 .117.026.151.078l.239.302a1.5 1.5 0 0 1-.3.27 1.616 1.616 0 0 1-.69.268 2.507 2.507 0 0 1-.364.026 1.54 1.54 0 0 1-.602-.119 1.42 1.42 0 0 1-.494-.348 1.66 1.66 0 0 1-.334-.56 2.161 2.161 0 0 1-.123-.753c0-.254.037-.488.11-.704a1.59 1.59 0 0 1 .32-.561c.141-.158.316-.282.524-.372.209-.09.448-.134.72-.134.257 0 .483.041.677.124.193.083.367.202.522.356l-.218.303zm3.706-.73v3.448h-.508c-.11 0-.179-.05-.208-.151l-.057-.276c-.141.144-.297.26-.467.348a1.28 1.28 0 0 1-.602.133c-.188 0-.354-.032-.499-.096a1 1 0 0 1-.364-.27 1.184 1.184 0 0 1-.224-.415 1.756 1.756 0 0 1-.075-.53v-2.19h.83v2.19c0 .21.049.374.146.49.097.115.244.172.438.172a.876.876 0 0 0 .404-.095 1.41 1.41 0 0 0 .356-.264v-2.493h.83zm.786 3.448v-3.447h.507c.108 0 .178.05.212.15l.054.256c.06-.067.124-.129.19-.185a1.146 1.146 0 0 1 .454-.24c.085-.023.18-.035.283-.035.217 0 .396.059.536.176.14.118.245.274.314.469a1.052 1.052 0 0 1 .467-.494c.097-.051.199-.09.308-.114.108-.025.218-.037.327-.037.19 0 .36.029.508.087a.973.973 0 0 1 .373.256c.1.112.177.248.23.41.052.16.079.346.079.554v2.194h-.83v-2.194c0-.22-.048-.385-.145-.496-.096-.11-.237-.166-.423-.166a.632.632 0 0 0-.237.044.564.564 0 0 0-.32.332.804.804 0 0 0-.048.286v2.194h-.833v-2.194c0-.23-.047-.399-.14-.504-.093-.105-.229-.158-.408-.158a.67.67 0 0 0-.337.089 1.1 1.1 0 0 0-.291.244v2.523h-.83zm7.815-2.12a.999.999 0 0 0-.045-.304.723.723 0 0 0-.136-.25.633.633 0 0 0-.23-.17.79.79 0 0 0-.325-.062c-.24 0-.428.068-.566.205-.137.136-.225.33-.263.58h1.565zm-1.582.5c.013.177.045.33.094.46.05.128.114.234.195.318a.75.75 0 0 0 .287.188c.11.042.234.063.368.063.134 0 .25-.016.348-.047a1.63 1.63 0 0 0 .255-.105 4.8 4.8 0 0 0 .192-.104.321.321 0 0 1 .16-.047c.069 0 .12.026.154.078l.238.302a1.383 1.383 0 0 1-.309.27 1.734 1.734 0 0 1-.358.175c-.124.044-.25.075-.38.093a2.719 2.719 0 0 1-.374.026c-.24 0-.463-.04-.669-.119a1.497 1.497 0 0 1-.537-.353 1.655 1.655 0 0 1-.36-.578 2.236 2.236 0 0 1-.13-.798c0-.235.037-.456.113-.663a1.542 1.542 0 0 1 .848-.906c.206-.09.437-.134.695-.134.217 0 .417.035.601.104.184.07.342.17.474.304.132.133.236.297.31.49.076.194.113.416.113.664 0 .126-.013.21-.04.254-.027.044-.078.065-.155.065h-2.133zm3.692-1.404c.07-.07.143-.134.22-.193a1.39 1.39 0 0 1 .523-.249c.099-.023.206-.035.323-.035.188 0 .355.032.5.096a.99.99 0 0 1 .365.268c.097.116.171.254.221.414.05.16.076.336.076.529v2.194h-.83v-2.194c0-.21-.048-.374-.144-.489-.097-.115-.243-.173-.44-.173a.864.864 0 0 0-.404.097 1.445 1.445 0 0 0-.356.266v2.493h-.83v-3.447h.508c.107 0 .178.05.211.15l.057.273zm4.083 3.078c-.3 0-.53-.085-.69-.254-.16-.169-.24-.403-.24-.7v-1.926h-.354a.162.162 0 0 1-.114-.043c-.031-.03-.047-.073-.047-.131v-.33l.554-.09.175-.941a.184.184 0 0 1 .064-.104.19.19 0 0 1 .12-.037h.431v1.085h.92v.591h-.92v1.868c0 .108.026.192.079.252.053.06.125.091.217.091a.39.39 0 0 0 .129-.018.712.712 0 0 0 .16-.078.115.115 0 0 1 .06-.018c.025 0 .045.006.06.018a.28.28 0 0 1 .051.056l.249.403c-.121.1-.26.177-.417.228a1.55 1.55 0 0 1-.487.078z" id="Open-the-document" fill="#FFF"/><rect id="Rectangle-6" fill="#D8D8D8" opacity=".361" x="112.896" y="141.696" width="51.84" height="3.456" rx="1.728"/><g id="Group-256-Copy-2" transform="translate(124.416 24.192)"><g id="Group-5"><mask id="mask-16" fill="#fff"><use xlink:href="#path-15"/></mask><use id="Fill-254" fill="url(#linearGradient-14)" xlink:href="#path-15"/><path d="M23.481.305v5.917c0 .63.5 1.134 1.125 1.134h5.877c.25 0 .5-.252.625-.378 0-.252-.125-.504-.375-.756L24.731.053a1.344 1.344 0 0 0-.875-.378.694.694 0 0 0-.375.63" id="Fill-262" fill="#4648AF" mask="url(#mask-16)"/></g><path d="M13.685 17.92v-1.544a1.88 1.88 0 0 1 1.906-1.902 1.88 1.88 0 0 1 1.907 1.902v1.545h-3.813zm5.123 0c.596 0 1.073.476.953 1.07v4.516c0 .595-.476 1.07-1.072 1.07h-6.314a1.067 1.067 0 0 1-1.072-1.07V18.99c0-.594.476-1.07 1.072-1.07h.119v-1.544a2.946 2.946 0 0 1 2.979-2.97 2.946 2.946 0 0 1 2.978 2.97v1.545h.357zm-4.17 3.447a.952.952 0 0 0 1.907 0 .952.952 0 0 0-.954-.95.952.952 0 0 0-.953.95z" id="Combined-Shape" fill="#FFF"/></g></g></g></g><g id="Group-4" transform="translate(10.752 10.752)"><ellipse id="Oval-21" fill="#03BCFF" cx="2.383" cy="2.477" rx="2.383" ry="2.477"/><ellipse id="Oval-21-Copy" fill="#1DA7FC" cx="11.123" cy="2.477" rx="2.383" ry="2.477"/><ellipse id="Oval-21-Copy-2" fill="#438BF9" cx="20.657" cy="2.477" rx="2.383" ry="2.477"/></g></g></g></g></svg>