<svg width="383" height="205" xmlns="http://www.w3.org/2000/svg" xmlns:xlink="http://www.w3.org/1999/xlink"><defs><filter x="-7.8%" y="-15.3%" width="115.6%" height="130.7%" filterUnits="objectBoundingBox" id="filter-1"><feGaussianBlur stdDeviation="1.344" in="SourceGraphic"/></filter><linearGradient x1="13.009%" y1="16.106%" x2="100%" y2="93.898%" id="linearGradient-2"><stop stop-color="#08ABFC" offset="0%"/><stop stop-color="#A6DFFB" offset="100%"/></linearGradient><path id="path-3" d="M22.117 21l5.279-19.502 29.47 16.978-5.412 19.505z"/><filter x="-4.3%" y="-4.1%" width="108.6%" height="108.2%" filterUnits="objectBoundingBox" id="filter-4"><feOffset in="SourceAlpha" result="shadowOffsetOuter1"/><feGaussianBlur stdDeviation=".5" in="shadowOffsetOuter1" result="shadowBlurOuter1"/><feComposite in="shadowBlurOuter1" in2="SourceAlpha" operator="out" result="shadowBlurOuter1"/><feColorMatrix values="0 0 0 0 0 0 0 0 0 0 0 0 0 0 0 0 0 0 0.148154438 0" in="shadowBlurOuter1"/></filter><filter x="-7.8%" y="-15.3%" width="115.6%" height="130.7%" filterUnits="objectBoundingBox" id="filter-5"><feGaussianBlur stdDeviation="1.344" in="SourceGraphic"/></filter><path id="path-6" d="M22.117 21l5.279-19.502 29.47 16.978-5.412 19.505z"/><filter x="-4.3%" y="-4.1%" width="108.6%" height="108.2%" filterUnits="objectBoundingBox" id="filter-7"><feOffset in="SourceAlpha" result="shadowOffsetOuter1"/><feGaussianBlur stdDeviation=".5" in="shadowOffsetOuter1" result="shadowBlurOuter1"/><feComposite in="shadowBlurOuter1" in2="SourceAlpha" operator="out" result="shadowBlurOuter1"/><feColorMatrix values="0 0 0 0 0 0 0 0 0 0 0 0 0 0 0 0 0 0 0.148154438 0" in="shadowBlurOuter1"/></filter><linearGradient x1="109.179%" y1="0%" x2="-72.819%" y2="100%" id="linearGradient-8"><stop stop-color="#3975FB" offset="0%"/><stop stop-color="#0ACDFA" offset="100%"/></linearGradient><path d="M.04.046A6.277 6.277 0 0 0 6.303 5.84 6.277 6.277 0 0 0 12.57.046H.04z" id="path-9"/><path d="M.063 5.838h12.53A6.277 6.277 0 0 0 6.33.043 6.277 6.277 0 0 0 .063 5.838" id="path-11"/><path d="M.063.044A6.277 6.277 0 0 0 6.33 5.84h12.53A6.277 6.277 0 0 0 12.594.044H.064z" id="path-13"/></defs><g id="Page-1" stroke="none" stroke-width="1" fill="none" fill-rule="evenodd"><g id="Chiffrement-end-to-end" transform="translate(-278 -130)"><g id="Group-2" transform="translate(281 133)"><ellipse id="Oval-6" stroke="#F3F6FF" stroke-width="6" cx="188.5" cy="99.5" rx="133.5" ry="99.5"/><g id="Group" transform="translate(0 43)"><circle id="Oval-8" stroke="#F3F6FF" stroke-width="3" fill="#FFF" cx="55" cy="55" r="56.5"/><g id="Illustration-Copy-2" opacity=".7" transform="matrix(-1 0 0 1 93 21)"><g id="Group-29"><g id="Group-30" transform="translate(.405)"><path id="Rectangle-26" fill="#3A6FD7" opacity=".155" filter="url(#filter-1)" transform="rotate(15 37.317 47.81)" d="M24.265 36.24l38.87-1.578-13.27 24.932L11.5 60.96z"/><g id="Group-27" transform="rotate(-17 57.663 8.095)"><path d="M.689 33.117s-1.103 1.075-.422 1.516c.682.44 30.252 18.292 30.252 18.292l.03-1.616L.689 33.117z" id="Path-4" fill="url(#linearGradient-2)"/><path d="M30.704 39.084s-.538 1.212.143 1.653c.682.44 21.26 12.19 21.26 12.19l.017-1.592-21.42-12.25z" id="Path-4-Copy" fill="url(#linearGradient-2)" transform="matrix(-1 0 0 1 82.626 0)"/><path id="Path-5" fill="url(#linearGradient-2)" d="M.684 33.117l20.404-11.631 30.862 17.6-21.393 12.225z"/><path id="Path-6" fill="url(#linearGradient-2)" d="M21.087 21.485L26.925.564l30.81 17.532-5.782 20.992z"/><g id="Path-6-Copy"><use fill="#000" filter="url(#filter-4)" xlink:href="#path-3"/><use fill-opacity=".24" fill="#D0021B" xlink:href="#path-3"/></g><path d="M51.947 39.09c.686-.401 1.196-1.341 1.196-1.341l.01.143a.947.947 0 0 1 .026-.272l5.629-20.135-1.073.614-5.788 20.99z" id="Path-7" fill="url(#linearGradient-2)"/><path id="Path-8" fill="url(#linearGradient-2)" d="M26.925.565L28.17.06l30.64 17.424-1.07.615z"/><path d="M16.723 29.799c.213-.388.746-.7 1.194-.698l30.41.161c.447.003.633.321.422.702l-4.153 7.495c-.214.386-.746.697-1.194.695l-30.407-.11c-.446-.001-.633-.32-.422-.704l4.15-7.541z" id="Rectangle-23" fill="#139CE1" transform="rotate(30 30.66 33.628)"/><path id="Rectangle-23-Copy" fill="#139CE1" transform="rotate(30 21.102 39.463)" d="M17.387 36.498l10.671.142-2.687 5.789-11.226-.184z"/></g><rect id="Rectangle-25" fill="url(#linearGradient-2)" transform="rotate(12 29.862 32.223)" x="28.984" y="31.752" width="1.756" height="1" rx=".5"/><rect id="Rectangle-25-Copy" fill="url(#linearGradient-2)" transform="rotate(12 56.74 38.405)" x="55.862" y="37.934" width="1.756" height="1" rx=".5"/></g></g></g></g><g id="Group-Copy" transform="translate(267 46)"><circle id="Oval-8" stroke="#F3F6FF" stroke-width="3" fill="#FFF" cx="55" cy="55" r="56.5"/><g id="Illustration-Copy-2" opacity=".7" transform="matrix(-1 0 0 1 93 21)"><g id="Group-29"><g id="Group-30" transform="translate(.405)"><path id="Rectangle-26" fill="#3A6FD7" opacity=".155" filter="url(#filter-5)" transform="rotate(15 37.317 47.81)" d="M24.265 36.24l38.87-1.578-13.27 24.932L11.5 60.96z"/><g id="Group-27" transform="rotate(-17 57.663 8.095)"><path d="M.689 33.117s-1.103 1.075-.422 1.516c.682.44 30.252 18.292 30.252 18.292l.03-1.616L.689 33.117z" id="Path-4" fill="url(#linearGradient-2)"/><path d="M30.704 39.084s-.538 1.212.143 1.653c.682.44 21.26 12.19 21.26 12.19l.017-1.592-21.42-12.25z" id="Path-4-Copy" fill="url(#linearGradient-2)" transform="matrix(-1 0 0 1 82.626 0)"/><path id="Path-5" fill="url(#linearGradient-2)" d="M.684 33.117l20.404-11.631 30.862 17.6-21.393 12.225z"/><path id="Path-6" fill="url(#linearGradient-2)" d="M21.087 21.485L26.925.564l30.81 17.532-5.782 20.992z"/><g id="Path-6-Copy"><use fill="#000" filter="url(#filter-7)" xlink:href="#path-6"/><use fill-opacity=".24" fill="#D0021B" xlink:href="#path-6"/></g><path d="M51.947 39.09c.686-.401 1.196-1.341 1.196-1.341l.01.143a.947.947 0 0 1 .026-.272l5.629-20.135-1.073.614-5.788 20.99z" id="Path-7" fill="url(#linearGradient-2)"/><path id="Path-8" fill="url(#linearGradient-2)" d="M26.925.565L28.17.06l30.64 17.424-1.07.615z"/><path d="M16.723 29.799c.213-.388.746-.7 1.194-.698l30.41.161c.447.003.633.321.422.702l-4.153 7.495c-.214.386-.746.697-1.194.695l-30.407-.11c-.446-.001-.633-.32-.422-.704l4.15-7.541z" id="Rectangle-23" fill="#139CE1" transform="rotate(30 30.66 33.628)"/><path id="Rectangle-23-Copy" fill="#139CE1" transform="rotate(30 21.102 39.463)" d="M17.387 36.498l10.671.142-2.687 5.789-11.226-.184z"/></g><rect id="Rectangle-25" fill="url(#linearGradient-2)" transform="rotate(12 29.862 32.223)" x="28.984" y="31.752" width="1.756" height="1" rx=".5"/><rect id="Rectangle-25-Copy" fill="url(#linearGradient-2)" transform="rotate(12 56.74 38.405)" x="55.862" y="37.934" width="1.756" height="1" rx=".5"/></g></g></g></g><g id="lock-(1)" transform="translate(164 68)"><path d="M5.502 19.224v6.682H5.06C2.27 25.906 0 28.181 0 30.98v27.946C0 61.725 2.269 64 5.06 64h38.88c2.791 0 5.06-2.275 5.06-5.074v-27.96c0-2.798-2.269-5.073-5.06-5.073l-.13-6.683C43.81 8.618 35.219 0 24.657 0 14.095.013 5.502 8.631 5.502 19.224zm8.384 0c0-5.964 4.838-10.802 10.77-10.802 5.946 0 10.77 4.851 10.77 10.802v6.682h-21.54v-6.682z" id="Shape" fill="url(#linearGradient-8)" fill-rule="nonzero"/><g id="Group-21" transform="translate(15.077 35.765)"><g id="Group-9" transform="translate(6.29 13.693)"><mask id="mask-10" fill="#fff"><use xlink:href="#path-9"/></mask><path d="M.04.046A6.277 6.277 0 0 0 6.303 5.84 6.277 6.277 0 0 0 12.57.046H.04z" id="Fill-7" fill="#FFF" mask="url(#mask-10)"/></g><g id="Group-12" transform="translate(0 .045)"><mask id="mask-12" fill="#fff"><use xlink:href="#path-11"/></mask><path d="M.063 5.838h12.53A6.277 6.277 0 0 0 6.33.043 6.277 6.277 0 0 0 .063 5.838" id="Fill-10" fill="#FFF" mask="url(#mask-12)"/></g><g id="Group-15" transform="translate(0 6.869)"><mask id="mask-14" fill="#fff"><use xlink:href="#path-13"/></mask><path d="M.063.044A6.277 6.277 0 0 0 6.33 5.84h12.53A6.277 6.277 0 0 0 12.594.044H.064z" id="Fill-13" fill="#FFF" mask="url(#mask-14)"/></g></g></g></g></g></g></svg>