<svg width="611" height="647" xmlns="http://www.w3.org/2000/svg" xmlns:xlink="http://www.w3.org/1999/xlink"><defs><linearGradient x1="20.573%" y1="-4.83%" x2="86.747%" y2="107.679%" id="linearGradient-1"><stop stop-color="#3975FB" offset="0%"/><stop stop-color="#0ACDFA" offset="100%"/></linearGradient><rect id="path-2" x="0" y="0" width="378" height="265.2" rx="5"/><filter x="-11.9%" y="-17%" width="126.5%" height="137.7%" filterUnits="objectBoundingBox" id="filter-3"><feMorphology radius="1" operator="dilate" in="SourceAlpha" result="shadowSpreadOuter1"/><feOffset dx="5" dy="5" in="shadowSpreadOuter1" result="shadowOffsetOuter1"/><feGaussianBlur stdDeviation="15.5" in="shadowOffsetOuter1" result="shadowBlurOuter1"/><feComposite in="shadowBlurOuter1" in2="SourceAlpha" operator="out" result="shadowBlurOuter1"/><feColorMatrix values="0 0 0 0 0.235294118 0 0 0 0 0.615686275 0 0 0 0 0.97254902 0 0 0 0.0859091938 0" in="shadowBlurOuter1"/></filter><path d="M.028.034c.175 2.383 2.13 4.262 4.517 4.262 2.387 0 4.342-1.879 4.517-4.262H.028z" id="path-4"/><linearGradient x1="0%" y1="50%" x2="100%" y2="50%" id="linearGradient-6"><stop stop-color="#17B3FB" offset="0%"/><stop stop-color="#01DBF9" offset="100%"/></linearGradient><path d="M.046 4.294h9.033C8.904 1.911 6.95.032 4.563.032 2.175.032.22 1.91.046 4.294" id="path-7"/><linearGradient x1="0%" y1="50%" x2="100%" y2="50%" id="linearGradient-9"><stop stop-color="#445DFB" offset="0%"/><stop stop-color="#2D8CFB" offset="100%"/></linearGradient><path d="M.046.033c.175 2.383 2.13 4.262 4.517 4.262h9.033C13.421 1.912 11.466.033 9.08.033H.046z" id="path-10"/><linearGradient x1="0%" y1="50%" x2="100%" y2="50%" id="linearGradient-12"><stop stop-color="#2D8CFB" offset="0%"/><stop stop-color="#17B3FB" offset="100%"/></linearGradient><path id="path-13" d="M.032.008h6.62v10.535H.032z"/><linearGradient x1="109.179%" y1="0%" x2="-72.819%" y2="100%" id="linearGradient-15"><stop stop-color="#3975FB" offset="0%"/><stop stop-color="#0ACDFA" offset="100%"/></linearGradient><path d="M3.745.487C1.95.487.515 1.965.515 3.813v31.122c0 1.847 1.435 3.325 3.23 3.325h24.163c1.794 0 3.229-1.478 3.229-3.325V7.755c0-.37-.12-.617-.358-.863L24.798.856a1.273 1.273 0 0 0-.838-.369H3.745z" id="path-16"/></defs><g id="Artboard-Copy-9" stroke="none" stroke-width="1" fill="none" fill-rule="evenodd"><g id="Group-3" transform="translate(95 168)"><g id="Group-2"><path d="M0 0h5.64v5.64H0V0zm0 14.664h5.64v5.64H0v-5.64zm0 14.664h5.64v5.64H0v-5.64zm0 14.664h5.64v5.64H0v-5.64zm0 14.664h5.64v5.64H0v-5.64zM0 73.32h5.64v5.64H0v-5.64zm0 14.664h5.64v5.64H0v-5.64zM14.664 0h5.64v5.64h-5.64V0zm0 14.664h5.64v5.64h-5.64v-5.64zm0 14.664h5.64v5.64h-5.64v-5.64zm0 14.664h5.64v5.64h-5.64v-5.64zm0 14.664h5.64v5.64h-5.64v-5.64zm0 14.664h5.64v5.64h-5.64v-5.64zm0 14.664h5.64v5.64h-5.64v-5.64zM29.328 0h5.64v5.64h-5.64V0zm0 14.664h5.64v5.64h-5.64v-5.64zm0 14.664h5.64v5.64h-5.64v-5.64zm0 14.664h5.64v5.64h-5.64v-5.64zm0 14.664h5.64v5.64h-5.64v-5.64zm0 14.664h5.64v5.64h-5.64v-5.64zm0 14.664h5.64v5.64h-5.64v-5.64zM43.992 0h5.64v5.64h-5.64V0zm0 14.664h5.64v5.64h-5.64v-5.64zm0 14.664h5.64v5.64h-5.64v-5.64zm0 14.664h5.64v5.64h-5.64v-5.64zm0 14.664h5.64v5.64h-5.64v-5.64zm0 14.664h5.64v5.64h-5.64v-5.64zm0 14.664h5.64v5.64h-5.64v-5.64zM58.656 0h5.64v5.64h-5.64V0zM73.32 0h5.64v5.64h-5.64V0zm14.664 0h5.64v5.64h-5.64V0zM58.656 14.664h5.64v5.64h-5.64v-5.64zm14.664 0h5.64v5.64h-5.64v-5.64zm14.664 0h5.64v5.64h-5.64v-5.64zM58.656 29.328h5.64v5.64h-5.64v-5.64zm14.664 0h5.64v5.64h-5.64v-5.64zm14.664 0h5.64v5.64h-5.64v-5.64zM58.656 43.992h5.64v5.64h-5.64v-5.64zm14.664 0h5.64v5.64h-5.64v-5.64zm14.664 0h5.64v5.64h-5.64v-5.64zM58.656 58.656h5.64v5.64h-5.64v-5.64zm14.664 0h5.64v5.64h-5.64v-5.64zm14.664 0h5.64v5.64h-5.64v-5.64zM58.656 73.32h5.64v5.64h-5.64v-5.64zm14.664 0h5.64v5.64h-5.64v-5.64zm14.664 0h5.64v5.64h-5.64v-5.64zM58.656 87.984h5.64v5.64h-5.64v-5.64zm14.664 0h5.64v5.64h-5.64v-5.64zm14.664 0h5.64v5.64h-5.64v-5.64zM102.648 0h5.64v5.64h-5.64V0zm0 14.664h5.64v5.64h-5.64v-5.64zm0 14.664h5.64v5.64h-5.64v-5.64zm0 14.664h5.64v5.64h-5.64v-5.64zm0 14.664h5.64v5.64h-5.64v-5.64zm0 14.664h5.64v5.64h-5.64v-5.64zm0 14.664h5.64v5.64h-5.64v-5.64zM117.312 0h5.64v5.64h-5.64V0zm0 14.664h5.64v5.64h-5.64v-5.64zm0 14.664h5.64v5.64h-5.64v-5.64zm0 14.664h5.64v5.64h-5.64v-5.64zm0 14.664h5.64v5.64h-5.64v-5.64zm0 14.664h5.64v5.64h-5.64v-5.64zm0 14.664h5.64v5.64h-5.64v-5.64zM131.976 0h5.64v5.64h-5.64V0zm0 14.664h5.64v5.64h-5.64v-5.64zm0 14.664h5.64v5.64h-5.64v-5.64zm0 14.664h5.64v5.64h-5.64v-5.64zm0 14.664h5.64v5.64h-5.64v-5.64zm0 14.664h5.64v5.64h-5.64v-5.64zm0 14.664h5.64v5.64h-5.64v-5.64zM146.64 0h5.64v5.64h-5.64V0zm0 14.664h5.64v5.64h-5.64v-5.64zm0 14.664h5.64v5.64h-5.64v-5.64zm0 14.664h5.64v5.64h-5.64v-5.64zm0 14.664h5.64v5.64h-5.64v-5.64zm0 14.664h5.64v5.64h-5.64v-5.64zm0 14.664h5.64v5.64h-5.64v-5.64zM161.304 0h5.64v5.64h-5.64V0zm14.664 0h5.64v5.64h-5.64V0zm14.664 0h5.64v5.64h-5.64V0zm-29.328 14.664h5.64v5.64h-5.64v-5.64zm14.664 0h5.64v5.64h-5.64v-5.64zm14.664 0h5.64v5.64h-5.64v-5.64zm-29.328 14.664h5.64v5.64h-5.64v-5.64zm14.664 0h5.64v5.64h-5.64v-5.64zm14.664 0h5.64v5.64h-5.64v-5.64zm-29.328 14.664h5.64v5.64h-5.64v-5.64zm14.664 0h5.64v5.64h-5.64v-5.64zm14.664 0h5.64v5.64h-5.64v-5.64zm-29.328 14.664h5.64v5.64h-5.64v-5.64zm14.664 0h5.64v5.64h-5.64v-5.64zm14.664 0h5.64v5.64h-5.64v-5.64zM161.304 73.32h5.64v5.64h-5.64v-5.64zm14.664 0h5.64v5.64h-5.64v-5.64zm14.664 0h5.64v5.64h-5.64v-5.64zm-29.328 14.664h5.64v5.64h-5.64v-5.64zm14.664 0h5.64v5.64h-5.64v-5.64zm14.664 0h5.64v5.64h-5.64v-5.64zm-87.984 14.664h5.64v5.64h-5.64v-5.64zm0 14.664h5.64v5.64h-5.64v-5.64zm0 14.664h5.64v5.64h-5.64v-5.64zm0 14.664h5.64v5.64h-5.64v-5.64zm0 14.664h5.64v5.64h-5.64v-5.64zm0 14.664h5.64v5.64h-5.64v-5.64zm0 14.664h5.64v5.64h-5.64v-5.64zm14.664-87.984h5.64v5.64h-5.64v-5.64zm0 14.664h5.64v5.64h-5.64v-5.64zm0 14.664h5.64v5.64h-5.64v-5.64zm0 14.664h5.64v5.64h-5.64v-5.64zm0 14.664h5.64v5.64h-5.64v-5.64zm0 14.664h5.64v5.64h-5.64v-5.64zm0 14.664h5.64v5.64h-5.64v-5.64zm14.664-87.984h5.64v5.64h-5.64v-5.64zm0 14.664h5.64v5.64h-5.64v-5.64zm0 14.664h5.64v5.64h-5.64v-5.64zm0 14.664h5.64v5.64h-5.64v-5.64zm0 14.664h5.64v5.64h-5.64v-5.64zm0 14.664h5.64v5.64h-5.64v-5.64zm0 14.664h5.64v5.64h-5.64v-5.64zm14.664-87.984h5.64v5.64h-5.64v-5.64zm0 14.664h5.64v5.64h-5.64v-5.64zm0 14.664h5.64v5.64h-5.64v-5.64zm0 14.664h5.64v5.64h-5.64v-5.64zm0 14.664h5.64v5.64h-5.64v-5.64zm0 14.664h5.64v5.64h-5.64v-5.64zm0 14.664h5.64v5.64h-5.64v-5.64zm14.664-87.984h5.64v5.64h-5.64v-5.64zm14.664 0h5.64v5.64h-5.64v-5.64zm14.664 0h5.64v5.64h-5.64v-5.64zm-29.328 14.664h5.64v5.64h-5.64v-5.64zm14.664 0h5.64v5.64h-5.64v-5.64zm14.664 0h5.64v5.64h-5.64v-5.64zm-29.328 14.664h5.64v5.64h-5.64v-5.64zm14.664 0h5.64v5.64h-5.64v-5.64zm14.664 0h5.64v5.64h-5.64v-5.64zm-29.328 14.664h5.64v5.64h-5.64v-5.64zm14.664 0h5.64v5.64h-5.64v-5.64zm14.664 0h5.64v5.64h-5.64v-5.64zm-29.328 14.664h5.64v5.64h-5.64v-5.64zm14.664 0h5.64v5.64h-5.64v-5.64zm14.664 0h5.64v5.64h-5.64v-5.64zm-29.328 14.664h5.64v5.64h-5.64v-5.64zm14.664 0h5.64v5.64h-5.64v-5.64zm14.664 0h5.64v5.64h-5.64v-5.64zm-29.328 14.664h5.64v5.64h-5.64v-5.64zm14.664 0h5.64v5.64h-5.64v-5.64zm14.664 0h5.64v5.64h-5.64v-5.64zM0 102.648h5.64v5.64H0v-5.64zm0 14.664h5.64v5.64H0v-5.64zm0 14.664h5.64v5.64H0v-5.64zm0 14.664h5.64v5.64H0v-5.64zm0 14.664h5.64v5.64H0v-5.64zm0 14.664h5.64v5.64H0v-5.64zm0 14.664h5.64v5.64H0v-5.64zm14.664-87.984h5.64v5.64h-5.64v-5.64zm0 14.664h5.64v5.64h-5.64v-5.64zm0 14.664h5.64v5.64h-5.64v-5.64zm0 14.664h5.64v5.64h-5.64v-5.64zm0 14.664h5.64v5.64h-5.64v-5.64zm0 14.664h5.64v5.64h-5.64v-5.64zm0 14.664h5.64v5.64h-5.64v-5.64zm14.664-87.984h5.64v5.64h-5.64v-5.64zm0 14.664h5.64v5.64h-5.64v-5.64zm0 14.664h5.64v5.64h-5.64v-5.64zm0 14.664h5.64v5.64h-5.64v-5.64zm0 14.664h5.64v5.64h-5.64v-5.64zm0 14.664h5.64v5.64h-5.64v-5.64zm0 14.664h5.64v5.64h-5.64v-5.64zm14.664-87.984h5.64v5.64h-5.64v-5.64zm0 14.664h5.64v5.64h-5.64v-5.64zm0 14.664h5.64v5.64h-5.64v-5.64zm0 14.664h5.64v5.64h-5.64v-5.64zm0 14.664h5.64v5.64h-5.64v-5.64zm0 14.664h5.64v5.64h-5.64v-5.64zm0 14.664h5.64v5.64h-5.64v-5.64zm14.664-87.984h5.64v5.64h-5.64v-5.64zm14.664 0h5.64v5.64h-5.64v-5.64zm14.664 0h5.64v5.64h-5.64v-5.64zm-29.328 14.664h5.64v5.64h-5.64v-5.64zm14.664 0h5.64v5.64h-5.64v-5.64zm14.664 0h5.64v5.64h-5.64v-5.64zm-29.328 14.664h5.64v5.64h-5.64v-5.64zm14.664 0h5.64v5.64h-5.64v-5.64zm14.664 0h5.64v5.64h-5.64v-5.64zM58.656 146.64h5.64v5.64h-5.64v-5.64zm14.664 0h5.64v5.64h-5.64v-5.64zm14.664 0h5.64v5.64h-5.64v-5.64zm-29.328 14.664h5.64v5.64h-5.64v-5.64zm14.664 0h5.64v5.64h-5.64v-5.64zm14.664 0h5.64v5.64h-5.64v-5.64zm-29.328 14.664h5.64v5.64h-5.64v-5.64zm14.664 0h5.64v5.64h-5.64v-5.64zm14.664 0h5.64v5.64h-5.64v-5.64zm-29.328 14.664h5.64v5.64h-5.64v-5.64zm14.664 0h5.64v5.64h-5.64v-5.64zm14.664 0h5.64v5.64h-5.64v-5.64z" id="Combined-Shape" fill="url(#linearGradient-1)" opacity=".298"/><g id="Group-18" transform="translate(43.4 43.4)"><g id="Rectangle-39"><use fill="#000" filter="url(#filter-3)" xlink:href="#path-2"/><rect stroke="#EEEFF2" fill="#FCFCFC" x="-.5" y="-.5" width="379" height="266.2" rx="5"/></g><path id="Rectangle-4" stroke="#EEEFF2" fill="#FFF" transform="matrix(1 0 0 -1 0 86.4)" d="M-.5 27.1h379v32.2H-.5z"/><g id="Logo-seald" transform="translate(19.2 36)"><g id="Group-21"><g id="Group-9" transform="translate(4.534 10.072)"><mask id="mask-5" fill="#fff"><use xlink:href="#path-4"/></mask><path d="M.028.034c.175 2.383 2.13 4.262 4.517 4.262 2.387 0 4.342-1.879 4.517-4.262H.028z" id="Fill-7" fill="url(#linearGradient-6)" mask="url(#mask-5)"/></g><g id="Group-12" transform="translate(0 .033)"><mask id="mask-8" fill="#fff"><use xlink:href="#path-7"/></mask><path d="M.046 4.294h9.033C8.904 1.911 6.95.032 4.563.032 2.175.032.22 1.91.046 4.294" id="Fill-10" fill="url(#linearGradient-9)" mask="url(#mask-8)"/></g><g id="Group-15" transform="translate(0 5.053)"><mask id="mask-11" fill="#fff"><use xlink:href="#path-10"/></mask><path d="M.046.033c.175 2.383 2.13 4.262 4.517 4.262h9.033C13.421 1.912 11.466.033 9.08.033H.046z" id="Fill-13" fill="url(#linearGradient-12)" mask="url(#mask-11)"/></g></g><g id="Group-27" transform="translate(16.742 .388)"><path d="M2.322 10.543c-.993 0-1.74-.157-2.24-.472a.125.125 0 0 1-.055-.118l.122-1.19a.12.12 0 0 1 .183-.091c.075.046.16.092.253.138a4.573 4.573 0 0 0 1.11.381c.2.042.39.063.572.063.381 0 .65-.074.804-.222a.72.72 0 0 0 .231-.54c0-.204-.054-.359-.163-.465a1.377 1.377 0 0 0-.47-.277 10.918 10.918 0 0 0-.742-.25 6.05 6.05 0 0 1-.981-.409 1.66 1.66 0 0 1-.613-.575c-.136-.226-.218-.543-.245-.95 0-.286.047-.56.143-.824a1.92 1.92 0 0 1 .442-.7c.2-.203.457-.367.77-.492.438-.175 1.006-.227 1.703-.157.151.015.303.04.451.072.47.102.823.225 1.059.37.04.024.06.07.055.118l-.119 1.165a.12.12 0 0 1-.192.086 2.893 2.893 0 0 0-.648-.379 3.092 3.092 0 0 0-.518-.166 2.378 2.378 0 0 0-.531-.063c-.327 0-.597.063-.81.187a.621.621 0 0 0-.32.576c0 .221.07.388.21.499a2.21 2.21 0 0 0 .572.306l.225.068c.055.019.143.044.266.076l.28.076c.28.083.537.18.769.291.231.111.429.25.592.416.164.167.289.366.375.596.086.231.13.504.13.818 0 1.358-.89 2.038-2.67 2.038" id="Fill-16" fill="#222326"/><path d="M7.685 6.149h2.476c.07 0 .13-.06.124-.132a1.566 1.566 0 0 0-.296-.825c-.201-.277-.511-.415-.931-.415-.42 0-.758.124-1.013.374a1.859 1.859 0 0 0-.48.84.125.125 0 0 0 .12.158m4.109 1.164H7.633a.126.126 0 0 0-.123.15c.107.527.337.93.691 1.209.388.304.827.457 1.32.457.154 0 .322-.014.505-.042a5.587 5.587 0 0 0 1.107-.298c.117-.044.226-.092.328-.142.078-.038.17.019.175.107l.066 1.178c.003.05-.024.1-.069.122-.645.326-1.38.489-2.201.489-.6 0-1.129-.093-1.587-.278a3.355 3.355 0 0 1-1.158-.755 3.108 3.108 0 0 1-.708-1.137 4.139 4.139 0 0 1-.239-1.42c0-.5.075-.966.225-1.4a3.48 3.48 0 0 1 .647-1.144 2.961 2.961 0 0 1 1.029-.77c.404-.184.86-.276 1.368-.276.427 0 .825.071 1.192.215.368.143.686.346.954.61.268.263.477.58.626.949.15.37.225.78.225 1.234 0 .234-.03.513-.09.838a.127.127 0 0 1-.122.104" id="Fill-18" fill="#222326"/><path d="M16.501 8.67V7.285a.126.126 0 0 0-.135-.127c-.216.02-.428.054-.634.1-.25.055-.47.136-.661.242a1.56 1.56 0 0 0-.463.381.798.798 0 0 0-.177.513c0 .555.304.832.913.832.41 0 .781-.153 1.116-.46a.132.132 0 0 0 .041-.096zm2.507.459l-.138 1.302a.124.124 0 0 1-.123.112h-.502c-.673 0-1.157-.225-1.45-.674-.042-.065-.132-.067-.187-.013-.468.458-1.125.687-1.973.687-.281 0-.543-.049-.783-.146a1.825 1.825 0 0 1-.627-.416 1.914 1.914 0 0 1-.415-.651 2.35 2.35 0 0 1-.15-.866c0-.472.136-.865.409-1.179a3.07 3.07 0 0 1 .994-.755 4.91 4.91 0 0 1 1.246-.409 7.876 7.876 0 0 1 1.053-.134.123.123 0 0 0 .117-.134c-.032-.348-.129-.598-.291-.75-.182-.172-.49-.257-.926-.257-.496 0-1.066.15-1.71.45a.123.123 0 0 1-.175-.098l-.122-1.134a.129.129 0 0 1 .073-.13c.816-.38 1.615-.571 2.397-.571 1.643 0 2.465.928 2.465 2.786v1.87c0 .25.007.45.02.597a.975.975 0 0 0 .082.34.268.268 0 0 0 .184.145c.082.019.186.028.314.028h.218z" id="Fill-20" fill="#222326"/><path d="M22.439 9.27l-.123 1.159a.126.126 0 0 1-.125.114h-.5c-.581 0-1.017-.169-1.308-.506-.29-.337-.436-.774-.436-1.31V.136c0-.07.056-.128.126-.128h1.438c.07 0 .125.057.125.128V8.02c0 .268.007.476.02.624.014.148.048.256.103.325.054.07.136.114.245.132a2.3 2.3 0 0 0 .314.026.127.127 0 0 1 .12.143" id="Fill-22" fill="#222326"/><g id="Group-26" transform="translate(23.02)"><mask id="mask-14" fill="#fff"><use xlink:href="#path-13"/></mask><path d="M3.485 4.777c-.543 0-.963.196-1.262.589-.298.392-.447.921-.447 1.587 0 .665.149 1.194.447 1.587.299.393.72.589 1.262.589.525 0 .915-.194 1.173-.582.258-.388.387-.92.387-1.594 0-.675-.129-1.206-.387-1.594-.258-.388-.648-.582-1.173-.582m3.045 5.627H5.172a.123.123 0 0 1-.121-.115l-.02-.273a2.864 2.864 0 0 1-1.661.527c-.536 0-1.01-.093-1.424-.278a2.922 2.922 0 0 1-1.042-.769 3.476 3.476 0 0 1-.647-1.143 4.263 4.263 0 0 1-.225-1.4c0-.5.077-.968.232-1.407.154-.439.374-.82.66-1.144a3.037 3.037 0 0 1 1.05-.762 3.384 3.384 0 0 1 1.396-.277c.53 0 1.003.116 1.416.348.08.045.177-.018.177-.11V.132c0-.068.055-.124.122-.124H6.53c.068 0 .122.056.122.124V10.28a.123.123 0 0 1-.122.124" id="Fill-24" fill="#222326" mask="url(#mask-14)"/></g></g></g><g id="Group" transform="translate(44.4 74.4)"><rect id="Rectangle-5" stroke="#EDEFF2" fill="#FFF" x=".5" y=".5" width="289.4" height="165.8" rx="3.6"/><path d="M83.643 82.164a.352.352 0 0 1 .254.108l.723.762a3.004 3.004 0 0 1-1.19.936c-.478.211-1.042.316-1.694.316-.597 0-1.133-.101-1.606-.305a3.477 3.477 0 0 1-1.204-.842 3.71 3.71 0 0 1-.759-1.274 4.706 4.706 0 0 1-.264-1.602c0-.586.095-1.125.286-1.617.19-.491.459-.915.804-1.272.346-.356.76-.633 1.242-.831a4.157 4.157 0 0 1 1.593-.297 4.078 4.078 0 0 1 1.566.294 3.342 3.342 0 0 1 1.134.753l-.615.827a.784.784 0 0 1-.14.137.365.365 0 0 1-.227.062.405.405 0 0 1-.184-.043 2.03 2.03 0 0 1-.184-.105 32.386 32.386 0 0 0-.213-.135 1.637 1.637 0 0 0-.275-.135 2.276 2.276 0 0 0-.373-.105 2.542 2.542 0 0 0-.5-.044c-.302 0-.578.056-.828.168-.25.111-.467.274-.648.489a2.26 2.26 0 0 0-.422.788 3.518 3.518 0 0 0-.148 1.066c0 .404.055.762.165 1.075.11.313.259.577.448.791a1.918 1.918 0 0 0 1.471.656c.166 0 .317-.008.454-.024s.264-.043.383-.081c.12-.038.23-.088.335-.151.105-.063.21-.143.319-.24a.639.639 0 0 1 .14-.09.368.368 0 0 1 .157-.035zm3.202-6.048V84.2H85.17v-8.084h1.674zm2.792 2.484v5.6h-1.674v-5.6h1.674zm.172-1.533a.885.885 0 0 1-.08.375.988.988 0 0 1-.222.308 1.084 1.084 0 0 1-.327.21 1.014 1.014 0 0 1-.78 0 1.078 1.078 0 0 1-.316-.21.972.972 0 0 1-.216-.308.91.91 0 0 1-.078-.375c0-.137.026-.265.078-.384a.995.995 0 0 1 .532-.524 1.045 1.045 0 0 1 1.107.21c.094.091.167.195.221.314a.916.916 0 0 1 .082.384zm5.06 2.862a.926.926 0 0 1-.145.145.322.322 0 0 1-.2.054.43.43 0 0 1-.224-.059l-.224-.132a1.7 1.7 0 0 0-.292-.133 1.247 1.247 0 0 0-.416-.059c-.205 0-.382.038-.532.113a.985.985 0 0 0-.37.324 1.48 1.48 0 0 0-.216.516 3.08 3.08 0 0 0-.07.689c0 .536.104.948.31 1.236a.996.996 0 0 0 .857.432c.194 0 .348-.024.461-.073a1.4 1.4 0 0 0 .29-.162c.078-.06.151-.114.218-.164a.404.404 0 0 1 .25-.076c.134 0 .235.049.303.146l.486.6a2.644 2.644 0 0 1-1.131.774c-.2.07-.4.119-.602.146a4.44 4.44 0 0 1-.589.04 2.52 2.52 0 0 1-.98-.194 2.401 2.401 0 0 1-.82-.564 2.703 2.703 0 0 1-.562-.91 3.409 3.409 0 0 1-.208-1.231c0-.404.06-.78.18-1.132.121-.35.3-.655.535-.912a2.49 2.49 0 0 1 .875-.608 3.08 3.08 0 0 1 1.207-.221c.44 0 .824.07 1.156.21.33.14.63.346.896.616l-.443.589zm2.76-3.813v4.53h.248a.492.492 0 0 0 .238-.045.555.555 0 0 0 .162-.154l1.058-1.577a.669.669 0 0 1 .222-.202.664.664 0 0 1 .318-.068h1.534l-1.448 1.993c-.136.18-.298.327-.486.443.083.06.159.132.227.213.069.08.133.172.195.273l1.576 2.678h-1.511a.77.77 0 0 1-.325-.062.517.517 0 0 1-.226-.219l-1.059-1.982a.414.414 0 0 0-.156-.175.564.564 0 0 0-.243-.04h-.324V84.2h-1.674v-8.084h1.674zm8.748 8.17c-.267 0-.502-.038-.705-.116a1.4 1.4 0 0 1-.513-.33 1.404 1.404 0 0 1-.316-.515 1.996 1.996 0 0 1-.108-.675v-2.894h-.475a.317.317 0 0 1-.222-.084c-.06-.056-.091-.138-.091-.246v-.653l.89-.173.33-1.366c.043-.173.166-.26.367-.26h.875v1.637h1.388v1.145h-1.388v2.78c0 .13.032.237.095.322a.32.32 0 0 0 .272.127.536.536 0 0 0 .262-.062c.03-.016.06-.03.087-.043a.221.221 0 0 1 .094-.02c.05 0 .091.012.122.036.03.023.062.06.094.11l.508.794a2.31 2.31 0 0 1-.73.365c-.27.08-.548.121-.836.121zm4.617-5.772c.425 0 .811.066 1.16.2.35.133.65.324.9.572.25.248.444.55.583.904.139.355.208.754.208 1.197 0 .446-.07.848-.208 1.207a2.596 2.596 0 0 1-.583.912c-.25.25-.55.443-.9.578a3.189 3.189 0 0 1-1.16.202 3.24 3.24 0 0 1-1.17-.202 2.609 2.609 0 0 1-.907-.578 2.559 2.559 0 0 1-.588-.912 3.322 3.322 0 0 1-.208-1.207c0-.443.07-.842.208-1.197.138-.354.335-.656.588-.904a2.59 2.59 0 0 1 .908-.572c.35-.134.74-.2 1.169-.2zm0 4.53c.385 0 .668-.135.85-.407.182-.272.273-.685.273-1.24 0-.554-.091-.966-.273-1.236-.182-.27-.465-.405-.85-.405-.396 0-.686.135-.87.405-.183.27-.275.682-.275 1.236 0 .555.092.968.275 1.24.184.272.474.407.87.407zm8.661-4.53c.425 0 .812.066 1.161.2.35.133.65.324.9.572.25.248.444.55.583.904.138.355.207.754.207 1.197 0 .446-.069.848-.207 1.207a2.596 2.596 0 0 1-.584.912c-.25.25-.55.443-.899.578a3.192 3.192 0 0 1-1.16.202c-.43 0-.819-.067-1.17-.202a2.609 2.609 0 0 1-.907-.578 2.559 2.559 0 0 1-.589-.912 3.322 3.322 0 0 1-.207-1.207c0-.443.069-.842.207-1.197.139-.354.335-.656.589-.904.254-.248.556-.44.907-.572.351-.134.74-.2 1.17-.2zm0 4.53c.386 0 .669-.135.85-.407.183-.272.273-.685.273-1.24 0-.554-.09-.966-.272-1.236-.182-.27-.465-.405-.85-.405-.397 0-.686.135-.87.405-.184.27-.276.682-.276 1.236 0 .555.092.968.276 1.24.184.272.473.407.87.407zm5.314-.367a1.116 1.116 0 0 0 .875.378.97.97 0 0 0 .426-.092.87.87 0 0 0 .338-.294c.095-.135.17-.31.224-.526.054-.216.08-.48.08-.789 0-.295-.02-.543-.064-.745a1.535 1.535 0 0 0-.18-.489.702.702 0 0 0-.279-.267.798.798 0 0 0-.362-.081c-.245 0-.446.045-.605.135-.158.09-.31.221-.453.394v2.376zm-.103-3.386c.22-.234.47-.425.748-.575.28-.15.611-.224.996-.224.292 0 .562.065.81.195.249.13.463.316.643.561.18.245.321.545.424.9.103.354.154.756.154 1.206 0 .421-.059.81-.176 1.167a2.93 2.93 0 0 1-.491.928c-.21.263-.463.468-.756.616a2.138 2.138 0 0 1-.975.221c-.291 0-.536-.041-.734-.124a1.994 1.994 0 0 1-.54-.335v2.15h-1.674V78.6h1.037c.209 0 .345.094.41.281l.124.41zm8.068 1.437c0-.133-.017-.263-.051-.389a.943.943 0 0 0-.168-.338.852.852 0 0 0-.305-.24 1.043 1.043 0 0 0-.459-.092c-.317 0-.565.091-.745.273-.18.182-.299.444-.356.786h2.084zm-2.106.972c.054.468.196.807.427 1.018.23.21.527.316.89.316.195 0 .362-.024.503-.07.14-.047.265-.1.375-.157l.302-.157a.628.628 0 0 1 .29-.07c.133 0 .233.049.302.146l.486.6c-.173.197-.36.358-.56.483-.199.124-.404.22-.615.291-.21.07-.421.119-.632.146-.21.027-.41.04-.602.04a3.14 3.14 0 0 1-1.104-.191 2.538 2.538 0 0 1-.902-.57 2.688 2.688 0 0 1-.61-.94c-.15-.374-.224-.81-.224-1.306 0-.375.064-.73.192-1.064a2.62 2.62 0 0 1 .55-.88c.24-.252.53-.452.87-.6a2.87 2.87 0 0 1 1.153-.221c.37 0 .71.057 1.018.173.307.115.572.282.793.502.222.22.395.488.519.807.124.319.186.68.186 1.083 0 .126-.005.228-.016.308a.487.487 0 0 1-.06.189.226.226 0 0 1-.116.097.544.544 0 0 1-.186.027h-3.23zm5.934-2.495c.109-.1.22-.194.335-.28a1.96 1.96 0 0 1 .37-.22 2.196 2.196 0 0 1 .926-.191c.306 0 .577.053.813.16.236.105.435.253.597.442.162.189.284.414.367.675.083.26.124.544.124.85V84.2h-1.674v-3.559c0-.273-.063-.486-.189-.64-.126-.153-.311-.229-.556-.229a1.17 1.17 0 0 0-.516.116c-.16.078-.316.183-.467.316V84.2h-1.674v-5.6h1.037c.209 0 .346.094.41.281l.097.324zm9.002 5.081c-.266 0-.501-.038-.704-.116a1.4 1.4 0 0 1-.513-.33 1.404 1.404 0 0 1-.316-.515 1.996 1.996 0 0 1-.108-.675v-2.894h-.475a.317.317 0 0 1-.222-.084c-.061-.056-.092-.138-.092-.246v-.653l.891-.173.33-1.366c.043-.173.165-.26.367-.26h.875v1.637h1.388v1.145h-1.388v2.78c0 .13.031.237.094.322a.32.32 0 0 0 .273.127.536.536 0 0 0 .262-.062l.086-.043a.221.221 0 0 1 .095-.02c.05 0 .09.012.121.036.03.023.062.06.095.11l.507.794a2.31 2.31 0 0 1-.729.365c-.27.08-.549.121-.837.121zm3.764-5.194c.202-.173.42-.313.656-.419.236-.106.518-.16.845-.16.306 0 .577.054.813.16.236.106.435.254.597.443.162.189.284.414.367.675.083.26.124.544.124.85V84.2h-1.674v-3.559c0-.273-.063-.486-.189-.64-.126-.153-.311-.229-.556-.229a1.17 1.17 0 0 0-.516.116c-.16.078-.316.183-.467.316V84.2h-1.674v-8.084h1.674v2.976zm7.911 1.636c0-.133-.017-.263-.051-.389a.943.943 0 0 0-.168-.338.852.852 0 0 0-.305-.24 1.043 1.043 0 0 0-.459-.092c-.317 0-.565.091-.745.273-.18.182-.299.444-.356.786h2.084zm-2.106.972c.054.468.196.807.427 1.018.23.21.527.316.89.316.195 0 .362-.024.503-.07.14-.047.265-.1.375-.157.11-.058.21-.11.303-.157a.628.628 0 0 1 .288-.07c.134 0 .234.049.303.146l.486.6c-.173.197-.36.358-.559.483-.2.124-.405.22-.616.291-.21.07-.42.119-.631.146a4.75 4.75 0 0 1-.602.04c-.393 0-.761-.063-1.105-.191a2.538 2.538 0 0 1-.902-.57 2.688 2.688 0 0 1-.61-.94c-.15-.374-.224-.81-.224-1.306 0-.375.064-.73.192-1.064a2.62 2.62 0 0 1 .55-.88c.24-.252.53-.452.87-.6a2.87 2.87 0 0 1 1.153-.221c.37 0 .71.057 1.018.173.308.115.572.282.794.502.221.22.394.488.518.807.124.319.186.68.186 1.083 0 .126-.005.228-.016.308a.487.487 0 0 1-.06.189.226.226 0 0 1-.115.097.544.544 0 0 1-.187.027h-3.229zm10.228-1.599a1.058 1.058 0 0 0-.41-.294 1.302 1.302 0 0 0-.465-.084.986.986 0 0 0-.427.092.87.87 0 0 0-.337.294c-.096.136-.17.311-.224.527a3.27 3.27 0 0 0-.081.783c0 .295.021.544.065.745.043.202.103.365.18.489.078.124.17.213.279.267a.798.798 0 0 0 .361.081c.123 0 .233-.011.332-.035a1.132 1.132 0 0 0 .508-.265 2.24 2.24 0 0 0 .219-.229v-2.37zm1.674-3.985V84.2h-1.037c-.209 0-.346-.094-.41-.28l-.13-.427a3.283 3.283 0 0 1-.351.324c-.123.097-.255.18-.397.25a2.1 2.1 0 0 1-.459.163 2.363 2.363 0 0 1-.532.056 1.72 1.72 0 0 1-.81-.194 1.867 1.867 0 0 1-.643-.562 2.834 2.834 0 0 1-.423-.899 4.367 4.367 0 0 1-.154-1.212c0-.418.057-.805.172-1.164a2.86 2.86 0 0 1 .49-.928 2.27 2.27 0 0 1 .758-.613c.295-.148.62-.222.977-.222.292 0 .537.042.735.124.198.083.378.195.54.335v-2.835h1.674zm3.66 2.398c.426 0 .813.066 1.162.2.35.133.649.324.899.572.25.248.445.55.583.904.139.355.208.754.208 1.197 0 .446-.07.848-.208 1.207a2.596 2.596 0 0 1-.583.912c-.25.25-.55.443-.9.578a3.185 3.185 0 0 1-1.16.202 3.24 3.24 0 0 1-1.17-.202 2.609 2.609 0 0 1-.906-.578 2.559 2.559 0 0 1-.589-.912 3.322 3.322 0 0 1-.208-1.207c0-.443.07-.842.208-1.197.139-.354.335-.656.589-.904.253-.248.556-.44.907-.572.35-.134.74-.2 1.169-.2zm0 4.53c.386 0 .67-.135.851-.407.182-.272.273-.685.273-1.24 0-.554-.09-.966-.273-1.236-.181-.27-.465-.405-.85-.405-.396 0-.686.135-.87.405-.183.27-.275.682-.275 1.236 0 .555.092.968.275 1.24.184.272.474.407.87.407zm7.755-3.115a.926.926 0 0 1-.145.145.322.322 0 0 1-.2.054.43.43 0 0 1-.224-.059 46.36 46.36 0 0 0-.224-.132 1.7 1.7 0 0 0-.292-.133 1.247 1.247 0 0 0-.416-.059c-.205 0-.382.038-.532.113a.985.985 0 0 0-.37.324 1.48 1.48 0 0 0-.216.516 3.08 3.08 0 0 0-.07.689c0 .536.104.948.31 1.236a.996.996 0 0 0 .857.432c.194 0 .348-.024.461-.073a1.4 1.4 0 0 0 .29-.162c.078-.06.151-.114.218-.164a.404.404 0 0 1 .25-.076c.134 0 .235.049.303.146l.486.6a2.644 2.644 0 0 1-1.131.774c-.2.07-.4.119-.602.146a4.44 4.44 0 0 1-.589.04 2.52 2.52 0 0 1-.98-.194 2.401 2.401 0 0 1-.82-.564 2.703 2.703 0 0 1-.562-.91 3.408 3.408 0 0 1-.208-1.231c0-.404.06-.78.18-1.132.121-.35.3-.655.535-.912a2.49 2.49 0 0 1 .875-.608 3.08 3.08 0 0 1 1.207-.221c.44 0 .824.07 1.156.21.33.14.63.346.896.616l-.443.589zm6.108-1.329v5.6h-1.037c-.209 0-.346-.094-.41-.28l-.098-.325a3.25 3.25 0 0 1-.334.284 2.049 2.049 0 0 1-.797.356 2.29 2.29 0 0 1-.5.051 1.96 1.96 0 0 1-.812-.159 1.672 1.672 0 0 1-.597-.445 1.943 1.943 0 0 1-.367-.675 2.792 2.792 0 0 1-.124-.854V78.6h1.674v3.553c0 .278.063.492.189.643.126.151.311.227.556.227.184 0 .355-.039.516-.116.16-.078.315-.183.467-.316V78.6h1.674zm1.08 5.6v-5.6h1.037c.208 0 .345.094.41.281l.092.302c.093-.097.19-.186.291-.267a1.875 1.875 0 0 1 .705-.35c.135-.035.283-.052.446-.052.338 0 .618.087.84.262.22.174.389.407.504.699.094-.173.208-.32.343-.443.135-.122.28-.221.437-.297a2.17 2.17 0 0 1 .497-.167c.175-.036.348-.054.521-.054.32 0 .605.047.853.143.249.095.457.234.624.416.168.182.294.405.38.67.087.264.13.564.13.898V84.2h-1.674v-3.559c0-.58-.248-.869-.745-.869a.765.765 0 0 0-.564.224c-.15.15-.224.365-.224.645V84.2h-1.674v-3.559c0-.32-.063-.545-.19-.675-.125-.13-.31-.194-.555-.194a.937.937 0 0 0-.43.103 1.56 1.56 0 0 0-.38.275v4.05h-1.674zm12.62-3.472a1.49 1.49 0 0 0-.052-.389.943.943 0 0 0-.167-.338.852.852 0 0 0-.305-.24 1.043 1.043 0 0 0-.46-.092c-.316 0-.564.091-.744.273-.18.182-.3.444-.357.786h2.085zm-2.107.972c.054.468.197.807.427 1.018.23.21.527.316.891.316.195 0 .362-.024.502-.07.14-.047.266-.1.376-.157l.302-.157a.628.628 0 0 1 .289-.07c.133 0 .234.049.302.146l.486.6a2.534 2.534 0 0 1-.559.483c-.2.124-.405.22-.615.291-.21.07-.421.119-.632.146-.21.027-.411.04-.602.04-.393 0-.76-.063-1.104-.191a2.538 2.538 0 0 1-.902-.57 2.688 2.688 0 0 1-.61-.94c-.15-.374-.224-.81-.224-1.306 0-.375.063-.73.191-1.064a2.62 2.62 0 0 1 .551-.88c.24-.252.53-.452.87-.6a2.87 2.87 0 0 1 1.152-.221c.371 0 .71.057 1.018.173a2.2 2.2 0 0 1 .794.502c.221.22.394.488.518.807.125.319.187.68.187 1.083 0 .126-.006.228-.017.308a.487.487 0 0 1-.059.189.226.226 0 0 1-.116.097.544.544 0 0 1-.186.027h-3.23zm5.935-2.495c.108-.1.22-.194.335-.28a1.96 1.96 0 0 1 .37-.22 2.196 2.196 0 0 1 .926-.191c.306 0 .577.053.813.16.235.105.434.253.596.442.162.189.285.414.368.675.082.26.124.544.124.85V84.2h-1.674v-3.559c0-.273-.063-.486-.19-.64-.125-.153-.31-.229-.555-.229a1.17 1.17 0 0 0-.516.116c-.16.078-.316.183-.467.316V84.2h-1.674v-5.6h1.037c.208 0 .345.094.41.281l.097.324zm6.486 5.081c-.267 0-.502-.038-.705-.116a1.4 1.4 0 0 1-.513-.33 1.404 1.404 0 0 1-.316-.515 1.996 1.996 0 0 1-.108-.675v-2.894h-.475a.317.317 0 0 1-.222-.084c-.06-.056-.091-.138-.091-.246v-.653l.89-.173.33-1.366c.043-.173.165-.26.367-.26h.875v1.637h1.388v1.145h-1.388v2.78c0 .13.031.237.094.322a.32.32 0 0 0 .273.127.536.536 0 0 0 .262-.062l.086-.043a.221.221 0 0 1 .095-.02c.05 0 .09.012.121.036.031.023.063.06.095.11l.507.794a2.31 2.31 0 0 1-.728.365c-.27.08-.55.121-.838.121zm1.863-.934a.896.896 0 0 1 .272-.653.953.953 0 0 1 .678-.27.987.987 0 0 1 .675.27.894.894 0 0 1 .275.653.915.915 0 0 1-.275.659.98.98 0 0 1-.675.265.995.995 0 0 1-.378-.07.907.907 0 0 1-.572-.853z" id="Click-to-open-the-do" fill="#222326"/><rect id="Rectangle-2" fill="#3BC398" x="101.4" y="98.8" width="88.4" height="20.6" rx="1.2"/><path d="M120.302 108.87c0 .37-.06.714-.183 1.03a2.42 2.42 0 0 1-.52.821 2.361 2.361 0 0 1-.809.54c-.315.13-.664.195-1.05.195-.382 0-.731-.065-1.046-.194a2.38 2.38 0 0 1-.81-.541 2.428 2.428 0 0 1-.523-.82 2.805 2.805 0 0 1-.186-1.031c0-.372.062-.715.186-1.031.123-.316.298-.59.523-.821a2.38 2.38 0 0 1 .81-.54c.315-.13.664-.195 1.046-.195.257 0 .499.03.725.09.226.059.434.143.623.251.189.109.359.24.51.396.15.155.277.328.383.52.105.19.184.398.24.622.054.225.081.46.081.707zm-.962 0c0-.278-.037-.527-.112-.748a1.602 1.602 0 0 0-.319-.561 1.364 1.364 0 0 0-.502-.354 1.728 1.728 0 0 0-.666-.122c-.248 0-.47.04-.667.122a1.38 1.38 0 0 0-.504.354 1.587 1.587 0 0 0-.32.561c-.075.22-.112.47-.112.748 0 .277.037.526.111.747.075.22.182.407.32.56.14.153.308.27.505.351.197.082.42.123.666.123.248 0 .47-.04.667-.123.197-.081.365-.198.502-.351a1.59 1.59 0 0 0 .319-.56c.075-.22.112-.47.112-.748zm2.425 1.599a.85.85 0 0 0 .32.252.953.953 0 0 0 .73 0 .693.693 0 0 0 .268-.224c.074-.1.13-.227.17-.38.04-.153.06-.333.06-.54a2.4 2.4 0 0 0-.051-.534 1.031 1.031 0 0 0-.145-.356.574.574 0 0 0-.23-.199.715.715 0 0 0-.306-.063.874.874 0 0 0-.459.114 1.392 1.392 0 0 0-.356.32v1.61zm-.045-2.17c.147-.166.314-.3.5-.403.187-.102.406-.153.659-.153.196 0 .375.04.537.122.162.082.302.2.42.355a1.7 1.7 0 0 1 .273.574c.064.228.096.488.096.782 0 .269-.036.517-.108.746a1.824 1.824 0 0 1-.31.595c-.134.168-.297.3-.487.394a1.42 1.42 0 0 1-.638.141c-.201 0-.373-.03-.515-.092a1.257 1.257 0 0 1-.382-.257v1.47h-.864v-4.764h.529c.112 0 .185.052.22.157l.07.333zm5.436.892a1.04 1.04 0 0 0-.048-.316.753.753 0 0 0-.142-.261.66.66 0 0 0-.24-.177.823.823 0 0 0-.337-.064c-.25 0-.446.07-.59.213-.143.142-.235.344-.275.606h1.632zm-1.649.522c.014.184.047.344.098.478a.977.977 0 0 0 .203.332.795.795 0 0 0 .3.196c.115.043.242.065.382.065s.261-.016.363-.049c.101-.033.19-.069.266-.109.076-.04.142-.075.2-.108a.335.335 0 0 1 .165-.049c.073 0 .127.027.162.08l.248.316a1.44 1.44 0 0 1-.322.281 1.806 1.806 0 0 1-.373.182c-.13.046-.261.078-.395.096a2.832 2.832 0 0 1-.39.028c-.25 0-.482-.04-.697-.124a1.56 1.56 0 0 1-.56-.367 1.724 1.724 0 0 1-.374-.602 2.33 2.33 0 0 1-.137-.831c0-.246.04-.476.119-.692a1.607 1.607 0 0 1 .884-.943c.213-.093.454-.14.722-.14.227 0 .436.036.627.109.191.072.356.177.493.316.138.14.246.31.324.511.078.202.118.432.118.692 0 .13-.015.218-.043.264-.028.045-.081.068-.16.068h-2.223zm3.846-1.463c.073-.072.15-.14.23-.201a1.448 1.448 0 0 1 .544-.26 1.48 1.48 0 0 1 .336-.036c.196 0 .37.033.522.1.151.066.278.16.38.28.1.12.178.263.23.43.053.167.079.35.079.552v2.285h-.864v-2.285c0-.22-.05-.39-.151-.51-.1-.12-.253-.18-.458-.18a.9.9 0 0 0-.42.102c-.131.067-.255.16-.371.276v2.597h-.865v-3.591h.529c.112 0 .185.052.22.157l.06.284zm5.968 3.206c-.313 0-.552-.088-.72-.264-.166-.176-.25-.42-.25-.73v-2.005h-.367a.169.169 0 0 1-.119-.046c-.033-.03-.049-.076-.049-.136v-.344l.577-.094.183-.98a.192.192 0 0 1 .066-.108.198.198 0 0 1 .126-.039h.448v1.13h.959v.617h-.959v1.946c0 .112.027.199.082.262.055.063.13.094.226.094a.407.407 0 0 0 .135-.019.742.742 0 0 0 .166-.08.12.12 0 0 1 .063-.02c.026 0 .047.007.063.02a.292.292 0 0 1 .053.058l.258.42c-.126.105-.27.184-.434.237a1.602 1.602 0 0 1-.507.081zm2.237-3.262c.14-.13.293-.237.462-.319.168-.081.365-.122.591-.122.196 0 .37.033.522.1.151.066.278.16.38.28.1.12.178.263.23.43.053.167.079.35.079.552v2.285h-.864v-2.285c0-.22-.05-.39-.151-.51-.1-.12-.253-.18-.458-.18a.9.9 0 0 0-.42.102c-.131.067-.255.16-.371.276v2.597h-.865v-5.201h.864v1.995zm5.362.998a1.04 1.04 0 0 0-.048-.317.753.753 0 0 0-.142-.261.66.66 0 0 0-.24-.177.823.823 0 0 0-.337-.064c-.25 0-.446.07-.59.213-.143.142-.235.344-.274.606h1.63zm-1.649.521c.014.184.047.344.098.478a.977.977 0 0 0 .203.332.795.795 0 0 0 .3.196c.115.043.242.065.382.065s.261-.016.363-.049c.101-.033.19-.069.266-.109.076-.04.142-.075.2-.108a.335.335 0 0 1 .166-.049c.072 0 .126.027.16.08l.249.316a1.44 1.44 0 0 1-.322.281 1.806 1.806 0 0 1-.373.182c-.13.046-.261.078-.395.096a2.832 2.832 0 0 1-.39.028c-.25 0-.482-.04-.697-.124a1.56 1.56 0 0 1-.56-.367 1.724 1.724 0 0 1-.374-.602 2.33 2.33 0 0 1-.137-.831c0-.246.04-.476.119-.692a1.607 1.607 0 0 1 .884-.943c.213-.093.454-.14.722-.14.227 0 .436.036.627.109a1.364 1.364 0 0 1 .817.827c.078.202.117.432.117.692 0 .13-.013.218-.041.264-.029.045-.082.068-.161.068h-2.223zm6.958-.987a.85.85 0 0 0-.32-.252.944.944 0 0 0-.726 0 .712.712 0 0 0-.27.222c-.075.1-.132.225-.172.378a2.17 2.17 0 0 0-.059.541c0 .21.017.388.05.534.035.146.083.265.146.357.063.092.14.158.231.2.091.04.192.06.304.06.18 0 .333-.037.459-.112.126-.074.245-.18.357-.318v-1.61zm.864-2.527v5.201h-.528c-.114 0-.187-.052-.217-.157l-.074-.347c-.144.166-.31.3-.498.403a1.347 1.347 0 0 1-.657.153c-.196 0-.375-.04-.538-.122a1.2 1.2 0 0 1-.422-.355 1.703 1.703 0 0 1-.273-.576 2.908 2.908 0 0 1-.096-.784c0-.266.036-.513.108-.742.072-.229.176-.427.311-.595a1.405 1.405 0 0 1 1.124-.535c.2 0 .372.031.514.094.143.063.27.148.382.255V106.2h.864zm2.409 1.554c.266 0 .508.043.726.13.218.086.405.208.56.367.155.159.274.352.358.581.085.229.127.484.127.766 0 .285-.042.542-.126.77a1.568 1.568 0 0 1-.919.955c-.218.087-.46.13-.727.13-.268 0-.512-.043-.731-.129a1.565 1.565 0 0 1-.922-.955 2.193 2.193 0 0 1-.128-.77c0-.283.043-.538.128-.767.085-.229.205-.422.36-.581.155-.159.343-.281.562-.368a1.99 1.99 0 0 1 .731-.129zm0 3.034c.298 0 .52-.1.663-.3.143-.201.215-.495.215-.882 0-.388-.072-.683-.215-.886-.144-.203-.365-.304-.663-.304-.304 0-.528.102-.674.306-.146.204-.219.498-.219.883 0 .386.073.679.219.88.146.203.37.303.673.303zm4.97-2.219a.43.43 0 0 1-.076.078.174.174 0 0 1-.106.028.238.238 0 0 1-.13-.04 4.167 4.167 0 0 0-.15-.092.957.957 0 0 0-.507-.131.913.913 0 0 0-.4.082.756.756 0 0 0-.285.237 1.065 1.065 0 0 0-.17.372 2.018 2.018 0 0 0-.056.495c0 .192.02.362.061.512.041.149.1.274.177.376a.76.76 0 0 0 .28.23c.11.053.233.08.371.08a.92.92 0 0 0 .334-.051c.085-.034.157-.071.215-.112.059-.041.11-.078.153-.112a.23.23 0 0 1 .145-.051c.07 0 .123.027.157.08l.249.316c-.096.112-.2.205-.311.281a1.684 1.684 0 0 1-.72.278 2.612 2.612 0 0 1-.38.028c-.221 0-.43-.04-.626-.124a1.48 1.48 0 0 1-.514-.362 1.73 1.73 0 0 1-.349-.583 2.252 2.252 0 0 1-.127-.785c0-.264.037-.509.113-.734.076-.225.187-.42.335-.584.147-.165.328-.294.546-.387a1.88 1.88 0 0 1 .749-.14c.268 0 .503.043.705.13.202.086.383.21.544.37l-.228.316zm3.86-.759v3.591h-.528c-.115 0-.187-.052-.218-.157l-.059-.287c-.147.149-.31.27-.486.362a1.341 1.341 0 0 1-.627.138c-.196 0-.37-.033-.52-.1a1.041 1.041 0 0 1-.38-.281 1.234 1.234 0 0 1-.232-.433 1.83 1.83 0 0 1-.079-.551v-2.282h.864v2.282c0 .22.051.39.153.51.101.12.253.18.457.18a.922.922 0 0 0 .42-.1c.13-.067.254-.158.37-.275v-2.597h.865zm.819 3.591v-3.591h.528c.113 0 .186.052.221.157l.056.267c.063-.07.129-.135.198-.193a1.194 1.194 0 0 1 .472-.25c.09-.025.189-.037.296-.037.226 0 .412.061.558.184.146.122.255.285.328.488a1.096 1.096 0 0 1 .486-.514c.1-.054.207-.094.32-.12a1.577 1.577 0 0 1 .87.053c.154.06.283.15.388.266.106.117.185.259.24.427.055.168.083.36.083.578v2.285h-.865v-2.285c0-.23-.05-.401-.15-.517-.1-.115-.248-.173-.442-.173a.658.658 0 0 0-.246.046.588.588 0 0 0-.334.346.837.837 0 0 0-.05.298v2.285h-.868v-2.285c0-.24-.048-.416-.145-.525-.097-.11-.238-.165-.425-.165a.699.699 0 0 0-.352.093c-.108.062-.21.146-.303.254v2.628h-.864zm8.141-2.209a1.04 1.04 0 0 0-.047-.316.753.753 0 0 0-.142-.261.66.66 0 0 0-.24-.177.823.823 0 0 0-.338-.064c-.25 0-.446.07-.59.213-.143.142-.234.344-.274.606h1.631zm-1.649.522c.014.184.047.344.099.478a.977.977 0 0 0 .203.332.795.795 0 0 0 .299.196c.115.043.243.065.383.065s.26-.016.362-.049c.102-.033.19-.069.266-.109.076-.04.143-.075.2-.108a.335.335 0 0 1 .166-.049c.072 0 .126.027.161.08l.248.316a1.44 1.44 0 0 1-.322.281 1.806 1.806 0 0 1-.372.182c-.13.046-.262.078-.396.096a2.832 2.832 0 0 1-.39.028c-.25 0-.482-.04-.697-.124a1.56 1.56 0 0 1-.56-.367 1.724 1.724 0 0 1-.374-.602 2.33 2.33 0 0 1-.137-.831c0-.246.04-.476.12-.692a1.67 1.67 0 0 1 .34-.563c.149-.16.33-.287.543-.38.214-.093.455-.14.723-.14.226 0 .435.036.626.109.192.072.356.177.494.316.138.14.246.31.324.511.078.202.117.432.117.692 0 .13-.014.218-.042.264-.028.045-.082.068-.161.068h-2.223zm3.847-1.463c.072-.072.149-.14.23-.201a1.448 1.448 0 0 1 .543-.26c.103-.024.215-.036.337-.036.196 0 .37.033.521.1.152.066.278.16.38.28.101.12.178.263.23.43.053.167.08.35.08.552v2.285h-.865v-2.285c0-.22-.05-.39-.15-.51-.1-.12-.254-.18-.459-.18a.9.9 0 0 0-.42.102c-.13.067-.254.16-.371.276v2.597h-.864v-3.591h.528c.112 0 .185.052.22.157l.06.284zm4.252 3.206c-.312 0-.552-.088-.719-.264-.167-.176-.25-.42-.25-.73v-2.005h-.368a.169.169 0 0 1-.119-.046c-.032-.03-.048-.076-.048-.136v-.344l.577-.094.182-.98a.192.192 0 0 1 .066-.108.198.198 0 0 1 .127-.039h.447v1.13h.96v.617h-.96v1.946c0 .112.028.199.083.262.055.063.13.094.226.094a.407.407 0 0 0 .134-.019.742.742 0 0 0 .166-.08.12.12 0 0 1 .064-.02.1.1 0 0 1 .063.02.292.292 0 0 1 .052.058l.259.42c-.126.105-.27.184-.434.237a1.602 1.602 0 0 1-.507.081z" id="Open-the-document" fill="#FFF"/><rect id="Rectangle-6" fill="#D8D8D8" opacity=".361" x="117.6" y="147.6" width="54" height="3.6" rx="1.8"/><g id="Group-256-Copy-2" transform="translate(129.6 25.2)"><g id="Group-5"><mask id="mask-17" fill="#fff"><use xlink:href="#path-16"/></mask><use id="Fill-254" fill="url(#linearGradient-15)" xlink:href="#path-16"/><path d="M24.46.318v6.164c0 .656.52 1.18 1.172 1.18h6.121c.26 0 .521-.262.651-.393 0-.263-.13-.525-.39-.787L25.762.055a1.4 1.4 0 0 0-.912-.394.723.723 0 0 0-.39.657" id="Fill-262" fill="#4648AF" mask="url(#mask-17)"/></g><path d="M14.256 18.668v-1.61c0-1.114.868-1.98 1.985-1.98s1.986.866 1.986 1.98v1.61h-3.971zm5.336 0c.62 0 1.117.495.993 1.114v4.704c0 .619-.497 1.114-1.117 1.114H12.89a1.11 1.11 0 0 1-1.116-1.114v-4.704a1.11 1.11 0 0 1 1.116-1.114h.125v-1.61a3.069 3.069 0 0 1 3.102-3.094 3.068 3.068 0 0 1 3.102 3.095v1.609h.373zm-4.344 3.59a.992.992 0 0 0 1.986 0 .992.992 0 0 0-.993-.99.992.992 0 0 0-.993.99z" id="Combined-Shape" fill="#FFF"/></g></g></g></g><g id="Group-4" transform="translate(54.2 54.2)"><ellipse id="Oval-21" fill="#03BCFF" cx="2.483" cy="2.58" rx="2.483" ry="2.58"/><ellipse id="Oval-21-Copy" fill="#1DA7FC" cx="11.586" cy="2.58" rx="2.483" ry="2.58"/><ellipse id="Oval-21-Copy-2" fill="#438BF9" cx="21.517" cy="2.58" rx="2.483" ry="2.58"/></g></g></g></svg>