<svg width="469" height="451" xmlns="http://www.w3.org/2000/svg" xmlns:xlink="http://www.w3.org/1999/xlink"><defs><linearGradient x1="20.573%" y1="-4.83%" x2="86.747%" y2="107.679%" id="linearGradient-1"><stop stop-color="#3975FB" offset="0%"/><stop stop-color="#0ACDFA" offset="100%"/></linearGradient><path id="path-2" d="M.7 2.82h348.74v371.3H.7z"/><filter x="-12%" y="-11%" width="129.8%" height="128%" filterUnits="objectBoundingBox" id="filter-3"><feOffset dx="10" dy="11" in="SourceAlpha" result="shadowOffsetOuter1"/><feGaussianBlur stdDeviation="15.5" in="shadowOffsetOuter1" result="shadowBlurOuter1"/><feColorMatrix values="0 0 0 0 0.235294118 0 0 0 0 0.615686275 0 0 0 0 0.97254902 0 0 0 0.127377717 0" in="shadowBlurOuter1"/></filter><linearGradient x1="87.629%" y1="65.82%" x2="14.516%" y2="50%" id="linearGradient-4"><stop stop-color="#1B66CA" offset="0%"/><stop stop-color="#136EBE" offset="100%"/></linearGradient><linearGradient x1="90.326%" y1="13.54%" x2="0%" y2="97.074%" id="linearGradient-5"><stop stop-color="#488DFC" offset="0%"/><stop stop-color="#31B8FC" offset="100%"/></linearGradient><circle id="path-6" cx="81.968" cy="81.968" r="81.78"/><path d="M.062.072C.445 5.204 4.722 9.25 9.946 9.25S19.447 5.204 19.83.072H.062z" id="path-8"/><linearGradient x1="0%" y1="50%" x2="100%" y2="50%" id="linearGradient-10"><stop stop-color="#17B3FB" offset="0%"/><stop stop-color="#01DBF9" offset="100%"/></linearGradient><path d="M.1 9.245h19.769C19.485 4.113 15.209.068 9.984.068 4.761.068.484 4.113.1 9.245" id="path-11"/><linearGradient x1="0%" y1="50%" x2="100%" y2="50%" id="linearGradient-13"><stop stop-color="#445DFB" offset="0%"/><stop stop-color="#2D8CFB" offset="100%"/></linearGradient><path d="M.1.07c.383 5.132 4.66 9.177 9.884 9.177h19.77C29.37 4.115 25.092.07 19.868.07H.1z" id="path-14"/><linearGradient x1="0%" y1="50%" x2="100%" y2="50%" id="linearGradient-16"><stop stop-color="#2D8CFB" offset="0%"/><stop stop-color="#17B3FB" offset="100%"/></linearGradient></defs><g id="Page-1" stroke="none" stroke-width="1" fill="none" fill-rule="evenodd"><g id="Artboard-Copy-8" transform="translate(-75 -94)"><g id="Outlook-illustration" transform="translate(75 102)"><path d="M0 279.18h4.7v4.7H0v-4.7zm0 12.22h4.7v4.7H0v-4.7zm0 12.22h4.7v4.7H0v-4.7zm0 12.22h4.7v4.7H0v-4.7zm0 12.22h4.7v4.7H0v-4.7zm0 12.22h4.7v4.7H0v-4.7zm0 12.22h4.7v4.7H0v-4.7zm12.22-73.32h4.7v4.7h-4.7v-4.7zm0 12.22h4.7v4.7h-4.7v-4.7zm0 12.22h4.7v4.7h-4.7v-4.7zm0 12.22h4.7v4.7h-4.7v-4.7zm0 12.22h4.7v4.7h-4.7v-4.7zm0 12.22h4.7v4.7h-4.7v-4.7zm0 12.22h4.7v4.7h-4.7v-4.7zm12.22-73.32h4.7v4.7h-4.7v-4.7zm0 12.22h4.7v4.7h-4.7v-4.7zm0 12.22h4.7v4.7h-4.7v-4.7zm0 12.22h4.7v4.7h-4.7v-4.7zm0 12.22h4.7v4.7h-4.7v-4.7zm0 12.22h4.7v4.7h-4.7v-4.7zm0 12.22h4.7v4.7h-4.7v-4.7zm12.22-73.32h4.7v4.7h-4.7v-4.7zm0 12.22h4.7v4.7h-4.7v-4.7zm0 12.22h4.7v4.7h-4.7v-4.7zm0 12.22h4.7v4.7h-4.7v-4.7zm0 12.22h4.7v4.7h-4.7v-4.7zm0 12.22h4.7v4.7h-4.7v-4.7zm0 12.22h4.7v4.7h-4.7v-4.7zm12.22-73.32h4.7v4.7h-4.7v-4.7zm12.22 0h4.7v4.7h-4.7v-4.7zm12.22 0h4.7v4.7h-4.7v-4.7zM48.88 291.4h4.7v4.7h-4.7v-4.7zm12.22 0h4.7v4.7h-4.7v-4.7zm12.22 0h4.7v4.7h-4.7v-4.7zm-24.44 12.22h4.7v4.7h-4.7v-4.7zm12.22 0h4.7v4.7h-4.7v-4.7zm12.22 0h4.7v4.7h-4.7v-4.7zm-24.44 12.22h4.7v4.7h-4.7v-4.7zm12.22 0h4.7v4.7h-4.7v-4.7zm12.22 0h4.7v4.7h-4.7v-4.7zm-24.44 12.22h4.7v4.7h-4.7v-4.7zm12.22 0h4.7v4.7h-4.7v-4.7zm12.22 0h4.7v4.7h-4.7v-4.7zm-24.44 12.22h4.7v4.7h-4.7v-4.7zm12.22 0h4.7v4.7h-4.7v-4.7zm12.22 0h4.7v4.7h-4.7v-4.7zM48.88 352.5h4.7v4.7h-4.7v-4.7zm12.22 0h4.7v4.7h-4.7v-4.7zm12.22 0h4.7v4.7h-4.7v-4.7zm12.22-73.32h4.7v4.7h-4.7v-4.7zm0 12.22h4.7v4.7h-4.7v-4.7zm0 12.22h4.7v4.7h-4.7v-4.7zm0 12.22h4.7v4.7h-4.7v-4.7zm0 12.22h4.7v4.7h-4.7v-4.7zm0 12.22h4.7v4.7h-4.7v-4.7zm0 12.22h4.7v4.7h-4.7v-4.7zm12.22-73.32h4.7v4.7h-4.7v-4.7zm0 12.22h4.7v4.7h-4.7v-4.7zm0 12.22h4.7v4.7h-4.7v-4.7zm0 12.22h4.7v4.7h-4.7v-4.7zm0 12.22h4.7v4.7h-4.7v-4.7zm0 12.22h4.7v4.7h-4.7v-4.7zm0 12.22h4.7v4.7h-4.7v-4.7zm12.22-73.32h4.7v4.7h-4.7v-4.7zm0 12.22h4.7v4.7h-4.7v-4.7zm0 12.22h4.7v4.7h-4.7v-4.7zm0 12.22h4.7v4.7h-4.7v-4.7zm0 12.22h4.7v4.7h-4.7v-4.7zm0 12.22h4.7v4.7h-4.7v-4.7zm0 12.22h4.7v4.7h-4.7v-4.7zm12.22-73.32h4.7v4.7h-4.7v-4.7zm0 12.22h4.7v4.7h-4.7v-4.7zm0 12.22h4.7v4.7h-4.7v-4.7zm0 12.22h4.7v4.7h-4.7v-4.7zm0 12.22h4.7v4.7h-4.7v-4.7zm0 12.22h4.7v4.7h-4.7v-4.7zm0 12.22h4.7v4.7h-4.7v-4.7zm12.22-73.32h4.7v4.7h-4.7v-4.7zm12.22 0h4.7v4.7h-4.7v-4.7zm12.22 0h4.7v4.7h-4.7v-4.7zm-24.44 12.22h4.7v4.7h-4.7v-4.7zm12.22 0h4.7v4.7h-4.7v-4.7zm12.22 0h4.7v4.7h-4.7v-4.7zm-24.44 12.22h4.7v4.7h-4.7v-4.7zm12.22 0h4.7v4.7h-4.7v-4.7zm12.22 0h4.7v4.7h-4.7v-4.7zm-24.44 12.22h4.7v4.7h-4.7v-4.7zm12.22 0h4.7v4.7h-4.7v-4.7zm12.22 0h4.7v4.7h-4.7v-4.7zm-24.44 12.22h4.7v4.7h-4.7v-4.7zm12.22 0h4.7v4.7h-4.7v-4.7zm12.22 0h4.7v4.7h-4.7v-4.7zm-24.44 12.22h4.7v4.7h-4.7v-4.7zm12.22 0h4.7v4.7h-4.7v-4.7zm12.22 0h4.7v4.7h-4.7v-4.7zm-24.44 12.22h4.7v4.7h-4.7v-4.7zm12.22 0h4.7v4.7h-4.7v-4.7zm12.22 0h4.7v4.7h-4.7v-4.7zm-73.32 12.22h4.7v4.7h-4.7v-4.7zm0 12.22h4.7v4.7h-4.7v-4.7zm0 12.22h4.7v4.7h-4.7v-4.7zm0 12.22h4.7v4.7h-4.7v-4.7zm0 12.22h4.7v4.7h-4.7v-4.7zm0 12.22h4.7v4.7h-4.7v-4.7zm0 12.22h4.7v4.7h-4.7v-4.7zm12.22-73.32h4.7v4.7h-4.7v-4.7zm0 12.22h4.7v4.7h-4.7v-4.7zm0 12.22h4.7v4.7h-4.7v-4.7zm0 12.22h4.7v4.7h-4.7v-4.7zm0 12.22h4.7v4.7h-4.7v-4.7zm0 12.22h4.7v4.7h-4.7v-4.7zm0 12.22h4.7v4.7h-4.7v-4.7zm12.22-73.32h4.7v4.7h-4.7v-4.7zm0 12.22h4.7v4.7h-4.7v-4.7zm0 12.22h4.7v4.7h-4.7v-4.7zm0 12.22h4.7v4.7h-4.7v-4.7zm0 12.22h4.7v4.7h-4.7v-4.7zm0 12.22h4.7v4.7h-4.7v-4.7zm0 12.22h4.7v4.7h-4.7v-4.7zm12.22-73.32h4.7v4.7h-4.7v-4.7zm0 12.22h4.7v4.7h-4.7v-4.7zm0 12.22h4.7v4.7h-4.7v-4.7zm0 12.22h4.7v4.7h-4.7v-4.7zm0 12.22h4.7v4.7h-4.7v-4.7zm0 12.22h4.7v4.7h-4.7v-4.7zm0 12.22h4.7v4.7h-4.7v-4.7zm12.22-73.32h4.7v4.7h-4.7v-4.7zm12.22 0h4.7v4.7h-4.7v-4.7zm12.22 0h4.7v4.7h-4.7v-4.7zm-24.44 12.22h4.7v4.7h-4.7v-4.7zm12.22 0h4.7v4.7h-4.7v-4.7zm12.22 0h4.7v4.7h-4.7v-4.7zm-24.44 12.22h4.7v4.7h-4.7v-4.7zm12.22 0h4.7v4.7h-4.7v-4.7zm12.22 0h4.7v4.7h-4.7v-4.7zm-24.44 12.22h4.7v4.7h-4.7v-4.7zm12.22 0h4.7v4.7h-4.7v-4.7zm12.22 0h4.7v4.7h-4.7v-4.7zm-24.44 12.22h4.7v4.7h-4.7v-4.7zm12.22 0h4.7v4.7h-4.7v-4.7zm12.22 0h4.7v4.7h-4.7v-4.7zm-24.44 12.22h4.7v4.7h-4.7v-4.7zm12.22 0h4.7v4.7h-4.7v-4.7zm12.22 0h4.7v4.7h-4.7v-4.7zm-24.44 12.22h4.7v4.7h-4.7v-4.7zm12.22 0h4.7v4.7h-4.7v-4.7zm12.22 0h4.7v4.7h-4.7v-4.7zM0 364.72h4.7v4.7H0v-4.7zm0 12.22h4.7v4.7H0v-4.7zm0 12.22h4.7v4.7H0v-4.7zm0 12.22h4.7v4.7H0v-4.7zm0 12.22h4.7v4.7H0v-4.7zm0 12.22h4.7v4.7H0v-4.7zm0 12.22h4.7v4.7H0v-4.7zm12.22-73.32h4.7v4.7h-4.7v-4.7zm0 12.22h4.7v4.7h-4.7v-4.7zm0 12.22h4.7v4.7h-4.7v-4.7zm0 12.22h4.7v4.7h-4.7v-4.7zm0 12.22h4.7v4.7h-4.7v-4.7zm0 12.22h4.7v4.7h-4.7v-4.7zm0 12.22h4.7v4.7h-4.7v-4.7zm12.22-73.32h4.7v4.7h-4.7v-4.7zm0 12.22h4.7v4.7h-4.7v-4.7zm0 12.22h4.7v4.7h-4.7v-4.7zm0 12.22h4.7v4.7h-4.7v-4.7zm0 12.22h4.7v4.7h-4.7v-4.7zm0 12.22h4.7v4.7h-4.7v-4.7zm0 12.22h4.7v4.7h-4.7v-4.7zm12.22-73.32h4.7v4.7h-4.7v-4.7zm0 12.22h4.7v4.7h-4.7v-4.7zm0 12.22h4.7v4.7h-4.7v-4.7zm0 12.22h4.7v4.7h-4.7v-4.7zm0 12.22h4.7v4.7h-4.7v-4.7zm0 12.22h4.7v4.7h-4.7v-4.7zm0 12.22h4.7v4.7h-4.7v-4.7zm12.22-73.32h4.7v4.7h-4.7v-4.7zm12.22 0h4.7v4.7h-4.7v-4.7zm12.22 0h4.7v4.7h-4.7v-4.7zm-24.44 12.22h4.7v4.7h-4.7v-4.7zm12.22 0h4.7v4.7h-4.7v-4.7zm12.22 0h4.7v4.7h-4.7v-4.7zm-24.44 12.22h4.7v4.7h-4.7v-4.7zm12.22 0h4.7v4.7h-4.7v-4.7zm12.22 0h4.7v4.7h-4.7v-4.7zm-24.44 12.22h4.7v4.7h-4.7v-4.7zm12.22 0h4.7v4.7h-4.7v-4.7zm12.22 0h4.7v4.7h-4.7v-4.7zM48.88 413.6h4.7v4.7h-4.7v-4.7zm12.22 0h4.7v4.7h-4.7v-4.7zm12.22 0h4.7v4.7h-4.7v-4.7zm-24.44 12.22h4.7v4.7h-4.7v-4.7zm12.22 0h4.7v4.7h-4.7v-4.7zm12.22 0h4.7v4.7h-4.7v-4.7zm-24.44 12.22h4.7v4.7h-4.7v-4.7zm12.22 0h4.7v4.7h-4.7v-4.7zm12.22 0h4.7v4.7h-4.7v-4.7z" id="Combined-Shape" fill="url(#linearGradient-1)" opacity=".298"/><g id="Group-4" transform="translate(45.36)"><g id="Group-3"><g id="gmail" transform="translate(0 22.56)"><g id="Base"><use fill="#000" filter="url(#filter-3)" xlink:href="#path-2"/><use fill="#FFF" xlink:href="#path-2"/></g><path d="M26.427 325.911v3.828h-.255a2.912 2.912 0 0 0-2.912 2.907v16.008a2.912 2.912 0 0 0 2.912 2.906h22.376a2.912 2.912 0 0 0 2.912-2.906v-16.016a2.912 2.912 0 0 0-2.912-2.906h-.075v-3.828c0-6.068-4.945-11.004-11.023-11.004-6.078.007-11.023 4.944-11.023 11.011zm12.612 15.507c-.231.164-.293.321-.293.582.008 1.172.008 2.336.008 3.507.023.485-.231.963-.678 1.18-1.056.522-2.112-.21-2.112-1.18v-.007c0-1.172 0-2.343.007-3.515 0-.239-.054-.395-.27-.552-1.094-.783-1.456-2.119-.909-3.29.532-1.142 1.835-1.814 3.06-1.575 1.364.269 2.313 1.328 2.328 2.649 0 .918-.378 1.664-1.14 2.201zm-7.319-14.49c0-3.527 2.744-6.388 6.11-6.388 3.373 0 6.11 2.87 6.11 6.388v3.952H31.72v-3.952z" id="Shape" fill="#97A0A9" fill-rule="nonzero" opacity=".151"/><g id="Header" transform="translate(.7)"><path d="M0 4.993A4.996 4.996 0 0 1 4.997 0H348.74v37.6H0V4.993z" id="header" fill="url(#linearGradient-4)"/><path id="header-copy" fill="#F1F1F1" d="M0 36.849h348.74V67.68H0z"/><rect id="Rectangle-2" fill="#F1F1F1" x="43.24" y="17.86" width="50.76" height="19.74" rx=".94"/><text id="Fichier" font-family="Arial-BoldMT, Arial" font-size="8.353" font-weight="bold" fill="#FFF"><tspan x="7.52" y="30.56">Fichier</tspan></text><text id="Message" font-family="Arial-BoldMT, Arial" font-size="8.353" font-weight="bold" fill="#166AC3"><tspan x="50.76" y="30.56">Message</tspan></text><text id="Insérer" font-family="Arial-BoldMT, Arial" font-size="8.353" font-weight="bold" fill="#FFF"><tspan x="101.52" y="30.56">Insérer</tspan></text><g id="Group-7" transform="translate(6.58 4.7)"><g id="CloseIcon" transform="translate(31.198 .84)" stroke="#FFF" stroke-linecap="round" stroke-linejoin="round" stroke-width="1.316"><path d="M1.044 1.045l4.873 4.877" id="Path-326"/><path d="M1.044 5.922l4.873-4.877" id="Path-326-Copy"/></g><path d="M21.697 3.229l-3.437 3.44 1.216 1.216H16.52l.001-2.954 1.196 1.196 3.437-3.44-1.232-1.231 2.955-.002-.001 2.955-1.18-1.18z" id="Triangle-1" fill="#FFF"/><g id="Minimise" transform="translate(.57 6.415)" fill="#FFF" stroke="#FFF" stroke-width=".94"><path id="Rectangle-180" d="M.47.47h5.325v1H.47z"/></g></g></g><text transform="translate(7.66 105.282)" id="Subject" fill="#7F7777" font-family="Arial-BoldMT, Arial" font-size="8.353" font-weight="bold"><tspan x="0" y="8">Subject</tspan></text><g id="To" transform="translate(7.66 78.11)"><text font-family="Arial-BoldMT, Arial" font-size="8.353" font-weight="bold" fill="#7F7777"><tspan x="0" y="8">To</tspan></text><text id="Bcc" font-family="Arial-BoldMT, Arial" font-size="8.353" font-weight="bold" fill="#7F7777"><tspan x="318.112" y="8">Bcc</tspan></text><text id="Cc" font-family="Arial-BoldMT, Arial" font-size="8.353" font-weight="bold" fill="#7F7777"><tspan x="304.886" y="8">Cc</tspan></text><path d="M33.621.348v9.78" id="Prompt" stroke="#000" stroke-width=".564" stroke-linecap="square"/><text id="sarah" font-family="ArialMT, Arial" font-size="8.353" font-weight="normal" fill="#000"><tspan x="11.833" y="8">sarah</tspan></text></g><g id="SubjectSeparatos" transform="translate(.7 95.88)" stroke="#D8D8D8" stroke-linecap="square" stroke-width=".94"><path d="M.348 1.39h348.045" id="Line"/><path d="M.348 28.563h348.045" id="Line-Copy"/></g><g id="FormattingBar" transform="translate(10.1 46.06)"><g id="TextButtons" transform="translate(.833 .874)"><g id="SansSerif" transform="translate(0 1.393)"><path id="Triangle-3" fill="#6F6F6F" d="M41.417 4.18h2.785l-1.393 1.394z"/><text id="Sans-Serif" font-family="Arial-BoldMT, Arial" font-size="6.961" font-weight="bold" letter-spacing=".094" fill="#444"><tspan x="0" y="6">Sans Seri</tspan> <tspan x="32.574" y="6">f</tspan></text></g><g id="Typography" transform="translate(48.726)"><path id="Triangle-3-Copy" fill="#6F6F6F" d="M20.535 6.27h2.784l-1.392 1.394z"/><path d="M.278.348V10.8" id="Line" stroke="#CCC" stroke-width=".752" stroke-linecap="square"/><path d="M27.426.348V10.8" id="Line-Copy-6" stroke="#CCC" stroke-width=".752" stroke-linecap="square"/><g id="BigT" transform="translate(9.745 2.09)" stroke="#979797" stroke-linecap="square" stroke-width=".94"><path d="M.348 1.045H5.96m-2.828 0V6.62" id="Line"/></g><g id="SmallT" transform="translate(6.96 4.877)" stroke="#979797" stroke-linecap="square" stroke-width=".94"><path d="M.193.627h3.118m-1.571 0v3.344" id="Line"/></g></g><g id="Bold" transform="translate(82.834 2.787)" fill="#6F6F6F"><path d="M.56.088h2.192c.433 0 .757.018.97.054.213.036.594.284.763.399.168.114.308.267.42.458.112.19.169.405.169.642 0 .257-.07.493-.208.707a1.286 1.286 0 0 1-.563.483c.334.097.591.263.77.498.18.234.27.51.27.827 0 .249-.058.492-.174.727a1.466 1.466 0 0 1-.475.566c-.2.14-.639.055-.933.087-.184.02-.63.033-1.335.038H.561V.088zM1.668 1v1.268h.726c.431 0 .699-.006.804-.018a.731.731 0 0 0 .446-.197.58.58 0 0 0 .163-.428.602.602 0 0 0-.14-.414c-.094-.106-.233-.17-.417-.192a12.31 12.31 0 0 0-.946-.02h-.636zm0 2.182V4.65h1.025c.399 0 .652-.012.759-.034a.686.686 0 0 0 .402-.22.674.674 0 0 0 .155-.465.716.716 0 0 0-.12-.42.676.676 0 0 0-.346-.25c-.15-.052-.477-.078-.981-.078h-.894z" id="B"/></g><g id="Italic" transform="translate(100.933 2.09)" fill="#6F6F6F"><path d="M1.947.437l.048-.163H4.92l-.057.163c-.265 0-.468.06-.608.177-.14.118-.263.364-.369.739L2.79 5.19c-.08.272-.119.453-.119.544 0 .107.041.19.124.248.106.077.306.118.6.124l-.043.164H.378l.049-.164c.297 0 .515-.057.653-.17.139-.114.264-.362.376-.746l1.105-3.838a2.17 2.17 0 0 0 .101-.535A.303.303 0 0 0 2.54.56C2.457.498 2.26.457 1.948.436z" id="I"/></g><g id="Underscore" transform="translate(117.639 .348)"><text id="U" font-family="ArialMT, Arial" font-size="8.353" font-weight="normal" fill="#828282"><tspan x=".487" y="8">U</tspan></text><path id="Rectangle-181" fill="#909090" d="M.696 8.361h5.569v1H.696z"/></g><g id="Color" transform="translate(133.649)"><text id="A" font-family="ArialMT, Arial" font-size="8.353" font-weight="normal" fill="#6F6F6F"><tspan x="1.392" y="8">A</tspan></text><path id="Rectangle-182" fill="#A7A7A7" d="M0 9.058h8.353v1H0z"/><path id="Triangle-3-Copy-2" fill="#6F6F6F" d="M13.574 6.27h2.784l-1.392 1.394z"/><path d="M21.161.348V10.8" id="Line-Copy-7" stroke="#CCC" stroke-width=".752" stroke-linecap="square"/></g><g id="Paragraphs" transform="translate(160.796 2.09)"><path id="Rectangle-183" fill="#989898" d="M0 0h8.353v1H0z"/><path id="Rectangle-183-Copy" fill="#717171" d="M0 1.393h6.265v1H0z"/><path id="Rectangle-183-Copy-2" fill="#989898" d="M0 2.787h8.353v1H0z"/><path id="Rectangle-183-Copy-3" fill="#717171" d="M0 4.18h6.265v1H0z"/><path id="Rectangle-183-Copy-4" fill="#717171" d="M0 5.574h6.265v1H0z"/><path id="Rectangle-183-Copy-5" fill="#989898" d="M0 6.967h8.353v1H0z"/><path id="Triangle-3-Copy-3" fill="#6F6F6F" d="M13.574 4.18h2.784l-1.392 1.394z"/></g><g id="OrderedList" transform="translate(184.463 1.393)"><g id="1"><g id="1-+-Rectangle-189"><text id="1" font-family="ArialMT, Arial" font-size="2.784" font-weight="normal" fill="#989898"><tspan x="0" y="3">1</tspan></text><path id="Rectangle-189" stroke="#979797" stroke-width=".94" fill="#D8D8D8" d="M2.558 1.863h5.325v1H2.558z"/></g></g><g id="2" transform="translate(0 2.787)" fill="#6F6F6F"><g id="1-+-Rectangle-189"><text id="2" font-family="ArialMT, Arial" font-size="2.784" font-weight="normal"><tspan x="0" y="3">2</tspan></text><path id="Rectangle-189" d="M2.088 1.393h6.265v1H2.088z"/></g></g><g id="3" transform="translate(0 5.574)"><g id="1-+-Rectangle-189"><text id="3" font-family="ArialMT, Arial" font-size="2.784" font-weight="normal" fill="#989898"><tspan x="0" y="3">3</tspan></text><path id="Rectangle-189" stroke="#979797" stroke-width=".94" fill="#D8D8D8" d="M2.558 1.863h5.325v1H2.558z"/></g></g></g><g id="UnorderedList" transform="translate(201.865 1.393)"><g id="1"><g id="1-+-Rectangle-189"><ellipse id="Oval-121" fill="#979797" cx=".696" cy="1.045" rx="1" ry="1"/><path id="Rectangle-189" stroke="#979797" stroke-width=".94" fill="#D8D8D8" d="M2.558 1.167h5.325v1H2.558z"/></g></g><g id="2" transform="translate(0 2.787)" fill="#6F6F6F"><g id="1-+-Rectangle-189"><ellipse id="Oval-121" cx=".696" cy="1.045" rx="1" ry="1"/><path id="Rectangle-189" d="M2.088.697h6.265v1H2.088z"/></g></g><g id="3" transform="translate(0 5.574)"><g id="1-+-Rectangle-189" transform="translate(2.088 .697)" fill="#D8D8D8" stroke="#979797" stroke-width=".94"><path id="Rectangle-189" d="M.47.47h5.325v1H.47z"/></g><ellipse id="Oval-121-Copy" fill="#979797" cx=".696" cy="1.045" rx="1" ry="1"/></g></g><g id="AlignLeft" transform="translate(218.572 2.09)"><g id="Group" transform="translate(2.784 1.393)" fill="#717171"><path id="Rectangle-195-Copy" d="M.185.348h5.569v1H.185z"/><path id="Rectangle-195-Copy-2" d="M.185 1.393h5.569v1H.185z"/><path id="Rectangle-195-Copy-3" d="M.185 2.439h5.569v1H.185z"/><path id="Rectangle-195-Copy-4" d="M.185 3.484h5.569v1H.185z"/></g><g id="Rectangle-195-+-Rectangle-195-Copy-5" fill="#D8D8D8" stroke="#979797" stroke-width=".94"><path id="Rectangle-195" d="M.47.47h8.109v1H.47z"/><path id="Rectangle-195-Copy-5" d="M.47 6.741h8.109v1H.47z"/></g><path id="Triangle-3-Copy-4" fill="#6F6F6F" d="M2.436 2.787L2.341 4.18l-2.689-.708z"/></g><g id="AlignRight" transform="translate(235.974 2.09)"><g id="Group" transform="translate(2.784 1.393)" fill="#717171"><path id="Rectangle-195-Copy" d="M.185.348h5.569v1H.185z"/><path id="Rectangle-195-Copy-2" d="M.185 1.393h5.569v1H.185z"/><path id="Rectangle-195-Copy-3" d="M.185 2.439h5.569v1H.185z"/><path id="Rectangle-195-Copy-4" d="M.185 3.484h5.569v1H.185z"/></g><g id="Rectangle-195-+-Rectangle-195-Copy-5" fill="#D8D8D8" stroke="#979797" stroke-width=".94"><path id="Rectangle-195" d="M.47.47h8.109v1H.47z"/><path id="Rectangle-195-Copy-5" d="M.47 6.741h8.109v1H.47z"/></g><path id="Triangle-3-Copy-4" fill="#6F6F6F" d="M-.348 4.18V2.787l2.784.697z"/></g><g id="Apostrophes" transform="translate(154.531)"><path d="M103.002 5.512c-.034.934-.313 2.474-1.735 2.874-2.078.586-.74-.134-.74-.134s1.17-1.024.984-1.981h-1.719a.943.943 0 0 1-.948-.949V3.039c0-.524.416-.949.948-.949h2.281c.524 0 .948.416.948.949v2.283a.97.97 0 0 1-.019.19z" id="Rectangle-207" fill="#707070"/><path d="M108.571 5.512c-.034.934-.313 2.474-1.735 2.874-2.079.586-.74-.134-.74-.134s1.17-1.024.983-1.981h-1.718a.943.943 0 0 1-.948-.949V3.039c0-.524.416-.949.948-.949h2.281c.523 0 .948.416.948.949v2.283a.97.97 0 0 1-.019.19z" id="Rectangle-207-Copy" fill="#707070"/><path d="M114.437.348V10.8" id="Line-Copy-8" stroke="#CCC" stroke-width=".752" stroke-linecap="square"/></g><g id="Formatting" transform="translate(272.866 .697)" stroke="#979797" stroke-width=".94"><g id="T" transform="translate(1.392)" stroke-linecap="square"><path d="M.348 1.045h5.569m-2.437 0L1.392 6.62" id="Line"/></g><g id="Underline" transform="translate(0 7.664)" fill="#D8D8D8"><path id="Rectangle-209" d="M.47.47h3.933v1H.47z"/></g></g></g></g></g><g id="Group-2" transform="translate(251.68)"><mask id="mask-7" fill="#fff"><use xlink:href="#path-6"/></mask><g id="Oval-Copy"><circle stroke-opacity=".291" stroke="#FFF" stroke-width="7.52" fill="#FFF" cx="81.968" cy="81.968" r="85.54"/><circle stroke="url(#linearGradient-5)" stroke-width="3" cx="81.968" cy="81.968" r="83.28"/></g><g id="gmail-copy" opacity=".2" mask="url(#mask-7)"><g transform="translate(-673.228 -38.164)"><path id="Base" stroke="#CFCFCF" stroke-width="2.288" fill-opacity=".6" fill="#FFF" d="M1.144 83.497H847.55v672.55H1.144z"/><g id="Header" stroke="none" stroke-width="1" fill="none"><rect id="header" fill="#136EBE" x="0" y="0" width="848.694" height="84.641" rx="6.863"/><path id="header-copy" fill="#F1F1F1" d="M0 82.813h848.694v75.03H0z"/></g><g id="SubjectSeparatos" stroke="none" stroke-width="1" fill="none" transform="translate(0 292.81)" stroke-linecap="square"><path d="M.847 3.17h847.001" id="Line-Copy" stroke="#D8D8D8" stroke-width="2.288"/></g><g id="FormattingBar" stroke="none" stroke-width="1" fill="none" transform="translate(24.636 106.989)"><g id="TextButtons" transform="translate(.268 .367)"><g id="Color" transform="translate(325.248)"><path id="Triangle-3-Copy-2" fill="#6F6F6F" d="M33.033 15.26h6.776l-3.388 3.391z"/><path d="M51.498.848V26.28" id="Line-Copy-7" stroke="#CCC" stroke-width="1.83" stroke-linecap="square"/></g><g id="Paragraphs" transform="translate(391.314 5.087)"><path id="Rectangle-183" fill="#989898" d="M0 0h20.328v1.696H0z"/><path id="Rectangle-183-Copy" fill="#717171" d="M0 3.391h15.246v1.696H0z"/><path id="Rectangle-183-Copy-2" fill="#989898" d="M0 6.782h20.328v1.696H0z"/><path id="Rectangle-183-Copy-3" fill="#717171" d="M0 10.173h15.246v1.696H0z"/><path id="Rectangle-183-Copy-4" fill="#717171" d="M0 13.565h15.246v1.696H0z"/><path id="Rectangle-183-Copy-5" fill="#989898" d="M0 16.956h20.328v1.696H0z"/><path id="Triangle-3-Copy-3" fill="#6F6F6F" d="M33.033 10.173h6.776l-3.388 3.392z"/></g><g id="OrderedList" transform="translate(448.91 3.391)"><g id="1"><g id="1-+-Rectangle-189"><text id="1" font-family="ArialMT, Arial" font-size="6.776" font-weight="normal" fill="#989898"><tspan x="0" y="6">1</tspan></text><path id="Rectangle-189" stroke="#979797" stroke-width="2.288" fill="#D8D8D8" d="M6.226 4.535h12.958v1H6.226z"/></g></g><g id="2" transform="translate(0 6.782)" fill="#6F6F6F"><g id="1-+-Rectangle-189"><text id="2" font-family="ArialMT, Arial" font-size="6.776" font-weight="normal"><tspan x="0" y="6">2</tspan></text><path id="Rectangle-189" d="M5.082 3.391h15.246v1.696H5.082z"/></g></g><g id="3" transform="translate(0 13.565)"><g id="1-+-Rectangle-189"><text id="3" font-family="ArialMT, Arial" font-size="6.776" font-weight="normal" fill="#989898"><tspan x="0" y="6">3</tspan></text><path id="Rectangle-189" stroke="#979797" stroke-width="2.288" fill="#D8D8D8" d="M6.226 4.535h12.958v1H6.226z"/></g></g></g><g id="UnorderedList" transform="translate(491.26 3.391)"><g id="1"><g id="1-+-Rectangle-189"><ellipse id="Oval-121" fill="#979797" cx="1.694" cy="2.543" rx="1.694" ry="1.696"/><path id="Rectangle-189" stroke="#979797" stroke-width="2.288" fill="#D8D8D8" d="M6.226 2.839h12.958v1H6.226z"/></g></g><g id="2" transform="translate(0 6.782)" fill="#6F6F6F"><g id="1-+-Rectangle-189"><ellipse id="Oval-121" cx="1.694" cy="2.543" rx="1.694" ry="1.696"/><path id="Rectangle-189" d="M5.082 1.696h15.246v1.696H5.082z"/></g></g><g id="3" transform="translate(0 13.565)"><g id="1-+-Rectangle-189" transform="translate(5.082 1.696)" fill="#D8D8D8" stroke="#979797" stroke-width="2.288"><path id="Rectangle-189" d="M1.144 1.144h12.958v1H1.144z"/></g><ellipse id="Oval-121-Copy" fill="#979797" cx="1.694" cy="2.543" rx="1.694" ry="1.696"/></g></g><g id="AlignLeft" transform="translate(531.916 5.087)"><g id="Group" transform="translate(6.776 3.391)" fill="#717171"><path id="Rectangle-195-Copy" d="M.449.848h13.552v1.696H.449z"/><path id="Rectangle-195-Copy-2" d="M.449 3.391h13.552v1.696H.449z"/><path id="Rectangle-195-Copy-3" d="M.449 5.934h13.552V7.63H.449z"/><path id="Rectangle-195-Copy-4" d="M.449 8.478h13.552v1.696H.449z"/></g><g id="Rectangle-195-+-Rectangle-195-Copy-5" fill="#D8D8D8" stroke="#979797" stroke-width="2.288"><path id="Rectangle-195" d="M1.144 1.144h19.734v1H1.144z"/><path id="Rectangle-195-Copy-5" d="M1.144 16.404h19.734v1H1.144z"/></g><path id="Triangle-3-Copy-4" fill="#6F6F6F" d="M5.929 6.782l-.232 3.391-6.544-1.725z"/></g><g id="AlignRight" transform="translate(574.266 5.087)"><g id="Group" transform="translate(6.776 3.391)" fill="#717171"><path id="Rectangle-195-Copy" d="M.449.848h13.552v1.696H.449z"/><path id="Rectangle-195-Copy-2" d="M.449 3.391h13.552v1.696H.449z"/><path id="Rectangle-195-Copy-3" d="M.449 5.934h13.552V7.63H.449z"/><path id="Rectangle-195-Copy-4" d="M.449 8.478h13.552v1.696H.449z"/></g><g id="Rectangle-195-+-Rectangle-195-Copy-5" fill="#D8D8D8" stroke="#979797" stroke-width="2.288"><path id="Rectangle-195" d="M1.144 1.144h19.734v1H1.144z"/><path id="Rectangle-195-Copy-5" d="M1.144 16.404h19.734v1H1.144z"/></g><path id="Triangle-3-Copy-4" fill="#6F6F6F" d="M-.847 10.173v-3.39l6.776 1.695z"/></g><g id="Apostrophes" transform="translate(376.068)"><path d="M250.666 13.435c-.087 2.274-.773 6.002-4.222 6.973-5.058 1.425-1.8-.325-1.8-.325s2.848-2.494 2.392-4.823h-4.207a2.288 2.288 0 0 1-2.281-2.283V7.37a2.287 2.287 0 0 1 2.28-2.283h5.603a2.288 2.288 0 0 1 2.28 2.283v5.607c0 .157-.015.31-.045.458z" id="Rectangle-207" fill="#707070"/><path d="M264.218 13.435c-.087 2.274-.773 6.002-4.222 6.973-5.058 1.425-1.8-.325-1.8-.325s2.848-2.494 2.392-4.823h-4.207a2.288 2.288 0 0 1-2.281-2.283V7.37a2.287 2.287 0 0 1 2.28-2.283h5.603a2.288 2.288 0 0 1 2.28 2.283v5.607c0 .157-.015.31-.045.458z" id="Rectangle-207-Copy" fill="#707070"/><path d="M278.493.848V26.28" id="Line-Copy-8" stroke="#CCC" stroke-width="1.83" stroke-linecap="square"/></g><g id="Formatting" transform="translate(664.048 1.696)" stroke="#979797" stroke-width="2.288"><g id="T" transform="translate(3.388)" stroke-linecap="square"><path d="M.847 2.543h13.552m-5.929 0L3.388 16.108" id="Line"/></g><g id="Underline" transform="translate(0 18.651)" fill="#D8D8D8"><path id="Rectangle-209" d="M1.144 1.144h9.57v1h-9.57z"/></g></g></g></g></g></g></g></g><g id="Group-4-Copy-4" transform="translate(303.38 50.76)"><rect id="Rectangle-9" fill="url(#linearGradient-5)" x="0" y="0" width="62.04" height="62.04" rx="9.024"/><g id="Group" transform="translate(14.664 14.664)"><g id="Group-5" transform="translate(0 .071)" fill="#FFF"><path d="M11.402.038c6.297 0 11.402 5.11 11.402 11.415 0 6.304-5.105 11.414-11.402 11.414C5.105 22.867 0 17.757 0 11.453 0 5.149 5.105.038 11.402.038" id="Fill-1"/><path d="M21.286 10.902c6.297 0 11.402 5.11 11.402 11.414 0 6.304-5.105 11.415-11.402 11.415-6.297 0-11.402-5.11-11.402-11.415 0-6.304 5.105-11.414 11.402-11.414" id="Fill-3"/></g><g id="Group-8" transform="translate(11.34 23.104)"><mask id="mask-9" fill="#fff"><use xlink:href="#path-8"/></mask><path d="M.062.072C.445 5.204 4.722 9.25 9.946 9.25S19.447 5.204 19.83.072H.062z" id="Fill-6" fill="url(#linearGradient-10)" mask="url(#mask-9)"/></g><g id="Group-11" transform="translate(1.418 1.49)"><mask id="mask-12" fill="#fff"><use xlink:href="#path-11"/></mask><path d="M.1 9.245h19.769C19.485 4.113 15.209.068 9.984.068 4.761.068.484 4.113.1 9.245" id="Fill-9" fill="url(#linearGradient-13)" mask="url(#mask-12)"/></g><g id="Group-14" transform="translate(1.418 12.297)"><mask id="mask-15" fill="#fff"><use xlink:href="#path-14"/></mask><path d="M.1.07c.383 5.132 4.66 9.177 9.884 9.177h19.77C29.37 4.115 25.092.07 19.868.07H.1z" id="Fill-12" fill="url(#linearGradient-16)" mask="url(#mask-15)"/></g></g></g></g></g></g></g></svg>