<svg width="611" height="647" xmlns="http://www.w3.org/2000/svg" xmlns:xlink="http://www.w3.org/1999/xlink"><defs><linearGradient x1="20.573%" y1="-4.83%" x2="86.747%" y2="107.679%" id="linearGradient-1"><stop stop-color="#3975FB" offset="0%"/><stop stop-color="#0ACDFA" offset="100%"/></linearGradient><linearGradient x1="90.326%" y1="13.54%" x2="0%" y2="97.074%" id="linearGradient-2"><stop stop-color="#488DFC" offset="0%"/><stop stop-color="#31B8FC" offset="100%"/></linearGradient><path d="M9.417.297C4.38.297.35 4.562.35 9.894V99.7c0 5.33 4.03 9.597 9.067 9.597h67.822c5.037 0 9.063-4.267 9.063-9.597V21.268c0-1.066-.334-1.778-1.005-2.488L68.509 1.363C67.838.653 66.83.297 66.159.297H9.416z" id="path-3"/><filter x="-19.8%" y="-11.9%" width="139.6%" height="131.2%" filterUnits="objectBoundingBox" id="filter-5"><feOffset dy="4" in="SourceAlpha" result="shadowOffsetOuter1"/><feGaussianBlur stdDeviation="5" in="shadowOffsetOuter1" result="shadowBlurOuter1"/><feColorMatrix values="0 0 0 0 0.0898309499 0 0 0 0 0.110062043 0 0 0 0 0.178199405 0 0 0 0.183282382 0" in="shadowBlurOuter1"/></filter><path d="M9.118.29C4.24.29.339 4.436.339 9.623V96.98c0 5.185 3.902 9.335 8.779 9.335h65.666c4.877 0 8.775-4.15 8.775-9.335V20.688c0-1.037-.324-1.73-.973-2.42L66.33 1.326C65.681.636 64.707.29 64.056.29H9.118z" id="path-6"/><filter x="-16.8%" y="-9.4%" width="133.6%" height="126.4%" filterUnits="objectBoundingBox" id="filter-8"><feOffset dy="4" in="SourceAlpha" result="shadowOffsetOuter1"/><feGaussianBlur stdDeviation="4" in="shadowOffsetOuter1" result="shadowBlurOuter1"/><feColorMatrix values="0 0 0 0 0.0898309499 0 0 0 0 0.110062043 0 0 0 0 0.178199405 0 0 0 0.183282382 0" in="shadowBlurOuter1"/></filter><path d="M9.225.292C4.29.292.343 4.49.343 9.737v88.384c0 5.246 3.948 9.445 8.882 9.445h66.439c4.934 0 8.878-4.199 8.878-9.445v-77.19c0-1.049-.327-1.75-.984-2.448L67.112 1.342c-.658-.7-1.644-1.05-2.303-1.05H9.225z" id="path-9"/><filter x="-16.6%" y="-9.3%" width="133.3%" height="126.1%" filterUnits="objectBoundingBox" id="filter-11"><feOffset dy="4" in="SourceAlpha" result="shadowOffsetOuter1"/><feGaussianBlur stdDeviation="4" in="shadowOffsetOuter1" result="shadowBlurOuter1"/><feColorMatrix values="0 0 0 0 0.0898309499 0 0 0 0 0.110062043 0 0 0 0 0.178199405 0 0 0 0.183282382 0" in="shadowBlurOuter1"/></filter><path d="M.084.1c.523 7.04 6.352 12.589 13.471 12.589 7.12 0 12.95-5.55 13.472-12.59H.084z" id="path-12"/><linearGradient x1="0%" y1="50%" x2="100%" y2="50%" id="linearGradient-14"><stop stop-color="#17B3FB" offset="0%"/><stop stop-color="#01DBF9" offset="100%"/></linearGradient><path d="M.136 12.683H27.08C26.556 5.643 20.727.093 13.608.093 6.488.094.658 5.644.136 12.684" id="path-15"/><linearGradient x1="0%" y1="50%" x2="100%" y2="50%" id="linearGradient-17"><stop stop-color="#445DFB" offset="0%"/><stop stop-color="#2D8CFB" offset="100%"/></linearGradient><path d="M.136.096c.523 7.04 6.352 12.59 13.472 12.59H40.55C40.028 5.646 34.2.096 27.08.096H.136z" id="path-18"/><linearGradient x1="0%" y1="50%" x2="100%" y2="50%" id="linearGradient-20"><stop stop-color="#2D8CFB" offset="0%"/><stop stop-color="#17B3FB" offset="100%"/></linearGradient><filter x="-24.7%" y="-24.6%" width="161.5%" height="163%" filterUnits="objectBoundingBox" id="filter-21"><feOffset dx="10" dy="11" in="SourceAlpha" result="shadowOffsetOuter1"/><feGaussianBlur stdDeviation="15.5" in="shadowOffsetOuter1" result="shadowBlurOuter1"/><feColorMatrix values="0 0 0 0 0.235294118 0 0 0 0 0.615686275 0 0 0 0 0.97254902 0 0 0 0.13 0" in="shadowBlurOuter1" result="shadowMatrixOuter1"/><feMerge><feMergeNode in="shadowMatrixOuter1"/><feMergeNode in="SourceGraphic"/></feMerge></filter></defs><g id="Artboard-Copy-28" stroke="none" stroke-width="1" fill="none" fill-rule="evenodd"><g id="Group-4" transform="translate(79 117)"><path d="M0 75h4.471v4.498H0V75zm0 11.695h4.471v4.498H0v-4.498zM0 98.39h4.471v4.498H0V98.39zm0 11.695h4.471v4.498H0v-4.498zm0 11.695h4.471v4.498H0v-4.498zm0 11.695h4.471v4.498H0v-4.498zm0 11.695h4.471v4.498H0v-4.498zM11.625 75h4.47v4.498h-4.47V75zm0 11.695h4.47v4.498h-4.47v-4.498zm0 11.695h4.47v4.498h-4.47V98.39zm0 11.695h4.47v4.498h-4.47v-4.498zm0 11.695h4.47v4.498h-4.47v-4.498zm0 11.695h4.47v4.498h-4.47v-4.498zm0 11.695h4.47v4.498h-4.47v-4.498zM23.25 75h4.47v4.498h-4.47V75zm0 11.695h4.47v4.498h-4.47v-4.498zm0 11.695h4.47v4.498h-4.47V98.39zm0 11.695h4.47v4.498h-4.47v-4.498zm0 11.695h4.47v4.498h-4.47v-4.498zm0 11.695h4.47v4.498h-4.47v-4.498zm0 11.695h4.47v4.498h-4.47v-4.498zM34.874 75h4.472v4.498h-4.472V75zm0 11.695h4.472v4.498h-4.472v-4.498zm0 11.695h4.472v4.498h-4.472V98.39zm0 11.695h4.472v4.498h-4.472v-4.498zm0 11.695h4.472v4.498h-4.472v-4.498zm0 11.695h4.472v4.498h-4.472v-4.498zm0 11.695h4.472v4.498h-4.472v-4.498zM46.5 75h4.471v4.498H46.5V75zm11.625 0h4.471v4.498h-4.47V75zm11.625 0h4.471v4.498H69.75V75zM46.5 86.695h4.471v4.498H46.5v-4.498zm11.625 0h4.471v4.498h-4.47v-4.498zm11.625 0h4.471v4.498H69.75v-4.498zM46.499 98.39h4.471v4.498H46.5V98.39zm11.625 0h4.471v4.498h-4.47V98.39zm11.625 0h4.471v4.498h-4.471V98.39zm-23.25 11.695h4.471v4.498H46.5v-4.498zm11.625 0h4.471v4.498h-4.47v-4.498zm11.625 0h4.471v4.498h-4.471v-4.498zm-23.25 11.695h4.471v4.498H46.5v-4.498zm11.625 0h4.471v4.498h-4.47v-4.498zm11.625 0h4.471v4.498h-4.471v-4.498zm-23.25 11.695h4.471v4.498H46.5v-4.498zm11.625 0h4.471v4.498h-4.47v-4.498zm11.625 0h4.471v4.498h-4.471v-4.498zm-23.25 11.695h4.471v4.498H46.5v-4.498zm11.625 0h4.471v4.498h-4.47v-4.498zm11.625 0h4.471v4.498h-4.471v-4.498zM81.374 75h4.47v4.498h-4.47V75zm0 11.695h4.47v4.498h-4.47v-4.498zm0 11.695h4.47v4.498h-4.47V98.39zm0 11.695h4.47v4.498h-4.47v-4.498zm0 11.695h4.47v4.498h-4.47v-4.498zm0 11.695h4.47v4.498h-4.47v-4.498zm0 11.695h4.47v4.498h-4.47v-4.498zM92.999 75h4.47v4.498H93V75zm0 11.695h4.47v4.498H93v-4.498zm0 11.695h4.47v4.498H93V98.39zm0 11.695h4.47v4.498H93v-4.498zm0 11.695h4.47v4.498H93v-4.498zm0 11.695h4.47v4.498H93v-4.498zm0 11.695h4.47v4.498H93v-4.498zM104.623 75h4.471v4.498h-4.47V75zm0 11.695h4.471v4.498h-4.47v-4.498zm0 11.695h4.471v4.498h-4.47V98.39zm0 11.695h4.471v4.498h-4.47v-4.498zm0 11.695h4.471v4.498h-4.47v-4.498zm0 11.695h4.471v4.498h-4.47v-4.498zm0 11.695h4.471v4.498h-4.47v-4.498zM116.248 75h4.471v4.498h-4.47V75zm0 11.695h4.471v4.498h-4.47v-4.498zm0 11.695h4.471v4.498h-4.47V98.39zm0 11.695h4.471v4.498h-4.47v-4.498zm0 11.695h4.471v4.498h-4.47v-4.498zm0 11.695h4.471v4.498h-4.47v-4.498zm0 11.695h4.471v4.498h-4.47v-4.498zM127.873 75h4.471v4.498h-4.47V75zm11.625 0h4.471v4.498h-4.471V75zm11.625 0h4.47v4.498h-4.47V75zm-23.25 11.695h4.471v4.498h-4.47v-4.498zm11.625 0h4.471v4.498h-4.471v-4.498zm11.625 0h4.47v4.498h-4.47v-4.498zm-23.25 11.695h4.471v4.498h-4.47V98.39zm11.625 0h4.471v4.498h-4.471V98.39zm11.625 0h4.47v4.498h-4.47V98.39zm-23.25 11.695h4.471v4.498h-4.47v-4.498zm11.625 0h4.471v4.498h-4.471v-4.498zm11.625 0h4.47v4.498h-4.47v-4.498zm-23.25 11.695h4.471v4.498h-4.47v-4.498zm11.625 0h4.471v4.498h-4.471v-4.498zm11.625 0h4.47v4.498h-4.47v-4.498zm-23.25 11.695h4.471v4.498h-4.47v-4.498zm11.625 0h4.471v4.498h-4.471v-4.498zm11.625 0h4.47v4.498h-4.47v-4.498zm-23.25 11.695h4.471v4.498h-4.47v-4.498zm11.625 0h4.471v4.498h-4.471v-4.498zm11.625 0h4.47v4.498h-4.47v-4.498zm-69.75 11.695h4.472v4.498h-4.471v-4.498zm0 11.695h4.472v4.498h-4.471v-4.498zm0 11.695h4.472v4.498h-4.471v-4.498zm0 11.695h4.472v4.498h-4.471v-4.498zm0 11.695h4.472v4.498h-4.471v-4.498zm0 11.695h4.472v4.498h-4.471v-4.498zm0 11.695h4.472v4.498h-4.471v-4.498zM93 156.865h4.47v4.498H93v-4.498zm0 11.695h4.47v4.498H93v-4.498zm0 11.695h4.47v4.498H93v-4.498zm0 11.695h4.47v4.498H93v-4.498zm0 11.695h4.47v4.498H93v-4.498zm0 11.695h4.47v4.498H93v-4.498zm0 11.695h4.47v4.498H93v-4.498zm11.624-70.17h4.471v4.498h-4.47v-4.498zm0 11.695h4.471v4.498h-4.47v-4.498zm0 11.695h4.471v4.498h-4.47v-4.498zm0 11.695h4.471v4.498h-4.47v-4.498zm0 11.695h4.471v4.498h-4.47v-4.498zm0 11.695h4.471v4.498h-4.47v-4.498zm0 11.695h4.471v4.498h-4.47v-4.498zm11.625-70.17h4.471v4.498h-4.47v-4.498zm0 11.695h4.471v4.498h-4.47v-4.498zm0 11.695h4.471v4.498h-4.47v-4.498zm0 11.695h4.471v4.498h-4.47v-4.498zm0 11.695h4.471v4.498h-4.47v-4.498zm0 11.695h4.471v4.498h-4.47v-4.498zm0 11.695h4.471v4.498h-4.47v-4.498zm11.625-70.17h4.471v4.498h-4.47v-4.498zm11.625 0h4.471v4.498h-4.471v-4.498zm11.625 0h4.47v4.498h-4.47v-4.498zm-23.25 11.695h4.471v4.498h-4.47v-4.498zm11.625 0h4.471v4.498h-4.471v-4.498zm11.625 0h4.47v4.498h-4.47v-4.498zm-23.25 11.695h4.471v4.498h-4.47v-4.498zm11.625 0h4.471v4.498h-4.471v-4.498zm11.625 0h4.47v4.498h-4.47v-4.498zm-23.25 11.695h4.471v4.498h-4.47v-4.498zm11.625 0h4.471v4.498h-4.471v-4.498zm11.625 0h4.47v4.498h-4.47v-4.498zm-23.25 11.695h4.471v4.498h-4.47v-4.498zm11.625 0h4.471v4.498h-4.471v-4.498zm11.625 0h4.47v4.498h-4.47v-4.498zm-23.25 11.695h4.471v4.498h-4.47v-4.498zm11.625 0h4.471v4.498h-4.471v-4.498zm11.625 0h4.47v4.498h-4.47v-4.498zm-23.25 11.695h4.471v4.498h-4.47v-4.498zm11.625 0h4.471v4.498h-4.471v-4.498zm11.625 0h4.47v4.498h-4.47v-4.498zM0 156.865h4.471v4.498H0v-4.498zm0 11.695h4.471v4.498H0v-4.498zm0 11.695h4.471v4.498H0v-4.498zm0 11.695h4.471v4.498H0v-4.498zm0 11.695h4.471v4.498H0v-4.498zm0 11.695h4.471v4.498H0v-4.498zm0 11.695h4.471v4.498H0v-4.498zm11.625-70.17h4.47v4.498h-4.47v-4.498zm0 11.695h4.47v4.498h-4.47v-4.498zm0 11.695h4.47v4.498h-4.47v-4.498zm0 11.695h4.47v4.498h-4.47v-4.498zm0 11.695h4.47v4.498h-4.47v-4.498zm0 11.695h4.47v4.498h-4.47v-4.498zm0 11.695h4.47v4.498h-4.47v-4.498zm11.625-70.17h4.47v4.498h-4.47v-4.498zm0 11.695h4.47v4.498h-4.47v-4.498zm0 11.695h4.47v4.498h-4.47v-4.498zm0 11.695h4.47v4.498h-4.47v-4.498zm0 11.695h4.47v4.498h-4.47v-4.498zm0 11.695h4.47v4.498h-4.47v-4.498zm0 11.695h4.47v4.498h-4.47v-4.498zm11.624-70.17h4.472v4.498h-4.472v-4.498zm0 11.695h4.472v4.498h-4.472v-4.498zm0 11.695h4.472v4.498h-4.472v-4.498zm0 11.695h4.472v4.498h-4.472v-4.498zm0 11.695h4.472v4.498h-4.472v-4.498zm0 11.695h4.472v4.498h-4.472v-4.498zm0 11.695h4.472v4.498h-4.472v-4.498zm11.625-70.17h4.471v4.498H46.5v-4.498zm11.625 0h4.471v4.498h-4.47v-4.498zm11.625 0h4.471v4.498h-4.471v-4.498zm-23.25 11.695h4.471v4.498H46.5v-4.498zm11.625 0h4.471v4.498h-4.47v-4.498zm11.625 0h4.471v4.498h-4.471v-4.498zm-23.25 11.695h4.471v4.498H46.5v-4.498zm11.625 0h4.471v4.498h-4.47v-4.498zm11.625 0h4.471v4.498h-4.471v-4.498zm-23.25 11.695h4.471v4.498H46.5v-4.498zm11.625 0h4.471v4.498h-4.47v-4.498zm11.625 0h4.471v4.498h-4.471v-4.498zm-23.25 11.695h4.471v4.498H46.5v-4.498zm11.625 0h4.471v4.498h-4.47v-4.498zm11.625 0h4.471v4.498h-4.471v-4.498zm-23.25 11.695h4.471v4.498H46.5v-4.498zm11.625 0h4.471v4.498h-4.47v-4.498zm11.625 0h4.471v4.498h-4.471v-4.498zm-23.25 11.695h4.471v4.498H46.5v-4.498zm11.625 0h4.471v4.498h-4.47v-4.498zm11.625 0h4.471v4.498h-4.471v-4.498z" id="Combined-Shape" fill="url(#linearGradient-1)" opacity=".298"/><g id="Group-14" transform="translate(46)"><g id="Group-3" transform="translate(185.388)"><g id="Group-256-Copy-6" transform="translate(134.554 157.025)"><g id="Group-5"><mask id="mask-4" fill="#fff"><use xlink:href="#path-3"/></mask><g id="Fill-254"><use fill="#000" filter="url(#filter-5)" xlink:href="#path-3"/><use fill="url(#linearGradient-2)" xlink:href="#path-3"/></g><g id="noun_635661_cc" mask="url(#mask-4)"><g transform="translate(23.635 43.861)" id="Group"><path d="M34.826 28.963H2.74a1.978 1.978 0 0 1-1.966-1.978V2.422c0-1.087.885-1.978 1.966-1.978h32.086c1.08 0 1.965.89 1.965 1.978v24.562a1.977 1.977 0 0 1-1.965 1.979z" id="Shape" stroke="#FFF" stroke-width="1.224"/><g transform="translate(3.302 3.323)" fill="#FFF" fill-rule="nonzero"><ellipse id="Oval" cx="3.798" cy="3.242" rx="3.179" ry="3.199"/><path id="Rectangle-path" d="M.612 17.559h29.74v5.114H.612z"/><path d="M.619 17.559A7.437 7.437 0 0 1 2.592 14.7c.762-.675 1.713-1.543 2.987-1.51.89.023 1.51.47 2.66 1.302a13.604 13.604 0 0 1 2.328 2.134 112.577 112.577 0 0 1 5.547-5.218c2.944-2.587 3.754-3.097 4.79-3.06.993.036 1.876.55 4.867 3.82a97.375 97.375 0 0 1 4.58 5.39 316.04 316.04 0 0 1-14.296 1.192c-1.959.117-3.234.173-4.847.144a49.52 49.52 0 0 1-10.59-1.336z" id="Shape"/></g></g></g><path d="M67.56-.192v17.787c0 1.893 1.462 3.407 3.29 3.407h17.182c.73 0 1.463-.758 1.827-1.135 0-.758-.364-1.514-1.096-2.272L71.215-.948c-.73-.758-1.826-1.137-2.559-1.137-.73.38-1.096 1.137-1.096 1.893" id="Fill-262" fill="#3D77E3" mask="url(#mask-4)"/></g></g><rect id="Rectangle-Copy-2" fill="#E0EEFF" transform="rotate(148 107.271 114.709)" x="94.063" y="113.823" width="26.417" height="1.772" rx=".886"/><rect id="Rectangle-Copy-8" fill="#E0EEFF" transform="rotate(146 10.01 108.896)" x="-.264" y="108.01" width="20.547" height="1.772" rx=".886"/><rect id="Rectangle-Copy-9" fill="#E0EEFF" transform="rotate(41 109.808 393.932)" x="99.535" y="393.046" width="20.547" height="1.772" rx=".886"/><rect id="Rectangle-Copy-4" fill="#E0EEFF" transform="rotate(35 113.785 297.193)" x="100.576" y="296.307" width="26.417" height="1.772" rx=".886"/><rect id="Rectangle-Copy-6" fill="#E0EEFF" transform="rotate(-140 11.684 306.55)" x="-1.524" y="305.664" width="26.417" height="1.772" rx=".886"/><rect id="Rectangle-Copy-3" fill="#E0EEFF" transform="rotate(-37 114.813 19.522)" x="101.604" y="18.636" width="26.417" height="1.772" rx=".886"/><g id="Group-256-Copy-8" transform="translate(134.554 306.189)"><g id="Group-5"><mask id="mask-7" fill="#fff"><use xlink:href="#path-6"/></mask><g id="Fill-254"><use fill="#000" filter="url(#filter-8)" xlink:href="#path-6"/><use fill="url(#linearGradient-2)" xlink:href="#path-6"/></g><g id="Group" mask="url(#mask-7)" fill="#FFF" fill-rule="nonzero"><g transform="rotate(-15 84.004 -62.65)"><ellipse id="Oval" cx="4.157" cy="59.505" rx="3.009" ry="3.001"/><ellipse id="Oval" cx="7.257" cy="47.966" rx="3.009" ry="3.001"/><ellipse id="Oval" cx="10.357" cy="36.425" rx="3.009" ry="3.001"/><ellipse id="Oval" cx="13.458" cy="24.886" rx="3.009" ry="3.001"/><ellipse id="Oval" cx="8.419" cy="66.829" rx="3.009" ry="3.001"/><ellipse id="Oval" cx="11.519" cy="55.289" rx="3.009" ry="3.001"/><ellipse id="Oval" cx="14.62" cy="43.749" rx="3.009" ry="3.001"/><ellipse id="Oval" cx="17.72" cy="32.209" rx="3.009" ry="3.001"/><path d="M26.228 3.367l-7.23-1.932a2.283 2.283 0 0 0-2.787 1.604l-3.586 13.345a2.276 2.276 0 0 0 1.608 2.78l7.23 1.932a2.283 2.283 0 0 0 2.787-1.604l3.586-13.346a2.275 2.275 0 0 0-1.608-2.779zm-3.094 8.673l-5.807-1.552 1.556-5.792 5.807 1.552-1.556 5.792z" id="Shape"/></g></g><path d="M65.413-.187v17.302c0 1.842 1.416 3.314 3.185 3.314h16.636c.708 0 1.416-.737 1.77-1.104 0-.737-.354-1.473-1.062-2.21L68.952-.922c-.707-.737-1.769-1.106-2.478-1.106-.707.369-1.061 1.106-1.061 1.841" id="Fill-262" fill="#3D77E3" mask="url(#mask-7)"/></g></g><g id="Group-256-Copy-9" transform="translate(134.554 .174)"><g id="Group-5"><mask id="mask-10" fill="#fff"><use xlink:href="#path-9"/></mask><g id="Fill-254"><use fill="#000" filter="url(#filter-11)" xlink:href="#path-9"/><use fill="url(#linearGradient-2)" xlink:href="#path-9"/></g><path d="M32.375 55.87c.659 0 1.133-.157 1.422-.472.29-.314.435-.754.435-1.318 0-.25-.038-.476-.113-.681a1.387 1.387 0 0 0-.34-.528 1.532 1.532 0 0 0-.577-.34 2.55 2.55 0 0 0-.827-.12h-1.318v3.459h1.318zm0-5.354c.768 0 1.429.091 1.98.273.552.183 1.006.433 1.363.753s.62.696.79 1.13c.17.435.255.904.255 1.408a4.14 4.14 0 0 1-.262 1.498 3.005 3.005 0 0 1-.802 1.168c-.36.324-.815.578-1.366.76-.552.182-1.205.273-1.958.273h-1.318v3.647h-2.531v-10.91h3.849zm15.5 5.451a5.72 5.72 0 0 1-.408 2.183 5.107 5.107 0 0 1-1.15 1.73 5.213 5.213 0 0 1-1.786 1.138c-.696.272-1.468.408-2.317.408h-4.238v-10.91h4.238c.849 0 1.621.137 2.317.412a5.288 5.288 0 0 1 1.786 1.138c.495.484.878 1.06 1.15 1.726a5.7 5.7 0 0 1 .408 2.175zm-2.591 0c0-.539-.07-1.026-.21-1.46a3.12 3.12 0 0 0-.602-1.104 2.618 2.618 0 0 0-.963-.697 3.267 3.267 0 0 0-1.295-.243h-1.692v7.016h1.692c.484 0 .916-.081 1.295-.243.38-.162.7-.395.963-.697a3.12 3.12 0 0 0 .602-1.104c.14-.434.21-.924.21-1.468zm6.56-3.504v2.763h3.729v1.954h-3.73v4.246h-2.545v-10.91h7.023v1.947h-4.477z" id="PDF" fill="#FFF" mask="url(#mask-10)"/><path d="M66.182-.189v17.506c0 1.863 1.433 3.353 3.223 3.353h16.832c.716 0 1.433-.746 1.79-1.117 0-.746-.357-1.49-1.074-2.236L69.763-.933c-.715-.746-1.79-1.119-2.507-1.119-.715.373-1.074 1.12-1.074 1.863" id="Fill-262" fill="#3D77E3" mask="url(#mask-10)"/></g></g><g id="Group-21" transform="translate(37.69 188.04)"><g id="Group-9" transform="translate(13.524 29.751)"><mask id="mask-13" fill="#fff"><use xlink:href="#path-12"/></mask><path d="M.084.1c.523 7.04 6.352 12.589 13.471 12.589 7.12 0 12.95-5.55 13.472-12.59H.084z" id="Fill-7" fill="url(#linearGradient-14)" mask="url(#mask-13)"/></g><g id="Group-12" transform="translate(0 .097)"><mask id="mask-16" fill="#fff"><use xlink:href="#path-15"/></mask><path d="M.136 12.683H27.08C26.556 5.643 20.727.093 13.608.093 6.488.094.658 5.644.136 12.684" id="Fill-10" fill="url(#linearGradient-17)" mask="url(#mask-16)"/></g><g id="Group-15" transform="translate(0 14.924)"><mask id="mask-19" fill="#fff"><use xlink:href="#path-18"/></mask><path d="M.136.096c.523 7.04 6.352 12.59 13.472 12.59H40.55C40.028 5.646 34.2.096 27.08.096H.136z" id="Fill-13" fill="url(#linearGradient-20)" mask="url(#mask-19)"/></g></g></g><g id="Group-20" filter="url(#filter-21)" transform="translate(0 120.103)"><path id="Rectangle-3-Copy" fill="#E6F1FF" opacity=".812" d="M7.338 2.954h154.1v118.15H7.339z"/><g id="Group-2"><rect id="Rectangle-30" fill="#FAFAFA" x="0" y="0" width="170.245" height="53.167" rx="3.6"/><path d="M19.868 38.667h77.576a2.7 2.7 0 0 1 2.7 2.7v11.8H17.168v-11.8a2.7 2.7 0 0 1 2.7-2.7z" id="Rectangle-2" fill="#E9E9E9" opacity=".885"/><ellipse id="Oval-3" fill="#CADEF8" cx="13.591" cy="12.083" rx="2.146" ry="2.417"/><ellipse id="Oval-3-Copy" fill="#CADEF8" cx="20.744" cy="12.083" rx="2.146" ry="2.417"/><ellipse id="Oval-3-Copy-2" fill="#CADEF8" cx="27.897" cy="12.083" rx="2.146" ry="2.417"/><rect id="Rectangle" fill="#CADEF8" x="107.297" y="25.778" width="30.043" height="1.611" rx=".806"/><ellipse id="Oval-2" fill="#3AA8FC" cx="150.756" cy="27.389" rx="4.832" ry="4.833"/></g><g id="Group-2-Copy" transform="translate(0 56.121)"><rect id="Rectangle-30" fill="#FAFAFA" x="0" y="0" width="170.245" height="53.167" rx="3.6"/><path d="M19.868 38.667h77.576a2.7 2.7 0 0 1 2.7 2.7v11.8H17.168v-11.8a2.7 2.7 0 0 1 2.7-2.7z" id="Rectangle-2" fill="#E9E9E9" opacity=".885"/><ellipse id="Oval-3" fill="#CADEF8" cx="13.591" cy="12.083" rx="2.146" ry="2.417"/><ellipse id="Oval-3-Copy" fill="#CADEF8" cx="20.744" cy="12.083" rx="2.146" ry="2.417"/><ellipse id="Oval-3-Copy-2" fill="#CADEF8" cx="27.897" cy="12.083" rx="2.146" ry="2.417"/><rect id="Rectangle" fill="#CADEF8" x="107.297" y="25.778" width="30.043" height="1.611" rx=".806"/><ellipse id="Oval-2" fill="#3AA8FC" cx="150.756" cy="27.389" rx="4.832" ry="4.833"/></g><g id="Group-2-Copy-2" transform="translate(0 113.719)"><rect id="Rectangle-30" fill="#FAFAFA" x="0" y="0" width="170.245" height="53.167" rx="3.6"/><path d="M19.868 40.278h77.576a2.7 2.7 0 0 1 2.7 2.7v10.19H17.168v-10.19a2.7 2.7 0 0 1 2.7-2.7z" id="Rectangle-2" fill="#E9E9E9" opacity=".885"/><ellipse id="Oval-3" fill="#CADEF8" cx="13.591" cy="12.083" rx="2.146" ry="2.417"/><ellipse id="Oval-3-Copy" fill="#CADEF8" cx="20.744" cy="12.083" rx="2.146" ry="2.417"/><ellipse id="Oval-3-Copy-2" fill="#CADEF8" cx="27.897" cy="12.083" rx="2.146" ry="2.417"/><rect id="Rectangle" fill="#CADEF8" x="107.297" y="25.778" width="30.043" height="1.611" rx=".806"/><ellipse id="Oval-2" fill="#3AA8FC" cx="150.756" cy="27.389" rx="4.832" ry="4.833"/></g></g></g></g></g></svg>