<svg xmlns="http://www.w3.org/2000/svg" xmlns:xlink="http://www.w3.org/1999/xlink" width="16" height="15"><defs><path id="i5t0a" d="M1003.4 5246.81V5257h3.12v-10.19zm1.48-1.27c1.18 0 1.9-.79 1.9-1.77-.02-1-.72-1.77-1.88-1.77-1.15 0-1.9.76-1.9 1.77 0 .99.73 1.77 1.86 1.77zM1019 5257v-5.67c0-3.15-1.74-4.62-3.96-4.62-1.78 0-2.9 1-3.11 1.7v-1.6h-3.5c.04.85 0 10.19 0 10.19h3.5v-5.51c0-.31-.01-.62.08-.84.24-.61.75-1.25 1.68-1.25 1.22 0 1.77.95 1.77 2.33v5.27z"/></defs><use fill="#727279" xlink:href="#i5t0a" opacity=".6" transform="translate(-1003 -5242)"/></svg>