<svg xmlns="http://www.w3.org/2000/svg" xmlns:xlink="http://www.w3.org/1999/xlink" width="32" height="28" viewBox="0 0 32 28"><defs><path id="56pea" d="M931.6 1294.21c-2.57-1.82-3.64-.06-3.46.9.15.86 1.35 1.14 1.84 1.2 3.5.5 1.17 4.57-2.3 2.03"/><path id="56peb" d="M929.69 1292.39v.95"/><path id="56pec" d="M929.69 1299.14v1.25"/><path id="56ped" d="M924.02 1301.13a7.52 7.52 0 0 1-1.15-8.67 7.75 7.75 0 0 1 14.39 1.96 7.56 7.56 0 0 1-3.49 8.04"/><path id="56pee" d="M918.87 1301.99v11.6"/><path id="56pef" d="M915.62 1313.6c-.73 0-1.62-.94-1.62-1.65v-8.36c0-.72.3-1.62 1.45-1.6h3.42"/><path id="56peg" d="M925.78 1307.2h7.98l7.31-2.65c.8-.32 1.73.04 2.1.81.35.78.03 1.7-.74 2.1l-13.52 6.26-9.97-2.12"/><path id="56peh" d="M918.87 1303.59h10.97"/></defs><g><g transform="translate(-913 -1287)"><g><use fill="#fff" fill-opacity="0" stroke="#aa51ff" stroke-linecap="round" stroke-linejoin="round" stroke-miterlimit="50" stroke-width="1.6" xlink:href="#56pea"/></g><g><use fill="#fff" fill-opacity="0" stroke="#aa51ff" stroke-linecap="round" stroke-linejoin="round" stroke-miterlimit="50" stroke-width="1.6" xlink:href="#56peb"/></g><g><use fill="#fff" fill-opacity="0" stroke="#aa51ff" stroke-linecap="round" stroke-linejoin="round" stroke-miterlimit="50" stroke-width="1.6" xlink:href="#56pec"/></g><g><use fill="#fff" fill-opacity="0" stroke="#aa51ff" stroke-linecap="round" stroke-linejoin="round" stroke-miterlimit="50" stroke-width="1.6" xlink:href="#56ped"/></g><g><use fill="#fff" fill-opacity="0" stroke="#aa51ff" stroke-linecap="round" stroke-linejoin="round" stroke-miterlimit="50" stroke-width="1.6" xlink:href="#56pee"/></g><g><use fill="#fff" fill-opacity="0" stroke="#aa51ff" stroke-linecap="round" stroke-linejoin="round" stroke-miterlimit="50" stroke-width="1.6" xlink:href="#56pef"/></g><g><use fill="#fff" fill-opacity="0" stroke="#aa51ff" stroke-linecap="round" stroke-linejoin="round" stroke-miterlimit="50" stroke-width="1.6" xlink:href="#56peg"/></g><g><use fill="#fff" fill-opacity="0" stroke="#aa51ff" stroke-linecap="round" stroke-linejoin="round" stroke-miterlimit="50" stroke-width="1.6" xlink:href="#56peh"/></g></g></g></svg>