<svg version="1.1" id="Calque_1" xmlns="http://www.w3.org/2000/svg" x="0" y="0" viewBox="0 0 200 200" xml:space="preserve"><path d="M165.6 28.4c-14 0-25.7 10.3-28 23.7H97.1c-1-8-4.1-15.5-9-21.9-.9-1.1-2.2-1.8-3.6-1.8H18.9c-1.4 0-2.7.7-3.6 1.8-6.2 8.1-9.4 17.6-9.4 27.7 0 23.7 18.1 43.3 41.2 45.5v42.2c-12.2 1.4-23.2 8.5-29.5 19.2-.8 1.4-.8 3.1 0 4.5s2.3 2.3 3.9 2.3h120.8c2.5 0 4.5-2 4.5-4.5 0-1-.4-2-1-2.8-6.3-10.4-17.2-17.3-29.2-18.7v-32l33.1-33.1c4.7 3.2 10.2 4.9 15.9 4.9 15.7 0 28.5-12.8 28.5-28.5s-12.8-28.5-28.5-28.5zM81.9 159.5c-6.5-7.7-15.7-12.7-25.7-13.8v-42.2c10.6-1 20.4-5.7 27.9-13.3l23.5 23.5v32c-10 1.1-19.2 6.1-25.7 13.8zm30.2-54.1L87.9 81.2h48.4l-24.2 24.2zm33.2-33.2H78.9L67.8 61.1h88.6l-11.1 11.1zM21.2 37.4h60.9c3 4.4 5 9.4 5.8 14.7H15.4c.8-5.3 2.8-10.2 5.8-14.7zm-6.1 23.7h40l22.7 22.7c-6.9 7-16.2 10.9-26.1 10.9-19.2 0-35-14.8-36.6-33.6zm15.8 101.5c5.6-5.2 13-8.2 20.8-8.2s15.2 3 20.8 8.2H30.9zm60.4 0c5.6-5.2 13-8.2 20.8-8.2s15.2 3 20.8 8.2H91.3zm74.3-86.2c-3.3 0-6.5-.8-9.4-2.4l14.2-14.2c1.3-1.3 1.7-3.2 1-4.9-.7-1.7-2.3-2.8-4.2-2.8h-20.5c2.2-8.4 9.8-14.7 18.9-14.7 10.8 0 19.5 8.7 19.5 19.5s-8.8 19.5-19.5 19.5z" fill="#239efb"/></svg>