<svg xmlns="http://www.w3.org/2000/svg" xmlns:xlink="http://www.w3.org/1999/xlink" width="38" height="39"><defs><path id="bumha" d="M766.1 172.26V179h-6.38v-6.74a7.42 7.42 0 0 0 6.37 0zm-6.38-14.24V140h6.37v18.02a7.42 7.42 0 0 0-6.37 0zm8.28 7.12a5.16 5.16 0 0 1-5.1 5.23 5.16 5.16 0 0 1-5.09-5.23 5.16 5.16 0 0 1 5.1-5.22c2.8 0 5.09 2.33 5.09 5.22zm-15.92-3.52V179h-6.37v-17.38a7.42 7.42 0 0 0 6.37 0zm-6.37-14.23V140h6.37v7.39a7.42 7.42 0 0 0-6.37 0zm8.28 7.12a5.16 5.16 0 0 1-5.1 5.22 5.16 5.16 0 0 1-5.09-5.22 5.16 5.16 0 0 1 5.1-5.23c2.8 0 5.09 2.34 5.09 5.23zm-22.08 2.9V140h6.37v17.4a7.42 7.42 0 0 0-6.37 0zm6.37 14.23V179h-6.37v-7.36a7.42 7.42 0 0 0 6.37 0zm1.9-7.11a5.16 5.16 0 0 1-5.09 5.22 5.16 5.16 0 0 1-5.09-5.22 5.16 5.16 0 0 1 5.1-5.23c2.8 0 5.09 2.34 5.09 5.23z"/></defs><use fill="#bae2ff" xlink:href="#bumha" transform="translate(-730 -140)"/></svg>