<svg width="62" height="62" xmlns="http://www.w3.org/2000/svg"><defs><linearGradient x1="32.7%" y1="-90.947%" x2="94.23%" y2="224.695%" id="linearGradient-1"><stop stop-color="#3DA4FB" offset="0%"/><stop stop-color="#4D84F8" offset="100%"/></linearGradient></defs><g id="Page-1" stroke="none" stroke-width="1" fill="none" fill-rule="evenodd" opacity=".281"><g id="UseCase_cards" transform="translate(-1111 -95)" fill="url(#linearGradient-1)" fill-rule="nonzero"><g id="Manufacturing-Copy-4" transform="translate(1023 52)"><g id="noun_1116002_cc" transform="translate(88 43)"><g id="Group"><path d="M58.125.131H3.875C1.744.131 0 1.867 0 3.99v9.002h62V3.989A3.87 3.87 0 0 0 58.125.131zM12.918 7.853h-2.583V5.28h2.583v2.572zm7.75 0h-2.583V5.28h2.583v2.572zm7.75 0h-2.583V5.28h2.583v2.572zm7.75 0h-2.583V5.28h2.583v2.572zm7.75 0h-2.583V5.28h2.583v2.572zm7.75 0h-2.583V5.28h2.583v2.572zM0 58.01c0 2.123 1.744 3.859 3.875 3.859h54.25A3.87 3.87 0 0 0 62 58.01v-9.014H0v9.014zm49.085-3.864h2.583v2.572h-2.583v-2.572zm-7.75 0h2.583v2.572h-2.583v-2.572zm-7.75 0h2.583v2.572h-2.583v-2.572zm-7.75 0h2.583v2.572h-2.583v-2.572zm-7.75 0h2.583v2.572h-2.583v-2.572zm-7.75 0h2.583v2.572h-2.583v-2.572zm-6.46-38.584v30.862h54.25V15.562H3.875zm36.89 16.512l-15.5 10.287a1.34 1.34 0 0 1-.723.206c-.207 0-.414-.039-.607-.142a1.299 1.299 0 0 1-.685-1.144V20.706c0-.463.258-.9.685-1.131a1.33 1.33 0 0 1 1.33.064l15.5 10.287c.349.245.568.643.568 1.068 0 .437-.22.835-.568 1.08z" id="Shape"/></g></g></g></g></g></svg>