<svg xmlns="http://www.w3.org/2000/svg" xmlns:xlink="http://www.w3.org/1999/xlink" width="48" height="48"><defs><path id="tdv5a" d="M722.8 2704.73a7.73 7.73 0 0 1-2.75 5.63c-.33.3-.56.51-.83.68l-.87.55v3.75l-3.97 3.61 2.97 3.14-3.16 2.87 2.95 3.12-2.55 2.32-2.3-2.61.01-15.81-1.05-.52c-.87-.42-1.65-.99-2.32-1.7a7.7 7.7 0 0 1 .43-11.08 8 8 0 0 1 3.6-1.88v5.38a1.87 1.87 0 0 0 1.81 1.93 1.88 1.88 0 0 0 1.97-1.95v-5.34a7.98 7.98 0 0 1 3.93 2.28 7.7 7.7 0 0 1 2.12 5.63zm-17.6-10.19a3.9 3.9 0 0 1 3.53-2.54 3.7 3.7 0 0 1 2.87 1.43 10.8 10.8 0 0 0-4.43 2.57 11.54 11.54 0 0 0-1.97-1.46zm-5.67 18.12c-.46 0-.93-.04-1.38-.13l-1-.18-2.71 3.03h-4.8v4.32h-4.14v4.3H682v-3.72l10.67-11.64-.41-1.1c-.34-.9-.5-1.84-.5-2.81a7.86 7.86 0 0 1 7.77-7.93 7.63 7.63 0 0 1 4.8 1.69c-.59.95-1.03 1.98-1.31 3.06a1.83 1.83 0 0 0-3.35 1 1.86 1.86 0 0 0 1.77 1.95c.44.01.86-.13 1.18-.39v.08c-.09 2.4.53 4.73 1.78 6.72a7.66 7.66 0 0 1-4.87 1.75zm23.36-16.23a11.59 11.59 0 0 0-7.23-3.66 7.77 7.77 0 1 0-14.36.14 11.68 11.68 0 0 0-12.99 14.56L678 2718.53v8.94h11.04v-4.3h4.21v-4.31h2.8l2.51-2.77a11.6 11.6 0 0 0 8.45-2.66c.36.3.74.57 1.13.82l-.01 15.1 5.7 6.65 8.12-7.54-2.92-3.15 3.13-2.9-2.93-3.17 2.39-2.22-.01-3.48.48-.44.18-.17c2.28-2.12 3.6-5 3.72-8.12.12-3.12-.98-6.1-3.1-8.38z"/><linearGradient id="tdv5b" x1="724.3" x2="685.55" y1="2736" y2="2693.1" gradientUnits="userSpaceOnUse"><stop offset="0" stop-color="#60cb37"/><stop offset="1" stop-color="#5ebc31"/></linearGradient></defs><use fill="url(#tdv5b)" xlink:href="#tdv5a" opacity=".28" transform="translate(-678 -2688)"/></svg>