<svg xmlns="http://www.w3.org/2000/svg" xmlns:xlink="http://www.w3.org/1999/xlink" width="34" height="34"><defs><path id="6w80a" d="M684.12 1047.9a16.83 16.83 0 0 0 11.9-28.72l-2.38 2.37a13.45 13.45 0 1 1-11.2-3.82v3.4a10.1 10.1 0 1 0 8.81 2.8l-2.37 2.38a6.73 6.73 0 1 1-6.44-1.73v3.6a3.32 3.32 0 0 0-1.68 2.9 3.37 3.37 0 0 0 3.36 3.36 3.37 3.37 0 0 0 3.37-3.37 3.3 3.3 0 0 0-1.69-2.89v-13.93h-1.68a16.83 16.83 0 0 0 0 33.64z"/><linearGradient id="6w80b" x1="670.4" x2="700.95" y1="1014.25" y2="1047.89" gradientUnits="userSpaceOnUse"><stop offset="0" stop-color="#a152ec"/><stop offset="1" stop-color="#ca6efc"/></linearGradient></defs><use fill="url(#6w80b)" xlink:href="#6w80a" transform="translate(-667 -1014)"/></svg>