<svg xmlns="http://www.w3.org/2000/svg" xmlns:xlink="http://www.w3.org/1999/xlink" width="21" height="22"><defs><path id="7gtsa" d="M400.04 163.93c.52 0 .94.43.94.97 0 .53-.42.96-.94.96a.95.95 0 0 1-.94-.96c0-.54.42-.97.94-.97zm3.06 0c.52 0 .94.43.94.97 0 .53-.42.96-.94.96a.95.95 0 0 1-.94-.96c0-.54.42-.97.94-.97zm-3.26 3.89h15.1c1.55 0 2.84-.03 2.84-2.92 0-2.9-1.29-2.9-2.87-2.9h-15.07c-1.58 0-2.84 0-2.84 2.92s1.26 2.9 2.84 2.9z"/><path id="7gtsb" d="M400.04 171.93c.52 0 .94.43.94.97 0 .53-.42.96-.94.96a.95.95 0 0 1-.94-.96c0-.54.42-.97.94-.97zm3.06 0c.52 0 .94.43.94.97 0 .53-.42.96-.94.96a.95.95 0 0 1-.94-.96c0-.54.42-.97.94-.97zm-3.26 3.89h15.1c1.55 0 2.84-.03 2.84-2.92 0-2.9-1.29-2.9-2.87-2.9h-15.07c-1.58 0-2.84 0-2.84 2.92s1.26 2.9 2.84 2.9z"/><path id="7gtsc" d="M400.04 179.93c.52 0 .94.43.94.97 0 .53-.42.96-.94.96a.95.95 0 0 1-.94-.96c0-.54.42-.97.94-.97zm3.06 0c.52 0 .94.43.94.97 0 .53-.42.96-.94.96a.95.95 0 0 1-.94-.96c0-.54.42-.97.94-.97zm-3.26 3.89h15.1c1.55 0 2.84-.03 2.84-2.92 0-2.9-1.29-2.9-2.87-2.9h-15.07c-1.58 0-2.84 0-2.84 2.92s1.26 2.9 2.84 2.9z"/></defs><use fill="#f79353" xlink:href="#7gtsa" transform="translate(-397 -162)"/><use fill="#f79353" xlink:href="#7gtsb" transform="translate(-397 -162)"/><use fill="#f79353" xlink:href="#7gtsc" transform="translate(-397 -162)"/></svg>