<svg xmlns="http://www.w3.org/2000/svg" xmlns:xlink="http://www.w3.org/1999/xlink" width="35" height="27"><defs><path id="f53aa" d="M342 1676.57h-8.24v4.8a5.99 5.99 0 0 0 4.12 4.38c.29-.1.57-.21.84-.35a7.86 7.86 0 0 0 3.28-4.04zm-29.37-16.23l12.22 10.44 12.21-10.43c.4-.31.3-.52-.2-.52h-24.02c-.52 0-.6.2-.2.5zm17.94 25.13a.36.36 0 0 0 .28-.6 8.74 8.74 0 0 1 .34-8.83 8.8 8.8 0 0 1 7.9-4.04c.84.06 1.67.21 2.48.45a.33.33 0 0 0 .43-.32v-10.91c0-.54-.5-.7-.9-.36l-16.17 13.69-16.29-13.69a.54.54 0 0 0-.95.36v23.63c0 .3.19.55.47.62z"/><linearGradient id="f53ab" x1="314.39" x2="340.79" y1="1661.71" y2="1685.05" gradientUnits="userSpaceOnUse"><stop offset="0" stop-color="#488dfc"/><stop offset="1" stop-color="#31b8fc"/></linearGradient></defs><use fill="url(#f53ab)" xlink:href="#f53aa" transform="translate(-307 -1659)"/></svg>