<svg xmlns="http://www.w3.org/2000/svg" xmlns:xlink="http://www.w3.org/1999/xlink" width="27" height="30"><defs><path id="bnwwa" d="M1006.07 1317.55a.04.04 0 0 0-.03-.04 10.88 10.88 0 0 1-3.92-1.68.82.82 0 0 0-.92 0c-.74.5-2.24 1.38-3.92 1.68a.04.04 0 0 0-.03.04v3.43c0 3.05 3.2 5.08 4.41 5.74 1.2-.66 4.41-2.69 4.41-5.74zm-19.76 9.41h8.9v2.2h-8.9a3.31 3.31 0 0 1-3.31-3.3v-21.56c0-1.82 1.49-3.3 3.31-3.3h11.26l7.85 7.86v2.81h-2.2v-1.26h-3.93a3.31 3.31 0 0 1-3.31-3.3v-3.91h-9.67c-.6 0-1.1.5-1.1 1.1v21.56c0 .6.5 1.1 1.1 1.1zm11.87-19.85c0 .6.5 1.1 1.11 1.1h2.38l-3.49-3.48zm10.1 10.44v3.43c0 5.16-5.92 7.85-6.17 7.96l-.45.2-.45-.2c-.25-.1-6.17-2.8-6.17-7.96v-3.43c0-1.09.77-2.01 1.85-2.2a8.83 8.83 0 0 0 3.08-1.35 3.03 3.03 0 0 1 3.38 0c.49.33 1.75 1.1 3.08 1.35a2.24 2.24 0 0 1 1.85 2.2z"/></defs><g transform="translate(-982 -1300)"><use fill="#239efb" xlink:href="#bnwwa"/><use fill="#fff" fill-opacity="0" stroke="#fff" stroke-miterlimit="50" stroke-width=".6" xlink:href="#bnwwa"/></g></svg>