<svg xmlns="http://www.w3.org/2000/svg" xmlns:xlink="http://www.w3.org/1999/xlink" width="14" height="20"><defs><path id="m724a" d="M828.1 485.28h-1.86v-1.87h1.86zm0 2.8h-1.86v-1.87h1.86zm0 2.78h-1.86v-1.85h1.86zm0 2.8h-1.86v-1.85h1.86zm-2.8-8.38h-1.85v-1.87h1.86zm0 2.8h-1.85v-1.87h1.86zm0 2.78h-1.85v-1.85h1.86zm0 2.8h-1.85v-1.85h1.86zm-2.77-8.38h-1.88v-1.87h1.88zm0 2.8h-1.88v-1.87h1.88zm0 2.78h-1.88v-1.85h1.88zm0 2.8h-1.88v-1.85h1.88zm-2.8-8.38h-1.87v-1.87h1.86zm0 2.8h-1.87v-1.87h1.86zm0 2.78h-1.87v-1.85h1.86zm0 2.8h-1.87v-1.85h1.86zM816 481.55v18.65h4.65v-2.8h4.66v2.8h4.65v-18.65s-3.6-.55-7.05-.55c-3.46 0-6.91.55-6.91.55z"/></defs><use fill="#aa51ff" xlink:href="#m724a" transform="translate(-816 -481)"/></svg>