<svg xmlns="http://www.w3.org/2000/svg" xmlns:xlink="http://www.w3.org/1999/xlink" width="24" height="34"><defs><path id="372ca" d="M683.87 857c5.93 0 12.13.94 12.13.94V891h-8v-4.8h-8v4.8h-8v-33.06s5.93-.94 11.87-.94zm-3.37 20.55H677V881h3.5zm0-5.19H677v3.47h3.5zm0-5.18H677v3.47h3.5zm0-5.18H677v3.45h3.5zm5.25 15.55h-3.5V881h3.5zm0-5.19h-3.5v3.47h3.5zm0-5.18h-3.5v3.47h3.5zm0-5.18h-3.5v3.45h3.5zm5.25 15.55h-3.5V881h3.5zm0-5.19h-3.5v3.47h3.5zm0-5.18h-3.5v3.47h3.5zm0-5.18h-3.5v3.45h3.5z"/><linearGradient id="372cb" x1="661.16" x2="703.26" y1="863.18" y2="883.17" gradientUnits="userSpaceOnUse"><stop offset="0" stop-color="#9352ec"/><stop offset="1" stop-color="#d86efc"/></linearGradient></defs><use fill="url(#372cb)" xlink:href="#372ca" transform="translate(-672 -857)"/></svg>