<svg xmlns="http://www.w3.org/2000/svg" xmlns:xlink="http://www.w3.org/1999/xlink" width="28" height="35"><defs><path id="shwpa" d="M644.97 1676h-14.72a5.26 5.26 0 0 0-5.25 5.25v24.5c0 2.9 2.36 5.25 5.25 5.25h17.5c2.9 0 5.25-2.36 5.25-5.25v-21.72z"/><path id="shwpc" d="M640.92 1694.31c-.26.17-.33.34-.33.62v3.7a1.3 1.3 0 0 1-.77 1.25c-1.2.56-2.42-.22-2.42-1.24l.01-3.73c0-.25-.06-.42-.3-.58-1.26-.83-1.68-2.24-1.05-3.48.6-1.21 2.1-1.92 3.5-1.67 1.57.28 2.65 1.4 2.67 2.8 0 .97-.43 1.76-1.3 2.33z"/><linearGradient id="shwpb" x1="630.46" x2="652.02" y1="1678.54" y2="1710.05" gradientUnits="userSpaceOnUse"><stop offset="0" stop-color="#488dfc"/><stop offset="1" stop-color="#31b8fc"/></linearGradient></defs><use fill="url(#shwpb)" xlink:href="#shwpa" transform="translate(-625 -1676)"/><use fill="#fff" xlink:href="#shwpc" transform="translate(-625 -1676)"/></svg>