<svg xmlns="http://www.w3.org/2000/svg" xmlns:xlink="http://www.w3.org/1999/xlink" width="29" height="30"><defs><path id="2fxoa" d="M856.95 1325.96h-8.08c-2.52 0-4.65-1.94-4.71-1.99l-5.54-5.3-.04-.03a1.1 1.1 0 0 1-.1-1.55 1.1 1.1 0 0 1 1.56-.1l2.27 2.02a1.9 1.9 0 0 0 1.33.49c1.93-.08 3.13-1.93 3.13-3.6v-11.06a.94.94 0 0 1 1.88 0v8.86h2.2v-10.56a.94.94 0 0 1 1.88 0v10.56h2.21v-8.56c0-.53.42-.96.94-.96s.94.43.94.96v8.56h2.2v-6.2c0-.48.38-1.02.92-1.02.3 0 1.02.1 1.02.95v14.54a4 4 0 0 1-4 3.99zm2.99-21.68c-.34 0-.68.06-.99.17a3.15 3.15 0 0 0-4.16-2.27 3.15 3.15 0 0 0-5.9-.25 3.14 3.14 0 0 0-4.33 2.91v11.06c0 .53-.33 1.26-.88 1.38l-2.17-1.93a3.3 3.3 0 0 0-4.68.29 3.27 3.27 0 0 0 .27 4.64l5.54 5.28c.11.11 2.79 2.6 6.23 2.6h8.08a6.21 6.21 0 0 0 6.22-6.2v-14.53c0-1.82-1.36-3.15-3.23-3.15z"/></defs><g transform="translate(-835 -1299)"><use fill="#239efb" xlink:href="#2fxoa"/><use fill="#fff" fill-opacity="0" stroke="#fff" stroke-miterlimit="50" stroke-width=".6" xlink:href="#2fxoa"/></g></svg>