<svg xmlns="http://www.w3.org/2000/svg" xmlns:xlink="http://www.w3.org/1999/xlink" width="34" height="32"><defs><path id="ow3ya" d="M713.9 2586.66h.1v-.01h6c.12 0 .24 0 .35.03a26.7 26.7 0 0 0-.26-1.46c-.38-1.8-.76-2.5-.93-2.73-.29.11-.72.45-.89.58-.35.28-.66.52-1.14.52-.49 0-.8-.24-1.15-.52a4.45 4.45 0 0 0-.89-.59c-.17.24-.55.94-.93 2.76-.11.5-.2 1-.26 1.42zm19.1-15.85v22.38c0 2.1-1.68 3.81-3.75 3.81h-24.5a3.79 3.79 0 0 1-3.75-3.81v-22.38c0-2.1 1.68-3.81 3.75-3.81h24.5a3.79 3.79 0 0 1 3.75 3.81zm-2.5 6.36h-27v16.02c0 .7.56 1.27 1.25 1.27h24.5c.69 0 1.25-.57 1.25-1.27zm0-6.35c0-.7-.56-1.28-1.25-1.28h-24.5c-.69 0-1.25.57-1.25 1.28v3.82h27zm-20.75 1.26c0-.7.56-1.27 1.25-1.27s1.25.57 1.25 1.27c0 .7-.56 1.28-1.25 1.28s-1.25-.57-1.25-1.27zm-4.37 0c0-.7.56-1.27 1.25-1.27s1.25.57 1.25 1.27c0 .7-.56 1.28-1.25 1.28s-1.25-.57-1.25-1.27zm6.25 17.17h-2.88v-2.55h2.62c.09-.65.24-1.6.46-2.55.44-1.82 1.23-4.25 3.1-4.25.88 0 1.64.46 2.2.87.55-.4 1.32-.87 2.18-.87 1.88 0 2.67 2.43 3.1 4.25.23.95.38 1.9.47 2.55h2.37v2.55h-2.75a2.52 2.52 0 0 1-2.5 2.47c-1.25 0-2.29-2.08-2.47-2.47h-.93c-.19.39-1.22 2.47-2.47 2.47a2.52 2.52 0 0 1-2.5-2.47z"/></defs><g transform="translate(-700 -2566)"><use fill="#239efb" xlink:href="#ow3ya"/><use fill="#fff" fill-opacity="0" stroke="#fff" stroke-miterlimit="50" stroke-width=".68" xlink:href="#ow3ya"/></g></svg>