<svg xmlns="http://www.w3.org/2000/svg" xmlns:xlink="http://www.w3.org/1999/xlink" width="32" height="33"><defs><path id="skgna" d="M128.63 1689.9c.8 0 1.43.64 1.43 1.44 0 .8-.64 1.44-1.43 1.44-.79 0-1.43-.64-1.43-1.44 0-.8.64-1.44 1.43-1.44zm4.67 0c.79 0 1.43.64 1.43 1.44 0 .8-.64 1.44-1.43 1.44-.8 0-1.43-.64-1.43-1.44 0-.8.64-1.44 1.43-1.44zm-4.97 5.82h23c2.37 0 4.33-.03 4.33-4.38 0-4.34-1.96-4.34-4.37-4.34h-22.96c-2.41 0-4.33 0-4.33 4.38s1.92 4.34 4.33 4.34z"/><path id="skgnc" d="M128.63 1701.9c.8 0 1.43.64 1.43 1.44 0 .8-.64 1.44-1.43 1.44-.79 0-1.43-.64-1.43-1.44 0-.8.64-1.44 1.43-1.44zm4.67 0c.79 0 1.43.64 1.43 1.44 0 .8-.64 1.44-1.43 1.44-.8 0-1.43-.64-1.43-1.44 0-.8.64-1.44 1.43-1.44zm-4.97 5.82h23c2.37 0 4.33-.03 4.33-4.38 0-4.34-1.96-4.34-4.37-4.34h-22.96c-2.41 0-4.33 0-4.33 4.38s1.92 4.34 4.33 4.34z"/><path id="skgne" d="M128.63 1713.9c.8 0 1.43.64 1.43 1.44 0 .8-.64 1.44-1.43 1.44-.79 0-1.43-.64-1.43-1.44 0-.8.64-1.44 1.43-1.44zm4.67 0c.79 0 1.43.64 1.43 1.44 0 .8-.64 1.44-1.43 1.44-.8 0-1.43-.64-1.43-1.44 0-.8.64-1.44 1.43-1.44zm-4.97 5.82h23c2.37 0 4.33-.03 4.33-4.38 0-4.34-1.96-4.34-4.37-4.34h-22.96c-2.41 0-4.33 0-4.33 4.38s1.92 4.34 4.33 4.34z"/><linearGradient id="skgnb" x1="155.29" x2="125.48" y1="1695.24" y2="1691.86" gradientUnits="userSpaceOnUse"><stop offset="0" stop-color="#f6be4f"/><stop offset="1" stop-color="#f78455"/></linearGradient><linearGradient id="skgnd" x1="155.66" x2="124" y1="1708.82" y2="1697.79" gradientUnits="userSpaceOnUse"><stop offset="0" stop-color="#f6be4f"/><stop offset="1" stop-color="#f78455"/></linearGradient><linearGradient id="skgnf" x1="155.66" x2="124" y1="1720.82" y2="1709.79" gradientUnits="userSpaceOnUse"><stop offset="0" stop-color="#f6be4f"/><stop offset="1" stop-color="#f78455"/></linearGradient></defs><use fill="url(#skgnb)" xlink:href="#skgna" transform="translate(-124 -1687)"/><use fill="url(#skgnd)" xlink:href="#skgnc" transform="translate(-124 -1687)"/><use fill="url(#skgnf)" xlink:href="#skgne" transform="translate(-124 -1687)"/></svg>