<svg version="1.1" id="Calque_1" xmlns="http://www.w3.org/2000/svg" x="0" y="0" viewBox="0 0 100 100" xml:space="preserve"><path d="M87.9 65.2l-16.1-8.3c-3.5-1.8-7.9-.9-10.4 2.3l-4.3 5.5c-4.2-2.4-8-5.1-12.2-9.4-4.4-4.4-7-8.1-9.5-12.5l5.5-4.3C44 36 45 31.7 43.2 28.1l-8.3-16c-1.1-2.1-3-3.6-5.3-4.2s-4.7-.2-6.7 1.1l-10.2 6.8c-3.3 2.2-5.1 5.9-4.9 9.9.3 4.2.7 7.4 1.3 9.7 3.1 12 10.5 24.3 20.9 34.7S52.7 87.9 64.7 91c2.3.6 5.6 1 9.7 1.3h.7c3.7 0 7.2-1.9 9.2-5L91 77c1.3-2 1.6-4.4 1-6.6s-2-4.1-4.1-5.2zM86 73.8l-6.7 10.3c-1 1.5-2.7 2.4-4.5 2.3-3.7-.2-6.7-.6-8.6-1.1-10.9-2.8-22.3-9.7-31.9-19.4-9.7-9.7-16.5-21-19.4-31.9-.5-1.9-.9-4.9-1.1-8.6-.1-1.8.7-3.5 2.2-4.5l10.2-6.8c.5-.3.9-.4 1.3-.4.2 0 .4 0 .6.1.4.1 1.1.4 1.5 1.2l8.3 16c.5 1 .2 2.2-.6 2.9l-9.5 7.4 1.2 2.2c3.1 5.8 6.1 10.5 11.8 16.1 5.5 5.5 10.3 8.6 15.9 11.6l2.2 1.2 7.5-9.6c.7-.9 1.9-1.1 2.9-.6l16.1 8.3c.6.3 1 .8 1.2 1.5-.1.6-.2 1.3-.6 1.8z" fill="#239efb" id="Calque_1_1_"/></svg>