<svg xmlns="http://www.w3.org/2000/svg" xmlns:xlink="http://www.w3.org/1999/xlink" width="30" height="30"><defs><path id="jtyna" d="M1122.14 1314.14a5.95 5.95 0 1 1 11.9.01 5.95 5.95 0 0 1-11.9-.01zm14.52 9.02c-1.74 0-3.37.83-4.4 2.2h-6.78l-2.79 2.79v1.08l2.8 2.73h6.77a5.5 5.5 0 1 0 4.4-8.8zm0 8.8a3.31 3.31 0 0 1-2.86-1.65l-.32-.55h-2.5l-1.6-1.51-1.43 1.51h-1.57l-1.1-1.08 1.11-1.12h7.1l.31-.55a3.3 3.3 0 1 1 2.86 4.95zm1.1-2.2a1.1 1.1 0 1 0 0-2.2 1.1 1.1 0 0 0 0 2.2zm-1.54-15.62a8.15 8.15 0 0 0-16.28 0c0 2.78 1.4 5.24 3.53 6.7-1.99.7-3.81 1.83-5.35 3.36a13.99 13.99 0 0 0-4.12 9.96h2.2a11.9 11.9 0 0 1 11.88-11.88 8.15 8.15 0 0 0 8.14-8.14z"/></defs><g transform="translate(-1113 -1305)"><use fill="#239efb" xlink:href="#jtyna"/><use fill="#fff" fill-opacity="0" stroke="#fff" stroke-miterlimit="50" stroke-width=".6" xlink:href="#jtyna"/></g></svg>