<svg xmlns="http://www.w3.org/2000/svg" xmlns:xlink="http://www.w3.org/1999/xlink" width="77" height="61"><defs><path id="k48ya" d="M809.9 2701.8v31.38a2 2 0 0 1-2.05 2.03 2 2 0 0 1-2.05-2.03v-29.49zm-63 27.3v-20.62l23.4 10.75c.29.15.58.15.87.15.3 0 .58 0 .88-.15l23.38-10.75v20.77c0 4.65-9.94 10.03-24.26 10.03-14.32 0-24.26-5.38-24.26-10.17zm-14.02-31.65l38.29-17.72 38.29 17.72-38.29 17.72z"/><linearGradient id="k48yb" x1="749.41" x2="789.6" y1="2663.23" y2="2751.67" gradientUnits="userSpaceOnUse"><stop offset="0" stop-color="#fad961"/><stop offset="1" stop-color="#f76b1c"/></linearGradient></defs><use fill="url(#k48yb)" xlink:href="#k48ya" opacity=".28" transform="translate(-733 -2679)"/></svg>