<svg version="1.1" id="Calque_1" xmlns="http://www.w3.org/2000/svg" x="0" y="0" width="25" height="25" xml:space="preserve"><path d="M15.5-279.1c0 .1-.1.1 0 0l-.2.1c-.1 0-.1-.1-.2-.2 0 0-.1-.1-.1-.2s0-.1.1-.1l.2.1c.1.1.2.2.2.3m-1.5-.8c0-.4-.2-.7-.4-.7 0 0 0 .1-.1.1v.2h.2c0 .2.1.2.1.4h.2m2.9-.4c.2 0 .2.2.3.4h.2c-.1-.1-.1-.2-.1-.2 0-.1 0-.2-.1-.2s-.2-.2-.2-.2-.1.1-.2.1c0 0 .1 0 .1.1m-2.5 1.3c-.1 0-.1 0 0 0-.1-.2-.1-.2 0-.3.2 0 .2-.1.2-.1.1 0 .1.1.1.1l-.3.3m-.9-.1c-.3-.2-.4-.4-.4-.8 0-.2 0-.4.2-.6.1-.2.2-.2.4-.2s.2.1.4.2c.1.2.2.5.2.7v.2h.1v-.1c.1 0 .1-.2.1-.5 0-.2 0-.5-.2-.7s-.3-.4-.7-.4c-.2 0-.5.2-.6.4-.2.3-.2.6-.2 1 0 .3.1.7.4 1 .1-.1.2-.1.3-.2m10.2 11.6c.1 0 .1 0 .1-.1 0-.2-.1-.4-.3-.6-.2-.2-.7-.4-1.1-.5h-.7c.2-.8.3-1.4.3-2 0-.8-.2-1.4-.5-1.9s-.7-.7-1.1-.8c-.1.1-.1.1-.1.2.4.2.8.5 1.1 1 .2.6.3 1.1.3 1.6s-.1 1.1-.4 2c-.3.1-.7.4-.9.9 0 .1 0 .1.1.1l.2-.2c.2-.1.2-.3.4-.4.2-.1.4-.2.7-.2.4 0 .8.1 1.1.2.3.1.5.2.6.4.1.1.2.2.2.3 0-.1 0 0 0 0m-7.5-11.9c-.1-.1-.1-.2-.1-.4 0-.3 0-.5.2-.7s.3-.2.5-.2.4.2.6.3c.1.2.2.4.2.7 0 .4-.2.7-.5.7 0 0 .1.1.2.1.2 0 .2.1.4.2.1-.5.2-.8.2-1.2 0-.5-.1-.8-.2-1.1-.2-.2-.5-.3-.8-.3-.2 0-.5.1-.7.2-.2.2-.2.4-.2.7 0 .4.1.7.2 1.1-.2-.2-.1-.1 0-.1m1 1.3c-1.1.7-1.9 1.1-2.5 1.1s-1.1-.2-1.6-.7c.1.2.2.3.2.4l.5.5c.3.3.7.5 1.1.5.6 0 1.2-.3 2.1-.9l.7-.5c.2-.2.3-.3.3-.6 0-.1 0-.2-.1-.2-.1-.2-.5-.4-1.3-.7-.7-.3-1.3-.5-1.6-.5-.2 0-.7.2-1.2.5s-.8.7-.8 1l.2.2c.5.4 1 .7 1.5.7.7 0 1.5-.3 2.5-1.1v.3c0-.1 0 0 0 0m1.9 16.5c.3.6.9.9 1.6.9.2 0 .3 0 .5-.1.2 0 .3-.1.4-.2s.2-.1.2-.2l.2-.1 1.4-1.2c.3-.3.7-.5 1.1-.7.3-.2.7-.3.8-.4l.6-.3c.1-.1.2-.3.2-.5s-.2-.4-.3-.5c-.2-.1-.3-.2-.5-.3s-.3-.2-.6-.4c-.2-.2-.3-.5-.4-.9l-.1-.5c-.1-.2-.1-.4-.2-.5h-.1c-.1 0-.2.1-.3.2-.2.1-.3.3-.5.5-.1.2-.3.3-.5.5-.2.1-.5.2-.7.2-.7 0-1-.2-1.2-.5s-.2-.6-.3-.9c-.2-.1-.2-.2-.4-.2-.4 0-.6.4-.6 1.3v2.6c0 .1-.1.2-.1.5-.1.3-.1.5-.1.9l-.1.8M7.2-262c.8.1 1.6.4 2.6.7 1 .4 1.6.5 1.8.5.6 0 1.1-.3 1.4-.7.1-.2.1-.3.1-.6 0-.8-.5-1.8-1.4-2.9l-.6-.7c-.1-.2-.3-.4-.4-.7-.2-.3-.3-.6-.5-.7-.1-.2-.3-.4-.5-.6s-.5-.3-.7-.4c-.3.1-.6.2-.7.3-.1.2-.2.3-.2.5s-.1.3-.2.3-.2.1-.4.1h-.3c-.4 0-.7 0-.9.1-.2.2-.3.5-.3.8 0 .1 0 .4.1.7.1.3.1.5.1.7 0 .3-.1.7-.3 1-.2.4-.3.6-.3.8 0 .4.6.7 1.6.8m2.7-7.5c0-.6.1-1.2.5-1.9.3-.7.6-1.2.9-1.6 0-.1-.1-.1-.1-.1l-.1-.1c-.2.2-.5.8-.9 1.6-.3.7-.5 1.4-.5 1.9 0 .4.1.7.3 1s.6.7 1.3 1.2l.9.6c.9.8 1.4 1.4 1.4 1.7 0 .2-.1.3-.3.5s-.4.3-.6.3v.1s.1.2.3.5c.3.5 1.1.7 2.1.7 1.8 0 3.2-.7 4.3-2.2 0-.4 0-.7-.1-.8v-.3c0-.5.1-.9.2-1.2.2-.3.3-.4.6-.4.2 0 .3.1.5.2.1-.6.1-1.2.1-1.7 0-.7 0-1.4-.2-1.9-.1-.5-.2-.9-.4-1.2-.2-.2-.3-.5-.5-.7s-.2-.5-.4-.7c-.1-.3-.2-.6-.2-1-.2-.4-.4-.8-.7-1.2-.2-.4-.3-.8-.5-1.1l-.7.6c-.8.6-1.5.8-2.1.8-.5 0-.9-.1-1.1-.4l-.5-.4c0 .2-.1.6-.2.9l-.5 1c-.2.6-.4.9-.4 1.1s-.1.3-.1.3l-.6 1.2c-.7 1.2-1 2.4-1 3.3v.6c-.5-.3-.7-.7-.7-1.2m5.9 7.8c-1.1 0-1.9.1-2.5.4-.4.5-.9.7-1.5.7-.4 0-1-.2-1.9-.5s-1.6-.5-2.3-.7c-.1 0-.2 0-.5-.1-.2 0-.4-.1-.6-.1s-.4-.1-.6-.2-.4-.1-.5-.3c-.1-.1-.2-.2-.2-.4 0-.1 0-.3.1-.4s.1-.2.2-.3c.1-.1.1-.2.1-.3 0-.1.1-.1.1-.2s.1-.1.1-.2v-.2s0-.3-.1-.8c-.1-.4-.1-.7-.1-.8 0-.4.1-.6.3-.9.2-.2.4-.3.5-.3h.9c.1 0 .2 0 .4-.1.1-.1.1-.2.1-.3 0-.1.1-.2.1-.2v-.1c0-.1.1-.1.1-.2-.1-.1-.1-.2-.1-.3v-.2c0-.3.1-.7.4-1.3l.3-.5c.2-.4.4-.8.5-1.1.1-.3.3-.8.5-1.5.1-.6.4-1.1.9-1.7l.6-.7c.4-.5.7-.9.9-1.2.2-.3.2-.7.2-1.1 0-.2 0-.7-.1-1.5s-.1-1.6-.1-2.4c0-.6 0-1 .2-1.4s.3-.8.6-1.1c.2-.3.6-.7 1.1-.8.5-.2 1.1-.2 1.7-.2.2 0 .5 0 .7.1.2 0 .6.1 1 .2.3.2.7.3.9.6.3.2.6.7.8 1.1.2.5.3 1 .4 1.6.1.4.1.8.2 1.4 0 .5.1.8.1 1.1.1.2.1.6.2 1 .1.3.2.7.3.9.2.3.3.7.6 1 .2.4.6.8.9 1.3.7.8 1.3 1.7 1.6 2.6.4.8.7 1.9.7 3 0 .6-.1 1.1-.2 1.6.2 0 .2.1.3.2.1.1.2.4.2.7l.1.6c.1.2.2.4.4.5.2.1.3.3.6.4l.6.3c.2.2.2.3.2.5 0 .3-.1.5-.2.6-.2.2-.3.3-.6.4-.2.1-.5.2-1 .5-.4.2-.8.5-1.2.9l-.8.7c-.3.3-.7.5-.9.7-.2.1-.6.2-.9.2l-.6-.1c-.7-.2-1.1-.5-1.3-1-1.2 0-2.3-.1-2.9-.1" fill="#fff" transform="translate(-3.336 285.28)"/></svg>