<svg version="1.1" id="Calque_1" xmlns="http://www.w3.org/2000/svg" x="0" y="0" viewBox="0 0 512 512" xml:space="preserve"><style>.st0{fill:#239efb;stroke:#239efb;stroke-width:9;stroke-miterlimit:10}</style><path class="st0" d="M207 357.4c18.3-15.2 29.9-38.2 29.9-63.7 0-45.8-37.2-83.1-83.1-83.1s-83.1 37.2-83.1 83.1c0 25.6 11.7 48.5 29.9 63.7-45.6 19.4-84.5 64.1-82.8 132.7h271.8c.1 0 7.7-92.9-82.6-132.7zM85.9 293.7c0-37.5 30.5-68 68-68s68 30.5 68 68-30.5 68-68 68-68-30.5-68-68zM33.2 475.1c3-49.3 35.5-91.7 83-107.3 11.3 5.8 24.1 9.1 37.6 9.1s26.3-3.3 37.6-9.1c47.4 15.5 80 58 83 107.3H33.2z"/><path class="st0" d="M416.9 342.4c16.9-14.3 27.6-35.8 27.6-59.5 0-43.2-35.1-78.4-78.4-78.4s-78.4 35.1-78.4 78.4c0 23.9 10.8 45.3 27.6 59.6-18.9 8.2-35.8 20.9-48.9 37.1l11.7 9.5c13.7-17 31.9-29.7 52.6-36.4 10.6 5.4 22.6 8.5 35.3 8.5 12.7 0 24.7-3.1 35.3-8.5 44 14.5 74.2 53.9 77.3 99.5H305.3v15.1H494c2.1-32.4-10.2-94.7-77.1-124.9zm-114.1-59.5c0-34.9 28.4-63.3 63.3-63.3s63.3 28.4 63.3 63.3-28.4 63.3-63.3 63.3-63.3-28.5-63.3-63.3zM85.9 157.8h3.7L116 193l26.4-35.2h44.2c13.5 23.3 38 37.7 65.2 37.7 11.3 0 22.6-2.6 32.9-7.5l36.3 9.8-.1-47.3c4.3-9.6 6.5-20 6.5-30.5 0-40.1-31.5-72.9-71-75.2-5.9-13.5-19.3-22.9-34.8-22.9H85.8c-20.9 0-37.7 16.9-37.7 37.7V120c-.1 21 16.9 37.8 37.8 37.8zm173.6-37.7V60.2c29.8 3.7 52.9 29.1 52.9 59.8 0 15-6.5 27.2-6.5 27.2v30.9l-22.9-6.2s-13.9 8.5-31 8.5c-18.6 0-35.6-8.5-47-22.7h16.8c20.7.1 37.7-16.7 37.7-37.6zM63.2 59.6c0-12.4 10.2-22.7 22.7-22.7h135.9c12.4 0 22.7 10.2 22.7 22.7V120c0 12.4-10.2 22.7-22.7 22.7H135l-18.9 25.2-18.9-25.2H85.9c-12.4 0-22.7-10.2-22.7-22.7V59.6z"/><path class="st0" d="M85.9 59.6h135.9v15.1H85.9zm60.4 45.4h15.1v15.1h-15.1zm30 0h15.1v15.1h-15.1zm-60.3 0h15.1v15.1H116z"/></svg>