<svg xmlns="http://www.w3.org/2000/svg" xmlns:xlink="http://www.w3.org/1999/xlink" width="28" height="39"><defs><path id="cyvla" d="M684.54 1042.48v3.6h-3.08v-3.6a3.17 3.17 0 0 1-1.55-2.73 3.13 3.13 0 0 1 3.09-3.17c1.7 0 3.09 1.42 3.09 3.17 0 1.17-.62 2.18-1.55 2.73zm-6.6-18.56c0-2.62 2.27-4.75 5.05-4.75 2.8 0 5.06 2.13 5.06 4.75v5.68a14.18 14.18 0 0 0-10.11 0zm14.06 7.53v-7.53c0-4.37-4.34-8.42-9-8.42s-9 4.05-9 8.42v7.53c-3.08 2.33-4.5 5.89-4.5 9.88 0 7 6.04 12.67 13.5 12.67s13.5-5.67 13.5-12.67c0-4-1.42-7.55-4.5-9.88z"/><linearGradient id="cyvlb" x1="675.05" x2="692.92" y1="1013.64" y2="1056.96" gradientUnits="userSpaceOnUse"><stop offset="0" stop-color="#3975fb"/><stop offset="1" stop-color="#0acdfa"/></linearGradient></defs><use fill="url(#cyvlb)" xlink:href="#cyvla" transform="translate(-669 -1015)"/></svg>