<svg xmlns="http://www.w3.org/2000/svg" xmlns:xlink="http://www.w3.org/1999/xlink" width="34" height="34"><defs><path id="enzka" d="M926.5 2578.11a5.25 5.25 0 0 1-1.81 3.8c-.21.2-.37.34-.54.45l-.58.37v2.53l-2.61 2.43 1.95 2.11-2.08 1.94 1.94 2.1-1.68 1.56-1.5-1.76V2583l-.7-.34a5.25 5.25 0 0 1-2.92-4.94 5.25 5.25 0 0 1 4.05-4.94v3.62a1.25 1.25 0 1 0 2.49-.02v-3.6a5.26 5.26 0 0 1 3.99 5.33zm-11.59-7.06a2.69 2.69 0 0 1 4.4-.68 7.7 7.7 0 0 0-3.04 1.57 7.8 7.8 0 0 0-1.36-.9zm-3.54 12.2a5.3 5.3 0 0 1-.93-.08l-.68-.12-1.84 2.02h-3.25v2.88h-2.8v2.87h-2.37v-2.48l7.22-7.76-.27-.73a5.28 5.28 0 0 1 8.17-6.04 7.7 7.7 0 0 0-.89 2.04 1.24 1.24 0 0 0-2.27.67 1.25 1.25 0 0 0 2 1.04v.06a7.75 7.75 0 0 0 1.21 4.47 5.24 5.24 0 0 1-3.3 1.17zm15.56-10.63a7.73 7.73 0 0 0-4.82-2.44 5.19 5.19 0 0 0-9.58.1 7.78 7.78 0 0 0-8.66 9.7l-6.87 7.37v5.97h7.36v-2.87h2.8v-2.88h1.87l1.68-1.84a7.84 7.84 0 0 0 5.63-1.77c.24.2.5.37.75.54v10.07l3.8 4.43 5.41-5.03-1.94-2.1 2.08-1.93-1.95-2.11 1.59-1.48-.01-2.32.33-.3.11-.1a7.74 7.74 0 0 0 2.48-5.42 7.74 7.74 0 0 0-2.06-5.59z"/></defs><g transform="translate(-896 -2566)"><use fill="#239efb" xlink:href="#enzka"/><use fill="#fff" fill-opacity="0" stroke="#fff" stroke-miterlimit="50" stroke-width=".9" xlink:href="#enzka"/></g></svg>