<svg xmlns="http://www.w3.org/2000/svg" xmlns:xlink="http://www.w3.org/1999/xlink" width="17" height="18"><defs><path id="y7jra" d="M606.46 251.58c.42 0 .76.35.76.79 0 .44-.34.79-.76.79a.77.77 0 0 1-.76-.8c0-.43.34-.78.76-.78zm2.48 0c.42 0 .76.35.76.79 0 .44-.34.79-.76.79a.77.77 0 0 1-.76-.8c0-.43.34-.78.76-.78zm-2.64 3.18h12.22c1.26 0 2.3-.02 2.3-2.4 0-2.36-1.04-2.36-2.32-2.36h-12.2c-1.28 0-2.3 0-2.3 2.39s1.02 2.37 2.3 2.37z"/><path id="y7jrb" d="M606.46 258.13c.42 0 .76.35.76.79 0 .44-.34.8-.76.8a.78.78 0 0 1-.76-.8c0-.44.34-.8.76-.8zm2.48 0c.42 0 .76.35.76.79 0 .44-.34.8-.76.8a.78.78 0 0 1-.76-.8c0-.44.34-.8.76-.8zm-2.64 3.18h12.22c1.26 0 2.3-.02 2.3-2.4 0-2.36-1.04-2.36-2.32-2.36h-12.2c-1.28 0-2.3 0-2.3 2.39s1.02 2.37 2.3 2.37z"/><path id="y7jrc" d="M606.46 264.67c.42 0 .76.35.76.79 0 .44-.34.79-.76.79a.77.77 0 0 1-.76-.8c0-.43.34-.78.76-.78zm2.48 0c.42 0 .76.35.76.79 0 .44-.34.79-.76.79a.77.77 0 0 1-.76-.8c0-.43.34-.78.76-.78zm-2.64 3.18h12.22c1.26 0 2.3-.02 2.3-2.4 0-2.36-1.04-2.36-2.32-2.36h-12.2c-1.28 0-2.3 0-2.3 2.39s1.02 2.37 2.3 2.37z"/></defs><use fill="#f79353" xlink:href="#y7jra" transform="translate(-604 -250)"/><use fill="#f79353" xlink:href="#y7jrb" transform="translate(-604 -250)"/><use fill="#f79353" xlink:href="#y7jrc" transform="translate(-604 -250)"/></svg>