<svg xmlns="http://www.w3.org/2000/svg" xmlns:xlink="http://www.w3.org/1999/xlink" width="22" height="22"><defs><path id="qrwga" d="M104.94 1967h18.12c1.07 0 1.94.89 1.94 1.98v18.04c0 1.09-.87 1.98-1.94 1.98h-18.12c-1.07 0-1.94-.9-1.94-1.98v-18.04c0-1.09.87-1.98 1.94-1.98z"/><path id="qrwgc" d="M109.21 1977.84c3.54 6.68.76.1 9.31-5.12l-.28.37c.3-.29.5-.5.86-.71l-.12.34.96-.59h.03l-.92.85.64-.16-.58.62 1.47-.58-.57.46.62-.11-.2.46.2-.1c-.1.14-.24.29-.43.42-2.33 1.48-5.08 3.81-8.08 9.59-1.29 1.42-3.34-2.87-4.74-4.53 0-2.08 1.83-1.21 1.83-1.21z"/><linearGradient id="qrwgb" x1="125" x2="103" y1="1991.76" y2="1963.96" gradientUnits="userSpaceOnUse"><stop offset="0" stop-color="#f6be4f"/><stop offset="1" stop-color="#f78455"/></linearGradient></defs><use fill="url(#qrwgb)" xlink:href="#qrwga" opacity=".08" transform="translate(-103 -1967)"/><use fill="#f79353" xlink:href="#qrwgc" transform="translate(-103 -1967)"/></svg>