<svg xmlns="http://www.w3.org/2000/svg" xmlns:xlink="http://www.w3.org/1999/xlink" width="32" height="36"><defs><path id="s4hza" d="M684.25 946.89a3.2 3.2 0 0 0-3.22 3.18v3.18h6.44v-3.18a3.2 3.2 0 0 0-3.22-3.18z"/><path id="s4hzc" d="M690.68 961.2c0 .88-.72 1.6-1.6 1.6h-9.66a1.6 1.6 0 0 1-1.61-1.6v-6.36c0-.88.72-1.59 1.6-1.59v-3.18a4.8 4.8 0 0 1 4.83-4.77 4.8 4.8 0 0 1 4.83 4.77v3.18c.9 0 1.61.71 1.61 1.6zm1.01-25.45h-21.33a1.6 1.6 0 0 0-1.61 1.6v31.8c0 .88.72 1.6 1.61 1.6h27.78a1.6 1.6 0 0 0 1.61-1.6V943.7z"/><linearGradient id="s4hzb" x1="687.47" x2="681.03" y1="954.05" y2="946.01" gradientUnits="userSpaceOnUse"><stop offset="0" stop-color="#f6be4f"/><stop offset="1" stop-color="#f78455"/></linearGradient><linearGradient id="s4hzd" x1="699.38" x2="670.19" y1="968.81" y2="955.25" gradientUnits="userSpaceOnUse"><stop offset="0" stop-color="#f6be4f"/><stop offset="1" stop-color="#f78455"/></linearGradient></defs><use fill="url(#s4hzb)" xlink:href="#s4hza" transform="translate(-668 -935)"/><use fill="url(#s4hzd)" xlink:href="#s4hzc" transform="translate(-668 -935)"/></svg>