<svg xmlns="http://www.w3.org/2000/svg" xmlns:xlink="http://www.w3.org/1999/xlink" width="29" height="29"><defs><path id="ofama" d="M156.24 1633.62l-3.41-3.41c-1.4-1.4-.55-2.89.98-2.98 2.52-.15 3.93-2.84 1.88-5.08-2.24-2.05-4.91-.64-5.07 1.88-.1 1.52-1.59 2.39-2.98 1l-3.34-3.35c-1-1-2.63-1-3.63 0l-3.38 3.38c-1.4 1.4-2.9.54-2.99-1-.15-2.51-2.85-3.94-5.09-1.89-2.06 2.25-.63 4.94 1.89 5.1 1.53.1 2.4 1.59 1 3l-3.37 3.35c-1 1-1 2.63 0 3.63l3.34 3.34c1.4 1.4.57 2.86-.96 2.95-2.52.16-3.93 2.84-1.87 5.07 2.24 2.06 4.9.66 5.06-1.86.1-1.53 1.56-2.37 2.96-.97l3.37 3.37a2.63 2.63 0 0 0 3.7 0l2.37-2.36 1.01-1.01c1.33-1.39.47-2.84-1.04-2.94-2.52-.16-3.94-2.85-1.89-5.09 2.24-2.06 4.94-.62 5.1 1.9.09 1.5 1.54 2.36 2.92 1.03l.92-.92 2.47-2.47h.01l.04-.04c1-1 1-2.63 0-3.63z"/><linearGradient id="ofamb" x1="133.95" x2="153.15" y1="1619.53" y2="1652.14" gradientUnits="userSpaceOnUse"><stop offset="0" stop-color="#3975fb"/><stop offset="1" stop-color="#0acdfa"/></linearGradient></defs><use fill="url(#ofamb)" xlink:href="#ofama" transform="translate(-128 -1621)"/></svg>