<svg xmlns="http://www.w3.org/2000/svg" xmlns:xlink="http://www.w3.org/1999/xlink" width="48" height="44"><defs><path id="q8rya" d="M275.4 2705.7c-2.59-2.6-7.61-8.72-6.2-10.13 1.43-1.43 6.98 3.04 10.13 6.19a58.18 58.18 0 0 1 5.88 6.91 18.6 18.6 0 0 0-9.75-2.92zm-13.22-9.63l-6.42 6.4c-.47-1.95-.1-3.68 1.1-4.88 1.06-1.06 2.95-1.58 5.32-1.52zm19.87 2.76c-5.95-5.96-10.95-7.83-13.57-7.83-.83 0-1.41.19-1.72.5l-2.72 2.71c-3.8-.47-6.84.21-8.59 1.97-1.75 1.75-2.33 4.32-1.58 7.04.98 3.62 4.6 8.1 11.8 10.75.08.65.32 1.28.82 1.77a3 3 0 1 0 0-4.24l-.34.52c-4.06-1.53-6.8-3.66-8.47-5.8l7.76-7.75c1 5.46 12.87 17.35 18.36 18.35l-14.23 14.22c-.47.3-5.6-.64-12.31-7.35-6.79-6.79-6.35-10.55-6.06-11l3.72-3.71a9 9 0 0 1-2.28-3.38l-4.27 4.26a4.98 4.98 0 0 0-1.37 3.64c0 3.27 2.24 7.83 7.43 13.01 5.52 5.53 11.16 8.49 14.86 8.49 1.3 0 2.36-.39 3.1-1.12l16.17-16.16c1.82 1.75-1.56 7.08-1.56 9.3a4 4 0 0 0 8 0c0-6.37-2.85-13.63-5.71-18.69a40.53 40.53 0 0 0-7.24-9.5z"/><linearGradient id="q8ryb" x1="221.93" x2="308.18" y1="2713" y2="2735" gradientUnits="userSpaceOnUse"><stop offset="0" stop-color="#488dfc" stop-opacity=".99"/><stop offset="1" stop-color="#31b8fc" stop-opacity=".99"/></linearGradient></defs><use fill="url(#q8ryb)" xlink:href="#q8rya" opacity=".28" transform="translate(-247 -2691)"/></svg>