<svg xmlns="http://www.w3.org/2000/svg" xmlns:xlink="http://www.w3.org/1999/xlink" width="32" height="34"><defs><path id="3o54a" d="M157.4 1677.68v5.66h-5.37v-5.66a6.27 6.27 0 0 0 5.36 0zm-5.37-11.9v-15.11h5.36v15.1a6.27 6.27 0 0 0-5.36 0zm6.97 5.95a4.34 4.34 0 0 1-4.29 4.39 4.34 4.34 0 0 1-4.29-4.39 4.34 4.34 0 0 1 4.3-4.38 4.34 4.34 0 0 1 4.28 4.38zm-13.4-2.95v14.56h-5.37v-14.56a6.27 6.27 0 0 0 5.36 0zm-5.37-11.91v-6.2h5.36v6.2a6.27 6.27 0 0 0-5.36 0zm6.97 5.96a4.34 4.34 0 0 1-4.29 4.38 4.34 4.34 0 0 1-4.29-4.38 4.34 4.34 0 0 1 4.29-4.39 4.34 4.34 0 0 1 4.29 4.39zm-18.6 2.43v-14.59h5.37v14.59a6.27 6.27 0 0 0-5.36 0zm5.37 11.9v6.18h-5.36v-6.17a6.27 6.27 0 0 0 5.36 0zm1.6-5.95a4.34 4.34 0 0 1-4.28 4.38 4.34 4.34 0 0 1-4.29-4.38 4.34 4.34 0 0 1 4.29-4.38 4.34 4.34 0 0 1 4.29 4.38z"/><linearGradient id="3o54b" x1="129.95" x2="159" y1="1650.67" y2="1683.33" gradientUnits="userSpaceOnUse"><stop offset="0" stop-color="#a152ec"/><stop offset="1" stop-color="#ca6efc"/></linearGradient></defs><use fill="url(#3o54b)" xlink:href="#3o54a" transform="translate(-127 -1650)"/></svg>