<svg xmlns="http://www.w3.org/2000/svg" xmlns:xlink="http://www.w3.org/1999/xlink" width="32" height="29" viewBox="0 0 32 29"><defs><path id="ep1oa" d="M676.75 1151.26a4.8 4.8 0 0 1 4.02 4.74c-1.03 1.16-6.26 1.81-12.07 1.97-1.86.05-3.77.05-5.63 0-5.8-.17-11.03-.8-12.07-1.96a4.8 4.8 0 0 1 4.02-4.75"/><path id="ep1ob" d="M664.68 1146.8h1.6"/><path id="ep1oc" d="M665.48 1154.4v3.2"/><path id="ep1od" d="M657.83 1134.87v4.4c-.46.2-.77.63-.8 1.13v1.6c.03.5.34.94.8 1.13v.87c0 3.98 3.43 7.2 7.65 7.2 4.22 0 7.64-3.22 7.64-7.2v-.87c.8-.17.8-.61.8-1.13v-1.6c0-.52 0-.96-.8-1.12V1136"/><path id="ep1oe" d="M673.13 1139.24l-6.04-.04c-4.62.03-10.03-3.38-10.86-8h13.35a3.53 3.53 0 0 1 3.55 3.52z"/><path id="ep1of" d="M662.56 1157.85l-4.72-6.65 2.82-1.6"/><path id="ep1og" d="M668.81 1157.85l4.72-6.65-2.81-1.6"/></defs><g><g transform="translate(-650 -1130)"><g><use fill="#fff" fill-opacity="0" stroke="#aa51ff" stroke-linecap="round" stroke-linejoin="round" stroke-miterlimit="50" stroke-width="1.6" xlink:href="#ep1oa"/></g><g><use fill="#fff" fill-opacity="0" stroke="#aa51ff" stroke-linecap="round" stroke-linejoin="round" stroke-miterlimit="50" stroke-width="1.6" xlink:href="#ep1ob"/></g><g><use fill="#fff" fill-opacity="0" stroke="#aa51ff" stroke-linecap="round" stroke-linejoin="round" stroke-miterlimit="50" stroke-width="1.6" xlink:href="#ep1oc"/></g><g><use fill="#fff" fill-opacity="0" stroke="#aa51ff" stroke-linecap="round" stroke-linejoin="round" stroke-miterlimit="50" stroke-width="1.6" xlink:href="#ep1od"/></g><g><use fill="#fff" fill-opacity="0" stroke="#aa51ff" stroke-linecap="round" stroke-linejoin="round" stroke-miterlimit="50" stroke-width="1.6" xlink:href="#ep1oe"/></g><g><use fill="#fff" fill-opacity="0" stroke="#aa51ff" stroke-linecap="round" stroke-linejoin="round" stroke-miterlimit="50" stroke-width="1.6" xlink:href="#ep1ob"/></g><g><use fill="#fff" fill-opacity="0" stroke="#aa51ff" stroke-linecap="round" stroke-linejoin="round" stroke-miterlimit="50" stroke-width="1.6" xlink:href="#ep1of"/></g><g><use fill="#fff" fill-opacity="0" stroke="#aa51ff" stroke-linecap="round" stroke-linejoin="round" stroke-miterlimit="50" stroke-width="1.6" xlink:href="#ep1og"/></g></g></g></svg>