<svg xmlns="http://www.w3.org/2000/svg" xmlns:xlink="http://www.w3.org/1999/xlink" width="18" height="17"><defs><path id="l3p4a" d="M209.09 148.76a5.48 5.48 0 0 0 5.54 4.96 5.48 5.48 0 0 0 5.53-4.96z"/><path id="l3p4c" d="M203.56 142.04h11.07a5.48 5.48 0 0 0-5.53-4.96 5.48 5.48 0 0 0-5.54 4.96"/><path id="l3p4e" d="M203.56 142.92a5.48 5.48 0 0 0 5.54 4.96h11.07a5.48 5.48 0 0 0-5.54-4.96z"/><linearGradient id="l3p4b" x1="209.09" x2="220.17" y1="151.24" y2="151.24" gradientUnits="userSpaceOnUse"><stop offset="0" stop-color="#17b3fb"/><stop offset="1" stop-color="#01dbf9"/></linearGradient><linearGradient id="l3p4d" x1="203.56" x2="214.63" y1="139.56" y2="139.56" gradientUnits="userSpaceOnUse"><stop offset="0" stop-color="#445dfb"/><stop offset="1" stop-color="#2d8cfb"/></linearGradient><linearGradient id="l3p4f" x1="203.56" x2="220.17" y1="145.4" y2="145.4" gradientUnits="userSpaceOnUse"><stop offset="0" stop-color="#2d8cfb"/><stop offset="1" stop-color="#17b3fb"/></linearGradient></defs><g clip-path="url(#clip-EA514784-6755-4111-BB3B-E229B346F38B)" transform="translate(-203 -137)"><use fill="url(#l3p4b)" xlink:href="#l3p4a"/></g><g clip-path="url(#clip-4FD2A82A-2853-4805-8BCB-6AB6E3B421E6)" transform="translate(-203 -137)"><use fill="url(#l3p4d)" xlink:href="#l3p4c"/></g><g clip-path="url(#clip-598F2126-1E76-4F19-A2E6-07B1DBB14F08)" transform="translate(-203 -137)"><use fill="url(#l3p4f)" xlink:href="#l3p4e"/></g></svg>