<svg xmlns="http://www.w3.org/2000/svg" xmlns:xlink="http://www.w3.org/1999/xlink" width="30" height="30"><defs><path id="em8xa" d="M713.31 1315.73a1.65 1.65 0 1 1 0-3.3 1.65 1.65 0 0 1 0 3.3zm0-8.03a3.85 3.85 0 1 0 0-7.7 3.85 3.85 0 0 0 0 7.7zm0-5.5a1.65 1.65 0 1 1 0 3.3 1.65 1.65 0 0 1 0-3.3zm-10.23 5.5a3.85 3.85 0 1 0 0-7.7 3.85 3.85 0 0 0 0 7.7zm0-5.5a1.65 1.65 0 1 1 0 3.3 1.65 1.65 0 0 1 0-3.3zm-10.23 8.03a3.85 3.85 0 1 0 0 7.7 3.85 3.85 0 0 0 0-7.7zm0 5.5a1.65 1.65 0 1 1 0-3.3 1.65 1.65 0 0 1 0 3.3zm0 4.73a3.85 3.85 0 1 0 0 7.7 3.85 3.85 0 0 0 0-7.7zm0 5.5a1.65 1.65 0 1 1 0-3.3 1.65 1.65 0 0 1 0 3.3zm22.11-1.65a1.65 1.65 0 1 1-3.3 0 1.65 1.65 0 0 1 3.3 0zm-11.88 1.65a1.65 1.65 0 1 1 0-3.3 1.65 1.65 0 0 1 0 3.3zm-1.65-11.88a1.65 1.65 0 1 1 3.3 0 1.65 1.65 0 0 1-3.3 0zm-8.58-8.58a1.65 1.65 0 1 1 0-3.3 1.65 1.65 0 0 1 0 3.3zm24.31 8.58a3.85 3.85 0 1 0-4.95 3.69v2.85a3.87 3.87 0 0 0-2.59 2.59h-2.85a3.87 3.87 0 0 0-2.59-2.59v-2.85a3.86 3.86 0 1 0-2.93-7.08l-5.01-5a3.85 3.85 0 1 0-1.56 1.56l5.01 5a3.86 3.86 0 0 0 2.29 5.52v2.85a3.86 3.86 0 1 0 4.79 4.79h2.85a3.86 3.86 0 1 0 4.79-4.79v-2.85a3.86 3.86 0 0 0 2.75-3.69z"/></defs><g transform="translate(-688 -1299)"><use fill="#239efb" xlink:href="#em8xa"/><use fill="#fff" fill-opacity="0" stroke="#fff" stroke-miterlimit="50" stroke-width=".6" xlink:href="#em8xa"/></g></svg>