<svg version="1.1" id="Calque_1" xmlns="http://www.w3.org/2000/svg" x="0" y="0" viewBox="0 0 80 80" xml:space="preserve"><style>.st0{fill:#239efb;stroke:#239efb;stroke-width:.75;stroke-miterlimit:10}</style><path class="st0" d="M24.4 26.2c.1.1.1.2.2.4.1.1.1.3.3.6l.4.9c.1.1.1.2.2.4l.3.7c.1.2.4.6.7.7.2.1.4.2.8.2s1-.2 1.3-.7c.1-.2.3-.3.4-.6l.3-.3c.4-.6 1-1.1 1.4-1.8l1.7-2c.4-.6.9-1 1.3-1.6l.6-.7c.4-.6.3-1.1.1-1.3-.3-.4-1-.6-1.4-.2-.3.2-.7.6-1 .9-.4.4-1 .9-1.6 1.3l-.6.6c-.3.3-.8.7-1.1 1l-1.6 1.4-1.8-1.9c-.3-.2-.6-.3-.8-.3-.2 0-.4.1-.7.2-.2.2-.3.4-.3.8 0 .2 0 .3.1.4l.8.9zm0 14.9c.1.1.1.2.2.4.1.1.1.3.2.4l.6 1c.1.1.1.2.2.4l.3.7c.1.2.4.6.7.7s.4.2.8.2 1-.2 1.3-.7c.1-.2.3-.3.4-.6l.3-.3c.4-.6 1-1.1 1.4-1.8l1.7-2c.4-.6.9-1 1.3-1.6l.6-.7c.4-.6.3-1.1.1-1.3-.3-.4-1-.6-1.4-.2-.3.2-.7.6-1 .9-.4.4-1 .9-1.6 1.3l-.6.6c-.3.3-.8.7-1.1 1l-1.6 1.4-1.8-1.9c-.3-.2-.6-.3-.9-.3-.2 0-.4.1-.7.2-.2.2-.3.4-.3.8 0 .2 0 .3.1.4l.8 1zm14.8-13.6h16.5c.9 0 1.7-.8 1.7-1.7s-.8-1.7-1.7-1.7H39.2c-.9 0-1.7.8-1.7 1.7s.8 1.7 1.7 1.7zm16.5 11.2H39.2c-.9 0-1.7.8-1.7 1.7 0 .9.8 1.7 1.7 1.7h16.5c.9 0 1.7-.8 1.7-1.7 0-1-.8-1.7-1.7-1.7zm0 14.4H39.2c-.9 0-1.7.8-1.7 1.7 0 .9.8 1.7 1.7 1.7h16.5c.9 0 1.7-.8 1.7-1.7 0-.9-.8-1.7-1.7-1.7zm-26.8-4.6c-3.5 0-6.2 2.8-6.2 6.2 0 3.5 2.8 6.2 6.2 6.2s6.2-2.8 6.2-6.2c0-3.5-2.8-6.2-6.2-6.2zm3.9 6.2c0 2.1-1.8 3.9-3.9 3.9S25 56.8 25 54.7c0-2.1 1.8-3.9 3.9-3.9s3.9 1.8 3.9 3.9z"/><path class="st0" d="M61.3 5.5H18.7C14.5 5.5 11 9 11 13.2v53.5c0 4.2 3.5 7.7 7.7 7.7h42.5c4.2 0 7.7-3.5 7.7-7.7V13.2c0-4.3-3.4-7.7-7.6-7.7zM65 66.8c0 2.1-1.7 3.8-3.8 3.8H18.7c-2.1 0-3.8-1.7-3.8-3.8V13.2c0-2.1 1.7-3.8 3.8-3.8h42.5c2.1 0 3.8 1.7 3.8 3.8v53.6z"/></svg>