<svg xmlns="http://www.w3.org/2000/svg" xmlns:xlink="http://www.w3.org/1999/xlink" width="18" height="16"><defs><path id="rkoua" d="M977 5244.28c-.66.3-1.37.5-2.12.6a3.78 3.78 0 0 0 1.62-2.1c-.71.43-1.5.75-2.34.92a3.64 3.64 0 0 0-2.7-1.2 3.74 3.74 0 0 0-3.6 4.65 10.4 10.4 0 0 1-7.6-3.96 3.86 3.86 0 0 0 1.14 5.06c-.6-.02-1.18-.2-1.68-.47v.04a3.76 3.76 0 0 0 2.97 3.72 3.52 3.52 0 0 1-1.67.06 3.7 3.7 0 0 0 3.45 2.63 7.3 7.3 0 0 1-5.47 1.57 10.28 10.28 0 0 0 5.66 1.7c6.8 0 10.5-5.77 10.5-10.77v-.5a7.58 7.58 0 0 0 1.84-1.95"/></defs><use fill="#727279" xlink:href="#rkoua" opacity=".6" transform="translate(-959 -5242)"/></svg>