<svg xmlns="http://www.w3.org/2000/svg" xmlns:xlink="http://www.w3.org/1999/xlink" width="30" height="30" viewBox="0 0 30 30"><defs><path id="vtx4a" d="M928.17 1131.49c-11.42.05-11.1 13.33-11.56 17.7h5.6"/><path id="vtx4b" d="M928.18 1131.49c11.43.05 11.1 13.33 11.56 17.7h-3.35"/><path id="vtx4c" d="M937.19 1152.22c1.18 0 2.3.49 3.13 1.34.83.84 1.3 1.99 1.29 3.18-2.21 2.53-25.37 2.5-27.61 0 0-1.19.45-2.34 1.28-3.18a4.42 4.42 0 0 1 3.14-1.34h.8l2.61 6.03"/><path id="vtx4d" d="M924.07 1151.09v3.4"/><path id="vtx4e" d="M931.53 1151.09v3.4"/><path id="vtx4f" d="M923.7 1142.04h-2.61v3.4c0 3.74 3 6.77 6.71 6.77s6.72-3.03 6.72-6.78v-3.39h-7.46"/><path id="vtx4g" d="M927.06 1148.07h1.5"/><path id="vtx4h" d="M924.07 1142.05l.75-2.64.53-1.88.1-.38"/><path id="vtx4i" d="M933.77 1158.25l2.61-6.03h.72"/></defs><g><g transform="translate(-913 -1130)"><g><use fill="#fff" fill-opacity="0" stroke="#aa51ff" stroke-linecap="round" stroke-linejoin="round" stroke-miterlimit="50" stroke-width="1.51" xlink:href="#vtx4a"/></g><g><use fill="#fff" fill-opacity="0" stroke="#aa51ff" stroke-linecap="round" stroke-linejoin="round" stroke-miterlimit="50" stroke-width="1.51" xlink:href="#vtx4b"/></g><g><use fill="#fff" fill-opacity="0" stroke="#aa51ff" stroke-linecap="round" stroke-linejoin="round" stroke-miterlimit="50" stroke-width="1.51" xlink:href="#vtx4c"/></g><g><use fill="#fff" fill-opacity="0" stroke="#aa51ff" stroke-linecap="round" stroke-linejoin="round" stroke-miterlimit="50" stroke-width="1.51" xlink:href="#vtx4d"/></g><g><use fill="#fff" fill-opacity="0" stroke="#aa51ff" stroke-linecap="round" stroke-linejoin="round" stroke-miterlimit="50" stroke-width="1.51" xlink:href="#vtx4e"/></g><g><use fill="#fff" fill-opacity="0" stroke="#aa51ff" stroke-linecap="round" stroke-linejoin="round" stroke-miterlimit="50" stroke-width="1.51" xlink:href="#vtx4f"/></g><g><use fill="#fff" fill-opacity="0" stroke="#aa51ff" stroke-linecap="round" stroke-linejoin="round" stroke-miterlimit="50" stroke-width="1.51" xlink:href="#vtx4g"/></g><g><use fill="#fff" fill-opacity="0" stroke="#aa51ff" stroke-linecap="round" stroke-linejoin="round" stroke-miterlimit="50" stroke-width="1.51" xlink:href="#vtx4h"/></g><g><use fill="#fff" fill-opacity="0" stroke="#aa51ff" stroke-linecap="round" stroke-linejoin="round" stroke-miterlimit="50" stroke-width="1.51" xlink:href="#vtx4i"/></g></g></g></svg>