<svg xmlns="http://www.w3.org/2000/svg" xmlns:xlink="http://www.w3.org/1999/xlink" width="16" height="17"><defs><path id="8al9a" d="M206.32 278.45c.4 0 .71.32.71.72 0 .4-.32.73-.71.73a.72.72 0 0 1-.72-.73c0-.4.32-.72.72-.72zm2.33 0c.4 0 .71.32.71.72 0 .4-.32.73-.71.73a.72.72 0 0 1-.72-.73c0-.4.32-.72.72-.72zm-2.49 2.91h11.5c1.2 0 2.17-.02 2.17-2.19s-.98-2.17-2.18-2.17h-11.49c-1.2 0-2.16 0-2.16 2.19 0 2.2.96 2.17 2.16 2.17z"/><path id="8al9c" d="M206.32 284.45c.4 0 .71.32.71.72 0 .4-.32.73-.71.73a.72.72 0 0 1-.72-.73c0-.4.32-.72.72-.72zm2.33 0c.4 0 .71.32.71.72 0 .4-.32.73-.71.73a.72.72 0 0 1-.72-.73c0-.4.32-.72.72-.72zm-2.49 2.91h11.5c1.2 0 2.17-.02 2.17-2.19s-.98-2.17-2.18-2.17h-11.49c-1.2 0-2.16 0-2.16 2.19 0 2.2.96 2.17 2.16 2.17z"/><path id="8al9e" d="M206.32 290.45c.4 0 .71.32.71.72 0 .4-.32.73-.71.73a.72.72 0 0 1-.72-.73c0-.4.32-.72.72-.72zm2.33 0c.4 0 .71.32.71.72 0 .4-.32.73-.71.73a.72.72 0 0 1-.72-.73c0-.4.32-.72.72-.72zm-2.49 2.91h11.5c1.2 0 2.17-.02 2.17-2.19s-.98-2.17-2.18-2.17h-11.49c-1.2 0-2.16 0-2.16 2.19 0 2.2.96 2.17 2.16 2.17z"/><linearGradient id="8al9b" x1="219.83" x2="204" y1="281.91" y2="276.4" gradientUnits="userSpaceOnUse"><stop offset="0" stop-color="#f6be4f"/><stop offset="1" stop-color="#f78455"/></linearGradient><linearGradient id="8al9d" x1="219.83" x2="204" y1="287.91" y2="282.4" gradientUnits="userSpaceOnUse"><stop offset="0" stop-color="#f6be4f"/><stop offset="1" stop-color="#f78455"/></linearGradient><linearGradient id="8al9f" x1="219.83" x2="204" y1="293.91" y2="288.4" gradientUnits="userSpaceOnUse"><stop offset="0" stop-color="#f6be4f"/><stop offset="1" stop-color="#f78455"/></linearGradient></defs><use fill="url(#8al9b)" xlink:href="#8al9a" transform="translate(-204 -277)"/><use fill="url(#8al9d)" xlink:href="#8al9c" transform="translate(-204 -277)"/><use fill="url(#8al9f)" xlink:href="#8al9e" transform="translate(-204 -277)"/></svg>