<svg xmlns="http://www.w3.org/2000/svg" xmlns:xlink="http://www.w3.org/1999/xlink" width="44" height="44"><defs><path id="zii8a" d="M720.86 2562.26l-5.17-5.18c-2.13-2.13-.83-4.37 1.49-4.51 3.82-.24 5.96-4.32 2.84-7.71-3.39-3.11-7.44-.97-7.68 2.84-.15 2.32-2.41 3.63-4.53 1.51l-5.06-5.07a3.89 3.89 0 0 0-5.5 0l-5.13 5.13c-2.13 2.13-4.39.81-4.53-1.5-.24-3.83-4.33-6-7.72-2.88-3.13 3.4-.96 7.5 2.86 7.73 2.32.15 3.64 2.42 1.52 4.55l-5.11 5.1a3.9 3.9 0 0 0 0 5.5l5.06 5.08c2.13 2.12.87 4.33-1.45 4.48-3.82.23-5.96 4.3-2.84 7.7 3.4 3.12 7.44.99 7.68-2.83.14-2.32 2.36-3.6 4.49-1.48l5.11 5.12a3.99 3.99 0 0 0 5.62 0l3.58-3.58 1.54-1.54c2-2.1.7-4.31-1.58-4.46-3.82-.23-5.99-4.33-2.87-7.73 3.4-3.12 7.49-.94 7.72 2.88.15 2.3 2.35 3.59 4.45 1.58l1.4-1.4 3.74-3.75.02-.02.05-.05a3.9 3.9 0 0 0 0-5.5z"/><linearGradient id="zii8b" x1="738.55" x2="659.32" y1="2561.32" y2="2557.48" gradientUnits="userSpaceOnUse"><stop offset="0" stop-color="#f6be4f" stop-opacity=".99"/><stop offset="1" stop-color="#f78455" stop-opacity=".99"/></linearGradient></defs><use fill="url(#zii8b)" xlink:href="#zii8a" opacity=".28" transform="translate(-678 -2543)"/></svg>