<svg xmlns="http://www.w3.org/2000/svg" xmlns:xlink="http://www.w3.org/1999/xlink" width="24" height="24"><defs><path id="2cwna" d="M166.12 1948h19.76c1.17 0 2.12.97 2.12 2.16v19.68c0 1.19-.95 2.16-2.12 2.16h-19.76a2.15 2.15 0 0 1-2.12-2.16v-19.68c0-1.19.95-2.16 2.12-2.16z"/><path id="2cwnc" d="M170.7 1960.23c4.22 7.98.9.12 11.12-6.12l-.33.44c.36-.35.58-.6 1.02-.85l-.15.41 1.15-.71h.04l-1.1 1.01.76-.19-.68.74 1.75-.68-.68.55.74-.14-.25.55.24-.12a1.8 1.8 0 0 1-.5.5c-2.79 1.77-6.07 4.56-9.66 11.47-1.54 1.7-4-3.44-5.67-5.42 0-2.49 2.2-1.44 2.2-1.44z"/><linearGradient id="2cwnb" x1="168.94" x2="184.82" y1="1946.84" y2="1973.84" gradientUnits="userSpaceOnUse"><stop offset="0" stop-color="#3975fb"/><stop offset="1" stop-color="#0acdfa"/></linearGradient></defs><use fill="url(#2cwnb)" xlink:href="#2cwna" opacity=".1" transform="translate(-164 -1948)"/><use fill="#239efb" xlink:href="#2cwnc" transform="translate(-164 -1948)"/></svg>