<svg xmlns="http://www.w3.org/2000/svg" xmlns:xlink="http://www.w3.org/1999/xlink" width="22" height="26"><defs><path id="hiwca" d="M345.68 5444.81c.04 3.94 3.45 5.25 3.49 5.26-.03.1-.55 1.87-1.8 3.7-1.08 1.58-2.2 3.16-3.98 3.2-1.74.03-2.3-1.04-4.3-1.04-1.98 0-2.6 1-4.25 1.07-1.71.06-3.01-1.72-4.1-3.3-2.24-3.22-3.94-9.11-1.65-13.1a6.36 6.36 0 0 1 5.38-3.25c1.68-.03 3.26 1.13 4.29 1.13 1.02 0 2.95-1.4 4.97-1.2.85.04 3.23.35 4.76 2.59-.12.07-2.84 1.65-2.81 4.94m-3.27-9.66a5.73 5.73 0 0 0 1.35-4.15c-1.3.05-2.9.87-3.83 1.97a5.44 5.44 0 0 0-1.38 4.02 4.82 4.82 0 0 0 3.86-1.84"/></defs><use fill="#a2acb5" xlink:href="#hiwca" opacity=".7" transform="translate(-328 -5431)"/></svg>