<svg xmlns="http://www.w3.org/2000/svg" xmlns:xlink="http://www.w3.org/1999/xlink" width="12" height="17"><defs><path id="rdoka" d="M211.93 207c2.97 0 6.07.47 6.07.47V224h-4v-2.4h-4v2.4h-4v-16.53s2.97-.47 5.93-.47zm-1.68 10.27h-1.75V219h1.75zm0-2.59h-1.75v1.73h1.75zm0-2.59h-1.75v1.73h1.75zm0-2.59h-1.75v1.73h1.75zm2.62 7.77h-1.74V219h1.74zm0-2.59h-1.74v1.73h1.74zm0-2.59h-1.74v1.73h1.74zm0-2.59h-1.74v1.73h1.74zm2.63 7.77h-1.75V219h1.75zm0-2.59h-1.75v1.73h1.75zm0-2.59h-1.75v1.73h1.75zm0-2.59h-1.75v1.73h1.75z"/><linearGradient id="rdokb" x1="207.11" x2="218" y1="207" y2="224" gradientUnits="userSpaceOnUse"><stop offset="0" stop-color="#a152ec"/><stop offset="1" stop-color="#ca6efc"/></linearGradient></defs><use fill="url(#rdokb)" xlink:href="#rdoka" transform="translate(-206 -207)"/></svg>