<svg xmlns="http://www.w3.org/2000/svg" xmlns:xlink="http://www.w3.org/1999/xlink" width="16" height="20"><defs><path id="5sz3a" d="M165.36 435.63c.03 3.02 2.61 4.03 2.64 4.04-.02.07-.41 1.44-1.36 2.85-.82 1.22-1.67 2.43-3 2.45-1.32.03-1.75-.79-3.25-.79s-1.97.77-3.22.82c-1.3.05-2.28-1.32-3.1-2.53-1.69-2.49-2.98-7.02-1.25-10.08a4.8 4.8 0 0 1 4.07-2.5c1.27-.03 2.46.86 3.24.86.78 0 2.23-1.07 3.76-.91.64.02 2.44.26 3.6 1.98-.1.06-2.15 1.27-2.13 3.8m-2.47-7.43a4.46 4.46 0 0 0 1.02-3.19c-.99.04-2.18.67-2.9 1.52a4.23 4.23 0 0 0-1.04 3.09c1.1.09 2.23-.57 2.92-1.42"/></defs><use fill="#fff" xlink:href="#5sz3a" transform="translate(-152 -425)"/></svg>