<svg xmlns="http://www.w3.org/2000/svg" xmlns:xlink="http://www.w3.org/1999/xlink" width="24" height="35"><defs><path id="scp7a" d="M952.87 1656.64c5.93 0 12.13.94 12.13.94v32.88h-8v-4.78h-8v4.78h-8v-32.88s5.93-.94 11.87-.94zm-3.37 20.43H946v3.43h3.5zm0-5.15H946v3.44h3.5zm0-5.16H946v3.44h3.5zm0-5.15H946v3.45h3.5zm5.25 15.46h-3.5v3.43h3.5zm0-5.15h-3.5v3.44h3.5zm0-5.16h-3.5v3.44h3.5zm0-5.15h-3.5v3.45h3.5zm5.25 15.46h-3.5v3.43h3.5zm0-5.15h-3.5v3.44h3.5zm0-5.16h-3.5v3.44h3.5zm0-5.15h-3.5v3.45h3.5z"/><linearGradient id="scp7b" x1="945.68" x2="964.16" y1="1659.09" y2="1689.53" gradientUnits="userSpaceOnUse"><stop offset="0" stop-color="#488dfc"/><stop offset="1" stop-color="#31b8fc"/></linearGradient></defs><use fill="url(#scp7b)" xlink:href="#scp7a" transform="translate(-941 -1656)"/></svg>