<svg xmlns="http://www.w3.org/2000/svg" xmlns:xlink="http://www.w3.org/1999/xlink" width="57" height="69"><defs><path id="4bgxa" d="M518.5 2765.04l-9.05 8.98-9.05-8.98a7.03 7.03 0 0 1 0-9.98 7.32 7.32 0 0 1 9.05-.84 7.31 7.31 0 0 1 9.05.84 7.03 7.03 0 0 1 0 9.98zm16.55-23.56c-6.45 0-12.33-5.23-12.33-10.98v-2.82h-26.55v2.82c0 5.75-5.87 10.98-12.32 10.98H481v26.98c0 14.78 24.54 25.57 27.33 26.75l1.12.47 1.11-.47c2.8-1.18 27.34-11.97 27.34-26.75v-26.98z"/><linearGradient id="4bgxb" x1="509.45" x2="490.54" y1="2790.12" y2="2713.93" gradientUnits="userSpaceOnUse"><stop offset="0" stop-color="#ef146d"/><stop offset="1" stop-color="#fe5d9f"/></linearGradient></defs><use fill="url(#4bgxb)" xlink:href="#4bgxa" opacity=".28" transform="translate(-481 -2727)"/></svg>