<svg xmlns="http://www.w3.org/2000/svg" xmlns:xlink="http://www.w3.org/1999/xlink" width="28" height="28" viewBox="0 0 28 28"><defs><path id="yjzpa" d="M670.55 1295.75a6.79 6.79 0 0 1-2.33 7.89 7.04 7.04 0 0 1-8.35 0 6.79 6.79 0 0 1-2.33-7.89"/><path id="yjzpb" d="M677.08 1301.16a15.34 15.34 0 0 0-26.08 0"/><path id="yjzpc" d="M651 1301.16c2.75 4.5 7.7 7.26 13.04 7.26 5.34 0 10.29-2.75 13.04-7.26"/><path id="yjzpd" d="M659.7 1314h-6.96c-.96 0-1.74-.76-1.74-1.71v-4.28"/><path id="yjzpe" d="M677.07 1308.01v4.28c0 .95-.78 1.71-1.74 1.71h-6.95"/><path id="yjzpf" d="M668.38 1288.32h6.95c.96 0 1.74.77 1.74 1.71v4.28"/><path id="yjzpg" d="M651 1294.31v-4.28c0-.94.78-1.71 1.74-1.71h6.95"/><path id="yjzph" d="M659.5 1299.16a1.3 1.3 0 0 1 .5-1.77 1.3 1.3 0 0 1 1.77.46c.35.62.13 1.4-.5 1.77a1.3 1.3 0 0 1-1.77-.46z"/></defs><g><g transform="translate(-650 -1287)"><g><use fill="#fff" fill-opacity="0" stroke="#aa51ff" stroke-linecap="round" stroke-linejoin="round" stroke-miterlimit="50" stroke-width="1.57" xlink:href="#yjzpa"/></g><g><use fill="#fff" fill-opacity="0" stroke="#aa51ff" stroke-linecap="round" stroke-linejoin="round" stroke-miterlimit="50" stroke-width="1.71" xlink:href="#yjzpb"/></g><g><use fill="#fff" fill-opacity="0" stroke="#aa51ff" stroke-linecap="round" stroke-linejoin="round" stroke-miterlimit="50" stroke-width="1.71" xlink:href="#yjzpc"/></g><g><use fill="#fff" fill-opacity="0" stroke="#aa51ff" stroke-linecap="round" stroke-linejoin="round" stroke-miterlimit="50" stroke-width="1.71" xlink:href="#yjzpd"/></g><g><use fill="#fff" fill-opacity="0" stroke="#aa51ff" stroke-linecap="round" stroke-linejoin="round" stroke-miterlimit="50" stroke-width="1.71" xlink:href="#yjzpe"/></g><g><use fill="#fff" fill-opacity="0" stroke="#aa51ff" stroke-linecap="round" stroke-linejoin="round" stroke-miterlimit="50" stroke-width="1.71" xlink:href="#yjzpf"/></g><g><use fill="#fff" fill-opacity="0" stroke="#aa51ff" stroke-linecap="round" stroke-linejoin="round" stroke-miterlimit="50" stroke-width="1.71" xlink:href="#yjzpg"/></g><g><use fill="#a152ec" xlink:href="#yjzph"/></g></g></g></svg>