<svg xmlns="http://www.w3.org/2000/svg" xmlns:xlink="http://www.w3.org/1999/xlink" width="31" height="33"><defs><path id="f7hha" d="M1102.25 2574.19v-2.42h7.38v2.42zm-11.18 21.34h11.18v2.42h-11.18a3.05 3.05 0 0 1-3.07-3.03v-5.86c0-.68.23-1.3.62-1.81a2.97 2.97 0 0 1-.62-1.82v-5.92c0-.68.23-1.3.62-1.81a2.97 2.97 0 0 1-.62-1.82v-5.86a3.05 3.05 0 0 1 3.07-3.02h20.4c1.7 0 3.07 1.36 3.07 3.02v5.86c0 .68-.23 1.31-.61 1.82.38.5.61 1.13.61 1.81h-2.46c0-.33-.27-.6-.61-.6h-20.4a.61.61 0 0 0-.61.6v5.92c0 .34.27.6.61.6h8.73v2.43h-8.73a.61.61 0 0 0-.61.6v5.86c0 .34.27.6.61.6zm-.61-19.65c0 .34.27.6.61.6h20.4c.33 0 .6-.26.6-.6v-5.86c0-.33-.27-.6-.6-.6h-20.4a.61.61 0 0 0-.61.6zm2.33-2.9c0-.67.55-1.21 1.23-1.21.68 0 1.23.54 1.23 1.21 0 .67-.55 1.21-1.23 1.21-.68 0-1.23-.54-1.23-1.21zm24.21 12.27v3.77c0 5.68-6.6 8.64-6.87 8.76l-.5.22-.5-.22c-.28-.12-6.88-3.08-6.88-8.76v-3.77c0-1.2.87-2.21 2.06-2.42a9.9 9.9 0 0 0 3.43-1.48 3.4 3.4 0 0 1 3.77 0 9.9 9.9 0 0 0 3.43 1.48 2.47 2.47 0 0 1 2.06 2.42zm-2.46 0a.04.04 0 0 0-.03-.04 12.2 12.2 0 0 1-4.37-1.86.92.92 0 0 0-1.02 0 12.2 12.2 0 0 1-4.37 1.86.04.04 0 0 0-.04.04v3.77c0 3.37 3.57 5.59 4.92 6.3 1.34-.72 4.91-2.95 4.91-6.3zm-21.75 6.77c0-.67.55-1.21 1.23-1.21.68 0 1.23.54 1.23 1.21 0 .67-.55 1.21-1.23 1.21-.68 0-1.23-.54-1.23-1.21zm0-9.55c0-.67.55-1.21 1.23-1.21.68 0 1.23.54 1.23 1.21 0 .67-.55 1.21-1.23 1.21-.68 0-1.23-.54-1.23-1.21z"/></defs><g transform="translate(-1087 -2566)"><use fill="#239efb" xlink:href="#f7hha"/><use fill="#fff" fill-opacity="0" stroke="#fff" stroke-miterlimit="50" stroke-width=".66" xlink:href="#f7hha"/></g></svg>