<svg xmlns="http://www.w3.org/2000/svg" xmlns:xlink="http://www.w3.org/1999/xlink" width="18" height="24"><defs><path id="1k4sa" d="M353.13 398.35h-2.33v-2.33h2.33zm0 3.5h-2.33v-2.34h2.33zm0 3.5h-2.33V403h2.33zm0 3.49h-2.33v-2.33h2.33zm-3.5-10.5h-2.32v-2.32h2.33zm0 3.52h-2.32v-2.35h2.33zm0 3.48h-2.32v-2.33h2.33zm0 3.5h-2.32v-2.33h2.33zm-3.48-10.5h-2.33v-2.32h2.33zm0 3.52h-2.33v-2.35h2.33zm0 3.48h-2.33v-2.33h2.33zm0 3.5h-2.33v-2.33h2.33zm-3.5-10.5h-2.32v-2.32h2.31zm0 3.52h-2.32v-2.35h2.31zm0 3.48h-2.32v-2.33h2.31zm0 3.5h-2.32v-2.33h2.31zM338 393.69V417h5.82v-3.5h5.82v3.5h5.81v-23.31s-4.5-.69-8.82-.69c-4.31 0-8.63.69-8.63.69z"/></defs><use fill="#aa51ff" xlink:href="#1k4sa" transform="translate(-338 -393)"/></svg>