<svg xmlns="http://www.w3.org/2000/svg" xmlns:xlink="http://www.w3.org/1999/xlink" width="18" height="18"><defs><path id="vuvya" d="M130.6 539h14.8c.88 0 1.6.73 1.6 1.62v14.76c0 .9-.72 1.62-1.6 1.62h-14.8c-.88 0-1.6-.73-1.6-1.62v-14.76c0-.9.72-1.62 1.6-1.62z"/><path id="vuvyb" d="M133.21 547.84c3.54 6.68.76.1 9.31-5.12l-.28.37c.3-.29.5-.5.86-.71l-.12.34.96-.59h.03l-.92.85.64-.16-.58.62 1.47-.58-.57.46.62-.11-.2.46.2-.1c-.1.14-.24.29-.43.42-2.33 1.48-5.08 3.81-8.08 9.59-1.29 1.42-3.34-2.87-4.74-4.53 0-2.08 1.83-1.21 1.83-1.21z"/></defs><use fill="#ede3f6" xlink:href="#vuvya" transform="translate(-129 -539)"/><use fill="#aa51ff" xlink:href="#vuvyb" transform="translate(-129 -539)"/></svg>