<svg xmlns="http://www.w3.org/2000/svg" xmlns:xlink="http://www.w3.org/1999/xlink" width="192" height="179" viewBox="0 0 192 179"><defs><path id="2705a" d="M561 3116.5a77.5 77.5 0 1 1 155 0 77.5 77.5 0 0 1-155 0z"/><path id="2705e" d="M536 3036v-3h3v3zm0 7v-3h3v3zm0 7v-3h3v3zm0 6v-3h3v3zm0 7v-3h3v3zm0 7v-3h3v3zm0 7v-3h3v3zm7-41v-3h3v3zm0 7v-3h3v3zm0 7v-3h3v3zm0 6v-3h3v3zm0 7v-3h3v3zm0 7v-3h3v3zm0 7v-3h3v3zm7-41v-3h3v3zm0 7v-3h3v3zm0 7v-3h3v3zm0 6v-3h3v3zm0 7v-3h3v3zm0 7v-3h3v3zm0 7v-3h3v3zm6-41v-3h3v3zm0 7v-3h3v3zm0 7v-3h3v3zm0 6v-3h3v3zm0 7v-3h3v3zm0 7v-3h3v3zm0 7v-3h3v3zm7-41v-3h3v3zm7 0v-3h3v3zm7 0v-3h3v3zm-14 7v-3h3v3zm7 0v-3h3v3zm7 0v-3h3v3zm-14 7v-3h3v3zm7 0v-3h3v3zm7 0v-3h3v3zm-14 6v-3h3v3zm7 0v-3h3v3zm7 0v-3h3v3zm-14 7v-3h3v3zm7 0v-3h3v3zm7 0v-3h3v3zm-14 7v-3h3v3zm7 0v-3h3v3zm7 0v-3h3v3zm-14 7v-3h3v3zm7 0v-3h3v3zm7 0v-3h3v3zm7-41v-3h3v3zm0 7v-3h3v3zm0 7v-3h3v3zm0 6v-3h3v3zm0 7v-3h3v3zm0 7v-3h3v3zm0 7v-3h3v3zm6-41v-3h3v3zm0 7v-3h3v3zm0 7v-3h3v3zm0 6v-3h3v3zm0 7v-3h3v3zm0 7v-3h3v3zm0 7v-3h3v3zm7-41v-3h3v3zm0 7v-3h3v3zm0 7v-3h3v3zm0 6v-3h3v3zm0 7v-3h3v3zm0 7v-3h3v3zm0 7v-3h3v3zm7-41v-3h3v3zm0 7v-3h3v3zm0 7v-3h3v3zm0 6v-3h3v3zm0 7v-3h3v3zm0 7v-3h3v3zm0 7v-3h3v3zm7-41v-3h3v3zm7 0v-3h3v3zm6 0v-3h3v3zm-13 7v-3h3v3zm7 0v-3h3v3zm6 0v-3h3v3zm-13 7v-3h3v3zm7 0v-3h3v3zm6 0v-3h3v3zm-13 6v-3h3v3zm7 0v-3h3v3zm6 0v-3h3v3zm-13 7v-3h3v3zm7 0v-3h3v3zm6 0v-3h3v3zm-13 7v-3h3v3zm7 0v-3h3v3zm6 0v-3h3v3zm-13 7v-3h3v3zm7 0v-3h3v3zm6 0v-3h3v3zm-40 7v-3h3v3zm0 6v-3h3v3zm0 7v-3h3v3zm0 7v-3h3v3zm0 7v-3h3v3zm0 7v-3h3v3zm0 6v-3h3v3zm6-40v-3h3v3zm0 6v-3h3v3zm0 7v-3h3v3zm0 7v-3h3v3zm0 7v-3h3v3zm0 7v-3h3v3zm0 6v-3h3v3zm7-40v-3h3v3zm0 6v-3h3v3zm0 7v-3h3v3zm0 7v-3h3v3zm0 7v-3h3v3zm0 7v-3h3v3zm0 6v-3h3v3zm7-40v-3h3v3zm0 6v-3h3v3zm0 7v-3h3v3zm0 7v-3h3v3zm0 7v-3h3v3zm0 7v-3h3v3zm0 6v-3h3v3zm7-40v-3h3v3zm7 0v-3h3v3zm6 0v-3h3v3zm-13 6v-3h3v3zm7 0v-3h3v3zm6 0v-3h3v3zm-13 7v-3h3v3zm7 0v-3h3v3zm6 0v-3h3v3zm-13 7v-3h3v3zm7 0v-3h3v3zm6 0v-3h3v3zm-13 7v-3h3v3zm7 0v-3h3v3zm6 0v-3h3v3zm-13 7v-3h3v3zm7 0v-3h3v3zm6 0v-3h3v3zm-13 6v-3h3v3zm7 0v-3h3v3zm6 0v-3h3v3zm-88-40v-3h3v3zm0 6v-3h3v3zm0 7v-3h3v3zm0 7v-3h3v3zm0 7v-3h3v3zm0 7v-3h3v3zm0 6v-3h3v3zm7-40v-3h3v3zm0 6v-3h3v3zm0 7v-3h3v3zm0 7v-3h3v3zm0 7v-3h3v3zm0 7v-3h3v3zm0 6v-3h3v3zm7-40v-3h3v3zm0 6v-3h3v3zm0 7v-3h3v3zm0 7v-3h3v3zm0 7v-3h3v3zm0 7v-3h3v3zm0 6v-3h3v3zm6-40v-3h3v3zm0 6v-3h3v3zm0 7v-3h3v3zm0 7v-3h3v3zm0 7v-3h3v3zm0 7v-3h3v3zm0 6v-3h3v3zm7-40v-3h3v3zm7 0v-3h3v3zm7 0v-3h3v3zm-14 6v-3h3v3zm7 0v-3h3v3zm7 0v-3h3v3zm-14 7v-3h3v3zm7 0v-3h3v3zm7 0v-3h3v3zm-14 7v-3h3v3zm7 0v-3h3v3zm7 0v-3h3v3zm-14 7v-3h3v3zm7 0v-3h3v3zm7 0v-3h3v3zm-14 7v-3h3v3zm7 0v-3h3v3zm7 0v-3h3v3zm-14 6v-3h3v3zm7 0v-3h3v3zm7 0v-3h3v3z"/><path id="2705i" d="M626.87 3098.22c0-6.9 5.53-12.48 12.3-12.48 6.8 0 12.32 5.6 12.32 12.48v7.72h-24.62zm-9.58 0v7.73h-.5a5.83 5.83 0 0 0-5.79 5.87v32.31c0 3.24 2.6 5.87 5.78 5.87h44.44a5.83 5.83 0 0 0 5.78-5.87v-32.32c0-3.24-2.6-5.87-5.78-5.87l-.15-7.73c0-12.25-9.82-22.21-21.9-22.21-12.06.02-21.88 9.98-21.88 22.23z"/><path id="2705b" d="M635.46 3133.24a7.2 7.2 0 0 0 7.16 6.7 7.2 7.2 0 0 0 7.16-6.7z"/><path id="2705c" d="M628.3 3124.15h14.32a7.2 7.2 0 0 0-7.16-6.7 7.2 7.2 0 0 0-7.16 6.7"/><path id="2705d" d="M628.3 3125.35a7.2 7.2 0 0 0 7.16 6.7h14.32a7.2 7.2 0 0 0-7.16-6.7z"/><linearGradient id="2705f" x1="536" x2="628.82" y1="3033" y2="3124.91" gradientUnits="userSpaceOnUse"><stop offset="0" stop-color="#ba48ff"/><stop offset="1" stop-color="#e444ff"/></linearGradient><mask id="2705h" width="2" height="2" x="-1" y="-1"><path fill="#fff" d="M561 3039h155v155H561z"/><use xlink:href="#2705a"/></mask><filter id="2705g" width="201" height="203" x="538" y="3029" filterUnits="userSpaceOnUse"><feOffset dy="2" in="SourceGraphic" result="FeOffset3425Out"/><feGaussianBlur in="FeOffset3425Out" result="FeGaussianBlur3426Out" stdDeviation="5.2 5.2"/></filter><linearGradient id="2705j" x1="665.33" x2="611" y1="3133.99" y2="3076" gradientUnits="userSpaceOnUse"><stop offset="0" stop-color="#d73ef1" stop-opacity=".99"/><stop offset="1" stop-color="#bd10e0" stop-opacity=".99"/></linearGradient><clipPath id="2705k"><use xlink:href="#2705b"/></clipPath><clipPath id="2705l"><use xlink:href="#2705c"/></clipPath><clipPath id="2705m"><use xlink:href="#2705d"/></clipPath></defs><g><g transform="translate(-536 -3029)"><g><g opacity=".3"><use fill="url(#2705f)" xlink:href="#2705e"/></g><g><g><g filter="url(#2705g)"><use fill="none" stroke-width="0" mask="url(&quot;#2705h&quot;)" xlink:href="#2705a"/><use fill="#f6e0ff" xlink:href="#2705a"/></g><use fill="#fff" xlink:href="#2705a"/></g></g></g><g><g opacity=".28"><use fill="url(#2705j)" xlink:href="#2705i"/></g><g><g><g/><g clip-path="url(#2705k)"><use fill="#fff" xlink:href="#2705b"/></g></g><g><g/><g clip-path="url(#2705l)"><use fill="#fff" xlink:href="#2705c"/></g></g><g><g/><g clip-path="url(#2705m)"><use fill="#fff" xlink:href="#2705d"/></g></g></g></g></g></g></svg>