<svg version="1.1" id="Calque_1" xmlns="http://www.w3.org/2000/svg" x="0" y="0" viewBox="0 0 512 512" xml:space="preserve"><g id="g1369" transform="translate(-310.752 -64.253)"><radialGradient id="path175_1_" cx="703.468" cy="-361.402" r="139.625" gradientTransform="matrix(1.4818 0 0 -.3968 -475.666 367.798)" gradientUnits="userSpaceOnUse"><stop offset="0" stop-color="#3f2600" stop-opacity=".6"/><stop offset="1" stop-color="#3f2600" stop-opacity="0"/></radialGradient><path id="path175" d="M773.6 511.2c0 30.6-92.6 55.4-206.9 55.4-114.3 0-206.9-24.8-206.9-55.4 0-30.6 92.6-55.4 206.9-55.4s206.9 24.8 206.9 55.4z" fill="url(#path175_1_)"/><path id="path106" d="M453.5 451.6c-20-28.8-23.9-122.6 22.8-180.2 23.2-27.7 29.1-46.9 30.9-72.8 1.2-29.5-20.9-117.6 62.5-124.3 84.5-6.7 79.9 76.6 79.4 120.8-.4 37.3 27.4 58.4 46.3 87.4 35.1 53.3 32.2 145.2-6.6 194.9-49.1 62.2-91.2 35.2-119.2 37.5-52.2 2.8-54 30.7-116.1-63.3z"/><linearGradient id="path113_1_" gradientUnits="userSpaceOnUse" x1="715.335" y1="362.696" x2="715.526" y2="409.54" gradientTransform="matrix(-.9649 -.01292 .03672 -2.5569 1350.818 1405.323)"><stop offset="0" stop-color="#ffeed7"/><stop offset="1" stop-color="#bdbfc2"/></linearGradient><path id="path113" d="M657.5 287.9c14.5 13.4 52.3 73.4-7.4 110.8-21 13 18.8 62.9 37.9 38.7 33.7-43.4 12.2-112.4-8-137.2-13.8-17.5-34.8-24.3-22.5-12.3z" fill="url(#path113_1_)"/><path id="path111" d="M653.4 279.7c23.9 19.3 67.4 87.3 3.9 131.5-20.9 13.8 18.5 57.2 40.6 35 76.8-77.2-2-166-29.1-196.6-24.3-26.5-45.7 6.3-15.4 30.1z" stroke="#000" stroke-width=".7"/><linearGradient id="path114_1_" gradientUnits="userSpaceOnUse" x1="567.35" y1="371.82" x2="563.104" y2="305.857" gradientTransform="matrix(1.4132 -.07965 .0412 -1.0714 -246.324 524.54)"><stop offset="0" stop-color="#fff" stop-opacity=".8"/><stop offset="1" stop-color="#fff" stop-opacity="0"/></linearGradient><path id="path114" d="M619 116.4c-.8 22.1-25.2 41.4-54.4 43.1-29.2 1.7-52.2-15-51.4-37.1.8-22.1 25.2-41.4 54.4-43.1s52.2 14.9 51.4 37.1z" fill="url(#path114_1_)"/><linearGradient id="path115_1_" gradientUnits="userSpaceOnUse" x1="643.478" y1="394.895" x2="644.434" y2="419.72" gradientTransform="matrix(1.0651 -.06167 -.09446 -1.6443 -115.28 878.908)"><stop offset="0" stop-color="#ffeed7"/><stop offset="1" stop-color="#bdbfc2"/></linearGradient><path id="path115" d="M549 169.1c.8 14.4-6.1 26.5-15.4 27.1-9.3.5-17.6-10.7-18.4-25.1-.8-14.4 6.1-26.5 15.4-27.1s17.6 10.7 18.4 25.1z" fill="url(#path115_1_)"/><linearGradient id="path116_1_" gradientUnits="userSpaceOnUse" x1="654.918" y1="402.494" x2="654.32" y2="425.262" gradientTransform="matrix(-1.4785 .04043 -.03886 -1.9024 1573.344 930.166)"><stop offset="0" stop-color="#ffeed7"/><stop offset="1" stop-color="#bdbfc2"/></linearGradient><path id="path116" d="M565.9 170.2c.3 16.7 11.1 29.9 24.1 29.5 12.9-.4 23.2-14.1 22.8-30.8-.3-16.7-11.1-29.9-24.1-29.5s-23.1 14.1-22.8 30.8z" fill="url(#path116_1_)"/><path id="path117" d="M576.7 173.9c-.2 9.1 4.4 16.6 10.3 16.6s10.8-7.4 11-16.5c.2-9.1-4.4-16.6-10.3-16.6s-10.8 7.4-11 16.5z"/><path id="path118" d="M539.4 174c.7 7.6-2.1 14.1-6.4 14.6-4.2.5-8.3-5.2-9-12.8-.7-7.6 2.1-14.1 6.4-14.6 4.2-.5 8.2 5.3 9 12.8z"/><linearGradient id="path121_1_" gradientUnits="userSpaceOnUse" x1="660.968" y1="332.031" x2="659.322" y2="303.339" gradientTransform="matrix(-.3922 -.02976 .05731 -.5825 826.045 373.6)"><stop offset="0" stop-color="#fff" stop-opacity=".65"/><stop offset="1" stop-color="#fff" stop-opacity="0"/></linearGradient><path id="path121" d="M579.1 168.7c-.5 5.1 1.9 9.4 5.3 9.7s6.6-3.7 7.1-8.8c.5-5.1-1.9-9.4-5.3-9.7s-6.6 3.7-7.1 8.8z" fill="url(#path121_1_)"/><linearGradient id="path122_1_" gradientUnits="userSpaceOnUse" x1="637.905" y1="307.368" x2="636.068" y2="279.425" gradientTransform="matrix(.2914 -.03333 -.05061 -.4881 360.356 334.817)"><stop offset="0" stop-color="#fff" stop-opacity=".65"/><stop offset="1" stop-color="#fff" stop-opacity="0"/></linearGradient><path id="path122" d="M535.8 170c.4 4.3-1.3 8-3.8 8.3-2.6.3-5-2.9-5.4-7.2-.4-4.3 1.3-8 3.8-8.3s4.9 2.9 5.4 7.2z" fill="url(#path122_1_)"/><linearGradient id="path128_1_" gradientUnits="userSpaceOnUse" x1="690.044" y1="213.426" x2="690.044" y2="309.881" gradientTransform="matrix(1.0161 0 0 -1.5378 -129.505 795.754)"><stop offset="0" stop-color="#ffeed7"/><stop offset="1" stop-color="#bdbfc2"/></linearGradient><path id="path128" d="M484.9 328.7c11.5-26 35.9-71.8 36.4-107.1 0-28.1 84.3-34.8 91-6.8 6.8 28.1 23.9 70.2 34.8 90.5 10.9 20.3 42.8 84.7 8.8 140.9-30.6 49.8-123.2 89.2-172.7-6.8-16.5-33.2-13.6-74.5 1.7-110.7z" fill="url(#path128_1_)"/><linearGradient id="path112_1_" gradientUnits="userSpaceOnUse" x1="671.824" y1="315.94" x2="673.479" y2="384.467" gradientTransform="matrix(.9028 -.07217 -.1573 -2.004 -64.069 1151.3)"><stop offset="0" stop-color="#ffeed7"/><stop offset="1" stop-color="#bdbfc2"/></linearGradient><path id="path112" d="M474.5 309.4c-9.8 18.6-30.2 67.4 19.5 94.1 53.6 28.4 53.3 86.8-11 59-58.8-25.1-32.8-126.6-16.4-150.9 10.8-17 27-37.8 7.9-2.2z" fill="url(#path112_1_)"/><path id="path109" d="M482.9 288.3c-15.6 25.5-53.1 85.7-2.9 116.9 67.6 41.5 48.5 82.9-13.2 45.6-86.9-52.1-10.6-157.1 24.3-197.1 39.7-44.9 7.5 8.2-8.2 34.6z" stroke="#000" stroke-width=".895"/><linearGradient id="path125_1_" gradientUnits="userSpaceOnUse" x1="577.867" y1="195.325" x2="578.276" y2="112.069" gradientTransform="matrix(1.3995 0 0 -1.14 -245.276 525.098)"><stop offset="0" stop-color="#fff" stop-opacity=".8"/><stop offset="1" stop-color="#fff" stop-opacity="0"/></linearGradient><path id="path125" d="M635.2 338.6c0 28.4-27.3 65.3-74.1 65-48.3.4-68.9-36.6-68.9-65s32-51.5 71.5-51.5c39.4 0 71.5 23.1 71.5 51.5z" fill="url(#path125_1_)"/><linearGradient id="path127_1_" gradientUnits="userSpaceOnUse" x1="577.826" y1="230.784" x2="578.376" y2="192.698" gradientTransform="matrix(1.2782 0 0 -.9908 -172.945 471.567)"><stop offset="0" stop-color="#fff" stop-opacity=".65"/><stop offset="1" stop-color="#fff" stop-opacity="0"/></linearGradient><path id="path127" d="M609.7 249.1c-.5 29.5-19.7 36.4-43.9 36.4-24.3 0-41.9-4.3-43.9-36.4 0-20.1 19.7-31.7 43.9-31.7s43.9 11.6 43.9 31.7z" fill="url(#path127_1_)"/><linearGradient id="path129_1_" gradientUnits="userSpaceOnUse" x1="719.734" y1="455.337" x2="719.734" y2="391.993" gradientTransform="matrix(.7146 0 0 -2.1864 -50.603 1261.72)"><stop offset="0" stop-color="#fff" stop-opacity=".65"/><stop offset="1" stop-color="#fff" stop-opacity="0"/></linearGradient><path id="path129" d="M463 294.4c15.8-24.2 49.2-61.2 6.2 5.2-34.8 54.6-12.9 89.7-1.6 99.3 32.7 29.1 31.3 48.6 5.7 33.3-55-32.8-43.6-87.9-10.3-137.8z" fill="url(#path129_1_)"/><linearGradient id="path131_1_" gradientUnits="userSpaceOnUse" x1="1040.019" y1="461.062" x2="1040.012" y2="403.733" gradientTransform="matrix(.7158 0 0 -2.1828 -50.917 1259.09)"><stop offset="0" stop-color="#fff" stop-opacity=".65"/><stop offset="1" stop-color="#fff" stop-opacity="0"/></linearGradient><path id="path131" d="M692.4 304.2c-13.7-28.4-57.4-100.1 2.1-16.6 54.1 75.4 16.1 127.9 9.4 133.1-6.8 5.2-29.6 15.6-22.9-2.6 6.7-18.2 40.4-52.7 11.4-113.9z" fill="url(#path131_1_)"/><linearGradient id="path132_1_" gradientUnits="userSpaceOnUse" x1="514.889" y1="93.686" x2="497.896" y2="36.213" gradientTransform="matrix(1.2644 0 0 -1.2358 -194.504 579.855)"><stop offset="0" stop-color="#ffa63f"/><stop offset="1" stop-color="#ff0"/></linearGradient><path id="path132" d="M451.1 527.4c-36.2-19.2-88.8 3.7-69.7-48.4 3.8-11.8-5.7-29.5.5-41.1 7.3-14 22.9-10.9 32.2-20.3 9.2-9.7 15.1-26.5 32.2-23.9 17.2 2.6 28.6 23.7 40.6 49.4 8.8 18.5 40.2 44.4 38.2 65.1-2.4 31.8-38.5 37.8-74 19.2z" fill="url(#path132_1_)" stroke="#e68c3f" stroke-width="4.473"/><linearGradient id="path177_1_" gradientUnits="userSpaceOnUse" x1="542.778" y1="71.522" x2="469.831" y2="264.095" gradientTransform="matrix(.6374 .2862 .2249 -.5793 323.425 342.04)"><stop offset="0" stop-color="#ffeed7"/><stop offset="1" stop-color="#bdbfc2"/></linearGradient><path id="path177" d="M714.8 405.2c-5.6 10.4-28.5 27-43.7 22.7-15.6-4.2-22.6-27.8-19.5-45.7 2.8-20.1 19.5-21.1 40.5-11.2 22.4 11 29.2 20.4 22.7 34.2z" fill="url(#path177_1_)"/><linearGradient id="path133_1_" gradientUnits="userSpaceOnUse" x1="511.906" y1="120.387" x2="501.178" y2="43.413" gradientTransform="matrix(-1.18 .4273 -.4706 -1.1534 1325.786 362.62)"><stop offset="0" stop-color="#ffa63f"/><stop offset="1" stop-color="#ff0"/></linearGradient><path id="path133" d="M702.1 518.4c26.5-32.2 85.4-25.6 45.7-69.7-8.4-9.5-5.9-30-16.1-38.6-12.1-10.6-25.5-1.9-37.9-7.5-12.3-6-25.2-17.5-40.3-9.3-15.1 8.2-16.7 29.7-18.1 57.7-1.2 20.2-19.7 54-9.9 72.5 14.5 28.8 51.3 25 76.6-5.1z" fill="url(#path133_1_)" stroke="#e68c3f" stroke-width="4.474"/><linearGradient id="path134_1_" gradientUnits="userSpaceOnUse" x1="481.987" y1="181.934" x2="528.047" y2="97.841" gradientTransform="matrix(-.9524 .3464 -.4208 -.9487 1216.458 386.466)"><stop offset="0" stop-color="#fff" stop-opacity=".65"/><stop offset="1" stop-color="#fff" stop-opacity="0"/></linearGradient><path id="path134" d="M690.6 475.4c41.1-60.6 10.5-60.2.2-64.8-10.3-4.9-21.2-14.4-33.3-7.7-12.1 6.7-12.8 24.3-13.1 47.2-.4 16.6-14.3 44.1-5.9 59.4 9.9 18 34.2-8 52.1-34.1z" fill="url(#path134_1_)"/><linearGradient id="path135_1_" gradientUnits="userSpaceOnUse" x1="527.326" y1="157.859" x2="532.647" y2="57.259" gradientTransform="matrix(1.0038 -.05226 .0174 -1.0463 -80.046 596.653)"><stop offset="0" stop-color="#fff" stop-opacity=".65"/><stop offset="1" stop-color="#fff" stop-opacity="0"/></linearGradient><path id="path135" d="M442.6 484.2c-61.5-39.8-32.7-53.3-23.4-59.6 11.2-8 11.3-23.6 25-22.2 13.8 1.5 21.8 18.4 31 39.4 6.8 15.1 30.3 35 28.7 52.4-2.1 20.4-34.6 7-61.3-10z" fill="url(#path135_1_)"/><path id="path136" d="M711.1 404.6c-4.8 8.4-24.5 21.6-37.7 18.2-13.4-3.4-19.5-22.3-16.8-36.6 2.4-16.1 16.8-16.9 34.9-9 19.4 8.8 25.2 16.4 19.6 27.4z"/><linearGradient id="path137_1_" gradientUnits="userSpaceOnUse" x1="438.721" y1="184.524" x2="477.848" y2="106.785" gradientTransform="matrix(.3742 .1593 .1209 -.3224 490.824 368.816)"><stop offset="0" stop-color="#fff" stop-opacity=".65"/><stop offset="1" stop-color="#fff" stop-opacity="0"/></linearGradient><path id="path137" d="M697.9 399.9c-3.1 5.8-16.1 15-25 12.6-9.1-2.4-13.6-15.5-12.1-25.4 1.3-11.2 11-11.7 23.3-6.2 13.2 6.1 17.3 11.4 13.8 19z" fill="url(#path137_1_)"/><linearGradient id="path119_1_" gradientUnits="userSpaceOnUse" x1="542.085" y1="235.809" x2="542.638" y2="181.962" gradientTransform="matrix(1.5234 0 0 -1.0257 -262.288 429.178)"><stop offset="0" stop-color="#ffa63f"/><stop offset="1" stop-color="#ff0"/></linearGradient><path id="path119" d="M530.7 189c6.4-6.1 22.2-24.2 51.9-5.1 5.5 3.6 10 3.9 20.6 8.5 21.2 8.7 11.1 29.8-11.4 36.8-9.6 3.1-18.4 14.8-35.9 13.8-15-.9-18.9-10.6-28.1-16-16.3-9.2-18.8-21.7-9.9-28.3 8.8-6.7 12.2-9.1 12.8-9.7z" fill="url(#path119_1_)" stroke="#e68c3f" stroke-width="2.684"/><path id="path120" d="M603.4 205.9c-8.8.5-28.1 19.8-48.4 19.8S522.8 207 519.7 207" fill="none" stroke="#e68c3f" stroke-width="1.789"/><linearGradient id="path123_1_" gradientUnits="userSpaceOnUse" x1="540.552" y1="164.841" x2="540.232" y2="104.933" gradientTransform="matrix(.7672 0 0 -.4875 142.54 262.46)"><stop offset="0" stop-color="#fff" stop-opacity=".65"/><stop offset="1" stop-color="#fff" stop-opacity="0"/></linearGradient><path id="path123" d="M540.8 187.4c3.2-2.9 13.3-10.8 26.8-2.7 2.8 1.6 5.8 3.4 10.1 5.7 8.6 5 4.3 12.2-6 16.8-4.7 1.9-12.4 6.1-18.3 5.8-6.5-.6-10.8-4.9-15.1-7.6-7.9-5.2-7.5-9.5-3.8-13 2.9-2.4 6-4.8 6.3-5z" fill="url(#path123_1_)"/></g></svg>