<svg xmlns="http://www.w3.org/2000/svg" version="1.1" id="Calque_1" x="0" y="0" viewBox="0 0 176.1 69.5" xml:space="preserve"><style>.st1{fill:#899096}</style><path d="M72.1 41.3c.5.6 1.4 1.2 2.5 1.7s2.6.7 4.5.7 3.4-.2 4.5-.7c1.1-.5 1.9-1 2.5-1.7.5-.6.9-1.3 1-2 .1-.7.2-1.2.2-1.5v-14c0-.4-.1-.8-.2-1.5s-.5-1.3-1-2c-.5-.6-1.4-1.2-2.5-1.7S80.9 18 79 18c-1.5 0-2.8.2-3.9.5v-6h12V8.9H70.9v16.3h4.3v-.7c0-.2 0-.5.1-.8.1-.3.3-.6.5-.8.3-.3.7-.5 1.2-.7.5-.2 1.2-.3 2.1-.3.8 0 1.5.1 2 .3.5.2.9.4 1.1.7.3.3.4.6.5.9.1.3.1.6.1.9V37c0 .3 0 .6-.1.9-.1.3-.2.6-.5.9-.3.3-.7.5-1.1.7-.5.2-1.2.3-2 .3-.9 0-1.6-.1-2.1-.3-.5-.2-.9-.4-1.2-.7-.3-.3-.5-.5-.5-.8-.1-.3-.1-.6-.1-.9v-.7H71v1.4c0 .4.1.9.2 1.5 0 .7.3 1.3.9 2zm30.8 1.6c1.1-.5 1.9-1 2.5-1.7.5-.6.9-1.3 1-1.9.1-.6.2-1.1.2-1.5V14.3c0-.4-.1-.9-.2-1.5-.1-.7-.5-1.3-1-2-.5-.6-1.4-1.2-2.5-1.7s-2.6-.7-4.5-.7-3.4.2-4.5.7c-1.1.5-1.9 1-2.5 1.7-.5.6-.9 1.3-1 2-.1.7-.2 1.1-.2 1.5v23.4c0 .4.1.8.2 1.5s.5 1.3 1 2 1.4 1.2 2.5 1.7 2.6.7 4.5.7 3.4-.3 4.5-.7zm-.6-27.2v21.5c0 .2 0 .5-.1.8-.1.3-.3.6-.5.9-.3.3-.7.5-1.2.7-.5.2-1.2.3-2.1.3-.8 0-1.5-.1-2-.3-.5-.2-.9-.4-1.1-.7-.3-.3-.4-.6-.5-.9-.1-.3-.1-.6-.1-.9v-22c0-.3 0-.6.1-.9.1-.3.2-.6.5-.9.3-.3.7-.5 1.1-.7.5-.2 1.2-.3 2-.3.9 0 1.6.1 2.1.3.5.2.9.4 1.2.7.3.3.4.5.5.8.1.3.1.6.1.9v.7zM76.5 50.1h-5.6v16.1h.7v-6h5c1.5 0 2.8-.5 3.7-1.6.8-.9 1.2-2.2 1.2-3.5-.1-2.4-1.6-5-5-5zm0 9.5h-5v-8.8h5c2.9 0 4.3 2.3 4.3 4.4 0 1.2-.4 2.2-1.1 3-.8.9-1.9 1.4-3.2 1.4zm10.2-9.7l-6.5 16.4h.7l2.2-5.3h7.8l2.2 5.3h.7l-6.5-16.4h-.6zm-3.4 10.4l3.6-9.4 3.7 9.4h-7.3zm17.4-.6c1.5 0 2.8-.5 3.7-1.5.8-.9 1.2-2 1.2-3.3 0-2.3-1.5-4.8-4.9-4.8h-5.6v16.1h.6V50.8h5c2.9 0 4.3 2.1 4.3 4.1 0 1.1-.4 2.1-1.1 2.8-.8.8-1.9 1.3-3.2 1.3h-3.2v.6l7.4 6.7h1l-7.3-6.6h2.1zm5-8.9h5.4v15.5h.7V50.8h5.4v-.7h-11.5zM129.6 65l-10.3-14.9h-.5v16.2h.7V51.5l10.2 14.8h.6V50.1h-.7zm3.7-6.5h8.2v-.6h-8.2v-7.1h8.3v-.7h-9v16.2h9.1v-.7h-8.4zm15.8 1.2c1.5 0 2.8-.5 3.7-1.5.8-.9 1.2-2 1.2-3.3 0-2.3-1.5-4.8-4.9-4.8h-5.6v16.1h.6V50.8h5c2.9 0 4.3 2.1 4.3 4.1 0 1.1-.4 2.1-1.1 2.8-.8.8-1.9 1.3-3.2 1.3h-3.2v.6l7.4 6.7h1l-7.3-6.6h2.1zm17.7 1.2c-.5-2.6-3-2.8-5.4-3.1-2.5-.2-4.8-.5-5-3.2-.1-.9.2-1.7.7-2.3.8-1.1 2.3-1.7 4-1.8h.1c1.6 0 2.9.5 3.7 1.4.4.5.7 1 .8 1.6v.3l.6-.1v-.3c-.5-2.5-2.9-3.6-5.2-3.6-2 0-3.7.8-4.7 2-.6.8-.9 1.7-.8 2.8.2 3.3 2.9 3.5 5.5 3.8 2.3.2 4.4.4 4.9 2.5.2 1.1 0 2.1-.7 3-.9 1.1-2.5 1.8-4.3 1.8-2.2 0-4.7-1.2-4.9-3.5v-.3l-.7.1v.3c.3 2.6 3.1 4 5.5 4 2 0 3.8-.8 4.9-2.1 1.1-.8 1.3-2 1-3.3zm-101-21.4c-.6 0-1.1.3-1.4.8l-6.2-2.8c.1-.2.2-.5.2-.7 0-.9-.7-1.6-1.6-1.6-.7 0-1.3.4-1.5 1l-3.1-1.4v-.2c0-.9-.7-1.6-1.6-1.6-.5 0-1 .2-1.3.6l-4.3-2v-.1L62.1 35v.2c0 .9.7 1.6 1.6 1.6.9 0 1.6-.7 1.6-1.6 0-.9-.7-1.6-1.6-1.6-.7 0-1.4.5-1.6 1.2l-4.1-.9c.8-.1 1.4-.8 1.4-1.6 0-.9-.7-1.6-1.6-1.6-.7 0-1.3.4-1.5 1L45 31.1V31l15-2.7c.2.7.8 1.2 1.6 1.2.9 0 1.6-.7 1.6-1.6 0-.9-.7-1.6-1.6-1.6-.9 0-1.6.7-1.6 1.6v.1l-6.5 1.2c.4-.3.7-.8.7-1.3 0-.9-.7-1.6-1.6-1.6-.2 0-.4 0-.5.1l5-2.9c.3.4.8.7 1.3.7.9 0 1.6-.7 1.6-1.6 0-.9-.7-1.6-1.6-1.6-.9 0-1.6.7-1.6 1.6 0 .2.1.5.2.7l-12.2 7.1-.1-.1 7.3-6.9c.3.2.6.3.9.3.9 0 1.6-.7 1.6-1.6 0-.9-.7-1.6-1.6-1.6-.2 0-.3 0-.5.1l3.2-3.9c.2.1.4.1.6.1.9 0 1.6-.7 1.6-1.6 0-.9-.7-1.6-1.6-1.6-.9 0-1.6.7-1.6 1.6 0 .6.3 1.1.8 1.4l-11 13.5h-.1l3.4-6.9c.7-.2 1.2-.8 1.2-1.6 0-.2 0-.4-.1-.6l1.9-3.7c.1-.3.3-.3.5-.3.9 0 1.6-.7 1.6-1.6 0-.9-.7-1.6-1.6-1.6-.9 0-1.6.7-1.6 1.6 0 .6.3 1.1.8 1.4l-1.8 3.5c-.3-.4-.7-.7-1.2-.7l3.2-9.7c.9-.1 1.5-.8 1.5-1.6 0-.9-.7-1.6-1.6-1.6-.9 0-1.6.7-1.6 1.6 0 .8.6 1.5 1.4 1.6l-3.2 9.7c-.8.1-1.5.8-1.5 1.6 0 .5.2.9.5 1.2l-2.4 7.1h-.1l.9-14.7c.8-.1 1.5-.8 1.5-1.6s-.5-1.4-1.3-1.6l.3-4.7c.9 0 1.6-.7 1.6-1.6 0-.9-.7-1.6-1.6-1.6-.9 0-1.6.7-1.6 1.6 0 .8.6 1.5 1.4 1.6l-.3 4.8h-.1c-.9 0-1.6.7-1.6 1.6 0 .9.7 1.6 1.5 1.6l-.9 14.6h-.1l-4-20.4c.7-.2 1.2-.8 1.2-1.6 0-.9-.7-1.6-1.6-1.6-.9 0-1.6.7-1.6 1.6s.7 1.6 1.6 1.6h.2L43 29.5 40.8 24c.1-.2.1-.4.1-.6 0-.7-.4-1.2-1-1.5l-2.5-6.4c.6-.2 1.1-.8 1.1-1.5 0-.9-.7-1.6-1.6-1.6-.2 0-.4 0-.6.1l-2.4-6.1c.3-.3.6-.7.6-1.2 0-.9-.7-1.6-1.6-1.6-.9 0-1.6.7-1.6 1.6 0 .9.7 1.6 1.6 1.6.3 0 .6-.1.8-.2l2.4 6.1c-.4.3-.7.8-.7 1.4 0 .9.7 1.6 1.6 1.6h.3l2.4 6.2h-.3c-.5 0-1 .2-1.3.6L27.3 6c.4-.3.6-.8.6-1.3 0-.9-.7-1.6-1.6-1.6-.9 0-1.6.7-1.6 1.6 0 .9.7 1.6 1.6 1.6.3 0 .5-.1.8-.2l10.8 16.6c-.1.2-.2.5-.2.7L30 13.6c.3-.3.5-.7.5-1.2 0-.9-.7-1.6-1.6-1.6-.9 0-1.6.7-1.6 1.6 0 .9.7 1.6 1.6 1.6.3 0 .6-.1.9-.3l8 10.3c.1.2.3.4.4.6l4 5.2-9.8-8.8c.5-.3.8-.8.8-1.4 0-.9-.7-1.6-1.6-1.6-.7 0-1.2.4-1.5.9l-8.8-8c.2-.3.3-.6.3-1 0-.9-.7-1.6-1.6-1.6-.9 0-1.6.7-1.6 1.6 0 .9.7 1.6 1.6 1.6.4 0 .8-.2 1.1-.4l8.9 8c0 .1-.1.3-.1.4 0 .9.7 1.6 1.6 1.6.2 0 .4 0 .6-.1l10 9s0 .1-.1.1L24.6 17.7c.1-.2.2-.4.2-.7 0-.9-.7-1.6-1.6-1.6-.9 0-1.6.7-1.6 1.6 0 .9.7 1.6 1.6 1.6.5 0 1-.3 1.3-.7l17.2 12.4-24.9-12.7c.1-.2.1-.4.1-.6 0-.9-.7-1.6-1.6-1.6-.9 0-1.6.7-1.6 1.6 0 .9.7 1.6 1.6 1.6.6 0 1.1-.3 1.4-.8l25.2 12.9v.1l-20.2-7.4c0-.9-.7-1.6-1.6-1.6-.9 0-1.6.7-1.6 1.6 0 .9.7 1.6 1.6 1.6.8 0 1.5-.6 1.6-1.4l19.4 7.1-11.7-2.8v-.2c0-.9-.7-1.6-1.6-1.6-.7 0-1.3.5-1.5 1.1l-11.7-2.8c0-.2.1-.3.1-.5 0-.9-.7-1.6-1.6-1.6s-1.6.7-1.6 1.6.7 1.6 1.6 1.6c.6 0 1.2-.4 1.4-.9l11.7 2.8v.3c0 .9.7 1.6 1.6 1.6.7 0 1.3-.5 1.6-1.1l12.6 3-28.5-2.1c-.1-.8-.8-1.4-1.6-1.4-.9 0-1.6.7-1.6 1.6 0 .9.7 1.6 1.6 1.6.9 0 1.6-.7 1.6-1.6l26.8 1.9-19.3.6c-.1-.8-.8-1.4-1.6-1.4-.9 0-1.6.7-1.6 1.6 0 .9.7 1.6 1.6 1.6.9 0 1.6-.7 1.6-1.5l11.9-.4c-.7.2-1.2.8-1.2 1.6v.1l-3.8.8c-.3-.5-.8-.9-1.4-.9-.8 0-1.5.6-1.6 1.5l-10.4 2.1c-.3-.5-.8-.9-1.5-.9-.9 0-1.6.7-1.6 1.6 0 .9.7 1.6 1.6 1.6s1.6-.7 1.6-1.6c0-.2 0-.3-.1-.5L24.8 35c.1.8.8 1.5 1.6 1.5.9 0 1.6-.7 1.6-1.6 0-.2 0-.3-.1-.5l3.7-.8c.1.5.5 1 1.1 1.2l-10.5 4c-.3-.5-.8-.8-1.4-.8-.9 0-1.6.7-1.6 1.6 0 .9.7 1.6 1.6 1.6.9 0 1.6-.7 1.6-1.6 0-.2 0-.4-.1-.6l10.9-4.2c.4 0 .7-.2 1-.4l6.6-2.5-24.5 12.8c-.3-.3-.7-.4-1.1-.4-.9 0-1.6.7-1.6 1.6 0 .9.7 1.6 1.6 1.6.9 0 1.6-.7 1.6-1.6 0-.4-.1-.7-.3-1l24.1-12.1-12.1 8.4c-.3-.4-.8-.7-1.3-.7-.9 0-1.6.7-1.6 1.6 0 .9.7 1.6 1.6 1.6.9 0 1.6-.7 1.6-1.6 0-.2-.1-.5-.2-.7l12.9-9-7.3 6.4c-.4.1-.8.5-1 .9l-9.8 8.7c-.3-.3-.7-.4-1.1-.4-.9 0-1.6.7-1.6 1.6s.7 1.6 1.6 1.6c.9 0 1.6-.7 1.6-1.6 0-.4-.1-.7-.3-1l9.4-8.4v.2c0 .9.7 1.6 1.6 1.6.2 0 .4 0 .6-.1L27 54c-.3-.2-.7-.4-1-.4-.9 0-1.6.7-1.6 1.6 0 .9.7 1.6 1.6 1.6.9 0 1.6-.7 1.6-1.6 0-.4-.1-.8-.4-1l15.3-21.7-10 16.8c-.2-.1-.4-.1-.5-.1-.9 0-1.6.7-1.6 1.6 0 .9.7 1.6 1.6 1.6.9 0 1.6-.7 1.6-1.6 0-.6-.3-1.1-.8-1.4l10-16.6-5 13.3c-.5.3-.9.8-.9 1.5 0 .2 0 .4.1.6L34 56c-.1 0-.3-.1-.4-.1-.9 0-1.6.7-1.6 1.6 0 .9.7 1.6 1.6 1.6.9 0 1.6-.7 1.6-1.6 0-.7-.4-1.2-.9-1.5l2.9-7.6c.3.4.8.7 1.3.7.9 0 1.6-.7 1.6-1.6 0-.7-.4-1.3-1-1.5l4.1-13.3-3 20.2h-.1c-.9 0-1.6.7-1.6 1.6 0 .9.7 1.6 1.6 1.6.9 0 1.6-.7 1.6-1.6 0-.8-.5-1.4-1.3-1.6l2.9-19.6-.8 24.9c-.9.1-1.5.8-1.5 1.6 0 .9.7 1.6 1.6 1.6.9 0 1.6-.7 1.6-1.6 0-.8-.6-1.5-1.4-1.6l.8-25.1 1.5 15.4c-.7.2-1.1.8-1.1 1.6 0 .9.7 1.6 1.6 1.6.9 0 1.6-.7 1.6-1.6 0-.9-.7-1.6-1.6-1.6h-.2L44 33l5.2 22.2c-.7.2-1.3.8-1.3 1.6 0 .9.7 1.6 1.6 1.6.9 0 1.6-.7 1.6-1.6 0-.9-.7-1.6-1.6-1.6h-.1l-5.1-21.4 10.9 24.1c-.5.3-.8.8-.8 1.4 0 .9.7 1.6 1.6 1.6.9 0 1.6-.7 1.6-1.6 0-.9-.7-1.6-1.6-1.6-.2 0-.4 0-.5.1L44.2 32.5h.1l19 29.3c-.4.3-.7.8-.7 1.4 0 .9.7 1.6 1.6 1.6.9 0 1.6-.7 1.6-1.6 0-.9-.7-1.6-1.6-1.6-.2 0-.4 0-.6.1L45.1 33.2l10.5 12.4c-.3.3-.5.7-.5 1.1 0 .9.7 1.6 1.6 1.6.9 0 1.6-.7 1.6-1.6 0-.9-.7-1.6-1.6-1.6-.4 0-.7.1-.9.3L44.6 32.2l.3.2 16.9 15.3c-.3.3-.5.7-.5 1.2 0 .9.7 1.6 1.6 1.6.9 0 1.6-.7 1.6-1.6s-.7-1.6-1.6-1.6c-.3 0-.6.1-.9.3L46.9 33.8l2.1 1.5c.2.6.8 1 1.4 1l8.6 6.1c-.2.3-.3.6-.3.9 0 .9.7 1.6 1.6 1.6.9 0 1.6-.7 1.6-1.6s-.7-1.6-1.6-1.6c-.5 0-.9.2-1.2.5l-8.3-5.9c.5-.1 1-.5 1.2-1l3.1 1.4v.3c0 .9.7 1.6 1.6 1.6.5 0 1-.3 1.3-.7l6.2 2.8c-.1.2-.1.3-.1.5 0 .9.7 1.6 1.6 1.6.9 0 1.6-.7 1.6-1.6.1-.9-.6-1.7-1.5-1.7zm-8.9-5.8l-11.5-2.3 10.7.6v.3c0 .6.3 1.1.8 1.4zm-11.9-3l6-2.4c.2.5.6 1 1.1 1.1L45 30.7zm5.9-2.8v.2l-5.7 2.3 6.3-3.6c-.4.1-.6.6-.6 1.1zm.8-4.9l-6.8 6.5 6.3-7.8v.2c0 .4.2.8.5 1.1zm-4.4-.1l-3.1 6.3 2.2-6.5c.2.1.5.2.9.2zm-6.7 1.5l2.1 5.2-3-4.6c.3 0 .7-.3.9-.6zm-1.3.7l2.2 3.2-2.7-3.3c.2.1.3.1.5.1zM33.5 32l7.7-.2-6.5 1.3c-.2-.6-.6-1-1.2-1.1zm1.3 1.4l5.4-1.1-5.6 2.1c.1-.2.2-.5.2-.8v-.2zm5.2.8l-4.3 4.9c-.3-.2-.6-.3-.9-.3l5.2-4.6zm-3.6 6.4v-.1c0-.4-.2-.8-.5-1.1l5.8-6.7.5-.4-5.8 8.3zm2.1 5.3h-.4L42 35.5 38.8 46c-.1-.1-.2-.1-.3-.1zm10.4-11.1l-3.8-2.7-.2-.1 4.2 1.9c-.1.2-.2.5-.2.8v.1z" fill="#b1bbc7"/><circle class="st1" cx="56.1" cy="14.9" r="1.6"/><circle class="st1" cx="61.6" cy="27.9" r="1.6"/><path class="st1" d="M56.1 32.3c0-.9.7-1.6 1.6-1.6s1.6.7 1.6 1.6c0 .9-.7 1.6-1.6 1.6s-1.6-.7-1.6-1.6z"/><circle class="st1" cx="64.1" cy="63.2" r="1.6"/></svg>