<svg version="1.1" id="Calque_1" xmlns="http://www.w3.org/2000/svg" x="0" y="0" viewBox="0 0 200 200" xml:space="preserve"><style>.st0{fill:#b1bbc7}</style><path class="st0" d="M114.5 164.1h47.8v.8h-47.8zm-76.5 0h47.8v.8H38z"/><text transform="matrix(.9149 0 0 1 91.063 167.74)" class="st0" font-size="9.949" font-family="Arial-BoldMT">THE</text><text transform="matrix(.9149 0 0 1 38.038 192.277)" class="st0" font-size="26.862" font-family="ArialMT">REFINERS</text><path fill="#9ea6ad" d="M40 111.5V42l60.2 34.8v69.5z"/><path fill="#aab3bc" d="M100.2 7.3L160.4 42l-60.2 34.8L40 42z"/><path class="st0" d="M160.4 111.5V42l-60.2 34.8v69.5z"/><path fill="#dcdcdc" d="M82.6 107.5L64.9 97.2V56.3l17.7 10.3z"/><path fill="#f7f7f7" d="M64.9 56.3l35.3-20.4 35.4 20.4-17.7 10.3-17.7-10.3-17.6 10.3z"/><path fill="#fff" d="M100.2 76.8l35.4-20.5v20.5l-35.4 20.4z"/><linearGradient id="SVGID_1_" gradientUnits="userSpaceOnUse" x1="115.919" y1="116.756" x2="109.165" y2="92.473"><stop offset="0" stop-color="#fff" stop-opacity="0"/><stop offset=".024" stop-color="#f2f2f2" stop-opacity=".005"/><stop offset=".137" stop-color="#bababa" stop-opacity=".027"/><stop offset=".255" stop-color="#898989" stop-opacity=".051"/><stop offset=".373" stop-color="#5f5f5f" stop-opacity=".075"/><stop offset=".492" stop-color="#3c3c3c" stop-opacity=".098"/><stop offset=".613" stop-color="#222" stop-opacity=".123"/><stop offset=".736" stop-color="#0f0f0f" stop-opacity=".147"/><stop offset=".864" stop-color="#040404" stop-opacity=".173"/><stop offset="1" stop-opacity=".2"/></linearGradient><path fill="url(#SVGID_1_)" d="M100.2 97.2L117.9 87l6 23.2-17.3 9.7z"/><linearGradient id="SVGID_2_" gradientUnits="userSpaceOnUse" x1="100.211" y1="97.225" x2="135.634" y2="97.225"><stop offset="0" stop-color="#f1f1f1"/><stop offset="1" stop-color="#fff"/></linearGradient><path fill="url(#SVGID_2_)" d="M100.2 97.2L117.9 87l17.7 10.2-17.7 10.3z"/></svg>