<svg version="1.1" id="Calque_1" xmlns="http://www.w3.org/2000/svg" x="0" y="0" viewBox="0 0 200 59" xml:space="preserve"><path d="M164 26.7h8.1c0-5.8-3.8-10.2-10.5-10.2-10 0-11.8 7.3-11.8 12.5 0 3.1 1.3 13.4 13.8 13.4 2.2 0 4.7-.2 7.8-1.1V37c-4.9 2.1-12.2 2.2-13.1-5.9-.8-6.8.5-11.1 2.9-11.1 2.1 0 2.8 3 2.8 6.7m32 .2v2.6h-14.2c.5 10 8 9.7 13.2 7.5v4.3c-3.1.9-5.2 1.1-7.6 1.1-12.2 0-14-9.1-14-13.7 0-5.3 2.3-12.2 11.7-12.2 6.9 0 10.9 4.3 10.9 10.4m-8.6-1.3c0-2.8-.6-5.6-2.6-5.6-1.9 0-2.6 2.2-2.9 5.6h5.5zm-68.1-.1v16.1h-13.4c-4.9 0-8.6-2-8.5-7.6 0-9 10.4-8.7 13.5-8.7v-.6c0-5.5-5.4-4.9-8.7-4-.7.2-1.3.4-1.8.7v-4c2.9-.7 4.8-.9 7.9-.9 7.1 0 11 3.3 11 9m-9.9 12.4h1.4v-9.2c-2 .2-4.9 1.1-4.9 5.1 0 3.7 1.8 4 3.5 4.1zM97.5 16.5h-1.8c-7 0-11.6 3.7-11.6 8.7v16.4h8.5V25.5c0-4.5 3-5.1 4.9-5.2v-3.8M82.4 7.1c-7.4 0-13.7 1-13.7 10.1v24.3h8.5V21H83v-3.8h-5.8v-1.9c0-4.5 3.6-4.5 7-4.5V7c-.6.1-1.8.1-1.8.1M124 17.3v24.3h8.5V21.1h.5c3 0 5 .3 5 5.9v14.6h8.5V27.5c0-4.5 0-10.2-12-10.2H124M64.1 50.4c0 2.6-2.1 4.6-4.6 4.6-2.6 0-4.6-2.1-4.6-4.6 0-2.6 2.1-4.6 4.6-4.6 2.5 0 4.6 2 4.6 4.6" fill="#b1bbc7"/><path d="M55.2 17.3h8.5v24.3h-8.5zm-40 24.3H3.5V7.1H12v10.1h2.5c11.5 0 11.5 9 11.5 11.9 0 3.9-1.2 12.5-10.8 12.5M12.7 38c3.5 0 4.7-3.3 4.7-8.8 0-5.3-1.2-8.3-4.8-8.3h-.5V38h.6zm28.4-20.7c9.6 0 10.8 8.6 10.8 12.4 0 2.9 0 11.9-11.5 11.9h-2.5v10.1h-8.6V17.3h11.8m-2.6 3.5h-.7V38h.5c3.6 0 4.8-3.1 4.8-8.3.2-5.5-1-8.9-4.6-8.9zM64.1 8.5c0 2.6-2.1 4.6-4.6 4.6-2.6 0-4.6-2.1-4.6-4.6 0-2.6 2.1-4.6 4.6-4.6 2.5 0 4.6 2 4.6 4.6" fill="#a5aeb7"/></svg>