<svg version="1.1" id="Layer_1" xmlns="http://www.w3.org/2000/svg" x="0" y="0" viewBox="0 0 512 512" xml:space="preserve"><style>.st0{fill:#303c42}</style><path class="st0" d="M480 64H300c8.7-15.2 18.2-31 29-47.5 3.2-4.9 1.8-11.6-3.1-14.8-4.9-3.2-11.6-1.8-14.8 3.1-13.5 20.8-25.2 40.5-35.6 59.1H32c-5.9 0-10.7 4.8-10.7 10.7v362.7c0 5.9 4.8 10.7 10.7 10.7h256.4c9.4 35.5 21.5 57.2 22.3 58.6 2 3.4 5.6 5.4 9.3 5.4 1.8 0 3.6-.4 5.3-1.4 5.1-2.9 6.9-9.4 4-14.6-.2-.3-10.1-18.2-18.7-48.1H480c5.9 0 10.7-4.8 10.7-10.7V74.7c0-5.9-4.8-10.7-10.7-10.7z"/><path d="M42.7 426.7V85.3H264c-57.4 114-61.2 172.3-61.3 175.8-.1 3 .9 5.9 2.9 8.1 2 2.2 4.8 3.4 7.7 3.4h72.3c-2.9 16.1-7.1 44.6-8.1 75.6-60.2 3.8-121-7.7-176.9-35.6-5.2-2.6-11.7-.4-14.2 5.1-2.6 5.5-.3 12 5 14.7 52.1 26 107.5 39.2 164.6 39.2 7.2 0 14.4-.8 21.6-1.3.6 20.6 2.9 39.5 6 56.3H42.7z" fill="#29b6f6"/><path d="M469.3 426.7h-164c-3.4-16.4-5.9-35.2-6.5-55.8 42-4.8 82.8-16.7 121.8-35.6 5.3-2.6 7.5-8.9 5-14.2-2.6-5.3-8.9-7.5-14.2-5-35.9 17.4-73.9 28.3-112.3 33 1.6-41.9 10-79.6 10.1-80 .7-3.2-.1-6.5-2.1-9s-5.1-4-8.3-4h-73.4c3.6-23.8 16.8-84.4 62.9-170.7h181.1v341.3z" fill="#fff"/><path class="st0" d="M138.7 192c5.9 0 10.7-4.8 10.7-10.7v-42.7c0-5.9-4.8-10.7-10.7-10.7s-10.7 4.8-10.7 10.7v42.7c0 5.9 4.8 10.7 10.7 10.7zm213.3 0c5.9 0 10.7-4.8 10.7-10.7v-42.7c0-5.9-4.8-10.7-10.7-10.7-5.9 0-10.7 4.8-10.7 10.7v42.7c0 5.9 4.8 10.7 10.7 10.7z"/></svg>