<svg version="1.1" id="Calque_1" xmlns="http://www.w3.org/2000/svg" x="0" y="0" viewBox="0 0 200 94" xml:space="preserve"><style>.st0{fill:#b1bbc7}</style><path class="st0" d="M69.8 30h5.8v1h-4.7v3.7h4.7v1h-4.7v3.8h4.7v1h-5.8V30zm4.4-3.2l.4.8-3.4 1.8-.3-.7 3.3-1.9zm13.4 10.9c-.7 1.6-2.5 3-4.9 3-3.1 0-5.5-2.4-5.5-5.5 0-3 2.3-5.5 5.5-5.5 2.6 0 4.2 1.7 4.9 3.1h-1.3c-.4-.6-1.6-2-3.6-2-2.5 0-4.3 2-4.3 4.4 0 2.5 1.9 4.4 4.3 4.4 2.2 0 3.3-1.6 3.6-2h1.3zm1-2.4c0-3.3 2.5-5.5 5.5-5.5 3.1 0 5.5 2.4 5.5 5.5s-2.4 5.5-5.5 5.5-5.5-2.4-5.5-5.5zm1.2 0c0 2.5 1.9 4.4 4.3 4.4 2.5 0 4.3-2 4.3-4.4 0-2.4-1.8-4.4-4.3-4.4-2.4 0-4.3 1.9-4.3 4.4zm11.8-5.3h1.2v9.5h4.5v1h-5.7V30zm7.2 0h5.8v1H110v3.7h4.6v1H110v3.8h4.7v1h-5.8V30zM73 44.6c1.8 0 2.5.3 3.1.7.8.6 1.2 1.7 1.2 2.7 0 1-.4 2.1-1.1 2.7-.7.6-1.4.8-3 .8h-1.3v3.6h-2.1V44.6H73zm-1.1 5.1h1.3c.5 0 1 0 1.4-.3.4-.2.7-.7.7-1.3 0-.7-.3-1.1-.7-1.3-.4-.2-.9-.3-1.4-.3H72v3.2zm6.5.3c0-3.4 2.6-5.6 5.5-5.6 3.2 0 5.5 2.5 5.5 5.5s-2.3 5.5-5.6 5.5c-3.1 0-5.4-2.6-5.4-5.4zm2.2-.1c0 1.9 1.4 3.6 3.4 3.6 2.1 0 3.4-1.9 3.4-3.6 0-1.8-1.3-3.6-3.4-3.6-2.1 0-3.4 1.7-3.4 3.6zm10.9-5.3h2.1v8.7h3.5v1.9h-5.6V44.6zm9.1 6.8l-3.2-6.8h2.3l2 4.8 2-4.8h2.3l-3.2 6.8v3.8h-2.1v-3.8zm8.8-4.9h-2.3v-1.9h6.7v1.9h-2.3v8.7h-2.1v-8.7zm6.7-1.9h5.9v1.9h-3.8v2.4h3.7v1.9h-3.7v2.6h3.8v1.9h-5.9V44.6zm18.3 7c-.6 2.2-2.7 3.7-5.2 3.7-3.2 0-5.5-2.6-5.5-5.5 0-2.8 2.2-5.5 5.5-5.5 3 0 4.8 2.3 5.2 3.8h-2.2c-.3-.7-1.3-1.9-3-1.9-2.1 0-3.4 1.7-3.4 3.6 0 1.9 1.4 3.6 3.4 3.6 1.9 0 2.7-1.5 2.9-1.9h2.3zm1.7 3.6V44.6h2.1v4.2h4.1v-4.2h2.1v10.6h-2.1v-4.5h-4.1v4.5h-2.1zm18.1-3.3v-7.3h2v10.6h-1.9l-4.9-7.3v7.3h-2V44.6h1.9l4.9 7.3zm5-7.3h2.1v10.6h-2.1V44.6zm19.8 0v6.5c0 .5 0 1.1.3 1.6s.7.8 1.4.8 1.2-.3 1.4-.8c.3-.5.3-1.1.3-1.6v-6.5h2.1v6.5c0 1.6-.3 2.5-1.1 3.3-.6.6-1.5 1-2.7 1-.8 0-2-.2-2.8-1-1-.9-1.1-1.8-1.1-3.3v-6.5h2.2zm8 0h5.9v1.9h-3.8v2.4h3.7v1.9h-3.7v2.6h3.8v1.9H187V44.6zm-12.6 9c-.2 0-.7-.1-1-.3.7-.9 1.2-2.1 1.2-3.4 0-3-2.4-5.5-5.6-5.5-2.9 0-5.5 2.2-5.5 5.6 0 2 1.1 3.8 2.9 4.8.1.1.2.1.4.2.7.3 1.5.5 2.3.5.9 0 1.9-.2 2.7-.7.1-.1.2-.1.3-.2.5.3 1.3.9 2.5.9h.3v-1.8h-.5zm-8.8-3.7c0-1.9 1.3-3.6 3.4-3.6 2.2 0 3.4 1.9 3.4 3.6 0 .7-.2 1.4-.6 2l-1.1-1.1-1.3 1.3 1.1 1.1c-.4.2-.9.4-1.5.4-2-.1-3.4-1.8-3.4-3.7M70.5 61.1v3.5c0 .4 0 .7.3 1.1.2.3.6.5 1 .5s.8-.2 1-.5c.3-.4.3-.7.3-1.1v-3.5h.6v3.5c0 .7-.1 1.3-.6 1.7-.3.3-.7.4-1.2.4-.4 0-.9-.1-1.2-.4-.6-.5-.6-1.1-.6-1.7v-3.5h.4zm9.6 4.7v-4.7h.6v5.6h-.6L76.8 62v4.7h-.6v-5.6h.6l3.3 4.7zm3.2-4.7h.6v5.6h-.6v-5.6zm2.7 0h.7l1.8 4.8 1.9-4.8h.6l-2.2 5.6h-.6L86 61.1zm7.1 0h3.1v.5h-2.5v1.9h2.5v.6h-2.5v2h2.5v.6h-3.1v-5.6zm5.5 0h1.5c.9 0 1.3.1 1.6.3.5.3.8.9.8 1.5 0 .4-.1.8-.3 1.1-.3.5-.7.6-1.2.6l1.4 2.1h-.7l-1.6-2.4h.2c.4 0 .9 0 1.2-.3.3-.3.4-.6.4-1s-.2-.9-.5-1.1c-.3-.2-.6-.2-1.1-.2h-.9v5h-.6v-5.6zm6.3 4.1c.1.9.8 1.1 1.1 1.1.6 0 1.1-.4 1.1-1.1 0-.8-.7-1-1.3-1.2-.5-.1-1.4-.4-1.4-1.5 0-1 .8-1.5 1.7-1.5.7 0 1.5.4 1.6 1.4h-.6c-.1-.4-.2-.9-1-.9-.6 0-1 .4-1 1 0 .7.5.8 1.4 1.1.5.2 1.4.5 1.4 1.5 0 .9-.7 1.6-1.7 1.6-.9 0-1.7-.6-1.7-1.6h.4zm5.3-4.1h.6v5.6h-.6v-5.6zm4 .6h-1.4v-.5h3.4v.5h-1.4v5h-.6v-5zm4.1-.6h3.1v.5h-2.5v1.9h2.5v.6h-2.5v2h2.5v.6h-3.1v-5.6zm2.4-1.7l.2.4-1.8 1-.2-.4 1.8-1zm8.3 1.7c.8 0 1.2.1 1.5.4.4.3.6.8.6 1.3s-.2 1.1-.6 1.3c-.4.3-.7.4-1.5.4h-.9v2.2h-.6v-5.6h1.5zm-.8 2.9h.9c.5 0 .8-.1 1-.2.2-.2.4-.5.4-.9s-.2-.8-.4-.9c-.3-.2-.6-.2-1-.2h-.9V64zm4.8 2.7h-.7l2.3-5.6h.6l2.3 5.6h-.7l-.6-1.6h-2.6l-.6 1.6zm1.9-4.9l-1.1 2.8h2.2l-1.1-2.8zm4.7-.7h1.5c.9 0 1.3.1 1.6.3.5.3.8.9.8 1.5 0 .4-.1.8-.3 1.1-.3.5-.7.6-1.2.6l1.4 2.1h-.7l-1.6-2.4h.2c.4 0 .9 0 1.2-.3.3-.3.4-.6.4-1s-.2-.9-.6-1.1c-.3-.2-.6-.2-1.1-.2h-.9v5h-.6v-5.6zm6 0h.6v5.6h-.6v-5.6zm3.6 4.1c.1.9.8 1.1 1.1 1.1.6 0 1.1-.4 1.1-1.1 0-.8-.7-1-1.3-1.2-.5-.1-1.4-.4-1.4-1.5 0-1 .8-1.5 1.7-1.5.7 0 1.5.4 1.6 1.4h-.6c-.1-.4-.2-.9-1-.9-.6 0-1 .4-1 1 0 .7.5.8 1.4 1.1.5.2 1.4.5 1.4 1.5 0 .9-.7 1.6-1.7 1.6-.9 0-1.7-.6-1.7-1.6h.4zm7-.3h-2v-.5h2v.5zm2.6.3c.1.9.8 1.1 1.1 1.1.6 0 1.1-.4 1.1-1.1 0-.8-.7-1-1.3-1.2-.5-.1-1.4-.4-1.4-1.5 0-1 .8-1.5 1.7-1.5.7 0 1.5.4 1.6 1.4h-.6c-.1-.4-.2-.9-1-.9-.6 0-1 .4-1 1 0 .7.5.8 1.4 1.1.5.2 1.4.5 1.4 1.5 0 .9-.7 1.6-1.7 1.6-.9 0-1.7-.6-1.7-1.6h.4zm5.3 1.5h-.7l2.3-5.6h.6l2.3 5.6h-.6l-.6-1.6h-2.6l-.7 1.6zm1.9-4.9l-1.1 2.8h2.2l-1.1-2.8zm9.7 3.4c-.4.9-1.3 1.6-2.6 1.6-1.7 0-2.9-1.3-2.9-2.9 0-1.6 1.2-2.9 2.9-2.9 1.4 0 2.2.9 2.6 1.6h-.7c-.2-.3-.8-1.1-1.9-1.1-1.3 0-2.3 1-2.3 2.3 0 1.3 1 2.3 2.3 2.3 1.2 0 1.8-.8 1.9-1h.7zm2.3-4.1h.6v5h2.1v.6H178v-5.6zm5.2 5.6h-.7l2.3-5.6h.6l2.3 5.6h-.7l-.6-1.6h-2.6l-.6 1.6zm1.9-4.9l-1.1 2.8h2.2l-1.1-2.8zm5.5 3l-1.8-3.6h.7l1.4 3 1.4-3h.7l-1.8 3.6v2h-.6v-2z"/><path class="st0" d="M48.9 28.7c-2.8 3.3-6.4 7.6-9.7 11.6C26.7 24.8 15 12.3 7.3 6.6c4 9.3 14 23.5 27 40.1-6.8 8.8-20.2 26.2-27 40.9 9.3-7.3 21.8-21.9 32-34.7 12.5 15.6 24.4 28.9 32.1 34.6-4-9.2-14.2-24.4-27.2-41 5.1-6.5 6.9-8.8 11.9-15.9C61.5 23 70.3 12 75 14.3c-7-3.9-17 3.7-26.1 14.4"/><path class="st0" d="M23.8 42.2c-.1-.1-.3-.2-.5-.2-.3 0-.6.1-.9.3-.3.2-.7.5-1.1.8-.4.3-.7.7-1.1 1.2-.4.5-.7 1-1.1 1.5-.4.5-.7 1.1-1 1.7-.3.6-.6 1.2-.8 1.8-.2.6-.4 1.2-.5 1.9-.1.4-.2.9-.2 1.3-.4.3-.7.6-1 .9-.4.3-.7.6-1 .8-.3.2-.5.3-.7.5l.1.5c.2-.1.6-.3.9-.6.3-.2.6-.5 1-.8l.6-.6c0 .4.1.7.2 1 .1.3.3.6.4.8.2.2.4.4.6.5.2.1.5.1.7.1.3 0 .6-.1.9-.2.3-.2.6-.3.8-.6.2-.2.4-.4.6-.7l-.3-.3c0 .1-.1.1-.1.2l-.6.6c-.2.2-.4.3-.6.4-.2.1-.4.2-.6.2-.3 0-.6-.1-.7-.4-.2-.3-.3-.7-.3-1.2V53c0-.2 0-.4.1-.6l.5-.5.2-.2.4-.4.6-.6c.2-.3.5-.6.8-1 .3-.4.7-.8 1.2-1.4.2-.3.4-.6.7-.9.2-.3.4-.7.7-1 .2-.3.4-.7.6-1 .2-.3.3-.7.5-1l.3-.9c-.1-.3-.1-.5-.1-.7 0-.3-.1-.5-.2-.6m-.5 1.6c-.1.4-.3.8-.6 1.3s-.6.9-.9 1.5c-.4.5-.8 1.1-1.2 1.6-.4.5-.9 1.1-1.4 1.7-.5.6-1 1.1-1.5 1.7.1-.7.3-1.4.6-2.1l.9-2.1c.3-.7.7-1.3 1.1-1.9.4-.6.8-1.1 1.1-1.5.4-.4.7-.8 1-1 .3-.3.6-.4.8-.4.1 0 .1 0 .2.1 0 .1.1.2.1.2 0 .2-.1.6-.2.9m4 0c0 .2 0 .5-.1.7-.1.2-.3.4-.4.6-.2.2-.4.3-.6.5-.2.1-.5.3-.7.4l-.2-.3c.3-.1.5-.3.7-.5l.5-.5c-.2 0-.4-.1-.5-.3-.1-.1-.1-.3-.1-.4 0-.2.1-.4.2-.5.1-.1.3-.2.5-.2s.4.1.5.2c.2 0 .2.1.2.3"/><path d="M37.4 7.9c.6-.4 1.2-.5 1.8-.5.4 0 .9.1 1.3.2.9.4 1.8 1.4 1.6 2.8 0-.1 0-.7-.2-1.1-.1-.4-.6-1.2-1.3-1.5-.3-.1-.8-.3-1.2-.3-.4 0-1.2.1-1.4.2-.3.2-.4.2-.6.2 0 .1-.1.1 0 0-.1.1 0 0 0 0m3.7 3.3v.2c0 .2 0 .3.1.4v.2c.1 0 .1-.1.1-.2s.3-.6.4-1.5c0-.3 0-.9-.3-1.3-.1-.1-.2-.5-.6-.8-.5-.4-1.2-.6-1.9-.6-.2 0-.8.1-1.1.3.1.2.2.4.2.5 0 0 .1.3.1.4.1 0 .1-.1.1-.1v-.4c0-.1-.1-.2-.2-.3-.1-.1.1-.2.2-.2s.2.2.2.3c0 .2 0 .3-.1.5h.2s.1-.2.2-.3c0-.1-.1-.3-.1-.4 0-.1.2-.2.3-.1.1 0 .1.2.1.4 0 .1-.1.3-.2.4h.2c.1-.1.2-.2.2-.3.1-.1 0-.3 0-.4 0-.1.2-.1.3-.1.1.1.1.2 0 .4 0 .1-.2.3-.3.4h.2c.1 0 .2-.2.3-.3.1-.1 0-.3.1-.4 0-.1.2-.1.3 0 .1.1 0 .2-.1.4-.1.1-.2.3-.3.4.1 0 .1 0 .2.1.1 0 .2-.1.3-.2.1-.1.1-.3.1-.4 0-.1.2-.1.3 0 .1.1 0 .2-.1.4-.1.1-.3.2-.4.3l.1.1c.1 0 .3-.1.4-.1.1-.1.2-.2.2-.3.1-.1.2 0 .3.1 0 .1-.1.2-.2.3-.2 0-.4 0-.5.1l.1.1c.1 0 .3 0 .3-.1.1 0 .2-.2.3-.3.1-.1.2.1.2.2s-.1.2-.3.3c-.1.1-.3 0-.4.1 0 .1.1.1.1.2h.3c.2 0 .2-.1.3-.2.1-.1.2.1.2.2s-.2.2-.3.2h-.4c0 .1.1.1.1.2h.2c.1 0 .2-.1.3-.1.1 0 .2.1.2.2s-.2.1-.3.1c-.1 0-.2 0-.3-.1v.2s.1 0 .1.1h.3c.1 0 .1.1.1.2s-.2.1-.3.1c-.1 0-.1-.1-.2-.1v.2h.1c.1.1.2 0 .3 0 .1 0 .1.2.1.2-.1.1-.2.1-.3 0 0 0-.1 0-.1-.1v.1c.1.1.2 0 .3.1.1 0 .1.2 0 .2.1.1-.1 0-.3-.1.1 0 .1 0 0 0M37 18.9c.1 0 .2 0 .3.1 0 .1-.1.2-.1.3 0 .1-.1.3-.2.3s-.3-.1-.3-.1c0-.2.2-.4.3-.6m-3.4 1.6c0 .1-.1.1-.1.2-.1.2-.2.4-.4.6l-.1.1c0-.3-.1-.5-.2-.7l-.2-.2-.2-.2c-.1-.1-.2-.2-.3-.4-.1-.1-.1-.3-.1-.6 0-.1.1-.1.2-.1h.4c.1.1.2.1.3.2.1.1.2.2.4.3.1.1.3.2.3.4v.4m1.3 1.2c.1-.1.2-.3.3-.4.3.2.7.4 1.1.5.4.2.8.3 1.2.4l.1.1c-.2.3-.3.5-.5.8l-.1.1c-.1 0-.2-.1-.3-.2-.6-.4-1.1-.8-1.7-1.2-.1 0-.2 0-.1-.1m.2 2.4s0 .1-.1.1-.2-.1-.3-.2c-.1-.1-.2-.1-.3-.2.1-.1.1-.1.1-.2.1 0 .2.1.3.2.3 0 .4.1.3.3.1-.1.1-.1 0 0m-.4-2c.1 0 .2.1.3.2l1.2.9c.1.1.2.1.3.2.1.1.2.1.2.2s-.1.2-.2.3c-.1 0-.2-.1-.3-.2-.6-.4-1.2-.9-1.8-1.3.2-.2.2-.3.3-.3m-.5.4c0-.1 0-.1 0 0 .1-.1.2 0 .2 0 .1.1.3.2.4.3.2.1.4.3.6.4.1.1.2.1.3.2.2.2.5.3.7.5.1.1.2.1.1.2-.1 0-.1-.1-.2-.1-.5-.4-1.1-.8-1.6-1.2-.1-.1-.3-.2-.4-.3 0 .1-.1 0-.1 0m.2.5s-.1-.1 0-.1c.5.3.9.7 1.4 1 .1.1.2.1.3.2v.1c-.1 0-.2-.1-.3-.1-.3-.1-.5-.3-.7-.5-.1-.1-.2-.1-.2-.2-.1-.1-.2-.1-.2-.2-.2 0-.3-.1-.3-.2m-.3.8s.1 0 .1.1c.1.1.2.2.4.3.1.1.2.2.4.3l.1.1c0 .1-.1.1-.2.2s-.4.1-.5 0c-.1 0-.1-.1-.2-.2s-.2-.1-.2-.2V24c.1-.1.1-.2.1-.2m5.2 3.3v-4.7c.4 0 .7-.1 1.1-.1h.2c.1 0 0 .3 0 .4v.4c0 .3 0 .6.1.9l.3.9c0 .1.1.1.1.1.1.1.1.2.2.3.1.1.2.1.3.2.2.1.4.2.7.2h.4c.2 0 .4-.1.6-.2.2-.1.3-.2.5-.3.3-.3.6-.5.8-.8l.3-.3.1-.1.1-.1.9-1.2c-.2.7-.6 1.4-1 2-.2.3-.4.6-.6.8-.2.3-.5.5-.7.7-.2.2-.5.4-.8.6-.5.3-1 .5-1.6.6-.2 0-.4.1-.6.1-.3 0-.7 0-1 .1h-.3c-.1-.3-.1-.4-.1-.5m3.8-3.2c.1-.1.2-.1.3-.2.1-.1.2-.2.3-.2l.1.1.1.1c-.1.1-.2.1-.3.2-.1.1-.2.1-.3.2l-.2-.2m1.7 2.4c-.2.1-.3.3-.5.4-.4.3-.7.5-1.1.7-.2.1-.4.2-.7.3-.2.2-.5.3-.7.3-.2.1-.5.1-.7.3-.1 0-.1.1-.2.1-.2.1-.3.2-.4.3-.3.2-.5.3-.7.6-.1.1-.2.2-.3.4-.1.1-.1.2-.2.3 0 0 0 .1-.1.1v-2.4c.9 0 1.8-.1 2.5-.3.4-.1.7-.2 1-.4.2-.1.4-.3.7-.4.1 0 .1-.1.2-.1.1-.1.2-.2.4-.3.2-.2.5-.5.7-.8.3-.4.6-.8.8-1.3.1-.2.2-.3.2-.5.1-.3.2-.5.3-.8 0 .3-.1.6-.1.9-.1.5-.2.9-.3 1.3 0 .1-.1.2-.2.4s-.2.5-.4.7l-.1.1c.1-.2.1-.1 0 0-.1 0-.1.1-.1.1m-.9-2.4c.1-.1.2-.1.3-.2.1 0 .1 0 .1.1s.1.2.1.3c0 .1 0 .2-.1.2l-.1.1c-.1.1-.3.3-.4.3h-.1c-.2 0-.4 0-.5-.1l-.1-.1.1-.1c.1-.1.3-.2.4-.3.2-.1.2-.2.3-.2m.1-.9c0 .1-.1.2-.2.3-.1.1-.2.1-.2.2-.2.1-.3.2-.5.3-.1.1-.2.2-.4.3 0 0-.1 0-.2.1h-.1c0-.1.1-.1.1-.1.4-.3.8-.6 1.1-.8.1-.1.3-.2.4-.3 0-.1 0 0 0 0m.1-.7s.1 0 0 0c.1.1 0 .2 0 .2-.7.5-1.4 1-2 1.5 0 0-.1.1-.2.1-.1-.1 0-.1 0-.2.1-.1.2-.1.3-.2.2-.2.5-.4.7-.5l.9-.6c.1-.2.2-.2.3-.3m-.5-.3l.1.1c0 .1.1.1.1.1-.7.5-1.3 1-2 1.5l-.2-.2s-.1 0-.1-.1l.1-.1c.5-.3.9-.7 1.4-1 .3-.1.5-.2.6-.3m-.2-.4l.1.1-.1.1c-.6.5-1.3.9-1.9 1.4-.1-.1-.2-.3-.3-.5-.1-.2-.2-.3-.3-.5 0 0 .1-.1.2-.1.4-.1.7-.2 1.1-.4.2-.1.4-.1.5-.2.1 0 .2-.1.3-.1.1-.1.2-.1.3-.2 0 .1.1.3.1.4m2.8-1.6c-.1.1-.2.2-.3.4-.1.1-.2.2-.3.4-.1.2-.2.4-.2.7l-.1-.1c-.2-.2-.3-.4-.4-.6 0-.1 0-.2-.1-.2v-.2c.2-.3.4-.5.7-.8.1-.1.2-.2.3-.2.2 0 .5-.1.5.1 0 .1 0 .3-.1.5m-3.4-.4c.2-.1.4-.3.6-.4.4-.3.8-.6 1.1-.9.2-.1.4-.3.7-.4.3 0 .6.2.7.4.2.2.4.4.3.8H46c-.4-.1-.7.2-.9.4l-.3.3-.3.3c-.2.2-.4.3-.6.5-.2.2-.4.3-.6.4-.2.1-.5.3-.7.4-.5.3-1 .4-1.6.6-.3.1-.6.1-.9.2-.6.1-1.4.1-2 0-.6-.1-1.2-.2-1.7-.4-.3-.1-.5-.2-.8-.3-.1-.1-.2-.1-.3-.2-.3-.2-.7-.4-1-.6-.1-.1-.2-.1-.3-.2-.3-.2-.6-.5-.9-.8-.2-.2-.5-.4-.9-.4-.1 0-.2.1-.2 0 0-.2 0-.3.1-.4.1-.1.1-.2.2-.3.2-.2.4-.5.8-.5.2 0 .3.1.5.2.1.1.2.1.3.2.2.2.4.3.6.4.2.1.4.3.6.4.2.1.4.3.6.4.4.2.9.4 1.4.6.2.1.5.2.8.2.3.1.6.1.9.1h1c.3 0 .6-.1.9-.2.3-.1.5-.1.8-.2.2-.1.5-.2.7-.3.1-.1.3-.2.6-.3m-.8 0c0 .1.1.1.1.2s-.1.1-.2.1c-.3.2-.7.3-1 .4-.1 0-.2.1-.3.1-.2 0-.4.1-.6.1h-1.6c-.7-.1-1.4-.3-2-.6 0-.1.1-.2.2-.3.4.1.8.2 1.2.2.5.1 1 .2 1.5.1.5 0 .9-.1 1.4-.2.1 0 .2 0 .3-.1l.9-.3c0 .2 0 .3.1.3m-4.7.1c0-.2.1-.3.2-.5 0-.1 0-.1.1-.1s.3 0 .4.1c0 .1 0 .2-.1.3 0 .1-.1.2-.1.3-.1-.1-.4-.1-.5-.1m.8.1c0-.2.1-.4.1-.5v-.2h.5c0 .2-.1.5-.1.7h-.5m.8.1c0-.2 0-.4.1-.6v-.2h.5v.7h-.3c-.1.1-.2.1-.3.1m.8-.8h.4c.1.2.1.5.1.7-.1 0-.4.1-.5.1v-.8m.7-.1c.1 0 .2 0 .3-.1.1.2.2.4.2.7-.1 0-.3.1-.4.1v-.1c0-.2-.1-.4-.1-.6m1.4.4c-.1 0-.4.1-.5.2 0-.1-.1-.2-.1-.3-.1-.1-.2-.3-.2-.4.1 0 .3-.1.4-.1 0 0 .3.5.4.6m-2.3-8.9h.2c.1.1.2.3.1.4l-.1.1c-.5.2-.6-.5-.2-.5m-.1.4c.2 0 .3-.1.2-.2 0 0-.1-.1-.2-.1s-.1.3 0 .3m-1.3-2.2c0-.3-.2-.5-.3-.6 0 0 0-.1-.1-.1s-.2 0-.2.1c.2 0 .4.3.6.6-.1.1-.1.2 0 .2v-.2m2.5 3.1c.1.1.2.1.3.2 0 0 .2.1.2 0v-.2c0-.1-.1-.2-.1-.3v-1c0-.3-.1-.6-.3-.9-.1-.2-.3-.4-.4-.5-.2-.1-.4-.3-.6-.3-.1 0-.2-.1-.3-.1-.3 0-.7 0-.9.1-.1.1-.2.1-.3.2-.2 0-.3.2-.4.2-.1.2-.3.3-.3.6 0 .1.1.2.2.3.1 0 .1.1.2.1.4.2.7.3 1.2.3.1-.1.2-.2.4-.2s.3.1.4.2c.1.1.1.3 0 .5.2.3.4.6.7.8M39 10.7h-.2c-.3-.1-.5-.1-.7-.2-.1 0-.2-.1-.3-.1l-.1-.1c-.1-.1-.3-.2-.4-.4-.1.1-.2.3-.2.4 0 .1-.1.3 0 .4l.2.1c.4.1.8.1 1.2.1.2 0 .3 0 .4-.1.1 0 .1-.1.1-.1m.9-.1c-.1-.1-.2-.2-.4-.2s-.3.2-.3.3v.2l.1.1c.1.1.1.1.2.1.2.1.5-.2.4-.5m-.9.4h-.8c-.4 0-.7-.1-1.1-.1 0 0-.1.1-.1.2s-.1.1-.1.2c-.1.1-.1.3-.1.4h.8c.1 0 .2 0 .3-.1.1 0 .3-.1.4-.1h.1c.1 0 .1-.1.2-.1.2-.1.3-.2.4-.3.1 0 .1-.1 0-.1m-3.9 2.7v-.2l-.2-.2-.2-.2-.9-.6c-.3-.2-.6-.4-.9-.5-.2-.1-.3-.2-.5-.2-.2-.1-.3-.2-.5-.2-.3-.1-.5-.3-.8-.4.1.1.4.3.6.3.2.1.7.4 1.3.9.7.5 1.9 1.9 1.9 1.9s0 .1 0 0c.1-.2.2-.4.2-.6m-3-.8c.3.2.7.8 1 .8l-.3-.6c-.1-.3-.2-.7-.3-1-.2-.2-1.4-.9-1.6-1 .5 1.1.7 1.4 1.2 1.8m7.8-1.6c0 .1.1.1.1.2l.3.3c.2.2.4.3.7.4h.2s-.1 0-.1-.1c-.1 0-.3-.1-.4-.1l-.1-.1c-.3-.2-.5-.5-.8-.8-.1.1 0 .1.1.2m-.7-.1c-.1.1-.2.2-.3.2-.5.3-1.2.4-2 .4h-.1c.2.1.5 0 .7 0h.4c.1 0 .2-.1.3-.1.4 0 .7-.2 1-.5 0 .1.1 0 0 0zm.3 1.2v-.9c-.1 0-.1 0-.1.1-.1.1-.3.1-.4.2v2.3c.1 0 .4.1.5 0v-1.7zm-6.8 1.3c-.1-.1-.2-.2-.4-.3l-1.1-1.1s-.1-.1-.2-.1c.4 1 .8 1.9 1.7 2.5.3.1.6.4.7.4 0-.2-.6-1.2-.7-1.4m1.3.2c-.1-.1-.4-.8-.4-.9-.3-.3-.6-.4-.8-.6 0 .1.2.6.3.8.3.5.9 1.1 1.2 1.2h.1c-.3-.2-.4-.4-.4-.5m5.2 3.3v-2.4c-.1 0-.2-.1-.1-.2v-.1c-.2 0-.3-.1-.5-.1-.1-.1-.3-.2-.4-.3-.1-.1-.2-.3-.2-.5 0-.3.1-.6.2-.8v-.1c-.2 0-.4.1-.5.1v.7c0 .3.1.6.1.9 0 .2.1.3.1.4.1.1.1.2.1.4 0 .1-.1.1-.2.1s-.1.1-.2.1-.1.1-.2.1-.1.1-.2.1-.1-.1-.2-.1c-.1-.1-.2-.2-.4-.3l-.1-.1V15c0-.1.1-.2.1-.3 0-.2.1-.5.1-.7 0-.4-.1-.7-.2-1 0 0 0-.1-.1-.1 0 .1 0 .2.1.4 0 .5 0 1-.1 1.4 0 .1-.1.2-.1.3 0 .1-.1.2-.1.3 0 .1.1.2.1.3.1.3.2.5.3.7.1.2.2.5.4.7 0 .1.1.2.2.2h1.3v-.1l.7.1zm.4.1h1.3c.1-.1.2-.3.3-.4.2-.3.3-.6.4-.9 0-.1.1-.2.1-.2 0-.1.1-.2.1-.3-.1-.2-.1-.4-.2-.6-.1-.2-.1-.5-.1-.7v-.7c0-.1.1-.2.1-.3l-.1.1c0 .1-.1.3-.1.4 0 .2-.1.4-.1.6 0 .2 0 .5.1.7 0 .2.1.3.1.5l-.3.3c-.1 0-.1.1-.2.1s-.1.1-.2.1-.1-.1-.2-.1-.1-.1-.2-.1c0 0-.1-.1-.2-.1l-.1-.1v-.2c0-.1.1-.1.1-.2.1-.3.2-.4.2-.8.1-.3.1-.4 0-.7 0-.1 0-.4-.1-.5-.1 0-.3 0-.4-.1l.1.1s.1.1.1.2.1.6-.1.9c-.1.2-.5.5-.9.5v.2c0 .1-.1.1-.1.1v2.4l.6-.2zm2.2-4.3c-.1 0-.1.1-.1.2-.1.4 0 .9 0 1.3 0 .2.1.3.1.5 0 .1 0 .1.1.2 0 .1.1.2.2.2v-.1c-.1-.2-.1-.4-.1-.6-.1-.5-.1-1.1 0-1.6-.1-.1-.2-.1-.2-.1m-5.3 1.7c0 .2-.1.4-.1.6 0 0-.1.1 0 .2.1 0 .1-.2.1-.2 0-.1.1-.2.1-.3.1-.3.2-.6.2-1v-.7c0-.1 0-.2-.1-.2h-.1c-.1.5-.1 1.1-.1 1.6m6-1.5c-.1-.1-.3-.1-.4-.1h-.2v.4h.6c.1-.1.1-.2.1-.3h-.1m-6.2-.1c-.1 0-.3.1-.4.1-.1 0 0 .3 0 .4h.6v-.5h-.2m6.4.2c0 .2-.1.8 0 1.1 0 .3.2.8.2.9 0 .1 0 .2.1.2s.1-.2.1-.3v-.6c0-.4-.1-.7-.2-1 0-.1-.1-.2-.1-.2.1-.1 0-.1-.1-.1 0-.1 0-.1 0 0m-7.2 0s-.1.1-.1.2 0 .2-.1.3c0 .1 0 .2-.1.3 0 .2-.1.4-.1.6v.6c0 .1.1.3.2.3s.2-.1.2-.2c.1-.3.2-.7.2-.9v-1.1c-.1-.1-.2-.1-.2-.1m6.5.4v.3h.6v-.3c-.2-.1-.4-.1-.6 0 0-.1 0-.1 0 0m-6.2 0v.3h.5v-.3c-.1-.1-.3 0-.5 0m-1.3.3s-.2-.3-.3-.3l-.1-.1c-.1 0 0 .1 0 .2.1.2.2.5.3.6l.3.3c.1.1.2.1.3.1v-.2c-.2-.2-.5-.6-.5-.6m-1.5-.1c0 .1.2.4.3.6.1.1.4.6.4.6.1.1.7.4.9.5.1.1.3.1.4.1-.1-.2-.1-.2-.3-.5l-.4-.6s-1.2-.7-1.3-.7m-1.4.2c0 .1.2.4.3.6.1.2.2.3.4.5s1.3.8 1.5.9h.2c0-.1-.1-.1-.1-.2-.1-.1-.3-.4-.3-.5l-.1-.1c-.1-.1-.1-.1-.3-.2-.8-.5-1.3-1-1.4-1h-.2m10.4 0v.4h.5v-.4H42m-6.1 0v.3h.5c.1 0 .1-.3 0-.4-.2.1-.4.1-.5.1m6.7.6s0-.2-.1-.1H42c0 .1 0 .3.1.3h.5c.1-.1.1-.1 0-.2m-6.8-.1c0 .2-.1.2-.1.4h.5c.1-.1.1-.2.1-.3-.1-.1-.3-.1-.5-.1m-.7.6c0-.1-.3-.3-.3-.3 0 .1.1.2.1.2l.1.1c.1.1.1.2.2.2-.1-.1-.1-.1-.1-.2m7.1-.1c0 .1.1.2.1.3h.4c0-.1 0-.1-.1-.2 0-.1 0-.1-.1-.2 0 .1-.2 0-.3.1m-6.4 0c-.1 0-.1 0 0 0-.1.1-.1.1-.1.2s-.1.1-.1.2h.5c.1-.1.1-.2.2-.4-.2-.1-.4 0-.5 0m-2.7.8c-.2-.1-.6-.4-.7-.5-.1 0-.2-.1-.2-.1.1.2.3.4.5.7.2.2 1 .8 1.4.9.2.1.3.1.4.1v-.1c-.1-.1-.3-.6-.4-.7-.4 0-.8-.2-1-.3m.6-.5c0 .1.1.2.1.3.1.2.4.5.7.7.3.2.5.3.6.3.1 0 .2.1.3.1-.1-.2-.2-.3-.3-.6 0 0 .1 0 .1-.1s-.1-.1-.1-.2c0 0-.2-.1-.3-.1-.1 0-.2-.1-.2-.1-.2-.1-.3-.1-.5-.2 0 0-.3-.1-.4-.1.1 0 .1 0 0 0m1.6.2c.4.4.8.5 1.3.6 0-.1-.2-.5-.3-.6h-1m.2.4c.1.2.8.9 1.3 1 .1 0 .2.1.2 0l-.3-.6s-1-.4-1.2-.4m.2 1c-.1 0-.2-.1-.3-.1-.1 0-.1 0-.3-.1-.7-.2-.8-.5-.9-.5v.1c0 .1 0 .1.1.1.1.2.3.4.6.6.3.2 1.3.5 1.4.3-.1 0-.5-.3-.6-.4m7.6-2.7c.1 0 .1-.1 0 0 .1-.1 1.3-1.4 1.9-1.9.7-.5 1.2-.8 1.3-.9.2-.1.5-.3.6-.3-.3.1-.5.2-.8.4-.2.1-.3.2-.5.2-.2.1-.3.1-.5.2-.3.2-.6.4-.9.5l-.9.6c-.1 0-.1.1-.2.2 0 .1-.2.2-.2.2v.2c.2.2.2.4.2.6m4.2-3.1c0-.1 0-.1 0 0-.2.1-1.4.8-1.7 1-.1.3-.2.7-.4 1l-.3.6c.3-.1.8-.6 1-.8.6-.5.9-.9 1.4-1.8m-2.7 3.9c.1 0 .4-.3.7-.4 1-.6 1.3-1.5 1.7-2.5-.1 0-.1.1-.2.1 0 0-.9 1-1.1 1.1l-.3.3c0 .2-.6 1.1-.8 1.4m-.7-.8c.1.1.1 0 0 0 .3-.2 1-.7 1.2-1.2.1-.2.3-.7.3-.8-.3.2-.5.4-.8.6-.1.1-.4.7-.4.9-.1.2-.2.4-.3.5m-.7.3v.2c.1 0 .1 0 .3-.1l.3-.3c.1-.1.2-.4.3-.6 0-.1.1-.2 0-.2 0 0-.1 0-.1.1 0 0-.2.3-.3.3-.1 0-.4.4-.5.6m1.9-.7s-1.2.7-1.3.7c0 0-.3.4-.4.6-.2.3-.2.3-.3.5.1 0 .3-.1.4-.1.2-.1.8-.4.9-.5 0 0 .3-.5.4-.6l.3-.6m1.4.1s-.1 0-.2.1c-.1 0-.5.6-1.4 1-.2.1-.2.1-.3.2l-.1.1s-.2.4-.3.5c0 .1-.1.1-.1.2h.2c.2 0 1.3-.7 1.5-.9.2-.2.3-.3.4-.5.1-.3.3-.6.3-.7m-3.5 1.4c.1 0 .1-.1.2-.2l.1-.1c0-.1.1-.2.1-.2-.1.1-.3.2-.3.3 0 0-.1.1-.1.2m1.1.9c-.1.1-.3.5-.4.7v.1c.1 0 .2 0 .4-.1.4-.1 1.2-.7 1.4-.9.2-.2.4-.5.5-.7-.1 0-.2 0-.2.1-.1.1-.6.3-.7.5-.2 0-.7.2-1 .3m.3-.9c-.1 0-.3.1-.4.2-.2.1-.3.1-.5.2-.1 0-.2.1-.2.1-.1 0-.3 0-.3.1 0 0-.1.1-.1.2l.1.1c0 .3-.2.4-.3.6.1 0 .2-.1.3-.1.1 0 .3-.1.6-.3.4-.2.6-.5.7-.7 0-.2.1-.3.1-.4m-2.3 1.9s-.2.1-.3.2c.2.2 1.2-.1 1.4-.3.3-.2.5-.5.6-.6 0 0 0-.1.1-.1 0-.1.1-.1 0-.1s-.3.2-.9.5c-.2.1-.2.1-.3.1-.1 0-.2 0-.3.1-.1 0-.1.1-.2.2 0-.1-.1 0-.1 0m-5.2-.1c-.4 0-.8-.3-.9-.3-.1 0-.6-.4-.7-.5 0 .1.1.2.2.3.1.1.7.8 1.1.9h.2c0-.1.1-.2.2-.2-.1-.1-.1-.2-.1-.2m4.9-1.6c0 .1-.2.5-.3.6.5-.1.9-.2 1.3-.6h-1m-.3.7l-.3.6c0 .1.1 0 .2 0 .4-.1 1.2-.8 1.3-1-.2.1-1.2.4-1.2.4m-.5 1c.1 0 .1.1.2.2h.2c.3 0 1-.8 1.1-.9.1-.1.2-.3.2-.3-.1.1-.6.5-.7.5-.1 0-.5.3-.9.3 0 .1-.1.1-.1.2m-6-6.6l.1-.1s0-.1-.1-.1c-.2.2-.5.4-.7.5-.1.1-.1 0-.1.1l.1.1c.2-.1.4-.3.7-.5m0 .2c-.2.2-.5.4-.7.5l-.1.1c.1.3.3.5.6.6.3-.2.4-.3.7-.5.1-.1.2-.1.2-.2-.1-.3-.3-.6-.4-.8l-.3.3m.9.7c-.3.2-.7.4-1 .7l-.1.1c0 .1 0 .1.1.1.2-.1.3-.3.5-.4.1-.1.2-.1.3-.2.1-.1.3-.2.2-.3m.1.3c-.3.2-.6.4-.9.7.1.2.3.4.4.6.1-.1.2-.1.3-.1.3-.1.5-.2.8-.3-.3-.4-.5-.7-.6-.9m7.9-.6c0-.2 0-.1-.1-.2-.2-.2-.5-.4-.7-.5 0 0-.1 0-.1.1l.1.1c.3.1.5.3.8.5m-1.1-.6c-.2.2-.3.5-.4.8.1.1.2.1.2.2.2.2.4.3.7.5.3-.1.5-.4.6-.6 0-.1 0 0-.1-.1-.2-.2-.5-.4-.7-.5-.1-.2-.2-.2-.3-.3m-.7.9c0 .1.1.2.2.2.1.1.2.1.3.2.2.1.3.3.5.4l.1-.1s0-.1-.1-.1c-.2-.2-.6-.4-1-.6m-.5 1.1c.2.1.5.2.7.3.1 0 .2 0 .3.1.1-.2.3-.4.4-.6-.3-.3-.6-.4-.9-.7-.2.3-.4.6-.5.9m-9.3 10.1c.1 0 .1 0 0 0 .1.1.2.3.3.4.2.2.4.5.6.7.2.2.4.5.7.7.2.2.4.3.6.5.2.1.3.2.5.3.3.2.8.3 1.2.3.6-.1.9-.6 1.1-1.1 0-.1.1-.2.1-.2.1-.3.1-.7.1-1.1v-.9h.1c.2 0 .5.1.7.1h.3v.7c0 .2 0 2.7.1 4.1 0 0 0 .1-.1.1 0 0-1.2 0-1.6-.1-.6-.1-1.5-.5-2-.8-.6-.3-1.1-.9-1.5-1.3-.4-.5-1.3-2.1-1.4-2.2.3 0 .2-.1.2-.2m2.8-9c0-.1 0-.2.1-.3v.4s-.1.6-.1.7v.5c-.1-.4 0-.7 0-.8v-.5m7.8.5c0 .1.1.4 0 .8v.1c-.1 0 0-.1 0-.1v-.5c0-.1-.1-.6-.1-.7 0 0-.1-.3 0-.4.1.1.1.2.1.3-.1.1 0 .4 0 .5m-5.6-1.4c.1 0 0 .1 0 0v1c0 .2 0 .3.1.4 0 .2.1.3.1.3s-.1-.2-.1-.3c0-.1-.1-.6-.1-.8v-.2h-.2v.3c.1.3 0 .8 0 .8s0 .2-.1.2v-.8c0-.2-.1-.7-.1-.7s-.1-.2 0-.2c0 0 0 .1.1.1h.3v-.1m-.1.3c.1 0 .1 0 0 0 0 .1-.2.2-.2.2v-.1c0-.1.2-.1.2-.1m3.5-.1h.3c.1 0 .1-.1.1-.1v.2s-.1.5-.1.7v.8s0-.2-.1-.2c0 0-.1-.5 0-.8v-.3h-.2v.2c0 .2-.1.7-.1.8 0 .1-.1.3-.1.3s0-.2.1-.3c0-.2 0-.3.1-.4v-.9c-.1-.1-.1-.2-.1-.2.1 0 .1.2.1.2m.3.1c0 .1 0 .1 0 0 0 .1-.3.1-.3 0v-.1c.1.1.3.1.3.1m-2.6 4.7h-1.4v-.4h1.6v.4h-.2m.8.1H39v-.6h.4v.6zm-.1-.1h-.2v-.4h.2v.4zm.2.2h-.6v-.8h.6v.8zm.1-.7H41s.1 0 .1.1v.3h-1.4v-.4m.4-4.5c.1.1.2.3.2.5 0 .3-.1.5-.3.7-.2.2-.5.3-.8.3-.6 0-1.1-.4-1.1-1 0-.3.2-.6.3-.7.1 0 .2-.2.3-.1l-.1.1s-.3.2-.3.6c0 .4.3.7.9.7.6 0 .9-.3.9-.7 0-.2-.1-.4-.2-.5-.1-.1-.3-.2-.2-.2.1.1.3.2.4.3m-.8 1.7c0 .1 0 .1 0 0-.1.1-.2 0-.2 0 .1 0 .1-.1.2 0 0-.1 0 0 0 0m-1.7.4c0 .1-.1.2-.2.2s-.2-.1-.2-.2.1-.2.2-.2.2.1.2.2m.1 0c0 .2-.1.3-.3.3-.2 0-.3-.1-.3-.3 0-.2.1-.3.3-.3.2 0 .3.1.3.3m0-2.4s-.1.4 0 1.2c0 .2.1.6.2.8 0 .1.2.5.2.5l-.1.1c-.1.1-.2.2-.4.3-.2-.1-.3-.3-.5-.4 0-.2.1-.2.1-.5.1-.5 0-1 0-1.2 0-.2-.1-.5-.2-.7.1 0 .4-.1.7-.1m3.3 2.2c.1 0 .2.1.2.2s-.1.2-.2.2-.2-.1-.2-.2 0-.2.2-.2m-.1-.1c.2 0 .3.1.3.3 0 .2-.1.3-.3.3-.2 0-.3-.1-.3-.3.1-.2.2-.3.3-.3m-.2-2.1c.3 0 .5.1.8.1-.1.2-.2.6-.2.7-.1.2-.1.9 0 1.2 0 .2.1.3.1.5-.2.1-.3.3-.5.4-.1-.1-.2-.2-.4-.3l-.1-.1s.2-.4.2-.5c0-.1.2-.5.2-.8 0-.7-.1-1.2-.1-1.2m-1.9 5.6h.8V18c.3 0 1.3-.1 1.4-.1 0 .1.3.7.3.7 0 .1-.1.1-.1.1-.3.1-.6.1-1 .2h-.4c-.6.1-1.3 0-1.9 0-.2 0-.5-.1-.7-.1-.1 0-.2 0-.3-.1 0 0 .4-.7.4-.8h1.4v.3zm-5.3 8.2s0 .1-.1.2l-.2.2c-.1 0-.1-.1-.1-.1s-.2-.3-.3-.4c0-.1-.3-.5-.3-.6-.1-.1-.4-.9-.6-1.5-.1-.5-.1-1-.1-1.3.1-1.3.1-1.3.2-1.8 0 0 .3.4.4.6.4.6 1.4 1.4 1.4 1.5l.1.1c0 .1-.2.6-.2.6h-.1l-.2-.2c-.2-.2-.6-.7-.6-.7-.1-.1-.5-.7-.6-.8-.1-.1-.1-.3-.2-.3 0 0-.1 0-.1.6.3.8.4 2.2 1.6 3.9m7.2-4.2c-.1-.1 0 1.5.3 2.1.3.7.9 1.3 1.7 1.1.5-.1 1.3-.7 1.3-.8h-.1c-.6.1-.8-.2-.8-.3 0-.1.1-.1.1-.2s-.1-.1-.1-.2c-.1 0-.2 0-.3.1-.2.1-.3.1-.5.1s-.4.1-.4.1c-.1 0-.1-.1-.1-.2v-.2c0-.1 0-.2-.1-.3 0-.1-.1-.1-.1-.2-.1 0-.2 0-.2-.1V23c0 .1-.6-.7-.7-.8m3.7 1c.4-.3 1.6-1.5 1.9-2.1 0 .1 0 .2.1.3.2.6.2 1.3.1 1.5 0 .2 0 1.5-.6 2.8-.1.1-.2.4-.3.6-.1.1-.2.3-.3.4l-.1.1-.1-.1-.1-.1s0-.1.1-.1c0 0 .4-.5.4-.6.1-.1.1-.1.2-.4.6-.9.6-3 .6-3.2 0-.1 0-.2-.1-.2l-.1.1s-1.1 1.5-1.3 1.7c-.2.1-.2.1-.3.1 0-.2-.1-.4-.2-.6v-.1c0-.1.1-.1.1-.1m-9.7 1.6c.5 0 .6-.3.6-.4 0-.1-.1-.1-.1-.2s.1-.2.2-.2.2.1.3.1c.1.1.6.2.7.1.1 0 .1-.2.1-.2v-.2c0-.1.2-.3.2-.4h.2v-.2c.2-.3.4-.7.6-.9v1.2c-.1.6-.1.9-.3 1.2-.2.3-.6.8-1.3.7-.5-.1-1-.4-1.2-.6m10.7 1.9s1-1.3 1.2-2.9c.2-1.6-.1-2.6-.1-2.6v-.1l.1.1c0 .1.4 1 .1 2.6-.3 1.6-1.3 2.9-1.3 2.9s0 .1 0 0c-.1.1 0 0 0 0m-12.3.2l-.1-.1s-1-1.3-1.2-2.9c-.2-1.6.1-2.6.1-2.6s0-.2.1-.1v.1c0 .1-.4 1-.1 2.6.2 1.6 1.2 2.9 1.2 3 0-.1 0 0 0 0m0-8.2c-.1 0-.1 0 0 0l-.2.1h-.1v-.1l.4-.5h.2s.1 0 .1.1c0 0 .1.1 0 .2-.3.2-.3.3-.4.2m.2-.3c-.1 0-.1 0 0 0l-.2.1v.1h.2v-.2m.1.8h-.1l-.1-.1c0-.1 0-.1.1-.3l.2-.2h.1l.1.1c0 .1 0 .1-.1.3l-.2.2m.2-.4c0-.1 0-.1 0 0 0-.1 0-.1 0 0-.1-.1-.2 0-.2.1-.1.1-.1.2-.1.2v.1h.1l.2-.2v-.2m.1.7h-.1l-.1-.1v-.1l.3-.4h.1v.1l-.3.3v.2h.1l.3-.5h.1v.1l-.3.4h-.1m.3.3v-.4h-.1l-.1.1h-.1v-.1l.4-.5h.2s.1 0 .1.1c0 0 .1.1 0 .2s-.1.1-.2.1l-.2.5c.1 0 .1 0 0 0zm.3-.5c0-.1-.1-.1 0 0l-.1.1v.1h.2c-.1-.1-.1-.2-.1-.2m.1.8c0-.1 0-.1 0 0l.3-.5h.1v.1l-.3.3v.1h.1v.1h-.1l-.1-.1zm.5.3v-.2h-.3v-.1l.4-.4h.1v.1l-.2.6c.1 0 0 0 0 0zm.1-.5l-.2.1v.1h.1l.1-.2zm.4.5l-.2.2h-.1v-.1l.3-.5h.2s.1 0 .1.1c0 0 .1.1 0 .2-.1.2-.1.2-.3.1m.2-.2c0-.1-.1-.1 0 0l-.1.1v.1h.1l.1-.1c-.1-.1 0-.1-.1-.1m.2.7v-.2h-.3v-.1l.4-.5h.1v.1l-.2.7c.1 0 0 0 0 0zm.1-.5l-.1.1v.1h.1v-.2zm.5.1c-.1 0-.1 0 0 0l-.3.5H36v-.1l.2-.4v-.2h.1l.1.2c0 .1 0 .1 0 0zm.1.8c0-.1 0-.1 0 0v-.4l-.1.2h-.1V21l.2-.5h.2s.1 0 .1.1c0 0 .1.1 0 .2 0 .1-.1.1-.1.1l-.2.4c.1 0 .1 0 0 0zm.1-.6c0-.1 0 0 0 0l-.1.1v.1h.1l.1-.1c0-.1 0-.1-.1-.1m.1.6l.2-.6h.1v.1l-.3.5c.1 0 .1 0 0 0zm.3.1c-.1 0-.1 0 0 0l.1-.6h.1l.2.1v.1h-.3v.2h.1v.1h-.3v.2h.1v.1h-.1l.1-.2zm.5.2s0-.1 0 0l.1-.6h.1v.1l-.1.5v.1h.1v.1h-.1l-.1-.2zm.4.1c0-.1-.1-.1 0 0l.1-.6h.3v.1H38v.2h.1v.1h-.3v.2h.1v.1h-.1l.1-.1zm.6 0h-.1c-.1 0-.1 0-.1-.1v-.1h.1v.1l.1.1c-.1-.1-.1-.1 0-.2 0-.1 0-.1-.1-.1 0 0-.1 0-.1-.1 0 0-.1 0 0-.1 0-.1 0-.1.1-.1h.1c.1 0 .1 0 .1.1v.2h-.1v-.1.2s.1 0 .1.1c0 0 .1.1 0 .2 0-.2 0-.1-.1-.1m.6 0h-.2v-.1h.1s.1 0 .1.1-.1 0 0 0l-.1-.1c0-.1 0-.1-.1-.1h-.1s-.1 0-.1-.1 0-.1.1-.1h.2v.1h-.1v.1c0 .1 0 .1.1.1h.1s.1 0 .1.2c0-.1 0-.1-.1-.1m.5 0h-.1c-.1 0-.1 0-.1-.1s-.1-.1-.1-.3V21l.1-.1h.1l.1.1h-.3v.4h.1c.1.3.1.3.2.3l-.1-.1h.1c.1 0 0 .1 0 .1m.2 0l-.1-.6V21h.1v.7c.1 0 .1 0 0 0zm.3 0c-.1 0-.1 0 0 0l-.1-.6V21h.3v.1h-.1v.2h.3v.1h-.1v.2h.3v.1h-.6zm.6-.1l-.3-.3.1.3v.1h-.1l-.1-.7v-.1h.1l.2.3-.1-.2v-.1h.1l.1.7c.1 0 0 0 0 0m.5-.2l-.1.1H41c-.1 0-.1-.1-.1-.3 0-.2-.1-.2 0-.3l.1-.1h.1l.1.1-.2.1h-.2v.2c0 .1.1.2.1.2h.3l-.1-.1h.1v.1m.2 0s-.1 0 0 0l-.2-.6v-.1l.2-.1h.1v.1h-.1v.2h.3v.1h-.1v.2h.3v.1l-.5.1zm.6-.2l-.1.1h-.1l-.1-.1h.3v-.1c0-.1 0-.1-.1-.1h-.1s-.1 0-.1-.1v-.2s0-.1.1-.1h.1l.1.1h-.3v.1c0 .1 0 .1.1.1h.1s.1 0 .1.1v.2m.3-.2c0 .1 0 0 0 0l-.3-.5v-.1l.2-.1h.1v.1h-.1v.2h.3v.3h.3v.1h-.5zm.3-.7s-.1 0 0 0l.2.5v.1h-.1l-.2-.4h-.2v-.1l.3-.1c0-.1 0-.1 0 0 0-.1 0-.1 0 0zm.6.3s-.1 0 0 0l-.4-.5V20h.1l.3.4h.3v.1l-.3.1zm.5-.4c0 .1 0 0 0 0h-.2v.2h-.1l-.2-.6v-.1h.1l.4.5zm-.4-.3l.1.2h.1V20l-.2-.1zm.8.1H44c-.1 0-.1-.1-.2-.2s-.1-.2-.1-.3c0 0 0-.1.1-.1h.1s.1 0 .1.1h-.2v.1s0 .1.1.2.1.2.1.2c0-.1 0-.1.1 0 0-.1 0-.2-.1-.2h-.2v-.1h.2l.1.1c.1 0 .1.1 0 .2m.2-.2l-.4-.5v-.1h.1l.3.4h.3v.1l-.3.1zm.5-.4s0 .1-.1.1h-.1c-.1 0-.1-.1-.2-.2s-.1-.2-.1-.3c0 0 0-.1.1-.1h.1c.1 0 .1.1.2.2 0 .2.1.2.1.3m-.4-.4c-.1.1-.1.1 0 0-.1.1 0 .2 0 .3.1.1.1.2.2.2h.1v-.1s0-.1-.1-.2-.2-.1-.2-.2m.6.3s-.1 0 0 0l-.4-.5v-.1h.1l.3.6zm.4-.3c-.1 0-.1 0 0 0l-.2-.1h-.1v.1l.1.1v.1h-.1l-.4-.5v-.1h.2s.1 0 .2.1c0 .1.1.1 0 .2l.3.1zm-.5-.4c0 .1 0 .1 0 0v.2h.1v-.2h-.1m.6.3l-.4-.5v-.1l.2-.1h.1v.1h-.1v.1l.1.1h.2v.2l.1.1h.3v.1h-.5zm-6.6-6.4c-.1 0-.9.1-1.1.2-.1-.1-.1-.2-.1-.2h-.1c-.2 0-.4.1-.6.1h-.1v-.1s-.2-.3-.3-.5c-.1-.1-.1-.2-.1-.2v-.2l-.1-.1h-.1v-.1c0-.1-.1-.2-.2-.3 0-.1-.2-.4-.3-.4h-.1c-.1 0-.1-.2-.2-.2s-.3.2-.3.2c-.3.2-.8.5-.8.6 0 .1.1.1.1.1l.1.1v.1s.3.5.5.6c0 0 .1 0 .1.1v.1c0 .1.2.1.2.2.1.1.1.2.2.3l.2.2s-.1.3-.4.1c-.5-.4-1.8-1.2-2.3-1.5-.9-.4-2.3-1.1-2.3-1.1l-.2-.1s.3.5.4.8c.1.1.4.7.5.8-.1 0-.3-.2-.3-.1 0 0 0 .1.1.3 0 .1.3.9.6 1.5l.1.1c-.1.1-.3-.1-.3-.1v.1c0 .1.2.5.8 1.3 0 0-.1 0-.1.1 0 0 0 .1.1.2 0 .1.3.4.4.5l.6.6c.2.1.6.4.8.4.1.1.6.2.7.2h.3s.1.1.2.1c.6.3 1.1.4 1.5.3h.4c.1.1.4.3.4.3s-.2.3-.2.4c-.1.2-.6 1.1-.7 1.1 0 .1-.1.2-.2.2 0 0-.8-.4-1-.6-.2-.1-1.3-1-1.5-1.1-.1-.1-.3-.2-.5-.2-.4 0-.7.2-.9.5-.1.2-.3.4-.3.7v.3c0 .2 0 .4.1.6.1.3.4.5.6.7.2.2.4.5.3.9v.1s.5-.4.6-.6c.1-.2.3-.5.3-.8.4.3.8.6 1.3.9-.1.1-.1.2-.2.2 0 .1-.1.2-.2.2s-.2 0-.2.1v.2c0 .1-.1.1-.1.2s-.1.1-.1.1h-.3c-.1.1-.1.1 0 .2 0 0 0 .1.1.1 0 .1.1.1.1.2s.4.6.4.8c-.1 0-.1.1-.2.1s-.1-.1-.2-.1c0-.1.2-.3.1-.4 0-.1-.1-.1-.2-.1-.7.2-1.7-.8-1.8-.9-.1-.1-.4-.5-.4-.6-.1-.1-.4-.6-.4-.6l-.1.2s-.1.1-.1.2c-.1.4-.4 1.4-.2 2.8.2 1.5 1 2.7 1.3 3.1.1.1.2 0 .3 0 .1-.1.2-.1.3-.2l.1-.1h.1c.5.5 1.1 1 1.9 1.3.3.1.5.2.7.3 1.4.6 2.3.9 2.8 2.5 0 .1 0 .1.1.1 0 0 0-.1.1-.1.5-1.7 1.4-2 2.8-2.6.2-.1.5-.2.7-.3.8-.3 1.5-.8 1.9-1.3.1.1.2.3.4.3l.1.1.1-.1c.3-.3 1.1-1.5 1.4-3.1.2-1.4 0-2.4-.2-2.8 0-.1-.1-.3-.2-.3s-.1.1-.2.1c0 .1-.1.1-.1.2-.7 1.1-2 2.1-2 2.2 0 .1.1.2.1.3-.1 0-.1.1-.2.1s-.2-.1-.2-.2.1-.2.2-.2c.1-.1.1-.2.2-.3 0-.1.1-.3.1-.3l.1-.2-.1-.1s-.2-.1-.3-.1c-.1 0-.2-.3-.3-.3v-.2c0-.1-.1 0-.2-.1-.1 0-.2-.3-.3-.4.8-.5 1.2-.9 1.3-.9 0 .3.1.5.3.8.2.3.5.6.6.6v-.2c0-.3.2-.6.2-.7 0-.1.3-.3.4-.4.1-.1.3-.3.3-.4 0-.1.1-.4.1-.6 0-.2-.1-.5-.1-.6 0-.1-.2-.3-.3-.4-.1-.1-.5-.4-.7-.4-.2 0-.3 0-.6.1-.2.1-1 .8-1.2.9-.3.2-1.1.8-1.3.8H42c-.1-.1-.5-.7-.7-1.1-.1-.3-.3-.6-.3-.7 0 0 .4-.3.5-.3.1 0 .3.1.5.1s1-.2 1.2-.3c.2-.2.2-.1.2-.1h.3c1.2-.2 2.2-1.3 2.3-1.5.2-.2.2-.3.2-.4 0-.1-.1 0-.1-.1.1-.2.4-.6.5-.7.1-.1.2-.4.3-.5 0-.1.1-.2 0-.2 0 0-.3.2-.3.1-.1-.1.1-.2.5-.9.3-.6.3-.9.3-.9 0-.1-.2.1-.3.1.1-.3.3-.5.5-.8.1-.3.5-.8.4-.8 0 0-.1 0-.2.1-.1 0-2.5 1.2-3 1.4-.5.3-1.7 1.1-1.7 1.1-.1.1-.2.1-.3 0 .1-.1.2-.2.2-.3 0 0 .1-.2.2-.3.1-.1.2-.1.2-.2v-.1s.1 0 .1-.1c.1 0 .2-.2.2-.2s.3-.3.3-.4v-.1l.1-.1.1-.1-.1-.1c-.2-.2-.7-.6-.8-.6 0 0-.1-.1-.2-.1s-.1.1-.2.2h-.1c-.1 0-.2.2-.2.3 0 .1-.2.4-.2.4v.1h-.1l-.1.1v.2c0 .1-.1.2-.2.3 0 .1-.3.4-.3.5l-.1.1c-.1 0-.3-.1-.4-.1-.1 0-.5-.1-.5-.1-.1 0-.2.1-.2.2-.3 0-.6-.1-.8-.1-.1 0-.1-.1-.1-.1v-1c.7 1 1.4 1 1.7.9.2-.2.5-.7.6-1.2.1-.3.2-.7.1-1 0-.4-.2-1.8-1.7-2.5-1.5-.6-2.8.1-3.1.2V8l.1.1h.2c.1 0 .3.2.3.3.1.2.2.4.1.5 0 .1-.3.2-.5.7-.2-.2-.3.2-.3.3 0 .1-.2.6-.1.7 0 .1 0 .1.1.1-.1.2-.3.5-.3.6 0 .1-.1.3-.2.5.2.1 1 .2 2.3-.3v1m.2 15h-1.3c-.4-.1-.8-.1-1.2-.3-.1 0-.2-.1-.3-.1-.3-.1-.5-.2-.7-.3-.2-.1-.3-.2-.5-.3-.1-.1-.3-.2-.4-.3-.1-.1-.3-.2-.4-.3-.1-.1-.2-.2-.3-.4-.7-.8-1.2-1.7-1.6-2.8 0 .5.1 1 .2 1.4.1.4.2.8.4 1.2.1.2.2.3.3.5.1.2.2.3.3.5.1.2.3.3.4.4l.4.4c.2.1.8.5 1.3.7 1.9.8 2.8 1 3.4 2.3v-.2c.1-.8.1-1.6 0-2.4" fill-rule="evenodd" clip-rule="evenodd" fill="#b1bbc7"/><path fill="none" d="M7.3 6.6H193v81.1H7.3z"/></svg>