<svg xmlns="http://www.w3.org/2000/svg" xmlns:xlink="http://www.w3.org/1999/xlink" width="93" height="29"><defs><path id="a8sba" d="M105.14 5223.35a9.16 9.16 0 0 0 9.05 8.58c4.78 0 8.69-3.78 9.04-8.58z"/><path id="a8sbb" d="M96.09 5211.71h18.1a9.16 9.16 0 0 0-9.05-8.58 9.16 9.16 0 0 0-9.05 8.58"/><path id="a8sbc" d="M96.09 5213.24a9.16 9.16 0 0 0 9.05 8.58h18.09a9.16 9.16 0 0 0-9.05-8.58z"/><path id="a8sbk" d="M134.18 5225.01c-2 0-3.49-.32-4.49-.95a.25.25 0 0 1-.1-.24l.23-2.4a.24.24 0 0 1 .37-.18 9.13 9.13 0 0 0 2.73 1.05c.4.08.78.12 1.15.12.76 0 1.3-.15 1.6-.44.31-.3.47-.66.47-1.1 0-.4-.11-.71-.33-.93-.22-.21-.53-.4-.94-.56-.4-.15-.9-.32-1.49-.5-.58-.17-1.23-.45-1.96-.82-.54-.32-.95-.7-1.23-1.16a4.3 4.3 0 0 1-.2-3.57c.19-.53.48-1 .89-1.41.4-.41.9-.74 1.54-1a7.3 7.3 0 0 1 3.4-.31c.31.03.61.08.91.15.94.2 1.65.45 2.12.74.08.05.12.14.11.24l-.24 2.34a.24.24 0 0 1-.38.18 6.6 6.6 0 0 0-1.3-.76 6.17 6.17 0 0 0-2.1-.47c-.66 0-1.2.13-1.62.38-.43.25-.64.64-.64 1.16 0 .45.14.78.42 1a4.42 4.42 0 0 0 1.14.62l.45.14.54.15.56.16c.56.16 1.07.36 1.54.58.46.22.86.5 1.18.84.33.33.58.73.75 1.2.18.46.26 1.01.26 1.65 0 2.73-1.78 4.1-5.34 4.1"/><path id="a8sbl" d="M153.14 5218.5h-8.33a.25.25 0 0 0-.25.3 3.97 3.97 0 0 0 4.03 3.36 9.83 9.83 0 0 0 3.89-.97c.15-.08.34.04.35.22l.13 2.37c0 .1-.05.2-.14.25a9.6 9.6 0 0 1-4.4.98c-1.2 0-2.27-.19-3.19-.56a6.26 6.26 0 0 1-3.74-3.81 8.38 8.38 0 0 1-.47-2.86c0-1 .15-1.94.45-2.82.3-.87.73-1.64 1.3-2.3a5.93 5.93 0 0 1 2.06-1.55c.8-.37 1.72-.56 2.74-.56.85 0 1.65.14 2.38.43a5.58 5.58 0 0 1 3.17 3.14c.3.75.45 1.58.45 2.49 0 .47-.06 1.03-.18 1.69a.25.25 0 0 1-.25.2m-8.23-2.34h4.96c.14 0 .26-.12.25-.26a3.17 3.17 0 0 0-.6-1.67c-.4-.55-1.02-.83-1.86-.83-.84 0-1.51.25-2.02.75-.45.44-.77 1-.97 1.7-.04.15.08.31.24.31"/><path id="a8sbm" d="M167.6 5222.16l-.28 2.62a.25.25 0 0 1-.25.23h-1c-1.35 0-2.32-.45-2.9-1.36-.1-.13-.27-.13-.38-.02-.94.92-2.26 1.38-3.95 1.38-.57 0-1.1-.1-1.57-.3a3.65 3.65 0 0 1-2.09-2.14c-.2-.51-.3-1.1-.3-1.75 0-.95.27-1.74.82-2.37a6.17 6.17 0 0 1 1.99-1.52 9.88 9.88 0 0 1 2.5-.82c.77-.15 1.48-.24 2.1-.27.14-.01.25-.13.24-.27-.07-.7-.26-1.2-.58-1.52-.37-.34-.99-.51-1.86-.51-1 0-2.13.3-3.42.9a.25.25 0 0 1-.35-.2l-.25-2.28a.26.26 0 0 1 .15-.26 11.25 11.25 0 0 1 4.8-1.15c3.29 0 4.93 1.87 4.93 5.61v3.77c0 .5.02.9.05 1.2.02.3.08.53.16.68.08.16.2.26.37.3.16.03.37.05.63.05zm-5.04-.92v-2.8a.25.25 0 0 0-.27-.25c-.43.05-.85.11-1.26.2-.5.12-.94.28-1.32.5-.39.2-.7.46-.93.76-.24.3-.35.64-.35 1.03 0 1.12.6 1.68 1.82 1.68.82 0 1.56-.31 2.23-.93a.27.27 0 0 0 .08-.2z"/><path id="a8sbn" d="M174.46 5222.45l-.25 2.34a.25.25 0 0 1-.25.23h-1c-1.16 0-2.04-.34-2.62-1.02a3.9 3.9 0 0 1-.87-2.64v-17.3c0-.15.11-.26.25-.26h2.88c.14 0 .25.11.25.26v15.87c0 .54.02.96.04 1.26.03.3.1.52.2.66.12.14.28.22.5.26.16.03.37.05.63.05.14 0 .25.14.24.3"/><path id="a8sbd" d="M175.69 5203.8h13.26v21.22h-13.26z"/><path id="a8sbp" d="M188.7 5224.74h-2.72a.25.25 0 0 1-.24-.24l-.04-.55a5.71 5.71 0 0 1-3.33 1.07 6.88 6.88 0 0 1-2.85-.56 5.85 5.85 0 0 1-2.08-1.55c-.57-.66-1-1.43-1.3-2.3a8.63 8.63 0 0 1-.45-2.82c0-1 .15-1.95.46-2.84a6.9 6.9 0 0 1 1.33-2.3 6.08 6.08 0 0 1 2.1-1.54 6.74 6.74 0 0 1 5.63.15c.16.09.35-.04.35-.23v-6.98c0-.14.11-.25.25-.25h2.9c.13 0 .24.11.24.25v20.44c0 .13-.11.25-.25.25m-6.1-11.34c-1.08 0-1.92.4-2.52 1.19-.6.79-.9 1.85-.9 3.2 0 1.33.3 2.4.9 3.2.6.78 1.44 1.18 2.52 1.18 1.05 0 1.84-.4 2.35-1.17.52-.79.78-1.86.78-3.22s-.26-2.43-.78-3.2c-.51-.8-1.3-1.18-2.35-1.18"/><linearGradient id="a8sbf" x1="105.14" x2="123.23" y1="5227.65" y2="5227.65" gradientUnits="userSpaceOnUse"><stop offset="0" stop-color="#17b3fb"/><stop offset="1" stop-color="#01dbf9"/></linearGradient><linearGradient id="a8sbh" x1="96.09" x2="114.18" y1="5207.42" y2="5207.42" gradientUnits="userSpaceOnUse"><stop offset="0" stop-color="#445dfb"/><stop offset="1" stop-color="#2d8cfb"/></linearGradient><linearGradient id="a8sbj" x1="96.09" x2="123.23" y1="5217.54" y2="5217.54" gradientUnits="userSpaceOnUse"><stop offset="0" stop-color="#2d8cfb"/><stop offset="1" stop-color="#17b3fb"/></linearGradient><clipPath id="a8sbe"><use xlink:href="#a8sba"/></clipPath><clipPath id="a8sbg"><use xlink:href="#a8sbb"/></clipPath><clipPath id="a8sbi"><use xlink:href="#a8sbc"/></clipPath><clipPath id="a8sbo"><use xlink:href="#a8sbd"/></clipPath></defs><g clip-path="url(#a8sbe)" transform="translate(-96 -5203)"><use fill="url(#a8sbf)" xlink:href="#a8sba"/></g><g clip-path="url(#a8sbg)" transform="translate(-96 -5203)"><use fill="url(#a8sbh)" xlink:href="#a8sbb"/></g><g clip-path="url(#a8sbi)" transform="translate(-96 -5203)"><use fill="url(#a8sbj)" xlink:href="#a8sbc"/></g><g transform="translate(-96 -5203)"><use fill="#fff" xlink:href="#a8sbk"/><use fill="#fff" xlink:href="#a8sbl"/><use fill="#fff" xlink:href="#a8sbm"/><use fill="#fff" xlink:href="#a8sbn"/><g clip-path="url(#a8sbo)"><use fill="#fff" xlink:href="#a8sbp"/></g></g></svg>