<svg xmlns="http://www.w3.org/2000/svg" xmlns:xlink="http://www.w3.org/1999/xlink" width="192" height="179" viewBox="0 0 192 179"><defs><path id="h4a8a" d="M563 3709.5a77.5 77.5 0 1 1 155 0 77.5 77.5 0 0 1-155 0z"/><path id="h4a8e" d="M538 3629v-3h3v3zm0 7v-3h3v3zm0 7v-3h3v3zm0 6v-3h3v3zm0 7v-3h3v3zm0 7v-3h3v3zm0 7v-3h3v3zm7-41v-3h3v3zm0 7v-3h3v3zm0 7v-3h3v3zm0 6v-3h3v3zm0 7v-3h3v3zm0 7v-3h3v3zm0 7v-3h3v3zm7-41v-3h3v3zm0 7v-3h3v3zm0 7v-3h3v3zm0 6v-3h3v3zm0 7v-3h3v3zm0 7v-3h3v3zm0 7v-3h3v3zm6-41v-3h3v3zm0 7v-3h3v3zm0 7v-3h3v3zm0 6v-3h3v3zm0 7v-3h3v3zm0 7v-3h3v3zm0 7v-3h3v3zm7-41v-3h3v3zm7 0v-3h3v3zm7 0v-3h3v3zm-14 7v-3h3v3zm7 0v-3h3v3zm7 0v-3h3v3zm-14 7v-3h3v3zm7 0v-3h3v3zm7 0v-3h3v3zm-14 6v-3h3v3zm7 0v-3h3v3zm7 0v-3h3v3zm-14 7v-3h3v3zm7 0v-3h3v3zm7 0v-3h3v3zm-14 7v-3h3v3zm7 0v-3h3v3zm7 0v-3h3v3zm-14 7v-3h3v3zm7 0v-3h3v3zm7 0v-3h3v3zm7-41v-3h3v3zm0 7v-3h3v3zm0 7v-3h3v3zm0 6v-3h3v3zm0 7v-3h3v3zm0 7v-3h3v3zm0 7v-3h3v3zm6-41v-3h3v3zm0 7v-3h3v3zm0 7v-3h3v3zm0 6v-3h3v3zm0 7v-3h3v3zm0 7v-3h3v3zm0 7v-3h3v3zm7-41v-3h3v3zm0 7v-3h3v3zm0 7v-3h3v3zm0 6v-3h3v3zm0 7v-3h3v3zm0 7v-3h3v3zm0 7v-3h3v3zm7-41v-3h3v3zm0 7v-3h3v3zm0 7v-3h3v3zm0 6v-3h3v3zm0 7v-3h3v3zm0 7v-3h3v3zm0 7v-3h3v3zm7-41v-3h3v3zm7 0v-3h3v3zm6 0v-3h3v3zm-13 7v-3h3v3zm7 0v-3h3v3zm6 0v-3h3v3zm-13 7v-3h3v3zm7 0v-3h3v3zm6 0v-3h3v3zm-13 6v-3h3v3zm7 0v-3h3v3zm6 0v-3h3v3zm-13 7v-3h3v3zm7 0v-3h3v3zm6 0v-3h3v3zm-13 7v-3h3v3zm7 0v-3h3v3zm6 0v-3h3v3zm-13 7v-3h3v3zm7 0v-3h3v3zm6 0v-3h3v3zm-40 7v-3h3v3zm0 6v-3h3v3zm0 7v-3h3v3zm0 7v-3h3v3zm0 7v-3h3v3zm0 7v-3h3v3zm0 6v-3h3v3zm6-40v-3h3v3zm0 6v-3h3v3zm0 7v-3h3v3zm0 7v-3h3v3zm0 7v-3h3v3zm0 7v-3h3v3zm0 6v-3h3v3zm7-40v-3h3v3zm0 6v-3h3v3zm0 7v-3h3v3zm0 7v-3h3v3zm0 7v-3h3v3zm0 7v-3h3v3zm0 6v-3h3v3zm7-40v-3h3v3zm0 6v-3h3v3zm0 7v-3h3v3zm0 7v-3h3v3zm0 7v-3h3v3zm0 7v-3h3v3zm0 6v-3h3v3zm7-40v-3h3v3zm7 0v-3h3v3zm6 0v-3h3v3zm-13 6v-3h3v3zm7 0v-3h3v3zm6 0v-3h3v3zm-13 7v-3h3v3zm7 0v-3h3v3zm6 0v-3h3v3zm-13 7v-3h3v3zm7 0v-3h3v3zm6 0v-3h3v3zm-13 7v-3h3v3zm7 0v-3h3v3zm6 0v-3h3v3zm-13 7v-3h3v3zm7 0v-3h3v3zm6 0v-3h3v3zm-13 6v-3h3v3zm7 0v-3h3v3zm6 0v-3h3v3zm-88-40v-3h3v3zm0 6v-3h3v3zm0 7v-3h3v3zm0 7v-3h3v3zm0 7v-3h3v3zm0 7v-3h3v3zm0 6v-3h3v3zm7-40v-3h3v3zm0 6v-3h3v3zm0 7v-3h3v3zm0 7v-3h3v3zm0 7v-3h3v3zm0 7v-3h3v3zm0 6v-3h3v3zm7-40v-3h3v3zm0 6v-3h3v3zm0 7v-3h3v3zm0 7v-3h3v3zm0 7v-3h3v3zm0 7v-3h3v3zm0 6v-3h3v3zm6-40v-3h3v3zm0 6v-3h3v3zm0 7v-3h3v3zm0 7v-3h3v3zm0 7v-3h3v3zm0 7v-3h3v3zm0 6v-3h3v3zm7-40v-3h3v3zm7 0v-3h3v3zm7 0v-3h3v3zm-14 6v-3h3v3zm7 0v-3h3v3zm7 0v-3h3v3zm-14 7v-3h3v3zm7 0v-3h3v3zm7 0v-3h3v3zm-14 7v-3h3v3zm7 0v-3h3v3zm7 0v-3h3v3zm-14 7v-3h3v3zm7 0v-3h3v3zm7 0v-3h3v3zm-14 7v-3h3v3zm7 0v-3h3v3zm7 0v-3h3v3zm-14 6v-3h3v3zm7 0v-3h3v3zm7 0v-3h3v3z"/><path id="h4a8b" d="M630.3 3722.23a20.25 20.25 0 0 0 20.23 18.67c10.7 0 19.45-8.23 20.24-18.67z"/><path id="h4a8c" d="M610.07 3696.91h40.47a20.25 20.25 0 0 0-20.24-18.67 20.25 20.25 0 0 0-20.23 18.67"/><path id="h4a8d" d="M610.07 3700.24a20.25 20.25 0 0 0 20.23 18.67h40.47a20.25 20.25 0 0 0-20.23-18.67z"/><linearGradient id="h4a8f" x1="556.72" x2="616.94" y1="3621.6" y2="3723.99" gradientUnits="userSpaceOnUse"><stop offset="0" stop-color="#3975fb"/><stop offset="1" stop-color="#0acdfa"/></linearGradient><mask id="h4a8h" width="2" height="2" x="-1" y="-1"><path fill="#fff" d="M563 3632h155v155H563z"/><use xlink:href="#h4a8a"/></mask><filter id="h4a8g" width="201" height="203" x="540" y="3622" filterUnits="userSpaceOnUse"><feOffset dy="2" in="SourceGraphic" result="FeOffset5907Out"/><feGaussianBlur in="FeOffset5907Out" result="FeGaussianBlur5908Out" stdDeviation="5.2 5.2"/></filter><linearGradient id="h4a8j" x1="630.3" x2="670.76" y1="3731.57" y2="3731.57" gradientUnits="userSpaceOnUse"><stop offset="0" stop-color="#17b3fb"/><stop offset="1" stop-color="#01dbf9"/></linearGradient><linearGradient id="h4a8l" x1="610.07" x2="650.53" y1="3687.58" y2="3687.58" gradientUnits="userSpaceOnUse"><stop offset="0" stop-color="#445dfb"/><stop offset="1" stop-color="#2d8cfb"/></linearGradient><linearGradient id="h4a8n" x1="610.07" x2="670.76" y1="3709.58" y2="3709.58" gradientUnits="userSpaceOnUse"><stop offset="0" stop-color="#2d8cfb"/><stop offset="1" stop-color="#17b3fb"/></linearGradient><clipPath id="h4a8i"><use xlink:href="#h4a8b"/></clipPath><clipPath id="h4a8k"><use xlink:href="#h4a8c"/></clipPath><clipPath id="h4a8m"><use xlink:href="#h4a8d"/></clipPath></defs><g><g transform="translate(-538 -3622)"><g opacity=".3"><use fill="url(#h4a8f)" xlink:href="#h4a8e"/></g><g><g><g filter="url(#h4a8g)"><use fill="none" stroke-width="0" mask="url(&quot;#h4a8h&quot;)" xlink:href="#h4a8a"/><use fill="#cfe4fe" xlink:href="#h4a8a"/></g><use fill="#fff" xlink:href="#h4a8a"/></g><g><g><g/><g clip-path="url(#h4a8i)"><use fill="url(#h4a8j)" xlink:href="#h4a8b"/></g></g><g><g/><g clip-path="url(#h4a8k)"><use fill="url(#h4a8l)" xlink:href="#h4a8c"/></g></g><g><g/><g clip-path="url(#h4a8m)"><use fill="url(#h4a8n)" xlink:href="#h4a8d"/></g></g></g></g></g></g></svg>