<svg version="1.1" id="Calque_1" xmlns="http://www.w3.org/2000/svg" x="0" y="0" viewBox="0 0 176.1 69.5" xml:space="preserve"><style>.st0{stroke-linecap:round}.st0,.st1{fill:none;stroke:#b1bbc7;stroke-width:2}</style><g transform="translate(1 1)"><path class="st0" d="M4 11.8v31.4h17.4m5-22v22.3m5.8-21.8l9.9 22.1 10-22.6m2.5 11.6h20.7S74.6 21.2 65 21.2 54.6 32.8 54.6 32.8zm0 0s-.1 11.8 10.9 11.8c0 0 6.7.1 8.4-3.5"/><circle class="st1" cx="137.4" cy="33.5" r="11.2"/><path class="st1" d="M154.4 44.9V23.8s12.1-4.9 16.1 3.4v17.4"/><path class="st0" d="M2.8 49.8l74.6.1s4.9-2.5 7.3-19.4c0 0 2.6-19.1 6.4-19.1 3.8-.1 4.9 19.1 4.9 19.1s2.8 25.6 5.8 25.6 5-16.2 5.7-25.7c.7-9.5 3.6-19 5.6-19s4.8 13.3 5.6 19c0 0 2.2 19.5 6.3 19.5h46.2"/><circle cx="26.4" cy="15.3" r="1.2" fill="#b1bbc7"/></g></svg>