<svg version="1.1" id="Calque_1" xmlns="http://www.w3.org/2000/svg" x="0" y="0" viewBox="0 0 200 77" xml:space="preserve"><style>.st0{fill:#b1bbc7}</style><text transform="translate(8.133 67.506)" class="st0" font-size="10.973" font-family="Arial-BoldMT">UNIVERSITY OF CALIFORNIA</text><path class="st0" d="M18.6 29.7c-2 0-2.5.3-2.5 1.8v12.6c0 .6.2 4.6.8 5.3.8.8 3 1.3 5.3 1.3 5.4 0 9.3-3.7 9.3-9.8 0-6.2-5.2-11.2-12.9-11.2M20.9 10c-4.7 0-4.9.6-4.9 2v15.3c0 1.1.9 1 2.6 1 4.3 0 7.3.4 7.3.4 2-1.6 4.4-2.9 4.4-8.5 0-3.4-3-10.2-9.4-10.2m.9 42.1c-3 0-5.9-.7-9-.7-3 0-4.5.3-6.8.3-.7 0-1.2-.1-1.2-.8 0-.7.4-.8 2-.8 3.2 0 3.3-.1 3.3-1.2V16.4c0-5.6-1.1-6.2-3.1-6.2-3.2 0-3.5-.1-3.5-.9 0-.5.2-.6 1.4-.6 2.2 0 4.4.1 6.8.1 1.5 0 4.9-.4 11.2-.4 9.2 0 13.1 4.7 13.1 9.7s-3 7.5-5.3 9C29.5 28 28 28.8 28 29c0 .1 1.3.5 2.8 1.2 3.3 1.7 7.5 4.1 7.5 10.2-.1 7.9-6.7 11.7-16.5 11.7m29.4-24.9c-4.7 0-6.1 7-6.1 7.9 0 .3 0 .4.7.4 3.2 0 6.5-.8 11.1-1.5.7-.1.7-.2.7-.6.1-1.7-3.5-6.2-6.4-6.2m9.5 7.4c-1.6.4-7.7 1.7-14.7 2.1-1 .1-1.2.4-1.2 1.8 0 8.5 6.6 10.7 11.2 10.7 4 0 6.3-1.5 6.6-1.5.3 0 .5.4.5.5 0 .3-5.2 4.2-10.2 4.2-5 0-12.5-2.5-12.5-12.7 0-8.7 5.8-13.8 11.4-13.8 3.2 0 7.1 2 9.3 4.6 1 1.2 2 2.7 2 3.2.1.3-.8.5-2.4.9m22.4-1.7c-.9 0-1.6-2.5-4.7-2.5-3.6 0-4.9 1.5-4.9 4V47c0 3 .2 3 4.7 3 1.6 0 1.7.2 1.7.7 0 .7-.1.6-1.7.6-.9 0-5-.3-6.9-.3-2.1 0-4.2.3-5 .3-1.4 0-1.5 0-1.5-.6s.1-.7 1.5-.7c2.5 0 2.7-.1 2.7-.9V32.4c0-4.2.1-4.3-3.3-4.3-1.1 0-1.1.1-1.1-.6s-.1-.9 1-.9c2.1 0 3.3.1 4.5.1 1 0 2.1-.3 3.1-.3.2 0 .5.2.5.7 0 .3-.1 1.7-.1 1.8 0 .6.1 1 .3 1 .9 0 3.8-3.2 6.7-3.2 1.1 0 3.9 1.3 3.9 2.9 0 .6-1 3.3-1.4 3.3"/><path class="st0" d="M112.2 51.7c-.7 0-1.5-.1-2.1-.1-.7 0-2.6.1-3.4.1-1.1 0-1.7-1.5-4.2-4.5-2.6-2.9-5.2-6.8-5.5-6.8-.2 0-1.1.6-2.1 1.3-1 .6-1.8 1-1.8 1.6v3.9c0 2.9-.1 2.9 3.7 2.9 1.4 0 1.7.3 1.7.8 0 .6-.3.6-1.7.6-.9 0-3.7-.1-5.7-.1-2.1 0-4.4.1-5.2.1-1.4 0-1.8-.1-1.8-.6s.3-.8 1.8-.8c2.1 0 2.6 0 2.6-.9 0-1.8.2-19.9.2-32.9 0-4.4-.5-4.9-2.1-4.9-2.5 0-2.8-.2-2.8-.6 0-.6.1-.9.8-.9 4.4 0 8-1.3 8.6-1.3.3 0 .4.2.4.6 0 .8-.1 3.4-.1 5.3 0 9.3-.4 16.2-.4 26.2 0 .2.1.4.2.4 1.5 0 7.9-5.6 9.9-7.5 2.4-2.3 2.9-3.3 2.9-4.6 0-1-.2-1.1-2.9-1.1-.9 0-1.2-.1-1.2-.7 0-.5.3-.6 1.1-.6.6 0 1.8.2 2.5.2.8 0 4.4-.2 5.1-.2.5 0 .7.1.7.2 0 .6-2.1 3.2-4 5-3.1 3-6.9 5.7-6.9 6.1 0 .6 1.1 1.7 5.4 6.9 2.1 2.5 4 5.5 6.1 5.5 1.5 0 2 .3 2 .8-.1.5-.5.6-1.8.6"/><path class="st0" d="M122.8 27.2c-4.7 0-6.1 7-6.1 7.9 0 .3 0 .4.7.4 3.2 0 6.5-.8 11.1-1.5.7-.1.7-.2.7-.6 0-1.7-3.6-6.2-6.4-6.2m9.4 7.4c-1.6.4-7.7 1.7-14.7 2.1-1 .1-1.2.4-1.2 1.8 0 8.5 6.6 10.7 11.2 10.7 4 0 6.3-1.5 6.6-1.5.3 0 .5.4.5.5 0 .3-5.2 4.2-10.2 4.2-5 0-12.5-2.5-12.5-12.7 0-8.7 5.8-13.8 11.4-13.8 3.2 0 7.1 2 9.3 4.6 1 1.2 2 2.7 2 3.2.1.3-.7.5-2.4.9m13.5 16.8c-.9 0-2.3-.1-3.4-.1-2.1 0-5.3.1-6.2.1-1.4 0-1.5-.1-1.5-.6 0-.4.1-.8 1.5-.8 2.5 0 3.6.1 3.6-1V15.2c0-3.9-.4-3.9-3.1-3.9-1.1 0-1.7-.1-1.7-.8 0-.7.5-.7 1.5-.7 4.8-.3 7.1-1.3 7.5-1.3.3 0 .6.3.6 1s-.3 2.9-.3 4.8c0 23.4-.3 28.2-.3 30 0 5.1.4 5.8 1.5 5.8 3.1 0 2.9.4 2.9.9.1.4-.4.4-2.6.4"/><path class="st0" d="M158.2 27.2c-4.7 0-6.1 7-6.1 7.9 0 .3 0 .4.7.4 3.2 0 6.5-.8 11.1-1.5.7-.1.7-.2.7-.6 0-1.7-3.6-6.2-6.4-6.2m9.4 7.4c-1.6.4-7.7 1.7-14.7 2.1-1 .1-1.2.4-1.2 1.8 0 8.5 6.6 10.7 11.2 10.7 4 0 6.3-1.5 6.6-1.5.3 0 .5.4.5.5 0 .3-5.2 4.2-10.2 4.2-5 0-12.5-2.5-12.5-12.7 0-8.7 5.8-13.8 11.4-13.8 3.2 0 7.1 2 9.3 4.6 1 1.2 2 2.7 2 3.2.1.3-.7.5-2.4.9"/><path class="st0" d="M195.4 28c-1.3 0-4 7.4-8.9 19.1-3.9 9.4-6.6 14.4-8.6 18.4-.7 1.3-1.4 1.4-2.8 1.6-1.8.2-2.3.7-3.6.7-1 0-1.7-.3-1.7-.6 0-.4 2.9-.7 5-3.4 2.2-2.8 7.5-10 7.5-11.8 0-.7-4.9-12-8.3-20-1.5-3.7-2-4-3.1-4-1.2 0-1.3-.1-1.3-.6 0-.6.2-.9 1.3-.9 1.7 0 2.1.1 3.6.1 1.7 0 3.9-.2 5.8-.2 1.3 0 1.5.2 1.5.9 0 .6-.2.6-1.5.6-1.5 0-1.8.4-1.8 1.8 0 1.8 1.6 3.9 5.3 13.4.5 1.3 1.2 2.3 1.5 2.3.4 0 .8-.9 1.8-3.7 1.5-4.4 3.7-10.8 3.7-11.7 0-1.8 0-2.2-2.1-2.2-1.9 0-2.1 0-2.1-.6 0-.8.2-.8 1.3-.8 1.7 0 2.8.1 4.4.1.9 0 2.6-.2 3.4-.2 1 0 1.3.1 1.3.7 0 .7-.9 1-1.6 1"/></svg>