<svg version="1.1" id="Calque_1" xmlns="http://www.w3.org/2000/svg" x="0" y="0" viewBox="0 0 200 200" xml:space="preserve"><style>.st1{fill:#b1bbc7}.st2{fill:#fff}</style><path id="path2486_2_" d="M6.2 135.2H194V5.9H6.2v129.3z" opacity=".7" fill="#b1bbc7"/><path id="path2488_2_" class="st1" d="M193.8 193.5l-.1-49.6h-8.4c-.9 1.2-.3 6.4-2.9 7.4-9-2-.8-3-3.9-7.4H174c.4.1 2 1.8-.4 3.8-3.2 20.8 2.6 29.3-.3 45.8h20.5"/><path id="path2490_2_" class="st1" d="M59.5 159.2c3.4-1.6 3.4-5.1 3.6-7.4-1-1.1-5-1.2-6.6-.9-2.2 1.9-.3 5.2-1.6 7.3.8 1.9 3.2.6 4.6 1"/><path id="path2492_2_" class="st1" d="M78.8 183.9l1 .3c.9.2 2.2.2 3.1-.2-.3-.7-.6-1.3-1-1.8-1 .5-2.1 1.1-3.1 1.7"/><path id="path2494_2_" class="st1" d="M79.1 161.4c-2-5.4 5.3-7.6 8.2-10.9l3.8 2.1c-.4 3.7-7.2 4.4-6.8 8.4.7.6 1.3 1.6 2.2 1.8.3 1-.5 1.6-1.1 2.2-2.9 1.2-4.5-1.7-6.3-3.6zM83 184c.8 2 .9 4.5-.1 6l-9.9.3V189c1.7-2.3 3.6-3.9 5.8-5.2l-2-.6c-2.8-1.9 3.8-4.7 4.8-5.4l2.7 4.3c0 1-.6 1.6-1.3 1.9zm-19.7 4.7c-2.1-3.7.3-9.8.9-13.3.5-.5 1-1.2 1.9-.9.6 1.9-2.2 3.2-.3 4.8 1.9-.6 4.5 1.2 6.5-.3-1-1.7-3.1-.8-4.6-1.5v-.9l4.3-.3c.7.9 3.8 1.8 3.1 3.6-2.9 4.1-7.8 6.5-11.8 8.8zm-3.4-20.6c.4-.8 1.3-.3 2-.4.2 1.8 3.1-.4 2 2h-.3c-1.2.5-3.2-.1-3.7-1.6zm5.7 1c1.5-.9 3.5-.7 3.2 2.1h-2.4c-.5-.5-1.2-1.1-.8-2.1zm1.8-19.9c.4-.7 1-1.9 2.2-1.5-.1 1-.6 2.8-2.2 2.1v-.6zm2.8 22.3c2.3.5 4.8-1.2 6.5.6-.8 1.6-.8 4.2-3.4 2.7-1.2-.9-3.8-.5-3.6-2.7l.5-.6zm.2-20.8c.2-1.9 2.5-1.2 3.7-1.8l.3.8c-1.2.9-2 2.9-4 2.2v-1.2zm6.8 14.5c-1.5 1-3.9.7-5.5.3.4-.7.5-1.4.6-2.2 1-.8 2.1-2.7 4-2.1.7 1.1 1.1 2.5.9 4zm0-15.2l-.4 5.2c-.2.8-.8 2.4-2.3 1.8-1.8.4-.8-1.7-1-2.5 1.5-1.3 1.9-4.2 3.7-4.5zm-16.6 15.5h-1.3c-1.8-.7-5.7-1.6-5.9-3.7 2.5.7 4.7 1.9 7.1 2.7v1zm30.7 5.4c-2.4.1-4.4 3.5-6.5 2.1 1.2-3.3 3.8-6.1 4.9-9.3 2-4.4 5.1-14.1 3.8-19.9h-9.1c-3 .8-.8 8.5-3.8 9-.8-2.1-.6-4.6-3-9h-4.9c.4 3.3-.1 3.5-.4 3.8-1.7.1-1.5-2.6-3.7-1.2-1.9-.3-2.4 2.7-4.3 2.1-.7-1.6-2.5-3.7-4.6-2.4 1.8 3.8 10.7 5.4 6.5 11.8-.9 1.8-.2 4.5-2.5 5.4-4-1.1-7.7-2.6-11.7-3.6.4 1.5-.7 3.6-.3 5.1 4.3.6 5.5 5 9.2 6.3.8.6 1.1 1.2 1 2.2-2.6 1.1-5.3-1.2-7.7-2.2-.6.2-.3.8-.3 1.2 2.2 2.6 9.4 1.5 7.1 6.9-2 4.4-1.5 11.8-8.2 12.4-.6 1.3 1 1.2 1.5 1.8 5.8.6 11.7-4.9 16.6-.3 1.6 0 3.7-1 4.9.3h14.5c2.7-5.3.6-8.7.9-13.5.3-1.2-3.4-2.5-6.2-1.8-.5-.3-.2-1-.2-1.6 1.9-2.2 9.3 1.1 7.6-4.2-.1-.3-.1-1.3-1.1-1.4"/><path id="path2496_2_" class="st1" d="M20.5 149.2c-9.1-.6-14 .3-14.1.3v7.2h1.7c2 .6 3.4.7 5.5.7 7.6.8 14-.3 21.6-.8-.9-.3-1.7-.5-2.5-.4-1.3-1-2.1-1.6-1.8-3.1 2-2.1 5.7-.4 8-1.6 2.1.8.7 3.1 1.2 4.5-.2.4-.4.4-.7.6 2.3 0 4.8.1 7.4.3v-7.5c-11.2-.8-19.1.3-26.3-.2"/><path id="path2498_2_" class="st1" d="M105 164.2c-1.6.4-3.7.7-5.2-.2.8-1.7 2.6-.7 3.8-.9.5.5 1.4-.1 1.4 1.1zm5.4 17.7v2.2c-2.9 1-5.6 4.2-8.8 2.8v-2c1.3-.6 2.8 1.2 3.8-1.6 1.8.3 3.2-2.3 5-1.4zm-2.5-29.9l-1.4 1.5c-.5 0-1.5-1.7-1.7-2.3.5-.5 2.9.2 3.1.8zm.1 3.5c.7.5 2.1.5 1.4 2.4-.9.8-1.5-1.2-2.3-1.5l.9-.9zm1.7 20.3v2.5c-.8-.1-1.9.4-2.5-.4.1-1.9 1.7-1.8 2.5-2.1zm.9-6.6h-4.7v-1.7h4.7v1.7zm2.7 21.4c-1.1 2.6-3.2.7-4.6 0-1.2-.5-2.1 3-3.2.5-.1-.6.3-.8.4-1.3 2.5-1.8 5.2-.4 7.4.8zm-14.2-10.4v-.9h3.2v.9h-3.2zm5.5-21.4c-1 .8-2.4 1.2-3.6 1.3l-.7-2.3c1.4-.1 3.8-.8 4.3 1zm-4-3.6h2.5v.9h-2.5v-.9zm15.3 1.9v2.8c-1.3-.2-2.9.4-4-.5.6-2 2.7-1.8 4-2.3zm-10.1-10.4c3.7.9 7.5 1.3 11.4 1.5v-4.3h-16.3c0 3.4-2.6 8.2-2.6 8.2 1.4 0 2.8.1 4.1.7v.9c-1.3-.3-2.7-.5-4.1-.6v14.1h1.8c.1.3.4.5.4.9l-.4.7h-1.8v1.7c.6 0 1.3.2 1.8 0 0 .1.1.2.1.2.8.2 1.4 1.3 2.5.7v.9h-1.9c-.4 0-.8-.1-1.1-.4-.4.2-.9.3-1.4.2v1.3c1.4-.5 3.3.1 4.7.1.2.3.5.5.4.9l-.4.7c-1.4-.5-3.2-.2-4.7-.4v10.9c.5.1 1 .2 1.4.3.2.4.6.7.6 1.2-.6.3-1.3.4-2 .3v6.1h18.9v-6.1c-.7.1-2.5.2-3.1-.1 0-.5 1.9-4.3 2.4-4.4l.7-8.1c-1.5.2-3.2-.1-4.7.4l-.4-.7c-.1-.4.2-.6.4-.9 1.4-.1 3.3-.7 4.7-.1v-1.3c-.8.1-1.6-.1-2.2-.6-.1-.4.3-.6.4-.9.5.2 1.2 0 1.8 0V169h-1.8l-.4-.7c-.1-.4.3-.6.4-.9h1.8v-14.1c-1.4.1-2.8.3-4.1.6v-.9c1.3-.6 2.7-.7 4.1-.7v-2.8c-3.4-.2-6.7-.5-9.9-.8-.8-.4-2-.3-2.5-1.2.2-.7.6-.8 1-.8"/><path id="path2500_2_" class="st1" d="M22 146.9c8 0 16.9-.7 25-.1v-3.1H6.3v3.3c5.1-.8 11.4-.1 15.7-.1"/><path id="path2502_2_" class="st1" d="M15.7 161.7c-2.3 0-4.8-2.2-7-3H7.5l-1.1.3-.1 34.5H47v-34.9c-10.6-1.2-19.8 3.9-31.3 3.1"/><path id="path2504_2_" class="st1" d="M163 166.6c-.9-.1-3-.3-3.2-1.6-.2-1.5-.3-3.5 2.9-2.9 2.5.6 3.4 4 .3 4.5zm-5.7 18.2c-1 1.1-.7 6.2-3.2 3.6-2.6-6.9.9-11.6 1.5-17.7 1.5-1.7 3.2-2.3 4.2-1.9.2.1 1.5 3.1 1.7 3.2.3 4.2-2.3 4.4.2 11.4-.7 1.1-3.6.5-4.4 1.4zm-6.1-22.3c.5-.7 2.3-1.6 3.3-1.5 1 .4 1.7 2.3 1.3 3.7-.1 1.1-1.3.8-2.1.8-1.3-.4-2.8-1.6-2.5-3zm-3.4-2.6c-.4 1.4-2.1 3.1-4.3 2.7-1.1-.8-.7-2.4-1-3.6.3-.8 2.7-1.5 3.7-1.2.4.5 1.9 1.2 1.6 2.1zm-5-7c.5 2-2.3 2.4-3.3 2.5-1.2-.6-2.6-2.9-1.8-4.7.8-.8 1.4-1.8 2.8-1.4.7 1.2 2.9 1.8 2.3 3.6zm-5.7 33.4v-3.1l-2.3-2.2-1-3.3c-1.1-5.1.2-11 1.1-12.9l-.1.1c-.9-.3-2.2.5-2.7-.6.8-1.3-.3-3.2.9-4.3.9-.2 3.2-.1 3.8.5-.1 1-.1 2.5-1 3.5 1-.2 2 0 2.8.7-.2 9.7.7 16.3 1.5 25.2l-3-3.6zm-9.2-32c-1.6-1.4-2.6-3-2.2-5.2 1-2.4 4.5-1.6 5.9-.6 1.1 1.6 3.1 3.5 0 4.4.3 3.8-2.5 3.2-3.7 1.4zm40.8 16c-2.4-5.8 3-25-5.7-26.5-1-.1-1.8.3-2.5.9 1.5 1.1 2.7 2.7 2.9 4.6-2 4.5-6.3-1-9.2.5v3.7c-1.2 1-2 2.3-3.7 1.8-1-1.2-2.4-2-1.9-3.7 1-2.2 3.4-1.3 4.9-2.3 0-.1-.1-.1-.1-.2-2.9-.7-2.5-5.2-7.4-5.2h-9.4c-4.4 1.3-9.7 3.8-14.8 0l.9 6.2.6 2.1v1.8l2.2 1.9-2.3 2 .8 4.8c1.7.5 3.6.6 3.7 2.2-.3 2.6-2.3 5.6-2.3 8.3-.1 3.3 1.7 17.1 1.7 20.4 1.8-.2 10.4-.5 12.1-1.4 0 .1 2.4 1.3 2.4 1.4 3 .3 7 1.1 6-4.2l-2.2-14.1c-2.6-7.2 2.2-9 3.8-9.1l1.3 1.2c-.4 1.4-.7 2.8-.8 4.1.3.5.6 1.1.4 2 .1.8-.1 1.3-.4 1.7.5 6.5 3.6 12.2 3.7 18.4h8.2l3-2.3-.6-5.8.3-5.5-.2-10.2c1.3.3 2.5.6 3.9 1.2l.7-.7"/><path id="path2506_2_" class="st2" d="M50.6 101.5c1 0 3.6.2 5.5-.1 5.7-1 8.7-2.8 8.7-6.9S62.2 89 54.3 89h-7.2v23.1c.6 0 1.2-.1 1.8-.1.6 0 1.1.1 1.8.1v-10.6zm0-11.1c1.2-.1 4.1-.1 5.8 0 3.2.2 4.6 2.1 4.6 4.3 0 3-2.4 5.1-6.4 5.5-1.4.1-3 .1-4 0v-9.8"/><path id="path2508_2_" class="st2" d="M75.9 102.2l-.7.3c-1.5.6-1.4.5-4.1 1.1-3.2.7-6.4 1.1-6.6 4.7-.1 2.3 2.3 4 5 4.2 2.7.1 5.3-1 6.2-3.2v2.8H81v-.6h-1.8v-10.1c0-2.7-.5-5.2-6.2-5.4-1.6-.1-2 .1-3.1.2-1.3.2-2.5.6-3.4.9v4.9h.8l1-2c.8-1.7 1.6-3.6 4.4-3.4 2.8.3 3.3 1.8 3.3 3.5v2.1zm0 2.3c0 .9 0 1.5-.1 2.5-.3 2.1-2 4.4-4.7 4.6-2.3.1-3.4-1.7-3.2-3.3.4-3.7 1.8-3.3 6.3-4.6l1.7-.5v1.3"/><path id="path2510_2_" class="st2" d="M91 112h-7.9v-.6h2V96.9h-2v-.7h5.1v3.3c.2-1.2 2-3.4 4.9-3.4.8 0 1.6.2 2.4.5v5.7h-.8l-1-2.7c-.7-1.9-1.3-3.1-2.4-2.5-3 1.4-2.7 4.8-2.7 8v6.1H91v.8"/><path id="path2512_2_" class="st2" d="M103.1 92.6c0 1-1 1.7-2.1 1.7s-2.1-.8-2.1-1.7c0-.9 1-1.8 2-1.8 1.2 0 2.2.8 2.2 1.8zM97.6 112v-.6h2V96.9h-1.9v-.7h5.3v15.2h1.8v.6h-7.2"/><path id="path2514_2_" class="st2" d="M117.8 99.9c-.8-2.5-1.7-3.5-3.9-3.5-2 0-4.4.7-4.6 2.7-.1 1.8 2.1 2.5 4.1 3 3.4 1 7.4 2 7.2 5.2-.1 3-3.1 5.2-7.2 5.2-2.4 0-5-.8-5.9-1.3V106h.8l.9 2.6c1 2.9 2.1 3 3.9 3.1 2.5.2 5.3-.8 5.5-2.8.3-2.5-3.7-3.2-6.2-3.9-1.8-.5-5.3-1.5-5.3-4.5 0-3.5 4.5-4.6 6.9-4.6 2 0 4.3.7 5.1 1.1v4.8h-.8l-.5-1.9"/><path id="path2516_2_" class="st2" d="M139 88.7h-21.2l.1.8.1.5-.1.6-.1.8.4-.1c2-.2 4.5-.4 8.5-.4v21.5l2.1-.1 2.1.1V90.9c2.8 0 5.5.1 8.1.4h.4l-.1-.6-.1-.8.1-.7.1-.7-.4.2"/><path id="path2518_2_" class="st2" d="M140.4 99.9c.3-1.6 1.5-3.2 3.3-3.2.7 0 1.4.2 1.8.6.6.6 1 1.6 1.1 2.8v1.4h-6.5c.1-.5.3-1.6.3-1.6zm9.2 5.9l-.1.7c-.2 2.1-1.9 5-5.1 4.8-3-.1-4.4-2.3-4.4-7v-1.5h10.9v-1c0-1.5-.6-3-1.7-4.2-1.4-1.5-3.3-2.3-5.5-2.3-4.4.1-7.8 3.7-8.1 8.5-.1 2.4.7 4.7 2.3 6.3 1.6 1.6 3.7 2.5 6.1 2.5 3.6-.1 6.5-2.7 6.8-6.1l.1-.9h-1.3"/><path id="path2520_2_" class="st2" d="M161.2 95.3c-5.6.2-8.7 4.6-8.7 8.7 0 4.2 3 8.7 8 8.7 2.7 0 6-.9 6.8-5.7l.2-1.2h-1.4l-.3 1.4c-.4 1.9-1.7 4-4.3 4-4 0-4.5-3.6-4.6-7-.1-2.2.2-5.1 1.7-6.6.7-.7 1.7-1.1 2.8-1 1.8 0 2.9 1.3 3.8 4.4l.5 1.5h1.4v-6l-.2-.1c-1.9-1-4.2-1.2-5.7-1.1"/><path id="path2522_2_" class="st2" d="M168.8 90.3v1.3h2v19.5H169v1.2h8.3v-1.2h-2.5v-6.6c0-4.8 1.3-7.2 3.8-7.3.7 0 1.2.1 1.5.4.6.6.6 1.8.6 3.1V111h-2.3v1.2h8.1V111h-1.9v-10.3c0-3.5-1.4-4.9-5-5.1-2-.2-3.8.9-4.8 2.1v-7.5h-6"/><path id="path2524_2_" class="st2" d="M34.2 61h-7.4v21c0 .9-.8 1.7-1.7 1.7h-.8c-.9 0-1.7-.7-1.7-1.7V61h-7.3c-.9 0-1.7-.6-1.7-1.6v-.6c0-.9.8-1.6 1.7-1.6h18.8c.9 0 1.7.6 1.7 1.6v.6c.1 1-.7 1.6-1.6 1.6"/><path id="path2526_2_" class="st2" d="M58 83.7H40.8c-.9 0-1.6-.7-1.6-1.6V58.8c0-.9.7-1.6 1.6-1.6h16.4c.9 0 1.7.6 1.7 1.6v.6c0 .9-.7 1.6-1.7 1.6H43.4v7.7h12.7c.9 0 1.7.6 1.7 1.6v.6c0 .9-.7 1.6-1.7 1.6H43.4V80H58c1 0 1.7.6 1.7 1.6v.6c0 .9-.7 1.5-1.7 1.5"/><path id="path2528_2_" class="st2" d="M81.3 83.7H64V58.9c0-.9.7-1.7 1.7-1.7h.8c.9 0 1.7.7 1.7 1.7V80h13.2c.9 0 1.7.6 1.7 1.6v.6c-.1.9-.8 1.5-1.8 1.5"/><path id="path2530_2_" class="st2" d="M104.5 83.7H87.3c-.9 0-1.6-.7-1.6-1.6V58.8c0-.9.7-1.6 1.6-1.6h16.4c.9 0 1.7.6 1.7 1.6v.6c0 .9-.7 1.6-1.7 1.6H89.9v7.7h12.7c.9 0 1.7.6 1.7 1.6v.6c0 .9-.7 1.6-1.7 1.6H89.9V80h14.6c.9 0 1.7.6 1.7 1.6v.6c0 .9-.7 1.5-1.7 1.5"/><path id="path2532_2_" class="st2" d="M127.5 83.7h-10.9c-3.5 0-6.1-3-6.1-6.4V63.4c0-3.4 2.9-6.2 6.4-6.2H127c.9 0 1.7.6 1.7 1.6v.6c0 .9-.7 1.6-1.7 1.6h-8.6c-2.7 0-3.7 1.6-3.7 3.6v11.9c0 2.6 1.7 3.5 3.7 3.5h9.2c.9 0 1.7.6 1.7 1.6v.6c-.1.9-.8 1.5-1.8 1.5"/><path id="path2534_2_" class="st2" d="M150.5 64.1c0-1.7-1.4-3.1-3.1-3.1h-7.1c-1.7 0-3.1 1.4-3.1 3.1v12.8c0 1.7 1.3 3.1 3 3.1h7.1c1.7 0 3.1-1.3 3.1-3.1V64.1zm-2 19.6h-9.1c-3.5 0-6.2-2.8-6.2-6.3v-14c0-3.4 3-6.1 6.4-6.1h8.7c3.5 0 6.4 2.7 6.4 6.1v14.1c0 3.4-2.8 6.2-6.2 6.2"/><path id="path2536_2_" class="st2" d="M182.8 83.7h-.8c-.9 0-1.7-.7-1.7-1.7V64.4l-5.6 7.8c-.5.7-.9 1.2-1.8 1.2h-.6c-.8 0-1.3-.6-1.8-1.2l-5.6-7.8V82c0 .9-.8 1.7-1.7 1.7h-.8c-.9 0-1.7-.7-1.7-1.7V58.8c0-.9.6-1.6 1.6-1.6h1c.7 0 1.3.7 1.7 1.2l7.5 10.6 7.5-10.6c.4-.6.9-1.2 1.7-1.2h1c.9 0 1.6.7 1.6 1.6V82c.2 1-.5 1.7-1.5 1.7"/></svg>