<svg version="1.1" id="Calque_1" xmlns="http://www.w3.org/2000/svg" x="0" y="0" viewBox="0 0 185.6 68.9" xml:space="preserve"><path d="M23.3 9.8c4.2 0 7.7 1.6 10.7 4.5.3.3.3.3 0 .6-1 1.2-2.1 2.3-3.1 3.5l-.2.2c-.1.1-.2.1-.4 0-.5-.4-.9-.8-1.4-1.2-1.9-1.4-4.1-2-6.4-1.7-3.3.3-5.8 2-7.5 4.8-1 1.7-1.6 3.5-1.9 5.4-.3 1.5-.3 3.1-.3 4.7.1 2.4.5 4.7 1.5 6.9s2.5 3.9 4.7 5c1.7.8 3.4 1.1 5.2.9 1.8-.2 3.5-.8 4.9-1.8.7-.5 1.3-1 1.9-1.6.3-.3.3-.3.5 0l3.3 3.6c.2.2.2.3 0 .5-2.2 2.4-4.8 4.1-8 4.9-1.7.4-3.4.5-5.2.4-2.2-.2-4.3-.7-6.3-1.7-1.3-.6-2.4-1.4-3.4-2.3-2.8-2.4-4.4-5.5-5.3-9.1-.4-1.5-.6-3-.7-4.5-.3-3.7.1-7.2 1.3-10.6 1-2.7 2.5-5.1 4.6-7 2.3-2.1 5.1-3.5 8.2-4.1 1.1-.2 2.2-.3 3.3-.3zm84.5 29.4v8.9c0 .5 0 .5-.5.5h-4.5c-.5 0-.5 0-.6-.5-.1-.7-.2-1.4-.4-2.2v-.2c-.1-.4-.1-.4-.5-.2-1 .8-2 1.5-3.1 2.1-1.9 1-3.8 1.6-6 1.5-2-.1-3.9-.7-5.5-2.1-1.2-1.1-2-2.4-2.3-3.9-.5-2-.4-4 .4-6 .6-1.3 1.5-2.3 2.6-3.1 1.5-1.1 3.3-1.8 5.1-2.4 2.2-.7 4.4-1.1 6.7-1.4.5-.1 1-.1 1.5-.2.2 0 .3-.1.3-.3-.1-1-.2-2-.7-2.9-.7-1.5-2-2.2-3.6-2.4-2.1-.2-4 .3-5.8 1.1-1 .4-1.9.9-2.8 1.5-.3.2-.4.2-.5-.1L85.5 23c-.2-.3-.2-.3.1-.5 2.6-1.6 5.4-2.8 8.5-3.3 1.2-.2 2.3-.3 3.5-.2 1.4.1 2.8.3 4.1.8 2 .8 3.5 2.2 4.5 4.2.7 1.4 1.1 2.8 1.3 4.3.2 1.2.2 2.5.2 3.8.1 2.5.1 4.8.1 7.1zm-6.8-1.4V35c0-.4 0-.4-.4-.4-1.5.2-2.9.5-4.3.9-1.3.4-2.6.8-3.7 1.6-1.3.9-2 2.2-1.8 3.8.1 1.5.9 2.6 2.3 3 1.7.5 3.2.3 4.8-.5 1.1-.6 2.1-1.4 3-2.2.2-.1.2-.3.2-.5-.1-1.1-.1-2-.1-2.9zm14.9-3.5V20.6c0-.7 0-.6.6-.6h4.5c.4 0 .5 0 .5.5.1 1 .2 2.1.4 3.1 0 .1 0 .2.1.3.1 0 .2-.1.2-.1.3-.3.6-.6 1-.9 1.6-1.4 3.3-2.5 5.3-3.1 2-.6 4-.6 6 0 2.3.7 3.8 2.2 4.7 4.3.6 1.3.8 2.8 1 4.2.1 1 .1 1.9.1 2.9v17c0 .6.1.6-.6.6h-5.5c-.5 0-.5 0-.5-.5V31.8c0-1.1-.1-2.1-.3-3.2-.1-.6-.4-1.3-.7-1.8-.6-.9-1.4-1.3-2.4-1.5-1.9-.3-3.6.2-5.1 1.3-.8.6-1.5 1.2-2.1 1.8-.3.2-.4.5-.4.9v18.8c0 .7.1.7-.7.7h-5.7c-.2 0-.3-.1-.3-.3v-.4c-.1-4.7-.1-9.2-.1-13.8zm-45.6 1.8h-8.5c-.6 0-.6 0-.5.6.3 1.7.8 3.2 1.9 4.5 1.2 1.5 2.6 2.4 4.5 2.7 2.7.5 5.2 0 7.6-1.2.3-.1.5-.3.8-.5.3-.2.3-.2.5.2.3.5.5 1 .8 1.5.4.7.7 1.3 1.1 2 .2.3.2.3-.1.5-1.6 1-3.4 1.8-5.3 2.3-1.5.4-3.1.6-4.6.6-3.2-.1-6.1-1-8.6-3-1.9-1.5-3.2-3.4-4.1-5.7-.7-1.8-1-3.7-1.1-5.7-.1-2.3.2-4.6 1.1-6.8 1.3-3.4 3.5-5.9 6.7-7.6 1.4-.7 2.9-1.1 4.5-1.2 2-.1 3.9.1 5.8.8 2.2.9 3.8 2.3 5 4.3 1 1.6 1.5 3.4 1.8 5.2.2 1.2.3 2.4.2 3.7 0 .8-.1 1.5-.2 2.3-.1.5-.1.5-.6.5h-8.7zm-2.8-4.3h5.9c.4 0 .4 0 .4-.4 0-1.3-.2-2.6-.8-3.8-.6-1.3-1.6-2.3-3-2.7-1-.3-2.1-.4-3.1-.2-1.4.2-2.6.9-3.6 2-1.2 1.4-1.8 3-2.1 4.8-.1.4 0 .4.3.4h.3c1.9-.1 3.8-.1 5.7-.1zm-26.7-6.5V8.1c0-.6 0-.6.6-.6h5.9c.2 0 .2.1.2.2v33.8c0 .4 0 .9.2 1.3.3.7.7 1 1.5 1h.6c.2-.1.3 0 .4.2.2 1.4.5 2.9.8 4.3.1.4 0 .4-.4.6-.4.1-.9.2-1.3.3-1.2.2-2.5.2-3.7-.1-2-.4-3.4-1.7-4-3.7-.4-1.2-.6-2.5-.6-3.8-.2-5.4-.2-10.9-.2-16.3zm105.5 33.3c.5.1 1 .3 1.5.4 1.5.2 2.9-.1 4.1-1 1.2-.9 2-2.1 2.7-3.4.6-1.2 1.1-2.4 1.5-3.7.1-.4.2-.8.4-1.2.1-.3.1-.5 0-.8-.7-1.7-1.4-3.3-2-5L150 32.8c-1.5-3.8-3.1-7.7-4.6-11.5-.1-.2-.1-.3-.2-.5.2-.1.5 0 .7 0h1.7c.4 0 .4 0 .5.4.7 1.8 1.3 3.5 2 5.3 1.5 3.9 3 7.7 4.5 11.6.8 2.2 1.6 4.4 2.5 6.6.2.5.4.9.6 1.4 0 .1.1.2.2.2s.2-.1.2-.2c.4-1 .7-2.1 1.1-3.1.9-2.8 1.8-5.7 2.8-8.5 1.2-3.6 2.5-7.2 3.7-10.8.3-.8.6-1.6.8-2.4.1-.2.2-.3.4-.3h2c.4 0 .4 0 .3.4-.5 1.5-1.1 3-1.6 4.5-.8 2.3-1.6 4.5-2.4 6.8-2.1 6.1-4.3 12.1-6.4 18.2-.5 1.4-.9 2.7-1.5 4.1-.8 1.7-1.8 3.4-3.2 4.7-2.2 2.1-4.8 2.6-7.7 1.8-.1 0-.2-.1-.3-.1-.1-.1-.2-.1-.2-.3 0-1.1.2-1.8.4-2.5zm28.1-38.4c-.5 0-.9-.3-.9-.9 0-.5 0-1-.1-1.5-.3-1.2-1.3-2.2-2.6-2.2h-1c-.5 0-.8-.3-.9-.8-.1-.3.1-.7.5-.9.2-.1.4-.1.6-.1.4 0 .9 0 1.3-.1 1.3-.3 2.1-1.4 2.2-2.7v-.9c0-.5.3-.9.8-.9.5-.1.9.2 1 .8.1.3.1.7 0 1-.1 1.5 1.2 2.8 2.8 2.7h.9c.5 0 .9.4.9.9s-.3.9-.8.9h-1c-1.5 0-2.7 1.3-2.7 2.7 0 .4 0 .8-.1 1.1-.2.7-.5.9-.9.9z" fill="#b1bbc7"/></svg>