<svg version="1.1" id="Calque_1" xmlns="http://www.w3.org/2000/svg" x="0" y="0" viewBox="0 0 200 67" xml:space="preserve"><path d="M49.5 61.9V36.2h3.8v22.4h4.9V62h-8.7zm18.3 0h-3.2c-.2-.4-.2-.9-.2-1.4h-.1c-.7 1.2-1.3 1.7-2.7 1.7-1.5 0-2.3-.8-2.3-2.4v-6.9c0-4.2 5-2 5-7.3 0-.6.1-2.1-.7-2.1-1 0-.8 1.7-.8 2.4v2.7h-3.5v-4.2c0-2.1 1.7-3.5 4.3-3.5 2.6 0 4.3 1.3 4.3 3.5v17.5zm-3.5-10.6c-1 .6-1.7 1-1.7 2.1v5.2c.1.4.4.7.8.7.5-.1.8-.4.8-.8v-7.2zm11.3 10.6V36.2h8.6v3.4h-4.8v6.6H84v3.4h-4.6V62h-3.8zm9.9 0V36.2h5.1c3.1 0 4.9 1.1 4.9 4.4v3.6c0 1.9-.5 3.5-3.8 3.9v.1c1.7.2 3.5.8 3.6 3.1.2 3.4 0 7 .6 10.6h-3.8c-.7-3-.5-6.8-.5-9.8 0-1.6-.6-2.2-2.3-2.1v11.9h-3.8zm3.8-15h.7c1.3 0 1.6-.7 1.6-1.7v-4.7c0-1-.6-1.3-1.4-1.3h-.9v7.7zm8.4 15V36.2h8.5v3.4h-4.7v6.6h4.5v3.4h-4.5v9h4.8V62h-8.6zm15.7-25.7l1.1 7.4c.9 4.8 1.5 9.7 1.8 14.6h.1v-1.4c0-2.5-.1-5-.1-7.5V36.2h3.1v25.7h-5.7L112 49.1c-.6-3.2-.8-6.1-1.2-9.1h-.1c0 1.1.1 2.2.1 3.3v18.6h-3.1V36.2h5.7zm14.4 9.4v-5.2c0-1.3-.4-1.6-1.2-1.6-.8 0-1.2.3-1.2 1.6v17.4c0 1.3.4 1.6 1.2 1.6.8 0 1.2-.3 1.2-1.6v-5.6h3.8v5.9c0 3.4-2.6 4.3-5 4.3-2.3 0-5-1-5-4.3v-18c0-3.4 2.6-4.3 5-4.3s5 1 5 4.3v5.6h-3.8zm6 16.3V36.2h3.8v9.9h2.1v-9.9h3.8v25.7h-3.8V49.5h-2.1V62h-3.8zm27.8-25.7v3.4h-3.3V62h-3.8V39.6h-3.4v-3.4h10.5zm1.6 25.7V36.2h8.5v3.4H167v6.6h4.5v3.4H167v9h4.8V62h-8.6zm16.1-16.3v-5.2c0-1.3-.4-1.6-1.2-1.6-.8 0-1.2.3-1.2 1.6v17.4c0 1.3.4 1.6 1.2 1.6.8 0 1.2-.3 1.2-1.6v-5.6h3.8v5.9c0 3.4-2.6 4.3-5 4.3-2.3 0-5-1-5-4.3v-18c0-3.4 2.6-4.3 5-4.3s5 1 5 4.3v5.6h-3.8zm5.9 16.3V36.2h3.8v9.9h2.1v-9.9h3.8v25.7h-3.8V49.5H189V62h-3.8z" fill="#b1bbc7"/><g opacity=".5"><linearGradient id="SVGID_1_" gradientUnits="userSpaceOnUse" x1="439.556" y1="56.03" x2="434.861" y2="56.03" gradientTransform="matrix(-1 0 0 1 467.377 0)"><stop offset="0" stop-color="#585858"/><stop offset="1" stop-color="#b1bbc7"/></linearGradient><path fill="url(#SVGID_1_)" d="M31.5 52.6l1 6.9-2.6-1.1-2.1-5.8z"/><linearGradient id="SVGID_2_" gradientUnits="userSpaceOnUse" x1="436.955" y1="25.312" x2="444.011" y2="25.312" gradientTransform="matrix(-1 0 0 1 467.377 0)"><stop offset="0" stop-color="#b1bbc7"/><stop offset="1" stop-color="#3c3c3c"/></linearGradient><path fill="url(#SVGID_2_)" d="M29.7 15.4l.7-.2-5.8 18.5-1.2 1.8v-2.2z"/><linearGradient id="SVGID_3_" gradientUnits="userSpaceOnUse" x1="434.44" y1="10.628" x2="442.716" y2="10.628" gradientTransform="matrix(-1 0 0 1 467.377 0)"><stop offset=".02" stop-color="#3c3c3c"/><stop offset=".08" stop-color="#5b5e61"/><stop offset=".145" stop-color="#757a80"/><stop offset=".215" stop-color="#8b929a"/><stop offset=".293" stop-color="#9ca4ae"/><stop offset=".381" stop-color="#a8b1bc"/><stop offset=".489" stop-color="#afb9c5"/><stop offset=".673" stop-color="#b1bbc7"/></linearGradient><path fill="url(#SVGID_3_)" d="M32.9 12.9l-1.8-8.1-2.9 2.6-3.5 1 5.3 8.1z"/><linearGradient id="SVGID_4_" gradientUnits="userSpaceOnUse" x1="446.127" y1="37.484" x2="459.067" y2="37.484" gradientTransform="matrix(-1 0 0 1 467.377 0)"><stop offset=".02" stop-color="#3c3c3c"/><stop offset="1" stop-color="#b1bbc7"/></linearGradient><path fill="url(#SVGID_4_)" d="M21.2 37.2H9.5l-1.2.6z"/><linearGradient id="SVGID_5_" gradientUnits="userSpaceOnUse" x1="443.993" y1="42.434" x2="459.067" y2="42.434" gradientTransform="matrix(-1 0 0 1 467.377 0)"><stop offset="0" stop-color="#3c3c3c"/><stop offset=".356" stop-color="#585858"/><stop offset=".991" stop-color="#b1bbc7"/></linearGradient><path fill="url(#SVGID_5_)" d="M23.2 37.2l-14.9.6 15.1 9.9z"/><linearGradient id="SVGID_6_" gradientUnits="userSpaceOnUse" x1="428.093" y1="23.888" x2="443.331" y2="32.686" gradientTransform="matrix(-1 0 0 1 467.377 0)"><stop offset=".411" stop-color="#b1bbc7"/><stop offset=".491" stop-color="#a9b2bd"/><stop offset=".626" stop-color="#9299a2"/><stop offset=".801" stop-color="#6d7176"/><stop offset="1" stop-color="#3c3c3c"/></linearGradient><path fill="url(#SVGID_6_)" d="M39.5 39.2l-14.9-5.5L31 13.2l1.9-.3z"/><linearGradient id="SVGID_7_" gradientUnits="userSpaceOnUse" x1="444.011" y1="32.736" x2="454.748" y2="32.736" gradientTransform="matrix(-1 0 0 1 467.377 0)"><stop offset=".204" stop-color="#b1bbc7"/><stop offset=".369" stop-color="#aeb8c4" stop-opacity=".959"/><stop offset=".503" stop-color="#a6afba" stop-opacity=".925"/><stop offset=".625" stop-color="#989fa9" stop-opacity=".894"/><stop offset=".741" stop-color="#838a91" stop-opacity=".865"/><stop offset=".852" stop-color="#696d72" stop-opacity=".837"/><stop offset=".959" stop-color="#4a4b4d" stop-opacity=".81"/><stop offset="1" stop-color="#3c3c3c" stop-opacity=".8"/></linearGradient><path fill="url(#SVGID_7_)" d="M23.4 33.3l-10.8-8.5 8.9 15.7 1.9.2z"/><linearGradient id="SVGID_8_" gradientUnits="userSpaceOnUse" x1="462.802" y1="32.746" x2="445.873" y2="32.746" gradientTransform="matrix(-1 0 0 1 467.377 0)"><stop offset="0" stop-color="#6d6d6d"/><stop offset=".127" stop-color="#7d7f82"/><stop offset=".349" stop-color="#9399a0"/><stop offset=".568" stop-color="#a4acb6"/><stop offset=".779" stop-color="#aeb7c3"/><stop offset=".973" stop-color="#b1bbc7"/></linearGradient><path fill="url(#SVGID_8_)" d="M14.4 40.8L4.6 24.7l8 .1 8.9 15.7z"/><linearGradient id="SVGID_9_" gradientUnits="userSpaceOnUse" x1="459.174" y1="29.325" x2="464.454" y2="29.325" gradientTransform="matrix(-1 0 0 1 467.377 0)"><stop offset=".02" stop-color="#3c3c3c"/><stop offset=".139" stop-color="#55575a"/><stop offset=".322" stop-color="#767b81"/><stop offset=".502" stop-color="#90979f"/><stop offset=".678" stop-color="#a2abb5"/><stop offset=".847" stop-color="#adb7c3"/><stop offset="1" stop-color="#b1bbc7"/></linearGradient><path fill="url(#SVGID_9_)" d="M4.6 24.7L2.9 34l5.3-3.4z"/><linearGradient id="SVGID_10_" gradientUnits="userSpaceOnUse" x1="440.081" y1="63.156" x2="434.171" y2="57.246" gradientTransform="matrix(-1 0 0 1 467.377 0)"><stop offset="0" stop-color="#3c3c3c"/><stop offset=".013" stop-color="#3f4040"/><stop offset=".167" stop-color="#626569"/><stop offset=".325" stop-color="#7e848b"/><stop offset=".485" stop-color="#959ca5"/><stop offset=".649" stop-color="#a4adb8"/><stop offset=".818" stop-color="#aeb8c3"/><stop offset="1" stop-color="#b1bbc7"/></linearGradient><path fill="url(#SVGID_10_)" d="M37.2 61.2h-5.7l-8.2-2 2.7-2.3 4.4.8z"/><linearGradient id="SVGID_11_" gradientUnits="userSpaceOnUse" x1="429.098" y1="8.828" x2="436.345" y2="8.828" gradientTransform="matrix(-1 0 0 1 467.377 0)"><stop offset="0" stop-color="#595959"/><stop offset=".06" stop-color="#646566"/><stop offset=".242" stop-color="#7f8489"/><stop offset=".427" stop-color="#959ca4"/><stop offset=".613" stop-color="#a5adb8"/><stop offset=".803" stop-color="#aeb8c3"/><stop offset="1" stop-color="#b1bbc7"/></linearGradient><path fill="url(#SVGID_11_)" d="M32.9 12.9l4.9-2.8.5-4-4.1.7-3.2-2z"/><linearGradient id="SVGID_12_" gradientUnits="userSpaceOnUse" x1="429.627" y1="15.174" x2="434.44" y2="15.174" gradientTransform="matrix(-1 0 0 1 467.377 0)"><stop offset="0" stop-color="#515151"/><stop offset="1" stop-color="#b1bbc7"/></linearGradient><path fill="url(#SVGID_12_)" d="M37.8 10.1l-2.1 10.2-2.8-7.4z"/><linearGradient id="SVGID_13_" gradientUnits="userSpaceOnUse" x1="426.134" y1="13.76" x2="430.662" y2="13.76" gradientTransform="matrix(-1 0 0 1 467.377 0)"><stop offset=".035" stop-color="#b1bbc7"/><stop offset=".27" stop-color="#aeb8c4"/><stop offset=".47" stop-color="#a7afb9"/><stop offset=".657" stop-color="#9aa0a8"/><stop offset=".835" stop-color="#878b8f"/><stop offset="1" stop-color="#717171"/></linearGradient><path fill="url(#SVGID_13_)" d="M37.3 12.5l3.9 2.3-4.5.2z"/><linearGradient id="SVGID_14_" gradientUnits="userSpaceOnUse" x1="426.092" y1="16.32" x2="431.196" y2="16.32" gradientTransform="matrix(-1 0 0 1 467.377 0)"><stop offset="0" stop-color="#b1bbc7"/><stop offset=".328" stop-color="#afb9c5"/><stop offset=".498" stop-color="#a9b2bd"/><stop offset=".633" stop-color="#9ea6af"/><stop offset=".749" stop-color="#8f959c"/><stop offset=".853" stop-color="#7b7f84"/><stop offset=".946" stop-color="#636466"/><stop offset=".983" stop-color="#585858"/><stop offset="1" stop-color="#3c3c3c"/></linearGradient><path fill="url(#SVGID_14_)" d="M41.3 14.8l-5.1 3 .6-3z"/><linearGradient id="SVGID_15_" gradientUnits="userSpaceOnUse" x1="443.991" y1="46.338" x2="458.814" y2="46.338" gradientTransform="matrix(-1 0 0 1 467.377 0)"><stop offset="0" stop-color="#3c3c3c"/><stop offset=".031" stop-color="#4c4e4f"/><stop offset=".092" stop-color="#676b6f"/><stop offset=".16" stop-color="#7e848b"/><stop offset=".237" stop-color="#9198a1"/><stop offset=".327" stop-color="#9fa8b2"/><stop offset=".437" stop-color="#aab3be"/><stop offset=".589" stop-color="#afb9c5"/><stop offset=".992" stop-color="#b1bbc7"/></linearGradient><path fill="url(#SVGID_15_)" d="M23.4 40.1l-14.8.6 14.8 11.9z"/><linearGradient id="SVGID_16_" gradientUnits="userSpaceOnUse" x1="423.212" y1="31.105" x2="434.44" y2="31.105" gradientTransform="matrix(-1 0 0 1 467.377 0)"><stop offset="0" stop-color="#b1bbc7"/><stop offset=".298" stop-color="#afb9c4"/><stop offset=".476" stop-color="#a8b1bc"/><stop offset=".623" stop-color="#9da5ae"/><stop offset=".753" stop-color="#8d939a"/><stop offset=".871" stop-color="#787b7f"/><stop offset=".98" stop-color="#5e5f60"/><stop offset="1" stop-color="#595959"/></linearGradient><path fill="url(#SVGID_16_)" d="M32.9 12.9l7 14.5 4.3 14.7-6.4 7.2 2-8.8z"/><linearGradient id="SVGID_17_" gradientUnits="userSpaceOnUse" x1="446.029" y1="40.097" x2="446.029" y2="34.324" gradientTransform="matrix(-1 0 0 1 467.377 0)"><stop offset=".02" stop-color="#3c3c3c"/><stop offset=".046" stop-color="#484a4b"/><stop offset=".114" stop-color="#64686c"/><stop offset=".189" stop-color="#7c8288"/><stop offset=".272" stop-color="#90979f"/><stop offset=".368" stop-color="#9fa7b1"/><stop offset=".484" stop-color="#a9b3be"/><stop offset=".639" stop-color="#afb9c5"/><stop offset="1" stop-color="#b1bbc7"/></linearGradient><path fill="url(#SVGID_17_)" d="M23.3 34.3l.1 5.8h-2.1l-2-3.5z"/><linearGradient id="SVGID_18_" gradientUnits="userSpaceOnUse" x1="435.517" y1="53.202" x2="445.815" y2="35.366" gradientTransform="matrix(-1 0 0 1 467.377 0)"><stop offset=".02" stop-color="#b1bbc7"/><stop offset=".171" stop-color="#aeb8c3"/><stop offset=".32" stop-color="#a5adb7"/><stop offset=".468" stop-color="#969ca3"/><stop offset=".615" stop-color="#828588"/><stop offset=".712" stop-color="#717171"/><stop offset=".872" stop-color="#606060"/><stop offset="1" stop-color="#585858"/></linearGradient><path fill="url(#SVGID_18_)" d="M32.9 52.6h-9.5V34.3l1.2-.6 13.2 15.6z"/><linearGradient id="SVGID_19_" gradientUnits="userSpaceOnUse" x1="442.753" y1="41.501" x2="424.178" y2="41.501" gradientTransform="matrix(-1 0 0 1 467.377 0)"><stop offset="0" stop-color="#3c3c3c"/><stop offset=".032" stop-color="#4e4f51"/><stop offset=".09" stop-color="#686c70"/><stop offset=".156" stop-color="#7f858c"/><stop offset=".23" stop-color="#9299a2"/><stop offset=".317" stop-color="#a0a8b2"/><stop offset=".424" stop-color="#aab3be"/><stop offset=".574" stop-color="#afb9c5"/><stop offset=".991" stop-color="#b1bbc7"/></linearGradient><path fill="url(#SVGID_19_)" d="M43.2 40.5l-5.4 8.8-13.2-15.6z"/><linearGradient id="SVGID_20_" gradientUnits="userSpaceOnUse" x1="444.011" y1="40.419" x2="458.814" y2="40.419" gradientTransform="matrix(-1 0 0 1 467.377 0)"><stop offset=".02" stop-color="#3c3c3c"/><stop offset="1" stop-color="#b1bbc7"/></linearGradient><path fill="url(#SVGID_20_)" d="M23.4 40.1H9.8l-1.2.6z"/><ellipse cx="35.4" cy="13.8" rx=".8" ry=".8" fill="#fff"/><linearGradient id="SVGID_21_" gradientUnits="userSpaceOnUse" x1="440.727" y1="58.401" x2="436.74" y2="54.415" gradientTransform="matrix(-1 0 0 1 467.377 0)"><stop offset=".026" stop-color="#585858"/><stop offset=".048" stop-color="#646667"/><stop offset=".101" stop-color="#7c8085"/><stop offset=".16" stop-color="#8f969d"/><stop offset=".226" stop-color="#9ea6b0"/><stop offset=".303" stop-color="#a9b2bd"/><stop offset=".402" stop-color="#afb9c5"/><stop offset=".598" stop-color="#b1bbc7"/></linearGradient><path fill="url(#SVGID_21_)" d="M24.8 52.6l1.5 5.4 1.5 1 3.7 2.2-2.7-8.6z"/><linearGradient id="SVGID_22_" gradientUnits="userSpaceOnUse" x1="24.675" y1="62.128" x2="30.386" y2="58.83"><stop offset="0" stop-color="#717171"/><stop offset=".146" stop-color="#838689"/><stop offset=".354" stop-color="#979da4"/><stop offset=".565" stop-color="#a5aeb7"/><stop offset=".779" stop-color="#aeb8c3"/><stop offset="1" stop-color="#b1bbc7"/></linearGradient><path fill="url(#SVGID_22_)" d="M31.8 61.2L26.3 58l-2.2 3.2z"/><linearGradient id="SVGID_23_" gradientUnits="userSpaceOnUse" x1="436.86" y1="53.568" x2="438.225" y2="52.203" gradientTransform="matrix(-1 0 0 1 467.377 0)"><stop offset="0" stop-color="#b1bbc7"/><stop offset=".291" stop-color="#8a9199"/><stop offset=".893" stop-color="#3c3c3c"/></linearGradient><path opacity=".8" fill="url(#SVGID_23_)" d="M31.5 52.6h-2.7l.5 1.8z"/></g></svg>