<svg version="1.1" id="Calque_1" xmlns="http://www.w3.org/2000/svg" xmlns:xlink="http://www.w3.org/1999/xlink" x="0" y="0" viewBox="0 0 595.28 595.28" xml:space="preserve"><linearGradient id="SVGID_1_" gradientUnits="userSpaceOnUse" x1="-152.969" y1="236.197" x2="901.832" y2="224.345"><stop offset="0" stop-color="#3975fa"/><stop offset=".045" stop-color="#337ffa"/><stop offset=".189" stop-color="#249bf9"/><stop offset=".344" stop-color="#19b1f9"/><stop offset=".515" stop-color="#10c0f8"/><stop offset=".713" stop-color="#0cc9f8"/><stop offset="1" stop-color="#0accf8"/></linearGradient><path fill="url(#SVGID_1_)" d="M21.5 316.972l-3.01-19.596s7.205-19.699 18.985-28.377c52.7-38.823 156.024-160.853 353.139-160.853 0 0 4.515 76.758 0 76.758S283.508 155.115 22.629 356.198L21.5 316.972z"/><path opacity=".3" fill="#5091F9" d="M229.866 139.235a429.243 429.243 0 0 0-29.882 13.598c-3.828 24.381 40.024 46.182 63.795 56.114 28.587-11.527 51.868-18.053 70.315-21.626-30.48-16.845-79.487-37.799-104.228-48.086z"/><radialGradient id="SVGID_2_" cx="163.786" cy="442.714" r="782.253" gradientTransform="matrix(1 0 0 .6655 0 148.107)" gradientUnits="userSpaceOnUse"><stop offset="0" stop-color="#5fdbdc"/><stop offset="0" stop-color="#fff"/><stop offset="1" stop-color="#5fdbdc"/></radialGradient><path fill="url(#SVGID_2_)" d="M579.122 256.017c0 60.39-35.557 114.008-35.557 114.008s-19.754-24.833-29.913-24.833c-53.053 1.129-106.106 116.83-122.474 116.83-42.33 0-62.648-24.269-72.243-24.269-9.595 0-23.14 20.883-23.14 27.655s42.894 38.379 42.894 38.379-301.27 47.221-301.27-230.486c0-112.558 88.041-143.034 116.824-143.034 89.734 0 171.133 79.298 238.857 79.298s76.059-25.119 126.852-25.119c44.021.001 59.17 48.573 59.17 71.571z"/><defs><path id="SVGID_28_" d="M579.122 256.002c0 60.39-35.557 114.008-35.557 114.008s-19.754-24.833-29.913-24.833c-53.053 1.129-106.106 116.83-122.474 116.83-42.33 0-62.648-24.269-72.243-24.269-9.595 0-23.14 20.883-23.14 27.655s42.894 38.379 42.894 38.379-301.27 47.221-301.27-230.486c0-112.558 88.041-143.034 116.824-143.034 89.734 0 171.133 79.298 238.857 79.298s76.059-25.119 126.852-25.119c44.021.001 59.17 48.573 59.17 71.571z"/></defs><clipPath id="SVGID_4_"><use xlink:href="#SVGID_28_" overflow="visible"/></clipPath><linearGradient id="SVGID_5_" gradientUnits="userSpaceOnUse" x1="-21.306" y1="336.331" x2="423.382" y2="332.563"><stop offset="0" stop-color="#0accf8"/><stop offset="1" stop-color="#3975fa"/></linearGradient><path fill="url(#SVGID_5_)" d="M143.033 291.386s-44.963 34.052-75.817 34.052c-19.588 0-32.345-5.513-40.017-13.185-4.515-4.515-8.709-9.955-5.558-19.267 2.887-8.533 11.467-19.802 15.834-23.986l-.056-2.964c-15.072 18.202-21.262 26.103-21.262 43.166 0 7.482 2.991 36.336 6.472 46.996 3.024 9.262 26.15 48.82 86.352 48.82 50.419 0 59.638-17.308 59.638-17.308l-25.586-96.324z"/><path fill="#F7CAA6" d="M460.599 350.677c18.061 0 51.924-21.713 51.924-77.376s-39.884-80.496-63.965-80.496c-24.081 0-81.273 10.535-81.273 69.985 0 18.182 5.355 33.464 13.821 45.918 3.769 5.545 2.445 16.814 7.25 21.245 19.689 18.155 52.117 20.724 72.243 20.724z"/><path fill="#EEF6FF" stroke="#FFF" stroke-width=".203" stroke-miterlimit="10" d="M436.519 379.432l-92.412-39.78-175.487 86.603c11.747 11.747 99.333 74.334 120.404 74.334 4.726 0 12.436-7.386 25.691-15.513-10.776-8.783-18.919-16.265-18.919-19.668 0-6.773 13.545-27.655 23.14-27.655 6.977 0 19.846 12.898 42.504 19.9 40.392-29.204 81.677-63.293 80.948-67.253-1.302-7.077-5.869-10.968-5.869-10.968z"/><path d="M349.587 453.195c3.286 1.43 8.014 3.271 11.854 4.458 37.567-27.162 75.858-58.545 80.476-65.978 0-1.124.001-2.203.003-3.225a20.65 20.65 0 0 0-1.749-4.24c-10.028 13.313-53.176 43.576-90.584 68.985zm-60.564 48.052c4.726 0 12.436-8.044 25.691-16.171-2.686-2.189-2.689-2.244-5.213-4.433-11.836 7.497-19.912 12.42-21.231 12.42-11.288 0-100.002-59.261-121.436-72.943l1.784 6.135c11.749 11.747 99.335 74.992 120.405 74.992z" fill="#BFD5F4"/><path fill="#23B5F8" d="M425.568 426.212s33.062-45.06 35.996-45.898c0 0-21.43-.367-35.996-.367-14.566 0-29.237-5.03-29.237-5.03s-11.737 10.479-11.737 28.503 40.974 22.792 40.974 22.792z"/><path fill="#53678C" d="M199.111 421.864c-1.799.903-1.896 3.434-.166 4.463 13.033 7.757 48.554 27.224 51.136 27.228 6.208.011 111.815-65.019 133.228-79.125 1.67-1.1 1.476-3.605-.341-4.441l-40.907-18.801a2.55 2.55 0 0 0-2.207.038l-140.743 70.638z"/><path fill="#E2F0FF" d="M315.219 428.128l39.584-22.264a2.566 2.566 0 0 1 2.499-.194l23.859 11.012c1.826.843 2.017 3.364.339 4.472l-38.474 25.412a2.568 2.568 0 0 1-2.702.079l-24.97-14.16c-1.644-.954-1.718-3.303-.135-4.357z"/><path fill="#F7CAA6" d="M363.98 361.263c-14.754 0-23.032 6.348-28.3 11.396-2.173 2.083-9.053 8.822-4.53 11.55 3.444 2.077 5.842 3.409 11.51 2.872 10.892-9.719 20.722-6.199 20.722-6.199-4.421-1.98-10.577 1.212-14.19 3.561-2.299 1.494-4.175 3.572-5.281 6.08-1.39 3.152-1.604 8.947 4.107 7.111 5.784-1.859 5.355-7.857 20.447-2.212 9.895 3.701 16.157 3.701 16.157 3.701s-.169-10.192 8.618-22.521c-18.813.001-14.506-15.339-29.26-15.339zm-45.954 76.549s-3.04-.06-6.05-7.962-3.705-15.77-15.991-14.674c0 0 7.713 7.57 7.713 12.533 0 0-6.961-13.629-18.249-13.629-11.288 0-35.369 7.116-35.369 15.206 0 3.01 2.258 5.456 6.396 5.456 4.139 0 15.615 2.258 20.694 2.258 5.08 0 3.596 24.804 19.388 24.804 8.951-17.308 21.468-23.992 21.468-23.992z"/><linearGradient id="SVGID_7_" gradientUnits="userSpaceOnUse" x1="413.804" y1="129.409" x2="407.032" y2="-162.947"><stop offset=".015" stop-color="#fff"/><stop offset=".276" stop-color="#d0ecf9"/><stop offset="1" stop-color="#bfe5f7"/></linearGradient><path fill="url(#SVGID_7_)" d="M344.107 108.146c0 13.169 11.139 77.886 23.18 77.886 12.04 0 81.7-1.489 92.398-1.489 10.698 0 22.738-7.541 22.738-16.572v-63.965c0-15.803-19.095-18.813-40.025-18.813-20.93.001-98.291 9.082-98.291 22.953z"/><path opacity=".4" fill="#16B6F9" d="M367.286 186.032c12.04 0 81.7-1.489 92.398-1.489 10.698 0 22.738-7.541 22.738-16.572v-63.965c0-3.452-.911-6.293-2.553-8.626-10.384 13.737-49.76 64.313-66.605 64.313-19.491 0-69.158-51.548-69.158-51.548.001 13.17 11.14 77.887 23.18 77.887z"/><path opacity=".3" fill="#16B6F9" d="M344.107 108.146c0 12.206 9.569 68.684 20.556 76.884 2.069-17.818 12.183-34.932 17.158-42.432-18.975-15.005-37.714-34.452-37.714-34.452zm100.34 29.359c7.986 7.745 25.977 25.851 34.034 39.23 2.426-2.556 3.941-5.565 3.941-8.763v-63.965c0-3.452-.911-6.293-2.553-8.626-5.782 7.65-20.556 26.722-35.422 42.124z"/><linearGradient id="SVGID_8_" gradientUnits="userSpaceOnUse" x1="387.704" y1="166.206" x2="441.976" y2="111.786"><stop offset="0" stop-color="#3975fa"/><stop offset="1" stop-color="#0accf8"/></linearGradient><circle fill="url(#SVGID_8_)" cx="413.134" cy="140.707" r="29.175"/><path fill="#101A3B" d="M439.905 246.234s-3.575 62.46 60.578 62.46c12.04 0 25.586.692 25.586-11.318s-1.505-93.283-38.379-93.283c0 0 2.069-9.407-3.386-9.407-5.456 0-13.922 6.02-13.922 6.02s-4.327-18.813-19.942-18.813-49.594 19.378-70.549 19.378-38.943-3.386-38.943 6.208c0 9.595 10.786 33.299 51.673 33.299 0 0-9.908 10.723-9.908 14.674s12.417 3.951 20.318 3.951c7.902.001 36.874-13.169 36.874-13.169z"/><path fill="#101A10" d="M470.087 199.632c-1.1-3.665-5.51-15.613-16.631-17.485-10.211 3.477-17.004 20.473-13.551 20.762 15.01 1.259 28.871-.868 30.182-3.277z"/><path fill="#FFA792" d="M420.521 346.213s7.496-3.115 7.626-19.011c0 0 4.586 10.441-2.381 20.235l-5.245-1.224z"/><path opacity=".3" fill="#3778FA" d="M126.369 302.666l24.81 96.458c14.011-5.017 17.441-11.415 17.441-11.415l-25.586-96.323c-.001 0-6.686 5.061-16.665 11.28z"/><path fill="#293B66" stroke="#E0D9DC" stroke-width=".169" stroke-miterlimit="10" d="M168.619 426.254s-36.817-125.133-36.817-155.022 176.203-59.614 186.454-59.614 25.851 119.106 25.851 128.033-175.488 86.603-175.488 86.603z"/><path opacity=".9" fill="#FFF" d="M178.889 404.172c-13.087-45.99-29.558-109.267-30.988-130.301 3.894-3.289 21.587-12.348 83.605-29.752 32.684-9.172 63.853-13.666 78.388-15.552 6.638 20.722 14.967 82.703 17.55 104.287-19.079 11.691-84.652 42.729-148.555 71.318z"/><circle fill="#1F3159" cx="231.643" cy="234.946" r="2.637"/><path fill="#FFF" d="M423.165 135.42l-.086-3.489c-.138-5.577-4.771-9.985-10.347-9.847s-9.985 4.771-9.847 10.347l.088 3.545a4.755 4.755 0 0 0-3.361 4.661l.281 11.337a4.756 4.756 0 0 0 4.872 4.637l17.851-.442a4.756 4.756 0 0 0 4.637-4.872l-.281-11.337a4.755 4.755 0 0 0-3.807-4.54zm-10.296-7.797a4.564 4.564 0 0 1 4.67 4.445l.083 3.366-9.115.226-.083-3.366a4.565 4.565 0 0 1 4.445-4.671z"/><path fill="#23B5F8" d="M336.625 500.63s-38.154-25.794-40.841-36.542 17.255-27.741 23.615-26.151 52.693 26.688 67.202 22.926c14.509-3.761-13.604 46.472-49.976 39.767z"/></svg>