<svg xmlns="http://www.w3.org/2000/svg" xmlns:xlink="http://www.w3.org/1999/xlink" width="174" height="174"><defs><path id="w0fda" d="M667 802v-5h5v5zm0 13v-5h5v5zm0 13v-5h5v5zm0 13v-5h5v5zm0 13v-5h5v5zm0 13v-5h5v5zm0 13v-5h5v5zm13-78v-5h5v5zm0 13v-5h5v5zm0 13v-5h5v5zm0 13v-5h5v5zm0 13v-5h5v5zm0 13v-5h5v5zm0 13v-5h5v5zm13-78v-5h5v5zm0 13v-5h5v5zm0 13v-5h5v5zm0 13v-5h5v5zm0 13v-5h5v5zm0 13v-5h5v5zm0 13v-5h5v5zm13-78v-5h5v5zm0 13v-5h5v5zm0 13v-5h5v5zm0 13v-5h5v5zm0 13v-5h5v5zm0 13v-5h5v5zm0 13v-5h5v5zm13-78v-5h5v5zm13 0v-5h5v5zm13 0v-5h5v5zm-26 13v-5h5v5zm13 0v-5h5v5zm13 0v-5h5v5zm-26 13v-5h5v5zm13 0v-5h5v5zm13 0v-5h5v5zm-26 13v-5h5v5zm13 0v-5h5v5zm13 0v-5h5v5zm-26 13v-5h5v5zm13 0v-5h5v5zm13 0v-5h5v5zm-26 13v-5h5v5zm13 0v-5h5v5zm13 0v-5h5v5zm-26 13v-5h5v5zm13 0v-5h5v5zm13 0v-5h5v5zm13-78v-5h5v5zm0 13v-5h5v5zm0 13v-5h5v5zm0 13v-5h5v5zm0 13v-5h5v5zm0 13v-5h5v5zm0 13v-5h5v5zm13-78v-5h5v5zm0 13v-5h5v5zm0 13v-5h5v5zm0 13v-5h5v5zm0 13v-5h5v5zm0 13v-5h5v5zm0 13v-5h5v5zm13-78v-5h5v5zm0 13v-5h5v5zm0 13v-5h5v5zm0 13v-5h5v5zm0 13v-5h5v5zm0 13v-5h5v5zm0 13v-5h5v5zm13-78v-5h5v5zm0 13v-5h5v5zm0 13v-5h5v5zm0 13v-5h5v5zm0 13v-5h5v5zm0 13v-5h5v5zm0 13v-5h5v5zm13-78v-5h5v5zm13 0v-5h5v5zm13 0v-5h5v5zm-26 13v-5h5v5zm13 0v-5h5v5zm13 0v-5h5v5zm-26 13v-5h5v5zm13 0v-5h5v5zm13 0v-5h5v5zm-26 13v-5h5v5zm13 0v-5h5v5zm13 0v-5h5v5zm-26 13v-5h5v5zm13 0v-5h5v5zm13 0v-5h5v5zm-26 13v-5h5v5zm13 0v-5h5v5zm13 0v-5h5v5zm-26 13v-5h5v5zm13 0v-5h5v5zm13 0v-5h5v5zm-78 13v-5h5v5zm0 13v-5h5v5zm0 13v-5h5v5zm0 13v-5h5v5zm0 13v-5h5v5zm0 13v-5h5v5zm0 13v-5h5v5zm13-78v-5h5v5zm0 13v-5h5v5zm0 13v-5h5v5zm0 13v-5h5v5zm0 13v-5h5v5zm0 13v-5h5v5zm0 13v-5h5v5zm13-78v-5h5v5zm0 13v-5h5v5zm0 13v-5h5v5zm0 13v-5h5v5zm0 13v-5h5v5zm0 13v-5h5v5zm0 13v-5h5v5zm13-78v-5h5v5zm0 13v-5h5v5zm0 13v-5h5v5zm0 13v-5h5v5zm0 13v-5h5v5zm0 13v-5h5v5zm0 13v-5h5v5zm13-78v-5h5v5zm13 0v-5h5v5zm13 0v-5h5v5zm-26 13v-5h5v5zm13 0v-5h5v5zm13 0v-5h5v5zm-26 13v-5h5v5zm13 0v-5h5v5zm13 0v-5h5v5zm-26 13v-5h5v5zm13 0v-5h5v5zm13 0v-5h5v5zm-26 13v-5h5v5zm13 0v-5h5v5zm13 0v-5h5v5zm-26 13v-5h5v5zm13 0v-5h5v5zm13 0v-5h5v5zm-26 13v-5h5v5zm13 0v-5h5v5zm13 0v-5h5v5zm-169-78v-5h5v5zm0 13v-5h5v5zm0 13v-5h5v5zm0 13v-5h5v5zm0 13v-5h5v5zm0 13v-5h5v5zm0 13v-5h5v5zm13-78v-5h5v5zm0 13v-5h5v5zm0 13v-5h5v5zm0 13v-5h5v5zm0 13v-5h5v5zm0 13v-5h5v5zm0 13v-5h5v5zm13-78v-5h5v5zm0 13v-5h5v5zm0 13v-5h5v5zm0 13v-5h5v5zm0 13v-5h5v5zm0 13v-5h5v5zm0 13v-5h5v5zm13-78v-5h5v5zm0 13v-5h5v5zm0 13v-5h5v5zm0 13v-5h5v5zm0 13v-5h5v5zm0 13v-5h5v5zm0 13v-5h5v5zm13-78v-5h5v5zm13 0v-5h5v5zm13 0v-5h5v5zm-26 13v-5h5v5zm13 0v-5h5v5zm13 0v-5h5v5zm-26 13v-5h5v5zm13 0v-5h5v5zm13 0v-5h5v5zm-26 13v-5h5v5zm13 0v-5h5v5zm13 0v-5h5v5zm-26 13v-5h5v5zm13 0v-5h5v5zm13 0v-5h5v5zm-26 13v-5h5v5zm13 0v-5h5v5zm13 0v-5h5v5zm-26 13v-5h5v5zm13 0v-5h5v5zm13 0v-5h5v5z"/><linearGradient id="w0fdb" x1="702.8" x2="817.94" y1="788.6" y2="984.36" gradientUnits="userSpaceOnUse"><stop offset="0" stop-color="#3975fb"/><stop offset="1" stop-color="#0acdfa"/></linearGradient></defs><use fill="url(#w0fdb)" xlink:href="#w0fda" opacity=".2" transform="translate(-667 -797)"/></svg>