<svg width="229" height="96" xmlns="http://www.w3.org/2000/svg" xmlns:xlink="http://www.w3.org/1999/xlink"><defs><linearGradient x1="103.931%" y1="2.883%" x2="-72.819%" y2="100%" id="linearGradient-1"><stop stop-color="#3975FB" stop-opacity=".9" offset="0%"/><stop stop-color="#0ACDFA" stop-opacity=".2" offset="100%"/></linearGradient><rect id="path-2" x="0" y="0" width="183" height="48" rx="24"/><filter x="-20.2%" y="-72.9%" width="140.4%" height="254.2%" filterUnits="objectBoundingBox" id="filter-3"><feOffset dy="2" in="SourceAlpha" result="shadowOffsetOuter1"/><feGaussianBlur stdDeviation="12" in="shadowOffsetOuter1" result="shadowBlurOuter1"/><feColorMatrix values="0 0 0 0 0.0888770518 0 0 0 0 0.507896162 0 0 0 0 1 0 0 0 0.238111413 0" in="shadowBlurOuter1"/></filter></defs><g id="Page-1" stroke="none" stroke-width="1" fill="none" fill-rule="evenodd"><g id="Group-23" transform="translate(23 22)"><g id="Rectangle-9"><use fill="#000" filter="url(#filter-3)" xlink:href="#path-2"/><use fill="url(#linearGradient-1)" xlink:href="#path-2"/></g><path d="M37.862 23.359l-1.495-4.089a8.947 8.947 0 0 1-.23-.645c-.08-.25-.159-.519-.238-.808-.074.289-.15.56-.23.812a9.922 9.922 0 0 1-.229.659l-1.487 4.071h3.91zM41.9 28h-1.768a.755.755 0 0 1-.484-.149.926.926 0 0 1-.281-.37l-.918-2.507h-5.091l-.918 2.508a.815.815 0 0 1-.264.357.735.735 0 0 1-.485.161h-1.784l4.836-12.291h2.329L41.9 28zm8.075-8.721L46.515 28h-1.904l-3.459-8.721h1.734c.159 0 .29.037.395.11a.52.52 0 0 1 .209.281l1.682 4.658a12.532 12.532 0 0 1 .417 1.581c.057-.26.119-.521.187-.782.068-.26.15-.527.246-.799l1.718-4.658a.574.574 0 0 1 .212-.28.607.607 0 0 1 .366-.111h1.657zm5.491 4.998c-.606.028-1.116.08-1.53.157-.414.077-.745.174-.995.293-.249.12-.427.258-.535.417a.905.905 0 0 0-.161.519c0 .368.109.631.327.79.218.159.503.238.854.238.43 0 .803-.078 1.118-.234a3.32 3.32 0 0 0 .922-.71v-1.47zm-4.811-3.783c1.003-.918 2.21-1.377 3.621-1.377.51 0 .966.084 1.368.251.403.167.743.4 1.02.697.278.298.49.653.634 1.067a4.1 4.1 0 0 1 .216 1.36V28h-.952c-.198 0-.35-.03-.459-.09-.107-.059-.192-.18-.255-.36l-.187-.63a7.59 7.59 0 0 1-.645.523c-.21.15-.428.276-.655.378-.227.103-.469.18-.727.234a4.171 4.171 0 0 1-.854.081c-.368 0-.708-.05-1.02-.149a2.241 2.241 0 0 1-.807-.446 2.003 2.003 0 0 1-.528-.74 2.623 2.623 0 0 1-.186-1.028 1.944 1.944 0 0 1 .471-1.284c.167-.198.384-.385.65-.56.267-.176.594-.33.982-.46s.84-.236 1.356-.318a13.543 13.543 0 0 1 1.768-.149v-.51c0-.584-.125-1.016-.374-1.296-.25-.28-.61-.421-1.08-.421-.34 0-.621.04-.845.119a3.48 3.48 0 0 0-.591.268l-.463.268a.917.917 0 0 1-.463.119.606.606 0 0 1-.374-.115.959.959 0 0 1-.247-.268l-.374-.672zm10.99-1.215V28h-2.108v-8.721h2.108zm.29-2.541c0 .18-.037.35-.111.51a1.402 1.402 0 0 1-.722.7 1.317 1.317 0 0 1-1.042 0 1.362 1.362 0 0 1-.705-.7 1.317 1.317 0 0 1 0-1.037 1.326 1.326 0 0 1 .705-.71 1.317 1.317 0 0 1 1.041 0 1.371 1.371 0 0 1 .722.71c.075.164.111.34.111.527zm3.96-1.369V28h-2.099V15.369h2.1zm6.69 8.908c-.606.028-1.116.08-1.53.157-.414.077-.745.174-.995.293-.249.12-.427.258-.535.417a.905.905 0 0 0-.162.519c0 .368.11.631.328.79.218.159.503.238.854.238.43 0 .803-.078 1.118-.234a3.32 3.32 0 0 0 .922-.71v-1.47zm-4.811-3.783c1.003-.918 2.21-1.377 3.621-1.377.51 0 .966.084 1.368.251.403.167.743.4 1.02.697.278.298.49.653.634 1.067a4.1 4.1 0 0 1 .216 1.36V28h-.951c-.199 0-.352-.03-.46-.09-.107-.059-.192-.18-.254-.36l-.188-.63a7.59 7.59 0 0 1-.645.523c-.21.15-.428.276-.655.378-.227.103-.469.18-.727.234a4.171 4.171 0 0 1-.854.081c-.368 0-.708-.05-1.02-.149a2.254 2.254 0 0 1-.808-.446 2.003 2.003 0 0 1-.526-.74 2.623 2.623 0 0 1-.188-1.028 1.944 1.944 0 0 1 .472-1.284c.167-.198.384-.385.65-.56.267-.176.594-.33.982-.46s.84-.236 1.356-.318a13.543 13.543 0 0 1 1.768-.149v-.51c0-.584-.125-1.016-.374-1.296-.25-.28-.61-.421-1.08-.421-.34 0-.621.04-.845.119a3.48 3.48 0 0 0-.591.268l-.463.268a.917.917 0 0 1-.463.119.606.606 0 0 1-.375-.115.959.959 0 0 1-.246-.268l-.374-.672zm10.914 5.245c.238.289.497.493.778.612.28.119.576.178.888.178a2.1 2.1 0 0 0 .871-.174 1.65 1.65 0 0 0 .659-.544c.181-.246.32-.56.416-.943.097-.383.145-.84.145-1.373 0-.958-.159-1.65-.476-2.078-.317-.428-.773-.642-1.368-.642a1.98 1.98 0 0 0-1.055.276c-.3.184-.586.444-.858.778v3.91zm0-5.389a4.31 4.31 0 0 1 1.169-.88c.428-.218.916-.327 1.466-.327.504 0 .96.1 1.364.297.405.199.751.484 1.037.855.286.37.506.82.659 1.347.153.527.23 1.12.23 1.777a6.62 6.62 0 0 1-.264 1.929 4.433 4.433 0 0 1-.752 1.483c-.326.411-.718.73-1.177.957-.46.226-.97.34-1.53.34-.273 0-.519-.027-.74-.081a2.754 2.754 0 0 1-.612-.226 2.47 2.47 0 0 1-.514-.352 4.338 4.338 0 0 1-.447-.463l-.093.586c-.034.147-.092.252-.174.315a.543.543 0 0 1-.336.093h-1.386V15.369h2.1v4.981zm9.656-4.981V28h-2.1V15.369h2.1zm7.701 7.268c0-.273-.038-.529-.115-.77a1.828 1.828 0 0 0-.344-.633 1.6 1.6 0 0 0-.582-.43 1.998 1.998 0 0 0-.82-.156c-.607 0-1.084.172-1.433.518-.348.346-.57.836-.667 1.47h3.961zm-4.004 1.266c.035.448.114.834.239 1.16.124.326.288.595.492.808.205.212.447.37.727.476.28.105.591.157.931.157.34 0 .633-.04.88-.119.246-.08.462-.167.646-.264.184-.096.345-.184.484-.263a.813.813 0 0 1 .404-.119c.176 0 .306.065.391.195l.603.765a3.5 3.5 0 0 1-.781.685c-.29.184-.591.331-.906.442-.314.11-.634.188-.96.233a6.877 6.877 0 0 1-.948.069 4.66 4.66 0 0 1-1.691-.302 3.786 3.786 0 0 1-1.36-.893 4.187 4.187 0 0 1-.91-1.462c-.221-.58-.331-1.253-.331-2.018 0-.596.096-1.155.289-1.68a4.03 4.03 0 0 1 .828-1.368c.36-.388.8-.695 1.318-.922.518-.227 1.103-.34 1.755-.34.55 0 1.057.088 1.521.264.465.175.865.432 1.199.769.334.337.596.75.786 1.24.19.49.285 1.05.285 1.68 0 .317-.034.53-.102.641-.068.11-.198.166-.391.166h-5.397zm16.882-2.924a.56.56 0 0 1-.179.191.462.462 0 0 1-.238.055.75.75 0 0 1-.327-.085 22.34 22.34 0 0 0-.404-.19 3.698 3.698 0 0 0-.523-.192 2.504 2.504 0 0 0-.692-.085c-.414 0-.739.088-.974.264a.82.82 0 0 0-.352.688c0 .187.06.344.182.472.122.127.284.24.485.335.2.097.429.183.684.26.255.076.514.16.778.25a9.4 9.4 0 0 1 .778.31c.255.117.483.264.684.443.2.178.362.392.484.642.122.249.183.55.183.9 0 .42-.075.807-.225 1.16-.15.355-.373.66-.667.919a3.147 3.147 0 0 1-1.093.603c-.433.145-.933.217-1.5.217-.3 0-.594-.027-.88-.08a5.193 5.193 0 0 1-.824-.226 4.563 4.563 0 0 1-.731-.34 3.548 3.548 0 0 1-.591-.425l.485-.799a.685.685 0 0 1 .22-.221.62.62 0 0 1 .323-.077c.13 0 .254.037.37.111.116.074.251.153.404.238.153.085.333.164.54.238.207.074.469.11.786.11.25 0 .463-.03.642-.089.178-.06.326-.137.442-.233a.878.878 0 0 0 .255-.336c.054-.128.08-.26.08-.396a.705.705 0 0 0-.182-.501 1.6 1.6 0 0 0-.485-.34 4.68 4.68 0 0 0-.688-.26c-.258-.076-.522-.16-.79-.25a7.313 7.313 0 0 1-.791-.319 2.694 2.694 0 0 1-.689-.463 2.097 2.097 0 0 1-.484-.689c-.122-.272-.183-.6-.183-.986 0-.357.07-.696.212-1.02.142-.323.35-.604.625-.845s.618-.434 1.029-.578c.41-.145.885-.217 1.423-.217.601 0 1.148.1 1.641.297.493.199.904.46 1.233.782l-.477.757zm5.992-1.836a4.77 4.77 0 0 1 1.764.314c.53.21.983.508 1.36.893.377.385.667.856.871 1.411.204.555.306 1.176.306 1.861 0 .692-.102 1.315-.306 1.87a4.006 4.006 0 0 1-.871 1.42c-.377.391-.83.691-1.36.901a4.75 4.75 0 0 1-1.764.315 4.813 4.813 0 0 1-1.777-.315 3.8 3.8 0 0 1-1.364-.901 4.056 4.056 0 0 1-.875-1.42c-.207-.555-.31-1.178-.31-1.87 0-.685.103-1.306.31-1.861a3.968 3.968 0 0 1 .875-1.411 3.856 3.856 0 0 1 1.364-.893 4.813 4.813 0 0 1 1.777-.314zm0 7.37c.725 0 1.262-.244 1.61-.732.35-.487.523-1.2.523-2.141 0-.941-.174-1.658-.522-2.151-.349-.493-.886-.74-1.611-.74-.737 0-1.282.248-1.636.744-.354.496-.531 1.211-.531 2.147 0 .935.177 1.647.53 2.137.355.49.9.735 1.637.735zm9.75-7.37c.646 0 1.233.105 1.763.314.53.21.983.508 1.36.893.377.385.667.856.872 1.411.204.555.305 1.176.305 1.861 0 .692-.101 1.315-.305 1.87a4.006 4.006 0 0 1-.872 1.42c-.377.391-.83.691-1.36.901-.53.21-1.117.315-1.763.315a4.813 4.813 0 0 1-1.777-.315 3.8 3.8 0 0 1-1.364-.901 4.056 4.056 0 0 1-.876-1.42c-.207-.555-.31-1.178-.31-1.87 0-.685.103-1.306.31-1.861a3.968 3.968 0 0 1 .876-1.411 3.856 3.856 0 0 1 1.364-.893 4.813 4.813 0 0 1 1.776-.314zm0 7.37c.725 0 1.262-.244 1.61-.732.349-.487.523-1.2.523-2.141 0-.941-.174-1.658-.523-2.151-.348-.493-.885-.74-1.61-.74-.737 0-1.283.248-1.637.744-.354.496-.531 1.211-.531 2.147 0 .935.177 1.647.531 2.137.354.49.9.735 1.636.735zm7.853-6.163a5.68 5.68 0 0 1 .557-.489 3.477 3.477 0 0 1 1.322-.629c.25-.06.521-.089.816-.089.476 0 .898.08 1.267.242.368.162.675.388.922.68.246.292.433.64.56 1.046.128.405.192.851.192 1.338V28h-2.1v-5.55c0-.533-.121-.945-.365-1.237-.244-.292-.615-.438-1.113-.438-.363 0-.703.082-1.02.247a3.655 3.655 0 0 0-.901.671V28h-2.1v-8.721h1.284c.272 0 .45.127.535.383l.144.688zm7.302 6.494a1.307 1.307 0 0 1 .365-.91 1.286 1.286 0 0 1 .918-.373c.182 0 .35.033.506.102.156.068.292.158.408.271.116.114.209.25.276.409.069.158.102.325.102.501a1.25 1.25 0 0 1-.378.91 1.291 1.291 0 0 1-.913.365 1.33 1.33 0 0 1-.51-.098 1.23 1.23 0 0 1-.409-.268 1.241 1.241 0 0 1-.267-.403 1.298 1.298 0 0 1-.098-.506zm9.078 0a1.307 1.307 0 0 1 .365-.91 1.286 1.286 0 0 1 .918-.373c.182 0 .35.033.506.102.156.068.292.158.408.271.116.114.209.25.276.409.069.158.102.325.102.501a1.25 1.25 0 0 1-.378.91 1.291 1.291 0 0 1-.913.365 1.33 1.33 0 0 1-.51-.098 1.23 1.23 0 0 1-.409-.268 1.241 1.241 0 0 1-.267-.403 1.298 1.298 0 0 1-.098-.506zm-4.539 0a1.307 1.307 0 0 1 .365-.91 1.286 1.286 0 0 1 .919-.373c.18 0 .35.033.505.102a1.261 1.261 0 0 1 .684.68c.069.158.103.325.103.501a1.25 1.25 0 0 1-.379.91 1.291 1.291 0 0 1-.913.365 1.33 1.33 0 0 1-.51-.098 1.23 1.23 0 0 1-.409-.268 1.241 1.241 0 0 1-.267-.403 1.298 1.298 0 0 1-.098-.506z" id="Available-soon…" fill="#FFF"/></g></g></svg>