<svg width="402" height="213" xmlns="http://www.w3.org/2000/svg" xmlns:xlink="http://www.w3.org/1999/xlink"><defs><rect id="path-1" x="0" y="0" width="312.149" height="75.32" rx="6.212"/><filter x="-9.5%" y="-36.5%" width="118.9%" height="178.3%" filterUnits="objectBoundingBox" id="filter-2"><feOffset dy="2" in="SourceAlpha" result="shadowOffsetOuter1"/><feGaussianBlur stdDeviation="9.5" in="shadowOffsetOuter1" result="shadowBlurOuter1"/><feColorMatrix values="0 0 0 0 0.123980151 0 0 0 0 0.241763968 0 0 0 0 0.726509354 0 0 0 0.154976223 0" in="shadowBlurOuter1"/></filter><linearGradient x1="109.179%" y1="0%" x2="-72.819%" y2="100%" id="linearGradient-3"><stop stop-color="#3975FB" offset="0%"/><stop stop-color="#0ACDFA" offset="100%"/></linearGradient><path d="M3.914.522C2.04.522.538 2.106.538 4.086V37.44c0 1.98 1.5 3.564 3.376 3.564h25.258c1.875 0 3.375-1.584 3.375-3.564V8.31c0-.395-.125-.66-.375-.923L25.92.917a1.315 1.315 0 0 0-.875-.395H3.915z" id="path-4"/><rect id="path-6" x="0" y="0" width="328.578" height="79.284" rx="6.539"/><filter x="-9.4%" y="-36.6%" width="118.9%" height="178.2%" filterUnits="objectBoundingBox" id="filter-7"><feOffset dy="2" in="SourceAlpha" result="shadowOffsetOuter1"/><feGaussianBlur stdDeviation="10" in="shadowOffsetOuter1" result="shadowBlurOuter1"/><feColorMatrix values="0 0 0 0 0.123980151 0 0 0 0 0.241763968 0 0 0 0 0.726509354 0 0 0 0.154976223 0" in="shadowBlurOuter1"/></filter><path d="M4.12.55C2.147.55.567 2.216.567 4.3v35.11c0 2.084 1.58 3.751 3.555 3.751h26.586c1.974 0 3.553-1.667 3.553-3.751V8.748c0-.417-.131-.695-.394-.973L27.285.966C27.022.69 26.627.55 26.363.55H4.121z" id="path-8"/><rect id="path-10" x="0" y="0" width="345.872" height="83.457" rx="6.883"/><filter x="-9.4%" y="-36.5%" width="118.8%" height="177.9%" filterUnits="objectBoundingBox" id="filter-11"><feOffset dy="2" in="SourceAlpha" result="shadowOffsetOuter1"/><feGaussianBlur stdDeviation="10.5" in="shadowOffsetOuter1" result="shadowBlurOuter1"/><feColorMatrix values="0 0 0 0 0.123980151 0 0 0 0 0.241763968 0 0 0 0 0.726509354 0 0 0 0.154976223 0" in="shadowBlurOuter1"/></filter><path d="M4.337.578C2.26.578.597 2.333.597 4.528v36.957c0 2.194 1.662 3.95 3.74 3.95h27.986c2.078 0 3.74-1.756 3.74-3.95V9.208c0-.438-.138-.731-.415-1.023l-6.927-7.168c-.277-.292-.693-.439-.97-.439H4.337z" id="path-12"/></defs><g id="Page-1" stroke="none" stroke-width="1" fill="none" fill-rule="evenodd"><g id="Controles-d'accès" transform="translate(-261 -129)"><g id="Group-6" transform="translate(281 146)"><g id="Group-4"><g id="Group-3"><g id="Group-2-Copy-2" opacity=".7" transform="translate(18.032)"><g id="Rectangle-5"><use fill="#000" filter="url(#filter-2)" xlink:href="#path-1"/><use fill="#FFF" xlink:href="#path-1"/></g><rect id="Rectangle-2" fill="#F5FAFD" x="71.11" y="27.79" width="102.987" height="6.539" rx="3.269"/><rect id="Rectangle-2-Copy" fill="#F5FAFD" x="71.11" y="43.32" width="91.544" height="5.722" rx="2.861"/><g id="Group" opacity=".4" transform="translate(221.216 24.848)"><g id="smiley" opacity=".42" transform="translate(6.296 .776)"><path d="M6.829.668a6.602 6.602 0 0 1 6.692 6.511 6.601 6.601 0 0 1-6.512 6.692A6.602 6.602 0 1 1 6.83.668z" id="Stroke-28" stroke="#717274" stroke-width="1.47"/><path d="M5.284 5.844a.712.712 0 1 1-1.424.018.712.712 0 0 1 1.424-.018" id="Fill-30" stroke="#717274" stroke-width=".544" fill="#717274"/><path d="M9.977 5.78a.712.712 0 1 1-1.424.018.712.712 0 0 1 1.424-.018" id="Fill-34" stroke="#717274" stroke-width=".544" fill="#717274"/><path d="M6.92 11.579a3.25 3.25 0 0 0 3.183-2.602c.047-.235-.107-.427-.347-.427H4.082c-.24 0-.394.192-.347.427a3.25 3.25 0 0 0 3.184 2.602" id="Fill-38" fill="#717274"/></g><path d="M53.488 8.432c-.2 0-.327.081-.423.272-.077.155-.074.204-.074.204.008.039.107.16.186.257.107.132.24.297.39.52.436.656 1.844 2.415 1.858 2.433l.015.02c.016.022 1.595 2.205 3.622 2.205h.019l.061.001c.285 0 1.287-.039 2.216-.538 1.156-.62 1.741-1.718 1.741-3.262l-.015-6.238a.325.325 0 1 0-.648 0l-.014 3.434a.715.715 0 0 1-.199.49.655.655 0 0 1-.471.189.66.66 0 0 1-.48-.194.707.707 0 0 1-.19-.499v-4.94a.308.308 0 0 0-.321-.309c-.208 0-.283.167-.283.309l-.002 5c-.034.315-.283.635-.692.635-.414 0-.66-.336-.682-.652l-.001-.031V1.96c0-.181-.121-.302-.3-.302a.29.29 0 0 0-.304.302v5.798a.683.683 0 0 1-.695.652.665.665 0 0 1-.682-.67V3.445c0-.222-.218-.246-.312-.246-.193 0-.291.083-.291.246V9.75l-.005.032a.532.532 0 0 1-.526.46c-.286 0-.516-.222-.685-.417-.917-1.056-1.407-1.3-1.412-1.303a1.048 1.048 0 0 0-.4-.091m5.653 6.794h-.089c-2.423-.006-4.174-2.357-4.325-2.566-.124-.155-1.45-1.816-1.896-2.485-.126-.19-.24-.33-.34-.453-.294-.361-.571-.703-.216-1.413.246-.49.676-.76 1.212-.76.393 0 .72.148.775.175.094.043.563.29 1.372 1.154V3.446c0-.654.493-1.129 1.173-1.129.32 0 .6.102.807.276V1.96c0-.664.52-1.185 1.185-1.185a1.17 1.17 0 0 1 1.18 1.11c.204-.183.475-.292.781-.292.675 0 1.203.523 1.203 1.192v.613a1.208 1.208 0 0 1 2.003.906l.014 6.237c0 2.36-1.2 3.5-2.206 4.041-1.11.597-2.296.643-2.633.643" id="Fill-24" fill="#FF3D4F"/><path id="Rectangle" fill="#D8D8D8" opacity=".34" d="M35.802 0h1v25.624h-1z"/><text id="Revoke" font-family="Lato-Semibold, Lato" font-size="7.765" font-weight="500" letter-spacing="-.002" fill="#FF3D4F"><tspan x="46.968" y="23.53">Revoke</tspan></text><text id="Access" opacity=".465" font-family="Lato-Semibold, Lato" font-size="7.765" font-weight="500" letter-spacing="-.002" fill="#717274"><tspan x="1.18" y="23.53">Access</tspan></text></g><g id="Group-256-Copy-2" opacity=".7" transform="translate(18.636 17.083)"><g id="Group-5"><mask id="mask-5" fill="#fff"><use xlink:href="#path-4"/></mask><use id="Fill-254" fill="url(#linearGradient-3)" xlink:href="#path-4"/><path d="M25.567.34v6.606c0 .703.545 1.266 1.225 1.266h6.399c.272 0 .545-.282.68-.422 0-.281-.135-.562-.408-.844L26.928.06a1.445 1.445 0 0 0-.953-.422.778.778 0 0 0-.408.703" id="Fill-262" fill="#4648AF" mask="url(#mask-5)"/></g><path d="M14.9 20.006v-1.724c0-1.194.909-2.123 2.076-2.123 1.168 0 2.076.929 2.076 2.123v1.724h-4.151zm5.58 0c.647 0 1.166.531 1.037 1.194v5.042c0 .663-.52 1.194-1.168 1.194h-6.875c-.648 0-1.167-.53-1.167-1.194V21.2c0-.663.519-1.194 1.167-1.194h.13v-1.724c0-1.857 1.427-3.317 3.243-3.317 1.816 0 3.243 1.46 3.243 3.317v1.724h.39zm-4.542 3.848a1.05 1.05 0 0 0 1.038 1.062 1.05 1.05 0 0 0 1.038-1.062 1.05 1.05 0 0 0-1.038-1.061 1.05 1.05 0 0 0-1.038 1.061z" id="Combined-Shape" fill="#FFF"/></g></g><g id="Group-2-Copy" transform="translate(8.568 40.438)"><g id="Rectangle-5"><use fill="#000" filter="url(#filter-7)" xlink:href="#path-6"/><use fill="#FFF" xlink:href="#path-6"/></g><rect id="Rectangle-2" fill="#F5FAFD" x="74.853" y="29.253" width="108.408" height="6.883" rx="3.442"/><rect id="Rectangle-2-Copy" fill="#F5FAFD" x="74.853" y="45.6" width="96.362" height="6.023" rx="3.011"/><g id="Group" opacity=".6" transform="translate(233.765 26.155)"><g id="smiley" opacity=".42" transform="translate(5.722 .817)"><path d="M7.188.703a6.95 6.95 0 0 1 7.044 6.854 6.949 6.949 0 0 1-6.854 7.044A6.95 6.95 0 0 1 7.188.703z" id="Stroke-28" stroke="#717274" stroke-width="1.547"/><path d="M5.563 6.151a.75.75 0 1 1-1.5.02.75.75 0 0 1 1.5-.02" id="Fill-30" stroke="#717274" stroke-width=".572" fill="#717274"/><path d="M10.503 6.084a.75.75 0 1 1-1.5.019.75.75 0 0 1 1.5-.02" id="Fill-34" stroke="#717274" stroke-width=".572" fill="#717274"/><path d="M7.283 12.188a3.421 3.421 0 0 0 3.351-2.739c.05-.247-.112-.449-.364-.449H4.297c-.252 0-.415.202-.365.45a3.421 3.421 0 0 0 3.351 2.738" id="Fill-38" fill="#717274"/></g><path d="M55.398 8.876c-.212 0-.345.086-.446.286-.081.163-.078.215-.078.215.009.04.113.168.196.27.113.14.253.313.411.549.459.689 1.94 2.54 1.955 2.56l.017.022c.016.022 1.679 2.32 3.812 2.32h.02l.064.001c.3 0 1.354-.04 2.333-.566 1.216-.653 1.832-1.81 1.832-3.434L65.5 4.533a.342.342 0 1 0-.683 0l-.014 3.614a.752.752 0 0 1-.21.515.69.69 0 0 1-.496.2.695.695 0 0 1-.504-.205.744.744 0 0 1-.201-.524v-5.2a.324.324 0 0 0-.338-.326c-.219 0-.297.176-.297.326l-.003 5.262c-.036.333-.297.67-.728.67-.436 0-.695-.355-.718-.687l-.001-.033V2.064c0-.19-.128-.318-.317-.318a.305.305 0 0 0-.318.318v6.104a.72.72 0 0 1-.733.686.7.7 0 0 1-.717-.707v-4.52c0-.233-.23-.259-.329-.259-.203 0-.306.088-.306.26v6.636l-.005.034a.56.56 0 0 1-.554.484c-.301 0-.543-.234-.72-.438-.967-1.113-1.482-1.37-1.487-1.373a1.104 1.104 0 0 0-.422-.095m5.951 7.152l-.093-.001c-2.551-.006-4.394-2.48-4.553-2.7-.13-.164-1.527-1.913-1.996-2.616a5.579 5.579 0 0 0-.358-.478c-.31-.38-.601-.74-.227-1.486.258-.516.711-.8 1.276-.8.413 0 .757.155.816.183.098.046.592.306 1.443 1.215V3.627c0-.688.52-1.188 1.235-1.188.337 0 .631.107.85.29v-.665c0-.699.548-1.247 1.247-1.247a1.23 1.23 0 0 1 1.243 1.168c.214-.193.5-.307.821-.307.71 0 1.266.55 1.266 1.255v.645a1.271 1.271 0 0 1 2.108.954l.016 6.565c0 2.485-1.263 3.685-2.322 4.254-1.17.628-2.417.677-2.772.677" id="Fill-24" fill="#FF3D4F"/><path id="Rectangle" fill="#D8D8D8" opacity=".34" d="M36.781 0h1v26.973h-1z"/><text id="Revoke" font-family="Lato-Semibold, Lato" font-size="8.174" font-weight="500" letter-spacing="-.002" fill="#FF3D4F"><tspan x="48.534" y="24.347">Revoke</tspan></text><text id="Access" opacity=".465" font-family="Lato-Semibold, Lato" font-size="8.174" font-weight="500" letter-spacing="-.002" fill="#717274"><tspan x=".337" y="24.347">Access</tspan></text></g><g id="Group-256-Copy-2" opacity=".7" transform="translate(19.617 17.982)"><g id="Group-5"><mask id="mask-9" fill="#fff"><use xlink:href="#path-8"/></mask><use id="Fill-254" fill="url(#linearGradient-3)" xlink:href="#path-8"/><path d="M26.913.358v6.954c0 .74.573 1.332 1.29 1.332h6.735c.286 0 .573-.296.716-.444 0-.296-.143-.592-.43-.888L28.346.062a1.521 1.521 0 0 0-1.004-.444.82.82 0 0 0-.43.74" id="Fill-262" fill="#4648AF" mask="url(#mask-9)"/></g><path d="M15.685 21.06v-1.816c0-1.257.956-2.235 2.185-2.235 1.23 0 2.185.978 2.185 2.235v1.815h-4.37zm5.872 0c.682 0 1.229.558 1.092 1.256v5.307c0 .698-.546 1.257-1.229 1.257h-7.237a1.238 1.238 0 0 1-1.229-1.257v-5.307c0-.698.547-1.257 1.229-1.257h.137v-1.815c0-1.955 1.502-3.491 3.414-3.491 1.911 0 3.413 1.536 3.413 3.491v1.815h.41zm-4.78 4.05c0 .616.49 1.117 1.093 1.117s1.093-.5 1.093-1.117c0-.618-.49-1.118-1.093-1.118s-1.093.5-1.093 1.118z" id="Combined-Shape" fill="#FFF"/></g></g><g id="Group-2" transform="translate(.825 85.177)"><g id="Rectangle-5"><use fill="#000" filter="url(#filter-11)" xlink:href="#path-10"/><use fill="#FFF" xlink:href="#path-10"/></g><rect id="Rectangle-2" fill="#F5FAFD" x="76.574" y="30.974" width="112.709" height="6.883" rx="3.442"/><rect id="Rectangle-2-Copy" fill="#F5FAFD" x="76.574" y="48.181" width="99.804" height="6.023" rx="3.011"/><g id="Group" transform="translate(246.068 27.532)"><g id="smiley" opacity=".42" transform="translate(6.023 .86)"><path d="M7.567.74a7.315 7.315 0 0 1 7.414 7.215 7.315 7.315 0 0 1-7.215 7.415 7.316 7.316 0 0 1-.2-14.63z" id="Stroke-28" stroke="#717274" stroke-width="1.629"/><path d="M5.855 6.475a.79.79 0 1 1-1.578.02.79.79 0 0 1 1.578-.02" id="Fill-30" stroke="#717274" stroke-width=".602" fill="#717274"/><path d="M11.055 6.404a.79.79 0 1 1-1.578.02.79.79 0 0 1 1.578-.02" id="Fill-34" stroke="#717274" stroke-width=".602" fill="#717274"/><path d="M7.667 12.83a3.602 3.602 0 0 0 3.527-2.884c.053-.26-.119-.472-.384-.472H4.523c-.265 0-.436.213-.384.472a3.602 3.602 0 0 0 3.528 2.884" id="Fill-38" fill="#717274"/></g><path d="M58.314 9.343c-.223 0-.364.09-.47.301-.085.172-.082.226-.082.226.01.043.119.177.207.285.118.146.266.329.432.577.483.726 2.043 2.675 2.058 2.695l.018.023c.017.024 1.767 2.443 4.012 2.443h.089c.316 0 1.426-.042 2.455-.595 1.28-.688 1.93-1.905 1.93-3.615l-.017-6.911a.36.36 0 1 0-.718-.001l-.016 3.805a.792.792 0 0 1-.22.542.725.725 0 0 1-.522.21.732.732 0 0 1-.531-.215.784.784 0 0 1-.212-.552V3.087a.342.342 0 0 0-.355-.342c-.23 0-.313.185-.313.342l-.003 5.54c-.038.35-.313.704-.767.704-.458 0-.73-.373-.756-.723V2.172c0-.2-.135-.334-.334-.334a.32.32 0 0 0-.335.334v6.426a.757.757 0 0 1-.771.722.736.736 0 0 1-.755-.744V3.818c0-.246-.242-.272-.346-.272-.215 0-.323.092-.323.272v6.987l-.005.035a.589.589 0 0 1-.583.51c-.317 0-.572-.247-.758-.462-1.017-1.17-1.56-1.442-1.565-1.444a1.162 1.162 0 0 0-.444-.101m6.264 7.528h-.098c-2.685-.007-4.626-2.612-4.792-2.843-.138-.172-1.608-2.013-2.101-2.754-.14-.21-.266-.365-.377-.502-.326-.4-.634-.779-.24-1.565.272-.543.749-.842 1.344-.842.435 0 .796.163.858.193.104.048.624.322 1.52 1.279V3.818c0-.724.546-1.25 1.3-1.25.354 0 .664.112.894.305v-.7A1.3 1.3 0 0 1 64.199.86c.708 0 1.267.534 1.308 1.23a1.28 1.28 0 0 1 .865-.324c.748 0 1.333.58 1.333 1.321v.679a1.338 1.338 0 0 1 2.218 1.004l.017 6.911c0 2.616-1.33 3.879-2.445 4.478-1.23.661-2.544.712-2.917.712" id="Fill-24" fill="#FF3D4F"/><path id="Rectangle" fill="#D8D8D8" opacity=".34" d="M38.717 0h1v28.392h-1z"/><text id="Revoke" font-family="Lato-Semibold, Lato" font-size="8.604" font-weight="500" letter-spacing="-.002" fill="#FF3D4F"><tspan x="51.089" y="25.208">Revoke</tspan></text><path d="M4.368 22.885l-.852-2.263a6.265 6.265 0 0 1-.21-.667 4.404 4.404 0 0 1-.104.372 9.566 9.566 0 0 1-.103.299l-.852 2.259h2.121zm1.906 2.323h-.779a.33.33 0 0 1-.215-.067.433.433 0 0 1-.125-.166l-.516-1.368H1.972l-.516 1.368a.412.412 0 0 1-.12.16.32.32 0 0 1-.216.073H.341l2.457-6.195h1.02l2.456 6.195zm3.534-3.528a.478.478 0 0 1-.082.086.18.18 0 0 1-.112.03.282.282 0 0 1-.152-.051 3.842 3.842 0 0 0-.19-.114 1.24 1.24 0 0 0-.652-.166c-.2 0-.376.036-.526.107-.15.072-.277.175-.379.308a1.363 1.363 0 0 0-.228.486 2.53 2.53 0 0 0-.075.643c0 .247.027.466.082.658.054.193.132.355.234.487a1 1 0 0 0 .37.3c.145.07.308.104.488.104.178 0 .323-.022.435-.065.112-.043.205-.09.28-.142.074-.051.138-.098.19-.141a.265.265 0 0 1 .17-.065.2.2 0 0 1 .173.086l.262.34a1.72 1.72 0 0 1-.353.327 2 2 0 0 1-.408.217 2.146 2.146 0 0 1-.448.12 3.011 3.011 0 0 1-.469.037c-.272 0-.527-.05-.763-.153a1.783 1.783 0 0 1-.62-.443 2.113 2.113 0 0 1-.417-.71 2.787 2.787 0 0 1-.153-.957c0-.324.046-.624.138-.901.092-.277.226-.515.402-.716.177-.201.395-.358.656-.471a2.24 2.24 0 0 1 .904-.17c.318 0 .598.051.84.155.243.103.459.25.648.438l-.245.336zm4.05 0a.478.478 0 0 1-.081.086.18.18 0 0 1-.112.03.282.282 0 0 1-.153-.051 3.842 3.842 0 0 0-.19-.114 1.24 1.24 0 0 0-.652-.166c-.2 0-.375.036-.526.107-.15.072-.277.175-.379.308a1.363 1.363 0 0 0-.228.486 2.53 2.53 0 0 0-.075.643c0 .247.027.466.082.658.054.193.133.355.234.487.102.132.226.232.37.3.145.07.308.104.489.104.177 0 .322-.022.434-.065.112-.043.205-.09.28-.142a3.1 3.1 0 0 0 .191-.141.265.265 0 0 1 .17-.065c.075 0 .132.029.172.086l.263.34a1.72 1.72 0 0 1-.353.327c-.13.089-.265.161-.409.217a2.146 2.146 0 0 1-.447.12 3.011 3.011 0 0 1-.47.037c-.272 0-.526-.05-.763-.153a1.783 1.783 0 0 1-.62-.443 2.113 2.113 0 0 1-.417-.71 2.787 2.787 0 0 1-.152-.957c0-.324.046-.624.137-.901a2.04 2.04 0 0 1 .403-.716c.176-.201.395-.358.656-.471.26-.114.562-.17.903-.17.318 0 .599.051.841.155.242.103.458.25.648.438l-.246.336zm3.827.839a1.36 1.36 0 0 0-.067-.432 1.012 1.012 0 0 0-.195-.349.893.893 0 0 0-.32-.232 1.09 1.09 0 0 0-.442-.084c-.335 0-.6.096-.791.288-.192.192-.314.462-.366.809h2.181zm-2.207.568c.012.25.05.465.116.647s.154.334.265.454c.11.12.242.21.396.269.153.059.324.088.514.088.18 0 .337-.02.469-.062.132-.042.246-.088.344-.138.097-.05.18-.096.25-.138a.373.373 0 0 1 .189-.062c.074 0 .132.029.172.086l.262.34a1.662 1.662 0 0 1-.37.327 2.156 2.156 0 0 1-.439.217 2.479 2.479 0 0 1-.477.12 3.236 3.236 0 0 1-.478.037 2.27 2.27 0 0 1-.845-.153 1.88 1.88 0 0 1-.675-.45 2.075 2.075 0 0 1-.448-.735 2.92 2.92 0 0 1-.161-1.01c0-.305.048-.589.144-.853a1.939 1.939 0 0 1 1.067-1.15c.257-.114.547-.17.871-.17.27 0 .52.044.749.131.229.087.427.216.593.385.167.17.296.376.39.622.093.245.14.524.14.836 0 .144-.016.24-.048.289-.032.048-.089.073-.172.073h-2.818zm6.516-1.472a.23.23 0 0 1-.078.087.206.206 0 0 1-.107.025.346.346 0 0 1-.16-.045 6.608 6.608 0 0 0-.202-.1 1.745 1.745 0 0 0-.273-.102 1.337 1.337 0 0 0-.368-.045 1.11 1.11 0 0 0-.312.04.702.702 0 0 0-.236.117.525.525 0 0 0-.149.176.47.47 0 0 0-.051.217c0 .104.031.19.094.259a.82.82 0 0 0 .25.178c.103.05.22.095.353.136.132.04.266.083.404.129s.272.099.404.159.25.134.353.221c.103.088.187.194.25.319a.997.997 0 0 1 .094.454c0 .206-.037.397-.112.572a1.285 1.285 0 0 1-.326.456c-.144.129-.322.23-.536.3a2.302 2.302 0 0 1-.734.108c-.152 0-.299-.013-.44-.04a2.536 2.536 0 0 1-.405-.112 2.155 2.155 0 0 1-.357-.17 1.88 1.88 0 0 1-.295-.215l.215-.353a.298.298 0 0 1 .097-.101.266.266 0 0 1 .144-.037c.06 0 .12.02.179.058.059.039.128.081.206.127a1.29 1.29 0 0 0 .703.185c.138 0 .257-.016.358-.05a.715.715 0 0 0 .25-.135.544.544 0 0 0 .193-.43.401.401 0 0 0-.095-.275.802.802 0 0 0-.251-.185 2.322 2.322 0 0 0-.357-.138c-.134-.04-.27-.083-.407-.129a4.26 4.26 0 0 1-.406-.16 1.398 1.398 0 0 1-.358-.23 1.05 1.05 0 0 1-.251-.34 1.136 1.136 0 0 1-.095-.487 1.213 1.213 0 0 1 .415-.917c.137-.12.304-.216.504-.286.199-.07.43-.105.69-.105.295 0 .564.047.804.142.241.094.444.223.607.387l-.206.335zm3.753 0a.23.23 0 0 1-.077.087.206.206 0 0 1-.108.025.346.346 0 0 1-.159-.045 6.608 6.608 0 0 0-.202-.1 1.745 1.745 0 0 0-.273-.102 1.337 1.337 0 0 0-.368-.045 1.11 1.11 0 0 0-.312.04.702.702 0 0 0-.237.117.525.525 0 0 0-.148.176.47.47 0 0 0-.052.217c0 .104.032.19.095.259a.82.82 0 0 0 .25.178c.103.05.22.095.352.136.132.04.267.083.405.129.137.046.272.099.404.159s.25.134.353.221c.103.088.186.194.25.319a.997.997 0 0 1 .094.454c0 .206-.037.397-.112.572a1.285 1.285 0 0 1-.327.456c-.143.129-.322.23-.536.3a2.302 2.302 0 0 1-.733.108c-.152 0-.299-.013-.44-.04a2.536 2.536 0 0 1-.405-.112 2.155 2.155 0 0 1-.357-.17 1.88 1.88 0 0 1-.295-.215l.215-.353a.298.298 0 0 1 .097-.101.266.266 0 0 1 .144-.037c.06 0 .12.02.178.058.06.039.128.081.207.127a1.29 1.29 0 0 0 .703.185c.138 0 .257-.016.357-.05a.715.715 0 0 0 .25-.135.544.544 0 0 0 .193-.43.401.401 0 0 0-.094-.275.802.802 0 0 0-.252-.185 2.322 2.322 0 0 0-.357-.138c-.133-.04-.269-.083-.406-.129a4.26 4.26 0 0 1-.407-.16 1.398 1.398 0 0 1-.357-.23 1.05 1.05 0 0 1-.252-.34 1.136 1.136 0 0 1-.094-.487 1.213 1.213 0 0 1 .415-.917c.136-.12.304-.216.503-.286.2-.07.43-.105.69-.105.296 0 .564.047.805.142.241.094.443.223.607.387l-.207.335z" id="Access" fill="#717274" opacity=".465"/></g><g id="Group-256-Copy-2" transform="translate(20.65 18.928)"><g id="Group-5"><mask id="mask-13" fill="#fff"><use xlink:href="#path-12"/></mask><use id="Fill-254" fill="url(#linearGradient-3)" xlink:href="#path-12"/><path d="M28.33.377v7.32c0 .779.603 1.402 1.356 1.402h7.09c.302 0 .604-.312.755-.467 0-.312-.15-.623-.453-.935L29.838.066c-.302-.312-.754-.468-1.056-.468a.862.862 0 0 0-.453.78" id="Fill-262" fill="#4648AF" mask="url(#mask-13)"/></g><path d="M16.51 22.168v-1.911c0-1.323 1.007-2.352 2.3-2.352 1.294 0 2.3 1.029 2.3 2.352v1.91h-4.6zm6.182 0c.718 0 1.293.588 1.15 1.323v5.586c0 .735-.576 1.323-1.294 1.323H14.93c-.719 0-1.294-.588-1.294-1.323V23.49c0-.735.575-1.323 1.294-1.323h.143v-1.911c0-2.058 1.582-3.675 3.594-3.675 2.012 0 3.593 1.617 3.593 3.675v1.91h.432zM17.66 26.43c0 .65.516 1.176 1.15 1.176.635 0 1.15-.527 1.15-1.176 0-.65-.515-1.176-1.15-1.176-.634 0-1.15.526-1.15 1.176z" id="Combined-Shape" fill="#FFF"/></g></g><circle id="Oval" stroke="#FF7A7A" stroke-width="4.302" fill="#FF5353" cx="332.07" cy="146.264" r="47.321"/><path d="M323.845 139.187c-.306 0-.499.127-.644.421-.118.24-.114.316-.114.316.013.06.163.248.284.398.163.204.366.46.594.807.663 1.013 2.806 3.737 2.827 3.765l.024.032c.023.033 2.427 3.413 5.511 3.413h.028l.094.001c.434 0 1.958-.06 3.372-.833 1.759-.96 2.65-2.66 2.65-5.05l-.023-9.656a.499.499 0 0 0-.492-.504.498.498 0 0 0-.494.502l-.022 5.317c0 .1-.02.47-.302.758a.988.988 0 0 1-.717.293.997.997 0 0 1-.73-.3 1.107 1.107 0 0 1-.29-.772v-7.648a.473.473 0 0 0-.488-.479c-.317 0-.43.259-.43.479l-.004 7.739c-.052.49-.43.984-1.053.984-.63 0-1.004-.52-1.039-1.01v-8.99c0-.28-.185-.468-.458-.468-.27 0-.461.193-.461.468v8.977c-.024.49-.404 1.009-1.059 1.009-.671 0-1.035-.536-1.037-1.039v-6.647c0-.344-.332-.381-.475-.381-.295 0-.444.128-.444.38v9.762l-.007.049a.814.814 0 0 1-.8.712c-.436 0-.785-.344-1.042-.645-1.397-1.636-2.142-2.014-2.15-2.018a1.574 1.574 0 0 0-.61-.14m8.605 10.518c-.068 0-.112 0-.135-.002-3.688-.008-6.353-3.648-6.582-3.971-.19-.24-2.209-2.812-2.886-3.847-.191-.293-.365-.51-.517-.702-.448-.559-.87-1.088-.329-2.187.374-.758 1.028-1.175 1.845-1.175a2.9 2.9 0 0 1 1.18.269c.142.067.856.45 2.086 1.786v-8.408c0-1.013.75-1.748 1.786-1.748.486 0 .912.157 1.229.427v-.979c0-1.028.791-1.833 1.803-1.833.971 0 1.74.745 1.796 1.718.31-.284.722-.452 1.188-.452 1.027 0 1.83.81 1.83 1.845v.948a1.81 1.81 0 0 1 1.211-.465c1.013 0 1.837.838 1.837 1.868l.022 9.657c0 3.654-1.826 5.419-3.357 6.255-1.69.925-3.494.996-4.007.996" id="Fill-24" fill="#FFF"/><path d="M317.06 157.189c.321 0 .602-.04.843-.118a1.7 1.7 0 0 0 .602-.328c.16-.14.281-.308.362-.503.08-.195.12-.41.12-.647 0-.474-.157-.835-.47-1.084-.313-.25-.787-.374-1.421-.374h-1.144v3.054h1.108zm4.083 4.517h-1.259c-.249 0-.43-.097-.542-.29l-2.023-2.92a.667.667 0 0 0-.223-.217c-.08-.044-.2-.066-.361-.066h-.783v3.493h-1.41v-8.673h2.554c.57 0 1.06.058 1.472.175.412.116.75.282 1.015.497.265.214.461.472.587.773.127.302.19.637.19 1.006 0 .301-.045.582-.135.843-.09.261-.221.498-.392.711a2.47 2.47 0 0 1-.63.554 3.194 3.194 0 0 1-.848.368c.172.104.32.25.445.44l2.343 3.306zm4.436-3.764c0-.217-.031-.42-.093-.606a1.417 1.417 0 0 0-.274-.488 1.25 1.25 0 0 0-.449-.325 1.525 1.525 0 0 0-.617-.117c-.47 0-.84.134-1.109.403-.269.27-.44.647-.511 1.133h3.053zm-3.09.794c.016.35.07.652.163.907.092.255.216.467.37.635.155.169.34.294.555.377a2 2 0 0 0 .72.123c.252 0 .471-.029.656-.087.184-.058.345-.123.482-.193.136-.07.252-.134.349-.193a.522.522 0 0 1 .265-.087c.104 0 .185.04.24.12l.368.476a2.33 2.33 0 0 1-.518.458 3.018 3.018 0 0 1-.614.304 3.47 3.47 0 0 1-.669.169 4.53 4.53 0 0 1-.668.051c-.426 0-.82-.071-1.184-.214a2.632 2.632 0 0 1-.945-.63 2.906 2.906 0 0 1-.627-1.029c-.15-.41-.225-.881-.225-1.415 0-.426.067-.823.201-1.193.135-.37.328-.69.579-.963a2.7 2.7 0 0 1 .915-.648 2.99 2.99 0 0 1 1.22-.238c.377 0 .726.061 1.048.184.32.122.598.302.83.539.234.237.415.527.546.87.13.343.195.734.195 1.172 0 .2-.022.335-.066.403-.044.068-.124.102-.24.102h-3.946zm10.718-3.173l-2.47 6.143h-1.168l-2.469-6.143h1.066c.1 0 .184.025.25.075.066.05.11.11.13.178l1.36 3.577a8.057 8.057 0 0 1 .266 1c.032-.169.07-.335.117-.497.046-.163.097-.33.154-.503l1.385-3.577a.368.368 0 0 1 .132-.181.38.38 0 0 1 .235-.072h1.012zm3.358-.097c.454 0 .864.074 1.231.223.368.149.681.36.94.632.259.273.459.605.6.994.14.39.21.827.21 1.313s-.07.924-.21 1.313c-.141.39-.341.722-.6.997a2.622 2.622 0 0 1-.94.635 3.259 3.259 0 0 1-1.231.223 3.27 3.27 0 0 1-1.238-.223 2.651 2.651 0 0 1-.942-.635 2.815 2.815 0 0 1-.603-.997 3.85 3.85 0 0 1-.21-1.313c0-.486.07-.923.21-1.313.14-.39.342-.72.603-.994a2.67 2.67 0 0 1 .942-.632 3.27 3.27 0 0 1 1.238-.223zm0 5.318c.554 0 .966-.185 1.238-.557.27-.371.406-.902.406-1.593 0-.69-.135-1.223-.406-1.599-.272-.375-.684-.563-1.238-.563-.562 0-.98.188-1.253.563-.273.376-.41.909-.41 1.6 0 .69.137 1.22.41 1.592.273.371.69.557 1.253.557zm5.514-7.992v5.168h.277c.088 0 .16-.012.217-.037a.48.48 0 0 0 .174-.15l1.723-1.97c.06-.08.126-.14.199-.18a.566.566 0 0 1 .277-.06h1.174l-2.072 2.336c-.12.157-.253.281-.397.374.08.056.15.12.21.19s.119.149.175.237l2.21 3.006h-1.156a.638.638 0 0 1-.268-.052.463.463 0 0 1-.196-.19l-1.776-2.408a.454.454 0 0 0-.18-.178.716.716 0 0 0-.272-.04h-.32v2.868h-1.294v-8.914h1.295zm8.694 5.15c0-.217-.031-.42-.094-.606a1.417 1.417 0 0 0-.274-.488 1.25 1.25 0 0 0-.448-.325 1.525 1.525 0 0 0-.618-.117c-.47 0-.839.134-1.108.403-.269.27-.44.647-.512 1.133h3.054zm-3.09.794c.016.35.07.652.163.907.092.255.216.467.37.635.155.169.34.294.554.377.215.082.455.123.72.123.253 0 .472-.029.656-.087.185-.058.346-.123.482-.193a5.47 5.47 0 0 0 .35-.193.522.522 0 0 1 .265-.087c.104 0 .184.04.24.12l.368.476a2.33 2.33 0 0 1-.518.458 3.018 3.018 0 0 1-.614.304 3.47 3.47 0 0 1-.669.169 4.53 4.53 0 0 1-.668.051c-.426 0-.82-.071-1.184-.214a2.632 2.632 0 0 1-.945-.63 2.906 2.906 0 0 1-.627-1.029 4.102 4.102 0 0 1-.226-1.415c0-.426.068-.823.202-1.193a2.715 2.715 0 0 1 1.494-1.611 2.99 2.99 0 0 1 1.22-.238c.377 0 .726.061 1.047.184.321.122.598.302.831.539.233.237.415.527.545.87.13.343.196.734.196 1.172 0 .2-.022.335-.066.403-.044.068-.125.102-.241.102h-3.945z" id="Revoke" fill="#FFF"/></g></g></g></g></g></svg>