<svg width="464" height="241" xmlns="http://www.w3.org/2000/svg" xmlns:xlink="http://www.w3.org/1999/xlink"><defs><linearGradient x1="20.573%" y1="-4.83%" x2="86.747%" y2="107.679%" id="linearGradient-1"><stop stop-color="#3975FB" offset="0%"/><stop stop-color="#0ACDFA" offset="100%"/></linearGradient><rect id="path-2" x="0" y="0" width="348.293" height="84.041" rx="6.931"/><filter x="-9.3%" y="-36.3%" width="118.7%" height="177.3%" filterUnits="objectBoundingBox" id="filter-3"><feOffset dy="2" in="SourceAlpha" result="shadowOffsetOuter1"/><feGaussianBlur stdDeviation="10.5" in="shadowOffsetOuter1" result="shadowBlurOuter1"/><feColorMatrix values="0 0 0 0 0.123980151 0 0 0 0 0.241763968 0 0 0 0 0.726509354 0 0 0 0.154976223 0" in="shadowBlurOuter1"/></filter><linearGradient x1="109.179%" y1="0%" x2="-72.819%" y2="100%" id="linearGradient-4"><stop stop-color="#3975FB" offset="0%"/><stop stop-color="#0ACDFA" offset="100%"/></linearGradient><path d="M4.368.582C2.275.582.6 2.35.6 4.56v37.216c0 2.21 1.675 3.977 3.768 3.977h28.181c2.093 0 3.766-1.768 3.766-3.977V9.273c0-.442-.139-.737-.417-1.031l-6.976-7.218c-.28-.294-.698-.442-.977-.442H4.368z" id="path-5"/><rect id="path-7" x="0" y="0" width="366.624" height="88.464" rx="7.296"/><filter x="-9.3%" y="-36.2%" width="118.5%" height="176.9%" filterUnits="objectBoundingBox" id="filter-8"><feOffset dy="2" in="SourceAlpha" result="shadowOffsetOuter1"/><feGaussianBlur stdDeviation="11" in="shadowOffsetOuter1" result="shadowBlurOuter1"/><feColorMatrix values="0 0 0 0 0.123980151 0 0 0 0 0.241763968 0 0 0 0 0.726509354 0 0 0 0.154976223 0" in="shadowBlurOuter1"/></filter><path d="M4.598.613C2.395.613.632 2.473.632 4.799v39.175c0 2.325 1.763 4.186 3.966 4.186h29.664c2.203 0 3.965-1.86 3.965-4.186V9.761c0-.465-.147-.776-.44-1.085l-7.343-7.598c-.294-.31-.734-.465-1.028-.465H4.598z" id="path-9"/><rect id="path-11" x="0" y="0" width="385.92" height="93.12" rx="7.68"/><filter x="-9.2%" y="-36%" width="118.4%" height="176.2%" filterUnits="objectBoundingBox" id="filter-12"><feOffset dy="2" in="SourceAlpha" result="shadowOffsetOuter1"/><feGaussianBlur stdDeviation="11.5" in="shadowOffsetOuter1" result="shadowBlurOuter1"/><feColorMatrix values="0 0 0 0 0.123980151 0 0 0 0 0.241763968 0 0 0 0 0.726509354 0 0 0 0.154976223 0" in="shadowBlurOuter1"/></filter><path d="M4.84.645C2.52.645.665 2.603.665 5.052v41.236c0 2.448 1.856 4.407 4.175 4.407h31.226c2.319 0 4.173-1.959 4.173-4.407V10.275c0-.49-.154-.817-.463-1.143l-7.73-7.997c-.309-.326-.772-.49-1.082-.49H4.84z" id="path-13"/></defs><g id="Page-1" stroke="none" stroke-width="1" fill="none" fill-rule="evenodd"><g id="Artboard-Copy-24" transform="translate(-75 -193)"><g id="Group-6" transform="translate(75 212)"><path d="M0 48h5v5H0v-5zm0 13h5v5H0v-5zm0 13h5v5H0v-5zm0 13h5v5H0v-5zm0 13h5v5H0v-5zm0 13h5v5H0v-5zm0 13h5v5H0v-5zm13-78h5v5h-5v-5zm0 13h5v5h-5v-5zm0 13h5v5h-5v-5zm0 13h5v5h-5v-5zm0 13h5v5h-5v-5zm0 13h5v5h-5v-5zm0 13h5v5h-5v-5zm13-78h5v5h-5v-5zm0 13h5v5h-5v-5zm0 13h5v5h-5v-5zm0 13h5v5h-5v-5zm0 13h5v5h-5v-5zm0 13h5v5h-5v-5zm0 13h5v5h-5v-5zm13-78h5v5h-5v-5zm0 13h5v5h-5v-5zm0 13h5v5h-5v-5zm0 13h5v5h-5v-5zm0 13h5v5h-5v-5zm0 13h5v5h-5v-5zm0 13h5v5h-5v-5zm13-78h5v5h-5v-5zm13 0h5v5h-5v-5zm13 0h5v5h-5v-5zM52 61h5v5h-5v-5zm13 0h5v5h-5v-5zm13 0h5v5h-5v-5zM52 74h5v5h-5v-5zm13 0h5v5h-5v-5zm13 0h5v5h-5v-5zM52 87h5v5h-5v-5zm13 0h5v5h-5v-5zm13 0h5v5h-5v-5zm-26 13h5v5h-5v-5zm13 0h5v5h-5v-5zm13 0h5v5h-5v-5zm-26 13h5v5h-5v-5zm13 0h5v5h-5v-5zm13 0h5v5h-5v-5zm-26 13h5v5h-5v-5zm13 0h5v5h-5v-5zm13 0h5v5h-5v-5zm13-78h5v5h-5v-5zm0 13h5v5h-5v-5zm0 13h5v5h-5v-5zm0 13h5v5h-5v-5zm0 13h5v5h-5v-5zm0 13h5v5h-5v-5zm0 13h5v5h-5v-5zm13-78h5v5h-5v-5zm0 13h5v5h-5v-5zm0 13h5v5h-5v-5zm0 13h5v5h-5v-5zm0 13h5v5h-5v-5zm0 13h5v5h-5v-5zm0 13h5v5h-5v-5zm13-78h5v5h-5v-5zm0 13h5v5h-5v-5zm0 13h5v5h-5v-5zm0 13h5v5h-5v-5zm0 13h5v5h-5v-5zm0 13h5v5h-5v-5zm0 13h5v5h-5v-5zm13-78h5v5h-5v-5zm0 13h5v5h-5v-5zm0 13h5v5h-5v-5zm0 13h5v5h-5v-5zm0 13h5v5h-5v-5zm0 13h5v5h-5v-5zm0 13h5v5h-5v-5zm13-78h5v5h-5v-5zm13 0h5v5h-5v-5zm13 0h5v5h-5v-5zm-26 13h5v5h-5v-5zm13 0h5v5h-5v-5zm13 0h5v5h-5v-5zm-26 13h5v5h-5v-5zm13 0h5v5h-5v-5zm13 0h5v5h-5v-5zm-26 13h5v5h-5v-5zm13 0h5v5h-5v-5zm13 0h5v5h-5v-5zm-26 13h5v5h-5v-5zm13 0h5v5h-5v-5zm13 0h5v5h-5v-5zm-26 13h5v5h-5v-5zm13 0h5v5h-5v-5zm13 0h5v5h-5v-5zm-26 13h5v5h-5v-5zm13 0h5v5h-5v-5zm13 0h5v5h-5v-5zm-78 13h5v5h-5v-5zm0 13h5v5h-5v-5zm0 13h5v5h-5v-5zm0 13h5v5h-5v-5zm0 13h5v5h-5v-5zm0 13h5v5h-5v-5zm0 13h5v5h-5v-5zm13-78h5v5h-5v-5zm0 13h5v5h-5v-5zm0 13h5v5h-5v-5zm0 13h5v5h-5v-5zm0 13h5v5h-5v-5zm0 13h5v5h-5v-5zm0 13h5v5h-5v-5zm13-78h5v5h-5v-5zm0 13h5v5h-5v-5zm0 13h5v5h-5v-5zm0 13h5v5h-5v-5zm0 13h5v5h-5v-5zm0 13h5v5h-5v-5zm0 13h5v5h-5v-5zm13-78h5v5h-5v-5zm0 13h5v5h-5v-5zm0 13h5v5h-5v-5zm0 13h5v5h-5v-5zm0 13h5v5h-5v-5zm0 13h5v5h-5v-5zm0 13h5v5h-5v-5zm13-78h5v5h-5v-5zm13 0h5v5h-5v-5zm13 0h5v5h-5v-5zm-26 13h5v5h-5v-5zm13 0h5v5h-5v-5zm13 0h5v5h-5v-5zm-26 13h5v5h-5v-5zm13 0h5v5h-5v-5zm13 0h5v5h-5v-5zm-26 13h5v5h-5v-5zm13 0h5v5h-5v-5zm13 0h5v5h-5v-5zm-26 13h5v5h-5v-5zm13 0h5v5h-5v-5zm13 0h5v5h-5v-5zm-26 13h5v5h-5v-5zm13 0h5v5h-5v-5zm13 0h5v5h-5v-5zm-26 13h5v5h-5v-5zm13 0h5v5h-5v-5zm13 0h5v5h-5v-5zM0 139h5v5H0v-5zm0 13h5v5H0v-5zm0 13h5v5H0v-5zm0 13h5v5H0v-5zm0 13h5v5H0v-5zm0 13h5v5H0v-5zm0 13h5v5H0v-5zm13-78h5v5h-5v-5zm0 13h5v5h-5v-5zm0 13h5v5h-5v-5zm0 13h5v5h-5v-5zm0 13h5v5h-5v-5zm0 13h5v5h-5v-5zm0 13h5v5h-5v-5zm13-78h5v5h-5v-5zm0 13h5v5h-5v-5zm0 13h5v5h-5v-5zm0 13h5v5h-5v-5zm0 13h5v5h-5v-5zm0 13h5v5h-5v-5zm0 13h5v5h-5v-5zm13-78h5v5h-5v-5zm0 13h5v5h-5v-5zm0 13h5v5h-5v-5zm0 13h5v5h-5v-5zm0 13h5v5h-5v-5zm0 13h5v5h-5v-5zm0 13h5v5h-5v-5zm13-78h5v5h-5v-5zm13 0h5v5h-5v-5zm13 0h5v5h-5v-5zm-26 13h5v5h-5v-5zm13 0h5v5h-5v-5zm13 0h5v5h-5v-5zm-26 13h5v5h-5v-5zm13 0h5v5h-5v-5zm13 0h5v5h-5v-5zm-26 13h5v5h-5v-5zm13 0h5v5h-5v-5zm13 0h5v5h-5v-5zm-26 13h5v5h-5v-5zm13 0h5v5h-5v-5zm13 0h5v5h-5v-5zm-26 13h5v5h-5v-5zm13 0h5v5h-5v-5zm13 0h5v5h-5v-5zm-26 13h5v5h-5v-5zm13 0h5v5h-5v-5zm13 0h5v5h-5v-5z" id="Combined-Shape" fill="url(#linearGradient-1)" opacity=".298"/><g id="Group-4" transform="translate(38)"><g id="Group-3"><g id="Group-2-Copy-2" opacity=".7" transform="translate(20.12)"><g id="Rectangle-5"><use fill="#000" filter="url(#filter-3)" xlink:href="#path-2"/><use fill="#FFF" xlink:href="#path-2"/></g><rect id="Rectangle-2" fill="#F5FAFD" x="79.344" y="31.008" width="114.912" height="7.296" rx="3.648"/><rect id="Rectangle-2-Copy" fill="#F5FAFD" x="79.344" y="48.336" width="102.144" height="6.384" rx="3.192"/><g id="Group" opacity=".4" transform="translate(246.83 27.725)"><g id="smiley" opacity=".42" transform="translate(7.025 .866)"><path d="M7.62.745a7.366 7.366 0 0 1 7.466 7.266 7.366 7.366 0 0 1-7.265 7.466A7.367 7.367 0 0 1 7.62.745z" id="Stroke-28" stroke="#717274" stroke-width="1.64"/><path d="M5.896 6.52a.795.795 0 1 1-1.59.02.795.795 0 0 1 1.59-.02" id="Fill-30" stroke="#717274" stroke-width=".606" fill="#717274"/><path d="M11.133 6.449a.795.795 0 1 1-1.59.02.795.795 0 0 1 1.59-.02" id="Fill-34" stroke="#717274" stroke-width=".606" fill="#717274"/><path d="M7.72 12.92a3.627 3.627 0 0 0 3.552-2.904c.053-.262-.12-.476-.386-.476H4.554c-.266 0-.439.214-.386.476a3.627 3.627 0 0 0 3.552 2.903" id="Fill-38" fill="#717274"/></g><path d="M59.682 9.408c-.225 0-.366.091-.472.303-.087.174-.084.228-.084.228.01.044.12.179.208.287.12.147.269.331.436.581.486.73 2.057 2.694 2.073 2.714l.017.023c.017.024 1.78 2.46 4.04 2.46h.022l.068.001c.318 0 1.436-.043 2.473-.6 1.289-.693 1.942-1.918 1.942-3.64l-.016-6.96a.363.363 0 1 0-.724 0l-.015 3.831a.797.797 0 0 1-.222.546.73.73 0 0 1-.526.212.737.737 0 0 1-.535-.217.79.79 0 0 1-.213-.556V3.109a.344.344 0 0 0-.358-.345c-.232 0-.315.186-.315.345l-.003 5.578c-.038.352-.315.71-.771.71-.462 0-.737-.376-.762-.729v-6.48c0-.202-.136-.337-.336-.337a.323.323 0 0 0-.338.337v6.47a.763.763 0 0 1-.776.727.742.742 0 0 1-.761-.749v-4.79c0-.249-.244-.276-.348-.276-.216 0-.325.093-.325.275v7.035l-.005.036a.593.593 0 0 1-.587.513c-.32 0-.576-.248-.764-.465-1.024-1.179-1.571-1.452-1.576-1.454a1.17 1.17 0 0 0-.447-.102m6.308 7.581h-.099c-2.704-.007-4.658-2.63-4.826-2.863-.138-.173-1.619-2.027-2.115-2.773-.14-.211-.268-.368-.38-.506-.328-.403-.638-.784-.24-1.576.273-.546.753-.847 1.352-.847.438 0 .802.164.864.194.105.049.629.324 1.53 1.288v-6.06c0-.73.55-1.26 1.31-1.26.357 0 .668.113.9.307v-.705c0-.741.581-1.322 1.323-1.322.712 0 1.275.538 1.317 1.238.227-.204.53-.325.87-.325.753 0 1.343.584 1.343 1.33v.683a1.348 1.348 0 0 1 2.234 1.011l.016 6.96c0 2.634-1.338 3.906-2.461 4.509-1.239.666-2.562.717-2.938.717" id="Fill-24" fill="#FF3D4F"/><path id="Rectangle" fill="#D8D8D8" opacity=".34" d="M39.948 0h1v28.591h-1z"/><text id="Revoke" font-family="Lato-Semibold, Lato" font-size="8.664" font-weight="500" letter-spacing="-.002" fill="#FF3D4F"><tspan x="52.406" y="26.328">Revoke</tspan></text><text id="Access" opacity=".465" font-family="Lato-Semibold, Lato" font-size="8.664" font-weight="500" letter-spacing="-.002" fill="#717274"><tspan x="1.317" y="26.328">Access</tspan></text></g><g id="Group-256-Copy-2" opacity=".7" transform="translate(20.794 19.06)"><g id="Group-5"><mask id="mask-6" fill="#fff"><use xlink:href="#path-5"/></mask><use id="Fill-254" fill="url(#linearGradient-4)" xlink:href="#path-5"/><path d="M28.527.38v7.37c0 .785.608 1.413 1.367 1.413h7.14c.304 0 .608-.314.76-.47 0-.315-.152-.628-.456-.942L30.046.066c-.303-.314-.759-.47-1.063-.47a.868.868 0 0 0-.456.784" id="Fill-262" fill="#4648AF" mask="url(#mask-6)"/></g><path d="M16.626 22.323v-1.924c0-1.333 1.014-2.37 2.316-2.37 1.303 0 2.316 1.037 2.316 2.37v1.924h-4.632zm6.224 0c.724 0 1.303.592 1.158 1.332v5.625c0 .74-.58 1.333-1.302 1.333h-7.672c-.723 0-1.302-.592-1.302-1.333v-5.625c0-.74.579-1.332 1.302-1.332h.145v-1.924c0-2.073 1.592-3.701 3.619-3.701 2.026 0 3.618 1.628 3.618 3.7v1.925h.434zm-5.066 4.293c0 .654.519 1.185 1.158 1.185.64 0 1.158-.531 1.158-1.185s-.519-1.184-1.158-1.184c-.64 0-1.158.53-1.158 1.184z" id="Combined-Shape" fill="#FFF"/></g></g><g id="Group-2-Copy" transform="translate(9.56 45.12)"><g id="Rectangle-5"><use fill="#000" filter="url(#filter-8)" xlink:href="#path-7"/><use fill="#FFF" xlink:href="#path-7"/></g><rect id="Rectangle-2" fill="#F5FAFD" x="83.52" y="32.64" width="120.96" height="7.68" rx="3.84"/><rect id="Rectangle-2-Copy" fill="#F5FAFD" x="83.52" y="50.88" width="107.52" height="6.72" rx="3.36"/><g id="Group" opacity=".6" transform="translate(260.832 29.184)"><g id="smiley" opacity=".42" transform="translate(6.384 .912)"><path d="M8.02.784a7.754 7.754 0 0 1 7.86 7.648 7.753 7.753 0 0 1-7.648 7.86A7.755 7.755 0 0 1 8.02.784z" id="Stroke-28" stroke="#717274" stroke-width="1.726"/><path d="M6.207 6.864a.837.837 0 1 1-1.674.02.837.837 0 0 1 1.674-.02" id="Fill-30" stroke="#717274" stroke-width=".638" fill="#717274"/><path d="M11.719 6.788a.837.837 0 1 1-1.674.021.837.837 0 0 1 1.674-.02" id="Fill-34" stroke="#717274" stroke-width=".638" fill="#717274"/><path d="M8.127 13.6a3.818 3.818 0 0 0 3.739-3.057c.055-.275-.126-.5-.407-.5H4.794c-.28 0-.462.225-.407.5a3.818 3.818 0 0 0 3.74 3.056" id="Fill-38" fill="#717274"/></g><path d="M61.812 9.903c-.236 0-.385.096-.497.32-.09.182-.087.24-.087.24.01.045.126.187.219.301.126.155.282.349.458.612.512.77 2.165 2.836 2.182 2.857l.018.024c.018.025 1.873 2.59 4.254 2.59h.094c.334 0 1.51-.045 2.602-.632 1.358-.728 2.045-2.018 2.045-3.831l-.017-7.326a.382.382 0 1 0-.762-.001l-.016 4.034a.84.84 0 0 1-.234.574.769.769 0 0 1-.553.223.776.776 0 0 1-.563-.228.83.83 0 0 1-.224-.586V3.272a.362.362 0 0 0-.377-.363c-.244 0-.332.196-.332.363l-.003 5.872c-.04.37-.332.747-.812.747-.486 0-.775-.395-.802-.766V2.303c0-.213-.143-.355-.354-.355a.34.34 0 0 0-.355.355v6.81a.803.803 0 0 1-.817.766.78.78 0 0 1-.801-.788V4.047c0-.26-.256-.289-.367-.289-.227 0-.342.098-.342.29v7.405l-.005.037a.624.624 0 0 1-.618.54c-.336.001-.606-.26-.804-.489-1.078-1.24-1.654-1.528-1.659-1.53a1.231 1.231 0 0 0-.47-.108m6.64 7.98h-.104c-2.847-.007-4.903-2.768-5.08-3.014-.146-.182-1.705-2.133-2.227-2.918a6.437 6.437 0 0 0-.4-.533c-.345-.424-.671-.825-.253-1.659.288-.575.793-.892 1.423-.892.462 0 .845.173.91.205.11.05.662.34 1.611 1.355v-6.38c0-.767.58-1.326 1.378-1.326.376 0 .704.12.949.324v-.742c0-.78.61-1.391 1.391-1.391.75 0 1.343.565 1.387 1.303.239-.215.557-.343.916-.343.793 0 1.413.615 1.413 1.4v.72a1.419 1.419 0 0 1 2.352 1.064l.017 7.326c0 2.773-1.409 4.112-2.59 4.746-1.305.702-2.698.755-3.093.755" id="Fill-24" fill="#FF3D4F"/><path id="Rectangle" fill="#D8D8D8" opacity=".34" d="M41.04 0h1v30.096h-1z"/><text id="Revoke" font-family="Lato-Semibold, Lato" font-size="9.12" font-weight="500" letter-spacing="-.002" fill="#FF3D4F"><tspan x="54.154" y="27.24">Revoke</tspan></text><text id="Access" opacity=".465" font-family="Lato-Semibold, Lato" font-size="9.12" font-weight="500" letter-spacing="-.002" fill="#717274"><tspan x=".376" y="27.24">Access</tspan></text></g><g id="Group-256-Copy-2" opacity=".7" transform="translate(21.888 20.064)"><g id="Group-5"><mask id="mask-10" fill="#fff"><use xlink:href="#path-9"/></mask><use id="Fill-254" fill="url(#linearGradient-4)" xlink:href="#path-9"/><path d="M30.029.4v7.759c0 .825.64 1.486 1.439 1.486h7.515c.32 0 .64-.33.8-.495 0-.33-.16-.66-.48-.991L31.628.069c-.32-.33-.8-.495-1.12-.495a.914.914 0 0 0-.48.826" id="Fill-262" fill="#4648AF" mask="url(#mask-10)"/></g><path d="M17.501 23.498v-2.026c0-1.402 1.067-2.493 2.438-2.493 1.372 0 2.438 1.09 2.438 2.493v2.026h-4.876zm6.552 0c.762 0 1.371.623 1.219 1.402v5.921c0 .78-.61 1.403-1.371 1.403h-8.076c-.761 0-1.37-.623-1.37-1.403V24.9c0-.779.609-1.402 1.37-1.402h.153v-2.026c0-2.181 1.676-3.895 3.809-3.895s3.808 1.714 3.808 3.895v2.026h.458zm-5.333 4.519c0 .688.546 1.247 1.22 1.247.672 0 1.218-.559 1.218-1.247 0-.689-.546-1.247-1.219-1.247s-1.219.558-1.219 1.247z" id="Combined-Shape" fill="#FFF"/></g></g><g id="Group-2" transform="translate(.92 95.04)"><g id="Rectangle-5"><use fill="#000" filter="url(#filter-12)" xlink:href="#path-11"/><use fill="#FFF" xlink:href="#path-11"/></g><rect id="Rectangle-2" fill="#F5FAFD" x="85.44" y="34.56" width="125.76" height="7.68" rx="3.84"/><rect id="Rectangle-2-Copy" fill="#F5FAFD" x="85.44" y="53.76" width="111.36" height="6.72" rx="3.36"/><g id="Group" transform="translate(274.56 30.72)"><g id="smiley" opacity=".42" transform="translate(6.72 .96)"><path d="M8.443.825a8.162 8.162 0 0 1 8.273 8.051 8.161 8.161 0 0 1-8.05 8.273A8.163 8.163 0 0 1 8.443.825z" id="Stroke-28" stroke="#717274" stroke-width="1.817"/><path d="M6.533 7.225a.88.88 0 1 1-1.761.022.88.88 0 0 1 1.761-.022" id="Fill-30" stroke="#717274" stroke-width=".672" fill="#717274"/><path d="M12.335 7.145a.88.88 0 1 1-1.76.023.88.88 0 0 1 1.76-.023" id="Fill-34" stroke="#717274" stroke-width=".672" fill="#717274"/><path d="M8.554 14.315a4.019 4.019 0 0 0 3.936-3.217c.059-.29-.132-.527-.428-.527H5.046c-.295 0-.486.237-.428.527a4.019 4.019 0 0 0 3.936 3.217" id="Fill-38" fill="#717274"/></g><path d="M65.066 10.425c-.249 0-.405.1-.524.336-.096.192-.092.252-.092.252.01.048.133.198.23.318.133.163.298.367.484.644.538.81 2.279 2.985 2.296 3.007l.02.026c.018.026 1.97 2.725 4.477 2.725h.023l.075.001c.353 0 1.591-.048 2.74-.665 1.429-.767 2.153-2.125 2.153-4.033l-.019-7.712a.402.402 0 1 0-.801 0l-.018 4.245c0 .08-.016.375-.245.605a.81.81 0 0 1-.583.234.817.817 0 0 1-.592-.24.874.874 0 0 1-.237-.616V3.444a.381.381 0 0 0-.396-.382c-.257 0-.35.207-.35.382l-.002 6.181c-.043.39-.35.786-.856.786-.511 0-.816-.415-.844-.806V2.424c0-.224-.15-.373-.372-.373a.358.358 0 0 0-.374.373v7.17a.845.845 0 0 1-.86.805.82.82 0 0 1-.843-.83V4.26c0-.274-.27-.304-.386-.304-.24 0-.36.103-.36.304v7.796l-.006.039a.657.657 0 0 1-.65.568c-.354.001-.638-.274-.847-.514-1.134-1.307-1.74-1.61-1.746-1.612a1.296 1.296 0 0 0-.495-.112m6.99 8.4l-.11-.001c-2.996-.007-5.161-2.914-5.347-3.172-.154-.192-1.794-2.246-2.345-3.072a6.644 6.644 0 0 0-.42-.56c-.364-.447-.707-.87-.267-1.747.303-.606.835-.939 1.499-.939.485 0 .889.182.958.215.116.054.696.36 1.695 1.427V4.26c0-.808.61-1.395 1.45-1.395.396 0 .742.125.999.34v-.781c0-.82.643-1.464 1.465-1.464.79 0 1.413.595 1.46 1.372.25-.227.586-.361.964-.361.834 0 1.487.647 1.487 1.473v.758c.263-.231.608-.372.984-.372.823 0 1.492.67 1.492 1.492l.018 7.712c0 2.918-1.483 4.328-2.727 4.996-1.373.738-2.839.795-3.256.795" id="Fill-24" fill="#FF3D4F"/><path id="Rectangle" fill="#D8D8D8" opacity=".34" d="M43.2 0h1v31.68h-1z"/><text id="Revoke" font-family="Lato-Semibold, Lato" font-size="9.6" font-weight="500" letter-spacing="-.002" fill="#FF3D4F"><tspan x="57.004" y="28.2">Revoke</tspan></text><path d="M4.874 25.608l-.95-2.525a6.99 6.99 0 0 1-.236-.744c-.035.15-.073.289-.115.415-.042.127-.08.238-.115.334l-.95 2.52h2.366zM7 28.2h-.869a.372.372 0 0 1-.24-.074.484.484 0 0 1-.139-.185l-.576-1.527H2.2l-.576 1.527a.46.46 0 0 1-.134.177.358.358 0 0 1-.24.082H.38l2.74-6.912h1.14L7 28.2zm3.944-3.936a.534.534 0 0 1-.092.096.2.2 0 0 1-.124.034.315.315 0 0 1-.17-.058 5.65 5.65 0 0 0-.212-.127 1.384 1.384 0 0 0-.727-.185c-.224 0-.42.04-.588.12-.168.08-.309.194-.423.343a1.52 1.52 0 0 0-.254.543 2.823 2.823 0 0 0-.084.717c0 .275.03.52.091.735.061.214.148.395.262.542.113.147.251.26.413.336.161.077.343.115.544.115.199 0 .36-.024.485-.072.125-.048.229-.1.312-.158.083-.058.155-.11.214-.159a.296.296 0 0 1 .19-.072.22.22 0 0 1 .191.096l.293.38c-.118.144-.25.265-.393.364-.144.1-.296.18-.456.243a2.41 2.41 0 0 1-.5.134 3.36 3.36 0 0 1-.523.041c-.304 0-.588-.057-.852-.17a1.99 1.99 0 0 1-.691-.495 2.357 2.357 0 0 1-.466-.792 3.11 3.11 0 0 1-.17-1.068c0-.361.051-.697.154-1.005.102-.31.252-.576.448-.8.197-.224.441-.399.732-.525.292-.127.628-.19 1.008-.19.356 0 .668.058.939.173.27.115.511.278.722.49l-.273.374zm4.519 0a.534.534 0 0 1-.091.096.2.2 0 0 1-.125.034.315.315 0 0 1-.17-.058 5.65 5.65 0 0 0-.212-.127 1.384 1.384 0 0 0-.727-.185c-.224 0-.42.04-.588.12-.168.08-.309.194-.422.343a1.52 1.52 0 0 0-.255.543 2.823 2.823 0 0 0-.084.717c0 .275.03.52.092.735.06.214.148.395.261.542.114.147.251.26.413.336.162.077.343.115.545.115.198 0 .36-.024.485-.072.124-.048.228-.1.312-.158.083-.058.154-.11.213-.159a.296.296 0 0 1 .19-.072.22.22 0 0 1 .192.096l.293.38c-.119.144-.25.265-.394.364-.144.1-.296.18-.456.243-.16.062-.326.107-.5.134a3.36 3.36 0 0 1-.522.041c-.304 0-.588-.057-.852-.17a1.99 1.99 0 0 1-.692-.495 2.357 2.357 0 0 1-.465-.792 3.11 3.11 0 0 1-.17-1.068c0-.361.05-.697.153-1.005.102-.31.252-.576.449-.8.197-.224.44-.399.732-.525a2.5 2.5 0 0 1 1.008-.19c.355 0 .668.058.938.173.27.115.511.278.723.49l-.274.374zm4.27.936c0-.173-.025-.334-.075-.482a1.13 1.13 0 0 0-.218-.39.996.996 0 0 0-.358-.258 1.216 1.216 0 0 0-.492-.094c-.374 0-.668.107-.883.322-.214.214-.35.515-.408.902h2.434zm-2.463.634c.013.278.056.519.13.722.074.203.172.372.295.506.123.135.27.235.442.3.171.066.362.099.573.099.202 0 .376-.023.524-.07.147-.046.275-.097.384-.153.108-.056.201-.108.278-.154a.416.416 0 0 1 .211-.07.22.22 0 0 1 .192.096l.293.38c-.122.144-.26.265-.413.364-.153.1-.317.18-.49.243-.172.062-.35.107-.532.134-.183.027-.36.041-.533.041a2.56 2.56 0 0 1-.943-.17 2.1 2.1 0 0 1-.754-.502 2.316 2.316 0 0 1-.499-.82 3.26 3.26 0 0 1-.18-1.129c0-.339.054-.656.16-.95a2.28 2.28 0 0 1 .462-.768c.2-.218.443-.39.73-.516.286-.127.61-.19.971-.19.301 0 .58.049.835.147.256.097.477.24.663.43.185.188.33.42.434.693.104.273.156.585.156.933 0 .16-.017.268-.053.322-.035.054-.099.082-.192.082H17.27zm7.27-1.642a.256.256 0 0 1-.086.096.23.23 0 0 1-.12.029.386.386 0 0 1-.178-.05 7.373 7.373 0 0 0-.225-.113 1.947 1.947 0 0 0-.305-.113 1.492 1.492 0 0 0-.41-.05c-.129 0-.245.015-.349.045a.783.783 0 0 0-.264.13.586.586 0 0 0-.165.196.525.525 0 0 0-.058.243.41.41 0 0 0 .106.288c.07.077.163.143.278.199a2.7 2.7 0 0 0 .394.151c.147.045.297.093.451.144.154.051.304.11.451.178.147.067.279.15.394.247.115.098.208.216.278.355.07.14.106.308.106.507 0 .23-.042.443-.125.638a1.434 1.434 0 0 1-.365.509c-.16.144-.359.256-.597.336-.239.08-.512.12-.819.12-.17 0-.333-.015-.492-.046a2.83 2.83 0 0 1-.451-.125 2.405 2.405 0 0 1-.398-.19 2.098 2.098 0 0 1-.33-.24l.24-.393a.332.332 0 0 1 .109-.113.296.296 0 0 1 .16-.04.36.36 0 0 1 .2.064c.065.044.142.09.23.142a1.439 1.439 0 0 0 .785.206c.154 0 .286-.018.398-.055a.798.798 0 0 0 .279-.151.607.607 0 0 0 .216-.48.448.448 0 0 0-.106-.307.895.895 0 0 0-.28-.207 2.59 2.59 0 0 0-.399-.153 17.97 17.97 0 0 1-.454-.144 4.754 4.754 0 0 1-.453-.178 1.56 1.56 0 0 1-.399-.257 1.172 1.172 0 0 1-.28-.379 1.268 1.268 0 0 1-.106-.545 1.353 1.353 0 0 1 .463-1.022c.152-.134.34-.24.562-.32.222-.078.479-.117.77-.117.33 0 .629.053.898.159.269.105.494.25.677.432l-.23.374zm4.188 0a.256.256 0 0 1-.086.096.23.23 0 0 1-.12.029.386.386 0 0 1-.178-.05 7.373 7.373 0 0 0-.225-.113 1.947 1.947 0 0 0-.305-.113 1.492 1.492 0 0 0-.41-.05c-.128 0-.244.015-.348.045a.783.783 0 0 0-.264.13.586.586 0 0 0-.166.196.525.525 0 0 0-.058.243.41.41 0 0 0 .106.288c.07.077.163.143.278.199a2.7 2.7 0 0 0 .394.151c.147.045.298.093.451.144.154.051.304.11.451.178.148.067.279.15.394.247.115.098.208.216.278.355.07.14.106.308.106.507 0 .23-.042.443-.125.638a1.434 1.434 0 0 1-.365.509c-.16.144-.359.256-.597.336-.239.08-.511.12-.819.12-.17 0-.333-.015-.492-.046a2.83 2.83 0 0 1-.45-.125 2.405 2.405 0 0 1-.4-.19 2.098 2.098 0 0 1-.328-.24l.24-.393a.332.332 0 0 1 .108-.113.296.296 0 0 1 .16-.04.36.36 0 0 1 .2.064c.066.044.142.09.23.142a1.439 1.439 0 0 0 .785.206c.154 0 .287-.018.399-.055a.798.798 0 0 0 .278-.151.607.607 0 0 0 .216-.48.448.448 0 0 0-.106-.307.895.895 0 0 0-.28-.207 2.59 2.59 0 0 0-.399-.153c-.149-.045-.3-.093-.453-.144a4.754 4.754 0 0 1-.454-.178 1.56 1.56 0 0 1-.398-.257 1.172 1.172 0 0 1-.281-.379 1.268 1.268 0 0 1-.106-.545 1.353 1.353 0 0 1 .463-1.022c.152-.134.34-.24.562-.32.222-.078.48-.117.77-.117.33 0 .63.053.898.159.269.105.494.25.677.432l-.23.374z" id="Access" fill="#717274" opacity=".465"/></g><g id="Group-256-Copy-2" transform="translate(23.04 21.12)"><g id="Group-5"><mask id="mask-14" fill="#fff"><use xlink:href="#path-13"/></mask><use id="Fill-254" fill="url(#linearGradient-4)" xlink:href="#path-13"/><path d="M31.61.42v8.168c0 .87.673 1.565 1.514 1.565h7.911c.336 0 .674-.348.841-.522 0-.348-.167-.695-.505-1.043L33.292.074c-.336-.348-.84-.523-1.178-.523a.965.965 0 0 0-.505.87" id="Fill-262" fill="#4648AF" mask="url(#mask-14)"/></g><path d="M18.423 24.735v-2.132c0-1.477 1.122-2.625 2.565-2.625 1.444 0 2.567 1.148 2.567 2.625v2.132h-5.132zm6.896 0c.802 0 1.443.656 1.283 1.476v6.232c0 .82-.642 1.477-1.443 1.477h-8.5c-.802 0-1.444-.656-1.444-1.477v-6.232c0-.82.642-1.476 1.443-1.476h.16v-2.132c0-2.297 1.765-4.101 4.01-4.101 2.246 0 4.01 1.804 4.01 4.1v2.133h.481zm-5.614 4.757c0 .724.575 1.312 1.284 1.312.708 0 1.283-.588 1.283-1.312 0-.726-.575-1.313-1.283-1.313-.709 0-1.284.587-1.284 1.313z" id="Combined-Shape" fill="#FFF"/></g></g><circle id="Oval" stroke="#FF7A7A" stroke-width="4.8" fill="#FF5353" cx="370.52" cy="163.2" r="52.8"/><path d="M361.343 155.304c-.342 0-.557.14-.719.47-.132.267-.127.352-.127.352.015.067.182.276.317.444.182.228.409.512.663.9.74 1.13 3.13 4.17 3.154 4.2l.026.037c.027.036 2.709 3.808 6.15 3.808h.032l.104.001c.484 0 2.185-.067 3.763-.93 1.962-1.07 2.956-2.967 2.956-5.634l-.025-10.775a.557.557 0 0 0-.55-.562.556.556 0 0 0-.55.561l-.025 5.933c0 .111-.022.523-.337.845a1.1 1.1 0 0 1-.8.327c-.318 0-.607-.12-.814-.335a1.235 1.235 0 0 1-.324-.861v-8.534a.528.528 0 0 0-.545-.534c-.353 0-.48.289-.48.534l-.004 8.635c-.058.546-.48 1.099-1.175 1.099-.702 0-1.12-.58-1.159-1.127l-.001-.053v-9.98c0-.312-.206-.521-.51-.521-.302 0-.514.214-.514.521v10.017c-.027.546-.451 1.126-1.182 1.126-.749 0-1.155-.599-1.158-1.16v-7.417c0-.383-.37-.425-.53-.425-.328 0-.494.144-.494.425v10.892l-.008.055a.908.908 0 0 1-.893.794c-.486.001-.876-.384-1.163-.72-1.558-1.825-2.39-2.247-2.398-2.251a1.756 1.756 0 0 0-.68-.157m9.6 11.736l-.15-.001c-4.116-.01-7.089-4.071-7.345-4.432-.21-.268-2.464-3.137-3.22-4.292-.213-.327-.407-.57-.577-.783-.5-.624-.97-1.214-.367-2.44.417-.847 1.148-1.312 2.059-1.312.667 0 1.22.254 1.316.3.16.076.955.502 2.328 1.994v-9.383c0-1.129.837-1.95 1.992-1.95.544 0 1.018.176 1.372.476v-1.092c0-1.146.883-2.045 2.012-2.045 1.084 0 1.94.832 2.004 1.917a1.939 1.939 0 0 1 1.325-.505c1.146 0 2.042.904 2.042 2.06v1.058a2.02 2.02 0 0 1 1.352-.52c1.13 0 2.049.935 2.049 2.085l.025 10.774c0 4.078-2.037 6.047-3.746 6.98-1.885 1.032-3.899 1.111-4.471 1.111" id="Fill-24" fill="#FFF"/><path d="M353.772 175c.358 0 .672-.044.94-.131.27-.087.494-.21.673-.366.179-.157.313-.344.403-.561.09-.218.134-.458.134-.723 0-.528-.174-.932-.524-1.21-.35-.277-.878-.416-1.586-.416h-1.277V175h1.237zm4.556 5.04h-1.404c-.278 0-.48-.108-.605-.323l-2.258-3.259a.745.745 0 0 0-.249-.242c-.09-.049-.224-.074-.403-.074h-.874v3.898h-1.572v-9.677h2.85c.635 0 1.183.065 1.642.195.46.13.837.315 1.133.554.295.24.514.528.655.864.141.336.212.71.212 1.122 0 .336-.05.65-.152.941-.1.291-.246.556-.436.793s-.425.444-.703.618a3.564 3.564 0 0 1-.947.41c.192.117.358.28.497.49l2.614 3.69zm4.95-4.2c0-.242-.035-.467-.104-.675a1.581 1.581 0 0 0-.306-.545 1.394 1.394 0 0 0-.5-.363 1.702 1.702 0 0 0-.69-.13c-.524 0-.936.15-1.236.45-.3.3-.49.72-.571 1.263h3.407zm-3.448.887c.018.39.079.727.182 1.011.103.285.24.521.413.71.173.188.379.328.618.42.24.091.508.137.803.137.283 0 .527-.032.733-.097.206-.065.385-.137.537-.215.153-.079.283-.15.39-.215a.582.582 0 0 1 .296-.098.31.31 0 0 1 .269.135l.41.53a2.6 2.6 0 0 1-.578.511 3.367 3.367 0 0 1-.686.34c-.242.087-.49.15-.746.188a5.055 5.055 0 0 1-.746.057 3.58 3.58 0 0 1-1.32-.239 2.936 2.936 0 0 1-1.055-.702 3.242 3.242 0 0 1-.699-1.15c-.168-.456-.252-.982-.252-1.578 0-.475.075-.919.225-1.33a3.029 3.029 0 0 1 1.667-1.798 3.337 3.337 0 0 1 1.36-.266c.422 0 .811.068 1.17.205.358.137.667.337.927.601.26.265.463.588.608.972.146.383.219.818.219 1.307 0 .224-.025.374-.074.45-.05.076-.14.114-.27.114h-4.4zm11.959-3.541l-2.755 6.854h-1.304l-2.755-6.854h1.19c.111 0 .204.028.278.084a.384.384 0 0 1 .145.198l1.518 3.992c.063.188.119.374.168.557.05.184.092.37.128.558a6.44 6.44 0 0 1 .131-.554c.052-.182.109-.369.171-.561l1.546-3.992a.41.41 0 0 1 .148-.202.424.424 0 0 1 .262-.08h1.129zm3.747-.108c.506 0 .964.083 1.374.249.41.165.76.4 1.048.705.289.305.512.675.669 1.11.157.434.235.922.235 1.464 0 .542-.078 1.03-.235 1.465-.157.435-.38.805-.669 1.112a2.925 2.925 0 0 1-1.048.71 3.65 3.65 0 0 1-1.374.248c-.511 0-.972-.083-1.381-.249a2.958 2.958 0 0 1-1.052-.709 3.14 3.14 0 0 1-.672-1.112 4.295 4.295 0 0 1-.235-1.465c0-.542.078-1.03.235-1.465.157-.434.38-.804.672-1.109a2.98 2.98 0 0 1 1.052-.705c.41-.166.87-.249 1.38-.249zm0 5.934c.618 0 1.078-.207 1.38-.622.303-.414.454-1.007.454-1.777s-.151-1.365-.454-1.784c-.302-.42-.762-.629-1.38-.629-.628 0-1.094.21-1.398.629-.305.419-.457 1.013-.457 1.784 0 .77.152 1.363.457 1.777.304.415.77.622 1.398.622zm6.152-8.918v5.766h.31a.62.62 0 0 0 .241-.04.536.536 0 0 0 .195-.168l1.922-2.198a.716.716 0 0 1 .222-.201.632.632 0 0 1 .309-.067h1.31l-2.312 2.607a1.758 1.758 0 0 1-.443.417c.09.062.168.133.235.211.067.079.132.167.195.266l2.466 3.353h-1.29a.712.712 0 0 1-.3-.057.517.517 0 0 1-.217-.212l-1.983-2.688a.506.506 0 0 0-.201-.198.798.798 0 0 0-.303-.044h-.356v3.199h-1.445v-9.946h1.445zm9.7 5.746c0-.242-.034-.467-.104-.675a1.581 1.581 0 0 0-.305-.545 1.394 1.394 0 0 0-.501-.363 1.702 1.702 0 0 0-.689-.13c-.524 0-.936.15-1.236.45-.3.3-.49.72-.571 1.263h3.407zm-3.447.887c.018.39.079.727.182 1.011.103.285.24.521.413.71.172.188.378.328.618.42.24.091.508.137.803.137.282 0 .527-.032.733-.097.206-.065.385-.137.537-.215.153-.079.283-.15.39-.215a.582.582 0 0 1 .296-.098.31.31 0 0 1 .269.135l.41.53a2.6 2.6 0 0 1-.578.511 3.367 3.367 0 0 1-.686.34c-.242.087-.49.15-.746.188a5.055 5.055 0 0 1-.746.057 3.58 3.58 0 0 1-1.32-.239 2.936 2.936 0 0 1-1.055-.702 3.242 3.242 0 0 1-.7-1.15c-.167-.456-.251-.982-.251-1.578 0-.475.075-.919.225-1.33a3.029 3.029 0 0 1 1.667-1.798 3.337 3.337 0 0 1 1.36-.266c.421 0 .811.068 1.17.205.358.137.667.337.927.601.26.265.463.588.608.972.146.383.219.818.219 1.307 0 .224-.025.374-.074.45-.05.076-.14.114-.27.114h-4.4z" id="Revoke" fill="#FFF"/></g></g></g></g></g></svg>