<svg width="455" height="345" xmlns="http://www.w3.org/2000/svg" xmlns:xlink="http://www.w3.org/1999/xlink"><defs><linearGradient x1="20.573%" y1="-4.83%" x2="86.747%" y2="107.679%" id="linearGradient-1"><stop stop-color="#3975FB" offset="0%"/><stop stop-color="#0ACDFA" offset="100%"/></linearGradient><rect id="path-2" x="0" y="0" width="400.459" height="280.781" rx="4.77"/><filter x="-7.5%" y="-10.7%" width="117.5%" height="124.9%" filterUnits="objectBoundingBox" id="filter-3"><feMorphology radius=".954" operator="dilate" in="SourceAlpha" result="shadowSpreadOuter1"/><feOffset dx="5" dy="5" in="shadowSpreadOuter1" result="shadowOffsetOuter1"/><feGaussianBlur stdDeviation="10.5" in="shadowOffsetOuter1" result="shadowBlurOuter1"/><feComposite in="shadowBlurOuter1" in2="SourceAlpha" operator="out" result="shadowBlurOuter1"/><feColorMatrix values="0 0 0 0 0.235294118 0 0 0 0 0.615686275 0 0 0 0 0.97254902 0 0 0 0.0859091938 0" in="shadowBlurOuter1"/></filter><linearGradient x1="90.326%" y1="13.54%" x2="0%" y2="97.074%" id="linearGradient-4"><stop stop-color="#488DFC" offset="0%"/><stop stop-color="#31B8FC" offset="100%"/></linearGradient><path d="M.035.043C.252 3.106 2.679 5.52 5.642 5.52s5.39-2.414 5.607-5.477H.035z" id="path-5"/><path d="M.057 5.518H11.27C11.053 2.455 8.627.04 5.664.04 2.7.04.274 2.455.057 5.518" id="path-7"/><path d="M.057.042C.274 3.105 2.7 5.519 5.664 5.519h11.213C16.66 2.456 14.233.042 11.27.042H.057z" id="path-9"/></defs><g id="Page-1" stroke="none" stroke-width="1" fill="none" fill-rule="evenodd"><g id="Artboard-Copy-18" transform="translate(-70 -164)"><g id="Group-6" transform="translate(86 164)"><path d="M265 0h5v5h-5V0zm0 13h5v5h-5v-5zm0 13h5v5h-5v-5zm0 13h5v5h-5v-5zm0 13h5v5h-5v-5zm0 13h5v5h-5v-5zm0 13h5v5h-5v-5zm13-78h5v5h-5V0zm0 13h5v5h-5v-5zm0 13h5v5h-5v-5zm0 13h5v5h-5v-5zm0 13h5v5h-5v-5zm0 13h5v5h-5v-5zm0 13h5v5h-5v-5zm13-78h5v5h-5V0zm0 13h5v5h-5v-5zm0 13h5v5h-5v-5zm0 13h5v5h-5v-5zm0 13h5v5h-5v-5zm0 13h5v5h-5v-5zm0 13h5v5h-5v-5zm13-78h5v5h-5V0zm0 13h5v5h-5v-5zm0 13h5v5h-5v-5zm0 13h5v5h-5v-5zm0 13h5v5h-5v-5zm0 13h5v5h-5v-5zm0 13h5v5h-5v-5zm13-78h5v5h-5V0zm13 0h5v5h-5V0zm13 0h5v5h-5V0zm-26 13h5v5h-5v-5zm13 0h5v5h-5v-5zm13 0h5v5h-5v-5zm-26 13h5v5h-5v-5zm13 0h5v5h-5v-5zm13 0h5v5h-5v-5zm-26 13h5v5h-5v-5zm13 0h5v5h-5v-5zm13 0h5v5h-5v-5zm-26 13h5v5h-5v-5zm13 0h5v5h-5v-5zm13 0h5v5h-5v-5zm-26 13h5v5h-5v-5zm13 0h5v5h-5v-5zm13 0h5v5h-5v-5zm-26 13h5v5h-5v-5zm13 0h5v5h-5v-5zm13 0h5v5h-5v-5zm13-78h5v5h-5V0zm0 13h5v5h-5v-5zm0 13h5v5h-5v-5zm0 13h5v5h-5v-5zm0 13h5v5h-5v-5zm0 13h5v5h-5v-5zm0 13h5v5h-5v-5zm13-78h5v5h-5V0zm0 13h5v5h-5v-5zm0 13h5v5h-5v-5zm0 13h5v5h-5v-5zm0 13h5v5h-5v-5zm0 13h5v5h-5v-5zm0 13h5v5h-5v-5zm13-78h5v5h-5V0zm0 13h5v5h-5v-5zm0 13h5v5h-5v-5zm0 13h5v5h-5v-5zm0 13h5v5h-5v-5zm0 13h5v5h-5v-5zm0 13h5v5h-5v-5zm13-78h5v5h-5V0zm0 13h5v5h-5v-5zm0 13h5v5h-5v-5zm0 13h5v5h-5v-5zm0 13h5v5h-5v-5zm0 13h5v5h-5v-5zm0 13h5v5h-5v-5zm13-78h5v5h-5V0zm13 0h5v5h-5V0zm13 0h5v5h-5V0zm-26 13h5v5h-5v-5zm13 0h5v5h-5v-5zm13 0h5v5h-5v-5zm-26 13h5v5h-5v-5zm13 0h5v5h-5v-5zm13 0h5v5h-5v-5zm-26 13h5v5h-5v-5zm13 0h5v5h-5v-5zm13 0h5v5h-5v-5zm-26 13h5v5h-5v-5zm13 0h5v5h-5v-5zm13 0h5v5h-5v-5zm-26 13h5v5h-5v-5zm13 0h5v5h-5v-5zm13 0h5v5h-5v-5zm-26 13h5v5h-5v-5zm13 0h5v5h-5v-5zm13 0h5v5h-5v-5zm-78 13h5v5h-5v-5zm0 13h5v5h-5v-5zm0 13h5v5h-5v-5zm0 13h5v5h-5v-5zm0 13h5v5h-5v-5zm0 13h5v5h-5v-5zm0 13h5v5h-5v-5zm13-78h5v5h-5v-5zm0 13h5v5h-5v-5zm0 13h5v5h-5v-5zm0 13h5v5h-5v-5zm0 13h5v5h-5v-5zm0 13h5v5h-5v-5zm0 13h5v5h-5v-5zm13-78h5v5h-5v-5zm0 13h5v5h-5v-5zm0 13h5v5h-5v-5zm0 13h5v5h-5v-5zm0 13h5v5h-5v-5zm0 13h5v5h-5v-5zm0 13h5v5h-5v-5zm13-78h5v5h-5v-5zm0 13h5v5h-5v-5zm0 13h5v5h-5v-5zm0 13h5v5h-5v-5zm0 13h5v5h-5v-5zm0 13h5v5h-5v-5zm0 13h5v5h-5v-5zm13-78h5v5h-5v-5zm13 0h5v5h-5v-5zm13 0h5v5h-5v-5zm-26 13h5v5h-5v-5zm13 0h5v5h-5v-5zm13 0h5v5h-5v-5zm-26 13h5v5h-5v-5zm13 0h5v5h-5v-5zm13 0h5v5h-5v-5zm-26 13h5v5h-5v-5zm13 0h5v5h-5v-5zm13 0h5v5h-5v-5zm-26 13h5v5h-5v-5zm13 0h5v5h-5v-5zm13 0h5v5h-5v-5zm-26 13h5v5h-5v-5zm13 0h5v5h-5v-5zm13 0h5v5h-5v-5zm-26 13h5v5h-5v-5zm13 0h5v5h-5v-5zm13 0h5v5h-5v-5zM265 91h5v5h-5v-5zm0 13h5v5h-5v-5zm0 13h5v5h-5v-5zm0 13h5v5h-5v-5zm0 13h5v5h-5v-5zm0 13h5v5h-5v-5zm0 13h5v5h-5v-5zm13-78h5v5h-5v-5zm0 13h5v5h-5v-5zm0 13h5v5h-5v-5zm0 13h5v5h-5v-5zm0 13h5v5h-5v-5zm0 13h5v5h-5v-5zm0 13h5v5h-5v-5zm13-78h5v5h-5v-5zm0 13h5v5h-5v-5zm0 13h5v5h-5v-5zm0 13h5v5h-5v-5zm0 13h5v5h-5v-5zm0 13h5v5h-5v-5zm0 13h5v5h-5v-5zm13-78h5v5h-5v-5zm0 13h5v5h-5v-5zm0 13h5v5h-5v-5zm0 13h5v5h-5v-5zm0 13h5v5h-5v-5zm0 13h5v5h-5v-5zm0 13h5v5h-5v-5zm13-78h5v5h-5v-5zm13 0h5v5h-5v-5zm13 0h5v5h-5v-5zm-26 13h5v5h-5v-5zm13 0h5v5h-5v-5zm13 0h5v5h-5v-5zm-26 13h5v5h-5v-5zm13 0h5v5h-5v-5zm13 0h5v5h-5v-5zm-26 13h5v5h-5v-5zm13 0h5v5h-5v-5zm13 0h5v5h-5v-5zm-26 13h5v5h-5v-5zm13 0h5v5h-5v-5zm13 0h5v5h-5v-5zm-26 13h5v5h-5v-5zm13 0h5v5h-5v-5zm13 0h5v5h-5v-5zm-26 13h5v5h-5v-5zm13 0h5v5h-5v-5zm13 0h5v5h-5v-5z" id="Combined-Shape" fill="url(#linearGradient-1)" opacity=".298"/><g id="Group-5" transform="translate(0 37)"><g id="Group-3"><g id="Group-2"><g id="Group-18" transform="translate(.424 .424)"><g id="Rectangle-39"><use fill="#000" filter="url(#filter-3)" xlink:href="#path-2"/><rect stroke="#EEEFF2" stroke-width=".954" fill="#FCFCFC" x="-.477" y="-.477" width="401.413" height="281.735" rx="4.77"/></g><path id="Rectangle-4" stroke="#EEEFF2" stroke-width=".954" fill="#FFF" d="M-.477 282.145h401.413V28.744H-.477z"/><g id="Group-5" transform="translate(80.955 61.927)"><g id="Group-7" transform="translate(6.996)"><g id="Group"><rect id="Rectangle-3" fill="#D5ECFA" opacity=".482" x="0" y="0" width="90.95" height="6.992" rx="3.496"/><rect id="Rectangle-3-Copy" fill="#F5FAFD" x="0" y="20.975" width="170.906" height="5.993" rx="2.996"/><rect id="Rectangle-3-Copy-3" fill="#F5FAFD" x="0" y="34.959" width="154.914" height="5.993" rx="2.996"/></g><g id="Group-Copy-3" transform="translate(0 64.924)"><rect id="Rectangle-3" fill="#D5ECFA" opacity=".482" x="0" y="0" width="55.969" height="6.992" rx="3.496"/><g id="Group-8" transform="translate(0 20.975)" fill="#F5FAFD"><rect id="Rectangle-3-Copy" x="0" y="0" width="5.997" height="5.993" rx="2.996"/><rect id="Rectangle-3-Copy-2" x="11.993" y="0" width="62.965" height="5.993" rx="2.996"/></g><g id="Group-8-Copy" transform="translate(0 34.959)" fill="#F5FAFD"><rect id="Rectangle-3-Copy" x="0" y="0" width="5.997" height="5.993" rx="2.996"/><rect id="Rectangle-3-Copy-2" x="11.993" y="0" width="46.974" height="5.993" rx="2.996"/></g><g id="Group-8-Copy-2" transform="translate(0 48.942)" fill="#F5FAFD"><rect id="Rectangle-3-Copy" x="0" y="0" width="5.997" height="5.993" rx="2.996"/><rect id="Rectangle-3-Copy-2" x="11.993" y="0" width="73.959" height="5.993" rx="2.996"/></g></g></g><g id="Group-3" transform="translate(0 150.822)"><rect id="Rectangle-27" fill="url(#linearGradient-4)" x="0" y="0" width="238.868" height="40.952" rx="3.6"/><path d="M88.794 24.11l-.007 1.415h-6.731V14.738h6.731v1.416h-4.97v3.251h3.973v1.371h-3.973v3.334h4.977zm8.16 1.415H95.41a.427.427 0 0 1-.296-.097.853.853 0 0 1-.176-.217l-1.762-2.824a1.7 1.7 0 0 1-.18.442L91.4 25.21c-.055.08-.117.152-.184.217a.368.368 0 0 1-.266.097h-1.44l2.647-3.94-2.541-3.7h1.544c.125 0 .216.018.273.056a.508.508 0 0 1 .154.168l1.732 2.697c.045-.165.114-.322.21-.472l1.461-2.195c.1-.17.227-.255.382-.255h1.477l-2.541 3.634 2.646 4.007zm2.695-1.917c.225.29.471.493.738.61.268.118.564.176.889.176.63 0 1.12-.23 1.473-.689.352-.46.528-1.144.528-2.052 0-.47-.04-.87-.12-1.203a2.325 2.325 0 0 0-.345-.813 1.329 1.329 0 0 0-.547-.457 1.782 1.782 0 0 0-.727-.142c-.41 0-.763.089-1.06.266a3.01 3.01 0 0 0-.829.76v3.544zm-.082-4.615c.32-.374.683-.677 1.09-.906.408-.23.881-.345 1.42-.345.43 0 .82.086 1.17.259.35.172.65.423.9.752.25.33.443.738.58 1.225.138.487.207 1.045.207 1.675 0 .564-.077 1.09-.229 1.576a3.852 3.852 0 0 1-.656 1.266c-.285.358-.63.637-1.034.84a3.027 3.027 0 0 1-1.372.303c-.45 0-.83-.073-1.143-.217a2.96 2.96 0 0 1-.85-.6v3.244h-1.613v-10.18h.975c.22 0 .36.102.42.307l.135.801zm10.236-1.228a4.05 4.05 0 0 1 1.532.277c.458.185.847.447 1.17.786.322.34.57.752.746 1.236a4.79 4.79 0 0 1 .262 1.633c0 .605-.087 1.15-.262 1.634a3.53 3.53 0 0 1-.746 1.24 3.263 3.263 0 0 1-1.17.79 4.058 4.058 0 0 1-1.532.277 4.08 4.08 0 0 1-1.54-.277 3.3 3.3 0 0 1-1.174-.79 3.5 3.5 0 0 1-.75-1.24 4.785 4.785 0 0 1-.262-1.634c0-.604.088-1.148.262-1.633a3.47 3.47 0 0 1 .75-1.236c.325-.34.716-.601 1.173-.786a4.08 4.08 0 0 1 1.54-.277zm0 6.614c.69 0 1.203-.23 1.54-.693.337-.462.506-1.122.506-1.981s-.169-1.522-.506-1.989c-.337-.467-.85-.7-1.54-.7-.7 0-1.22.233-1.56.7-.34.467-.51 1.13-.51 1.989 0 .859.17 1.52.51 1.981.34.462.86.693 1.56.693zm6.772-5.079c.24-.484.53-.865.87-1.142.34-.277.747-.416 1.222-.416.165 0 .32.019.464.056.145.038.275.094.39.169l-.112 1.213c-.02.085-.051.144-.094.177a.27.27 0 0 1-.169.048 1.81 1.81 0 0 1-.322-.041 2.293 2.293 0 0 0-.442-.041c-.225 0-.424.032-.596.097a1.44 1.44 0 0 0-.465.285 1.916 1.916 0 0 0-.363.457c-.105.18-.203.384-.293.614v4.75h-1.611v-7.642h.937c.17 0 .287.032.352.094.065.063.11.171.135.326l.097.996zm6.458 6.345c-.634 0-1.123-.178-1.465-.535-.342-.357-.514-.86-.514-1.51v-4.45h-.84a.34.34 0 0 1-.231-.086c-.065-.057-.098-.143-.098-.258v-.652l1.237-.18.352-2.21a.426.426 0 0 1 .128-.206.351.351 0 0 1 .24-.078h.824v2.51h2.121v1.16h-2.12v4.338c0 .275.067.484.201.63a.702.702 0 0 0 .54.216.952.952 0 0 0 .322-.048 1.56 1.56 0 0 0 .233-.105 3.39 3.39 0 0 0 .169-.105.246.246 0 0 1 .138-.049c.09 0 .163.05.218.15l.48.787c-.25.22-.545.388-.885.505a3.18 3.18 0 0 1-1.05.176zm11.32-6.375a.4.4 0 0 1-.135.15.359.359 0 0 1-.188.045.603.603 0 0 1-.277-.079c-.1-.052-.217-.11-.352-.176a3.041 3.041 0 0 0-.476-.176 2.331 2.331 0 0 0-.641-.078c-.2 0-.381.023-.544.07a1.24 1.24 0 0 0-.412.203.915.915 0 0 0-.258.307.82.82 0 0 0-.09.379c0 .18.055.33.165.45.11.119.254.223.434.31s.385.166.615.236c.23.07.465.145.705.225.24.08.474.172.704.277.23.105.435.233.615.386.18.152.325.337.435.554.11.217.164.48.164.79 0 .36-.064.692-.194.997-.13.304-.32.569-.57.794-.25.224-.561.4-.933.524a4.014 4.014 0 0 1-1.278.187 4.07 4.07 0 0 1-.769-.07 4.421 4.421 0 0 1-.704-.196 3.757 3.757 0 0 1-.622-.295 3.276 3.276 0 0 1-.514-.375l.375-.614a.519.519 0 0 1 .169-.176.463.463 0 0 1 .25-.064.56.56 0 0 1 .312.101c.102.068.222.141.36.221a2.259 2.259 0 0 0 1.225.322c.24 0 .447-.029.622-.086.175-.057.32-.136.435-.236a.948.948 0 0 0 .337-.749.699.699 0 0 0-.165-.48 1.398 1.398 0 0 0-.438-.322 4.08 4.08 0 0 0-.622-.24c-.233-.07-.469-.144-.709-.224a7.427 7.427 0 0 1-.708-.277 2.437 2.437 0 0 1-.622-.401 1.83 1.83 0 0 1-.439-.592c-.11-.232-.165-.515-.165-.85a2.11 2.11 0 0 1 .724-1.596c.237-.21.53-.375.877-.498a3.615 3.615 0 0 1 1.203-.183c.515 0 .982.082 1.402.247.42.165.772.39 1.057.674l-.36.584zm6.99 1.574c0-.27-.039-.521-.116-.753a1.762 1.762 0 0 0-.341-.607 1.555 1.555 0 0 0-.559-.405 1.9 1.9 0 0 0-.768-.146c-.585 0-1.045.168-1.38.502-.334.335-.547.804-.636 1.409h3.8zm-3.845.988c.02.435.087.81.202 1.128.115.317.269.58.46.79.193.21.423.366.69.468.268.103.566.154.896.154.315 0 .587-.036.817-.109.23-.072.43-.152.6-.24a7.42 7.42 0 0 0 .435-.24.65.65 0 0 1 .33-.108c.13 0 .23.05.3.15l.457.592a2.9 2.9 0 0 1-.645.57c-.24.154-.495.28-.765.377-.27.098-.547.168-.832.21a5.642 5.642 0 0 1-.832.064 4 4 0 0 1-1.473-.266 3.276 3.276 0 0 1-1.176-.783 3.614 3.614 0 0 1-.78-1.28c-.187-.51-.281-1.097-.281-1.761a4.3 4.3 0 0 1 .251-1.484c.167-.459.407-.859.72-1.198.312-.34.692-.608 1.139-.805a3.725 3.725 0 0 1 1.518-.296c.47 0 .904.076 1.304.228.4.152.745.376 1.035.67.29.295.516.656.678 1.083.162.427.244.913.244 1.457 0 .25-.028.417-.083.502-.055.085-.155.127-.3.127h-4.91zm4.467-7.214l-1.806 1.94a.732.732 0 0 1-.237.188.745.745 0 0 1-.303.052h-.96l1.087-1.813a.767.767 0 0 1 .244-.277c.092-.06.229-.09.408-.09h1.567zm7.725 4.765a.833.833 0 0 1-.143.15.312.312 0 0 1-.194.052.492.492 0 0 1-.267-.09 6.696 6.696 0 0 0-.33-.198 2.601 2.601 0 0 0-.46-.199c-.18-.06-.405-.09-.675-.09-.35 0-.656.063-.918.187a1.784 1.784 0 0 0-.66.536c-.177.232-.31.514-.397.847a4.403 4.403 0 0 0-.131 1.12c0 .429.047.811.142 1.146.095.334.231.616.409.846.177.23.392.405.644.525.253.12.536.18.851.18.31 0 .562-.038.757-.113.195-.075.357-.157.487-.247s.241-.173.334-.247a.462.462 0 0 1 .296-.113c.13 0 .23.05.3.15l.457.592c-.185.225-.39.414-.615.57-.224.154-.462.28-.712.377a3.74 3.74 0 0 1-.78.21 5.25 5.25 0 0 1-.816.064c-.475 0-.919-.089-1.33-.266a3.108 3.108 0 0 1-1.08-.772 3.678 3.678 0 0 1-.727-1.236c-.178-.487-.266-1.042-.266-1.667 0-.564.08-1.087.24-1.569.16-.482.393-.898.7-1.247.308-.35.689-.623 1.143-.82.455-.198.98-.296 1.575-.296.554 0 1.043.09 1.465.27.422.18.798.434 1.128.763l-.427.585zm8.234-1.499v7.641h-.974c-.215 0-.352-.102-.412-.307l-.12-.711c-.16.17-.329.324-.506.464a3.3 3.3 0 0 1-.566.36 3.01 3.01 0 0 1-1.372.314c-.42 0-.79-.07-1.11-.21a2.203 2.203 0 0 1-.805-.591 2.55 2.55 0 0 1-.491-.918 3.996 3.996 0 0 1-.165-1.18v-4.862h1.612v4.862c0 .515.118.914.356 1.199.237.285.598.427 1.083.427.355 0 .686-.081.993-.244.307-.162.596-.385.866-.67v-5.574h1.611zm3.483 1.416c.24-.484.53-.865.869-1.142.34-.277.747-.416 1.222-.416.165 0 .32.019.465.056.145.038.274.094.39.169l-.113 1.213c-.02.085-.051.144-.094.177a.27.27 0 0 1-.168.048 1.81 1.81 0 0 1-.323-.041 2.293 2.293 0 0 0-.442-.041c-.225 0-.423.032-.596.097a1.44 1.44 0 0 0-.465.285 1.916 1.916 0 0 0-.363.457c-.105.18-.203.384-.293.614v4.75h-1.611v-7.642h.937c.17 0 .287.032.352.094.065.063.11.171.135.326l.098.996zm5.685-1.416v7.641h-1.611v-7.64h1.611zm.27-2.307a.998.998 0 0 1-.086.412c-.057.13-.136.244-.236.341a1.15 1.15 0 0 1-.349.232 1.053 1.053 0 0 1-.832 0 1.082 1.082 0 0 1-.333-.232 1.15 1.15 0 0 1-.229-.34 1.007 1.007 0 0 1-.086-.413c0-.15.029-.29.086-.42a1.15 1.15 0 0 1 .229-.34c.095-.098.206-.175.333-.232a1.053 1.053 0 0 1 .832 0 1.127 1.127 0 0 1 .585.572c.058.13.086.27.086.42zm6.323 3.693a.4.4 0 0 1-.135.15.359.359 0 0 1-.187.045.603.603 0 0 1-.277-.079c-.1-.052-.218-.11-.353-.176a3.041 3.041 0 0 0-.476-.176 2.331 2.331 0 0 0-.64-.078c-.2 0-.382.023-.544.07a1.24 1.24 0 0 0-.412.203.915.915 0 0 0-.259.307.82.82 0 0 0-.09.379c0 .18.055.33.165.45.11.119.255.223.435.31s.385.166.615.236c.23.07.464.145.704.225.24.08.475.172.705.277.23.105.435.233.614.386.18.152.325.337.435.554.11.217.165.48.165.79 0 .36-.065.692-.195.997-.13.304-.32.569-.57.794-.25.224-.56.4-.933.524a4.014 4.014 0 0 1-1.278.187 4.07 4.07 0 0 1-.768-.07 4.421 4.421 0 0 1-.705-.196 3.757 3.757 0 0 1-.622-.295 3.276 3.276 0 0 1-.513-.375l.374-.614a.519.519 0 0 1 .17-.176.463.463 0 0 1 .25-.064.56.56 0 0 1 .311.101c.103.068.223.141.36.221.138.08.304.154.499.221.194.067.437.101.727.101.24 0 .447-.029.622-.086.175-.057.32-.136.435-.236a.948.948 0 0 0 .337-.749.699.699 0 0 0-.165-.48 1.398 1.398 0 0 0-.438-.322c-.183-.09-.39-.17-.623-.24-.232-.07-.468-.144-.708-.224a7.427 7.427 0 0 1-.708-.277 2.437 2.437 0 0 1-.623-.401 1.83 1.83 0 0 1-.438-.592c-.11-.232-.165-.515-.165-.85a2.11 2.11 0 0 1 .723-1.596c.238-.21.53-.375.877-.498a3.615 3.615 0 0 1 1.204-.183c.514 0 .981.082 1.401.247.42.165.772.39 1.057.674l-.36.584zm6.99 1.574c0-.27-.038-.521-.116-.753a1.762 1.762 0 0 0-.34-.607 1.555 1.555 0 0 0-.56-.405 1.9 1.9 0 0 0-.767-.146c-.585 0-1.045.168-1.38.502-.335.335-.547.804-.637 1.409h3.8zm-3.845.988c.02.435.088.81.203 1.128.115.317.268.58.46.79.193.21.423.366.69.468.268.103.566.154.896.154.315 0 .587-.036.817-.109.23-.072.43-.152.6-.24.17-.087.314-.167.434-.24a.65.65 0 0 1 .33-.108c.13 0 .23.05.3.15l.457.592a2.9 2.9 0 0 1-.644.57c-.24.154-.495.28-.765.377-.27.098-.547.168-.832.21a5.642 5.642 0 0 1-.832.064 4 4 0 0 1-1.473-.266 3.276 3.276 0 0 1-1.177-.783 3.614 3.614 0 0 1-.78-1.28c-.187-.51-.28-1.097-.28-1.761a4.3 4.3 0 0 1 .25-1.484 3.55 3.55 0 0 1 .72-1.198 3.37 3.37 0 0 1 1.14-.805 3.725 3.725 0 0 1 1.518-.296c.47 0 .904.076 1.304.228.4.152.744.376 1.034.67.29.295.516.656.679 1.083.162.427.243.913.243 1.457 0 .25-.027.417-.082.502-.055.085-.155.127-.3.127h-4.91zm4.468-7.214l-1.807 1.94a.732.732 0 0 1-.236.188.745.745 0 0 1-.303.052h-.96l1.087-1.813a.767.767 0 0 1 .244-.277c.092-.06.228-.09.408-.09h1.567z" id="Export-sécurisé" fill="#FFF"/><g id="Group-21" transform="translate(53.304 11.098)"><g id="Group-9" transform="translate(5.629 12.942)"><mask id="mask-6" fill="#fff"><use xlink:href="#path-5"/></mask><path d="M.035.043C.252 3.106 2.679 5.52 5.642 5.52s5.39-2.414 5.607-5.477H.035z" id="Fill-7" fill="#FFF" mask="url(#mask-6)"/></g><g id="Group-12" transform="translate(0 .042)"><mask id="mask-8" fill="#fff"><use xlink:href="#path-7"/></mask><path d="M.057 5.518H11.27C11.053 2.455 8.627.04 5.664.04 2.7.04.274 2.455.057 5.518" id="Fill-10" fill="#FFF" mask="url(#mask-8)"/></g><g id="Group-15" transform="translate(0 6.492)"><mask id="mask-10" fill="#fff"><use xlink:href="#path-9"/></mask><path d="M.057.042C.274 3.105 2.7 5.519 5.664 5.519h11.213C16.66 2.456 14.233.042 11.27.042H.057z" id="Fill-13" fill="#FFF" mask="url(#mask-10)"/></g></g></g></g></g></g><g id="Group-4" transform="translate(11.865 11.858)"><ellipse id="Oval-21" fill="#03BCFF" cx="2.63" cy="2.732" rx="2.63" ry="2.732"/><ellipse id="Oval-21-Copy" fill="#1DA7FC" cx="12.275" cy="2.732" rx="2.63" ry="2.732"/><ellipse id="Oval-21-Copy-2" fill="#438BF9" cx="22.796" cy="2.732" rx="2.63" ry="2.732"/></g></g></g></g></g></g></svg>