<svg width="364" height="228" xmlns="http://www.w3.org/2000/svg" xmlns:xlink="http://www.w3.org/1999/xlink"><defs><filter x="-2.1%" y="-10.7%" width="104.2%" height="114.2%" filterUnits="objectBoundingBox" id="filter-1"><feOffset in="SourceAlpha" result="shadowOffsetOuter1"/><feGaussianBlur stdDeviation="2.5" in="shadowOffsetOuter1" result="shadowBlurOuter1"/><feColorMatrix values="0 0 0 0 0 0 0 0 0 0 0 0 0 0 0 0 0 0 0.2 0" in="shadowBlurOuter1" result="shadowMatrixOuter1"/><feMerge><feMergeNode in="shadowMatrixOuter1"/><feMergeNode in="SourceGraphic"/></feMerge></filter><linearGradient x1="146.324%" y1="130.977%" x2="-10.354%" y2="-19.176%" id="linearGradient-2"><stop stop-color="#C962F0" offset="0%"/><stop stop-color="#24A4EA" offset="100%"/></linearGradient><linearGradient x1="17.727%" y1="16.591%" x2="90.618%" y2="91.842%" id="linearGradient-3"><stop stop-color="#488DFC" offset="0%"/><stop stop-color="#31B8FC" offset="100%"/></linearGradient><linearGradient x1="0%" y1="9.544%" x2="100%" y2="100%" id="linearGradient-4"><stop stop-color="#5CA7EC" stop-opacity=".539" offset="0%"/><stop stop-color="#4C88EE" offset="46.331%"/><stop stop-color="#3F59D0" offset="100%"/></linearGradient><linearGradient x1="50%" y1="0%" x2="50%" y2="100%" id="linearGradient-5"><stop stop-color="#3F9EFC" offset="0%"/><stop stop-color="#4B83EB" stop-opacity="0" offset="100%"/></linearGradient><linearGradient x1="1.479%" y1="73.619%" x2="96.808%" y2="81.353%" id="linearGradient-6"><stop stop-color="#488DFC" offset="0%"/><stop stop-color="#31B8FC" offset="100%"/></linearGradient><rect id="path-7" x=".767" y="0" width="208.406" height="53.074" rx="4.39"/><filter x="-10.8%" y="-42.4%" width="121.6%" height="184.8%" filterUnits="objectBoundingBox" id="filter-8"><feMorphology radius="2.5" operator="dilate" in="SourceAlpha" result="shadowSpreadOuter1"/><feOffset in="shadowSpreadOuter1" result="shadowOffsetOuter1"/><feGaussianBlur stdDeviation="5" in="shadowOffsetOuter1" result="shadowBlurOuter1"/><feColorMatrix values="0 0 0 0 0 0 0 0 0 0 0 0 0 0 0 0 0 0 0.1 0" in="shadowBlurOuter1"/></filter></defs><g id="Page-1" stroke="none" stroke-width="1" fill="none" fill-rule="evenodd"><g id="Pistez-vos-fichiers" transform="translate(-284 -126)"><g id="Group-4" transform="translate(285 141)"><g id="Group-6" filter="url(#filter-1)"><g id="Group-5"><g id="Group-2" transform="translate(.615 .593)"><g id="Group" transform="translate(0 23.883)" fill="url(#linearGradient-2)" fill-rule="nonzero" opacity=".098"><path d="M120.067 117.387l10.505 5.08a4.67 4.67 0 0 1 2.16 6.26l-5.275 10.762a4.67 4.67 0 0 1-3.495 2.562l-6.008.91-.973 5.105a4.67 4.67 0 0 1-1.561 2.684l-16.005 13.618-7.997 15.087 2.48 2.657a1.446 1.446 0 0 1-1.423 2.386l-2.559-.669a4.67 4.67 0 0 1-3.148-2.767l-1.946-4.811a4.67 4.67 0 0 1-.203-2.877l9.316-37.512-8.007-7.125-3.762-15.078 4.525-7.377-4.13.62-5.875-7.527-5.06-2.514-11.786-4.2-9.699-15.087-5.884-10.896V51.993l-9.681-16.345-12.224-7.552-7.577 4.191L.885 39.01l8.83-7.125-5.48-1.266-2.079-7.124 6.305-5.038-6.305-.83 1.245-4.61h4.64L3.83 6.724 15.196 0 35.83 11.333l7.603-7.125 16.407 9.64 31.578-3.38v15.943L78.79 28.917l-2.534 6.731L88.47 48.631l2.947-.419 2.087-16.344 8.033-.41 3.34 9.202 4.219-2.506 9.26 20.561-13.049 5.841-10.102 5.466-7.997 10.905v5.457l-2.956.41-2.087-5.867-11.373 1.668-2.526 7.115 2.938 4.2 4.2-3.37 4.218.41-2.104 5.98 5.042.359 1.692 6.277 3.403 1.127a7.648 7.648 0 0 1 7.271-3.604l7.39.735a17.125 17.125 0 0 1 8.485 3.272l2.65 1.96a17.125 17.125 0 0 1 6.412 9.537l.203.794zm198.03 3.126l-6.018-2.178 1.11-3.795-6.604-.545-8.552 7.884-5.357 1.924a4.67 4.67 0 0 0-3.018 5.224l1.5 8.318-.839 2.446 1.714.975a4.67 4.67 0 0 0 3.42.477l11.656-2.852 5.223 3.017 2.472-1.349.858 2.569a4.67 4.67 0 0 0 3.171 3.018l2.518.705a4.67 4.67 0 0 0 3.686-.507l3.229-1.964 2.279-12.206a4.67 4.67 0 0 0-1.31-4.18l-5.686-5.615-1.169-2.161a2.288 2.288 0 0 0-4.282.795zM285.34 107.38l6.731 1.434 3.114-10.68-1.829-1.756-9.07 6.37 1.054 4.632zm26.42.542l3.288 3.23 4.244.263 1.786-1.55 6.029 3.612-2.466-4.932-11.248-5.172a2.66 2.66 0 0 0-1.633 4.549zm9.998-65.95h-1.983l-.278 9.76-5.08 10.323-6.496 4.604a2.184 2.184 0 0 0 3.263 2.045l8.313-4.752.565-7.063 3.93-3.51-3.095-2.422 1.687-5.717-.826-3.268zm29.496 104.837l.262 2.379-6.719 6.11a1.27 1.27 0 0 0 .732 2.205l.097.01a4.67 4.67 0 0 0 4.311-2.02l3.546-5.206 3.988-5.241-2.565-.273a2.269 2.269 0 0 0-3.652 2.036zM167.2 26.258v7.94l5.697-2.415 1.61-2.425-6.162-11.482-3.64 2.45.223 3.066-3.425 4-.232 4.174h4.114l1.815-5.308zm49.564 93.575l-.215 9.148 3.512 1.594 3.477-10.957-.89-4.587-5.884 4.802zm124.02-93.225l.27 6.327-7.161 8.796-.271-9.896 9.35-11.266-5.76.847-7.46 6.03-9.106-.541-6.872 6.597 4.946 3.56-5.77 15.926-4.946.847-3.047 4.389 1.366 5.768a3.05 3.05 0 0 1-4.417-2.055l-.267-1.252-3.047-4.137-4.132 4.372 3.3 9.329-3.416 6.249a4.67 4.67 0 0 1-3.851 2.423l-7.608.404-2.188 3.577 4.666 6.86-4.946 4.127-5.078-5.262-.184 4.957 4.43 4.956 1.935 8.779 5.524 1.955 7.46 3.019-13.781-2.46-5.796-5.49-.637-.907a2.009 2.009 0 0 1 2.546-2.95l-3.301-6.012-.674-8.212-3.152.794-3.852-8.22-10.76 7.426v4.704l-3.861 3.822-4.93-12.357-5.498-6.597-13.238-2.47-3.843-3.272-1.944 1.09 2.74 6.598 4.396-2.2 5.796 4.39-17.064 10.158-8.843-17.296-1.847.323 9.009 20.542 8.816-4.128-2.74 9.626-8.825 7.94 1.366 11.816-4.956 3.831-7.998 15.028a4.67 4.67 0 0 1-3.29 2.4l-3.176.576a4.67 4.67 0 0 1-5.146-2.804l-5.976-14.388a4.67 4.67 0 0 1-.247-2.801l1.625-7.34-4.964-15.402-14.75.958a4.67 4.67 0 0 1-3.546-1.3l-6.245-6.028a4.67 4.67 0 0 1-1.398-3.882l1.252-11.156a4.67 4.67 0 0 1 1.044-2.458l7.104-8.58a4.67 4.67 0 0 1 2.809-1.626l15.919-2.727 1.112 4.651 7.17 4.66 2.74-3.83 10.944 2.792 2.828-1.702 1.252-4.101-7.555-1.266-2.443-4.206-1.777-.907-1.559 5.331-3.37-4.232.218-3.543-4.5-3.551-2.67-1.336.228 3.56 5.585 3.78-2.906 3.35-4.001-5.34-2.898-3.351-6.698 3.35-4.684 7.34-7.136-1.109-.446-8.892 9.132.637-2.88-4.642-1.796-3.805 6.917-2.234 3.79-5.096 3.126-.236-.674-2.88 2.005-2.679 1.567 4.442 8.694.218 2.443-6.24 3.37 1.127-1.129-4.215 5.183-1.65-1.61-1.902-4.693 1.31-1.646-3.989-.745-1.98 1.883-1.336 1.646-4.18-1.743-.262-2.906 3.56-2.443 5.315 2.705 2.88-2.705 7.12-4.019 1.563-2.215-7.104-4.692 2.67-2.224-1.326.21-6.894 4.027-3.089 3.354-8.229 8.483-4.651 21.17 3.874c24.418-2.556 68.728-7.243 68.728-7.243l73.106 10.289 2.749 7.688-9.937 5.506-7.53 1.571zM215.77 54.191l-11.91-6.002-3.662 6.22 1.602 2.87 6.9-1.099 5.046 1.335 2.024-3.324zm11.284 7.988l-1.062-6.936-2.201-3.357 2.646-1.126v-3.349l-6.774 3.806 2.38 6.277-1.07 4.245 6.08.44zm-99.2-54.296l-6.293-1.665-7.784 8.003 10.003 25.068 4.731 1.127.373-8.148 3.204-1.896.187-3.092 3.302-5.97-2.308-4.501-5.415-8.926z" id="Shape"/></g><g id="Group-23" transform="translate(45.998)"><circle id="Oval-3" stroke="url(#linearGradient-4)" stroke-width="5.307" fill="url(#linearGradient-3)" cx="75.188" cy="152.146" r="7.961"/><circle id="Oval-3-Copy" stroke="url(#linearGradient-4)" stroke-width="5.307" fill="url(#linearGradient-3)" cx="5.307" cy="91.11" r="7.961"/><circle id="Oval-3-Copy-2" stroke="url(#linearGradient-4)" stroke-width="5.307" fill="url(#linearGradient-3)" cx="183.99" cy="104.379" r="7.961"/><circle id="Oval-3-Copy-3" stroke="url(#linearGradient-4)" stroke-width="5.307" fill="url(#linearGradient-3)" cx="264.486" cy="87.572" r="7.961"/><g id="Group-3" transform="translate(47.195)"><path id="Rectangle-8" fill="url(#linearGradient-5)" transform="matrix(1 0 0 -1 0 151.228)" d="M27.439 2.195h1.769v146.838h-1.769z"/><g id="Rectangle-5"><use fill="#000" filter="url(#filter-8)" xlink:href="#path-7"/><use fill="url(#linearGradient-6)" xlink:href="#path-7"/></g><path d="M54.033 21.984c.232 0 .428-.028.586-.084.158-.056.285-.13.38-.223a.818.818 0 0 0 .204-.326 1.229 1.229 0 0 0-.007-.789.738.738 0 0 0-.219-.298 1.022 1.022 0 0 0-.384-.188 2.138 2.138 0 0 0-.565-.065h-1.261v1.973h1.266zM52.767 17.2v1.945h.996c.428 0 .751-.078.97-.233.219-.155.328-.401.328-.74 0-.35-.1-.6-.298-.749-.198-.149-.509-.223-.93-.223h-1.066zm1.065-.968c.44 0 .818.042 1.131.125.314.084.57.204.77.359.2.155.347.343.44.563.093.22.14.468.14.744 0 .159-.023.31-.07.454-.047.144-.119.28-.216.405-.098.126-.222.24-.373.342-.15.102-.33.19-.537.26.924.209 1.387.708 1.387 1.5 0 .285-.055.548-.163.79-.109.242-.267.45-.475.626a2.268 2.268 0 0 1-.768.412 3.33 3.33 0 0 1-1.042.149h-2.541v-6.73h2.317zm5.676 1.88c.353 0 .675.057.965.172.29.115.539.278.745.489.206.21.365.468.477.772.112.304.167.644.167 1.02 0 .378-.055.72-.167 1.023a2.085 2.085 0 0 1-1.222 1.27c-.29.115-.612.173-.965.173-.357 0-.681-.058-.973-.172a2.08 2.08 0 0 1-.747-.494 2.22 2.22 0 0 1-.48-.777 2.916 2.916 0 0 1-.169-1.024c0-.375.057-.715.17-1.019a2.16 2.16 0 0 1 .48-.772c.206-.211.454-.374.746-.489.292-.115.616-.172.973-.172zm0 4.035c.397 0 .69-.134.882-.4.19-.267.286-.658.286-1.173s-.096-.908-.286-1.178c-.191-.27-.485-.405-.882-.405-.404 0-.702.136-.896.408-.194.271-.291.663-.291 1.175s.097.902.29 1.17c.195.268.493.403.897.403zm4.381-.424c.13.158.273.27.426.335.154.065.316.098.486.098.177 0 .336-.032.477-.096a.908.908 0 0 0 .361-.297c.1-.135.175-.307.228-.517.053-.21.08-.46.08-.751 0-.525-.088-.904-.261-1.138-.174-.235-.424-.352-.75-.352-.22 0-.412.05-.577.152-.164.1-.32.242-.47.425v2.141zm0-2.95a2.37 2.37 0 0 1 .64-.482c.234-.12.502-.18.803-.18a1.597 1.597 0 0 1 1.315.63c.156.205.277.45.36.739.084.289.126.613.126.973 0 .387-.048.74-.144 1.056a2.427 2.427 0 0 1-.412.812c-.179.225-.393.4-.645.524-.251.124-.53.186-.837.186-.15 0-.284-.015-.405-.044a1.508 1.508 0 0 1-.335-.124 1.353 1.353 0 0 1-.282-.193 2.375 2.375 0 0 1-.244-.254l-.051.322c-.019.08-.05.138-.096.172a.297.297 0 0 1-.184.051h-.758v-6.915h1.15v2.727zm7.54-.075c.186-.174.39-.315.614-.423a1.78 1.78 0 0 1 .786-.163c.261 0 .492.044.694.132.201.089.37.213.505.373s.237.35.307.572c.07.222.105.466.105.733v3.039h-1.15v-3.039c0-.291-.067-.517-.2-.677-.133-.16-.337-.24-.61-.24-.198 0-.384.045-.558.135-.174.09-.338.213-.493.368v3.453h-1.15v-6.915h1.15v2.652zm6.62 2.225a6.34 6.34 0 0 0-.838.086 2.233 2.233 0 0 0-.544.16.716.716 0 0 0-.294.228.495.495 0 0 0-.088.284c0 .202.06.346.18.433.119.087.274.13.467.13.236 0 .44-.042.612-.128.172-.085.34-.215.505-.388v-.805zm-2.634-2.071c.549-.503 1.21-.754 1.982-.754.28 0 .53.046.75.137.22.092.406.219.558.382.152.163.267.357.347.584.079.226.118.474.118.744v3.016h-.521a.527.527 0 0 1-.251-.049c-.06-.032-.106-.098-.14-.198l-.102-.344a4.155 4.155 0 0 1-.354.286 1.925 1.925 0 0 1-.756.335c-.141.03-.297.044-.468.044-.202 0-.388-.027-.558-.081a1.227 1.227 0 0 1-.442-.244 1.097 1.097 0 0 1-.289-.405 1.436 1.436 0 0 1-.102-.563 1.054 1.054 0 0 1 .258-.703c.091-.109.21-.211.356-.307s.325-.18.537-.251c.213-.072.46-.13.743-.175a7.36 7.36 0 0 1 .968-.081v-.28c0-.32-.069-.556-.205-.71-.137-.153-.334-.23-.591-.23-.186 0-.34.022-.463.066-.123.043-.23.092-.324.146l-.253.147a.502.502 0 0 1-.254.065.332.332 0 0 1-.205-.063.525.525 0 0 1-.135-.147l-.204-.367zm7.746.265a.307.307 0 0 1-.098.105.253.253 0 0 1-.13.03.41.41 0 0 1-.18-.047 12.23 12.23 0 0 0-.22-.104 2.025 2.025 0 0 0-.287-.105 1.37 1.37 0 0 0-.379-.046c-.226 0-.404.048-.533.144a.45.45 0 0 0-.193.377.36.36 0 0 0 .1.258.9.9 0 0 0 .266.184c.11.053.235.1.374.142.14.042.282.087.426.137.144.05.286.106.426.17.14.064.264.144.374.242.11.098.199.215.266.351.066.137.1.301.1.494 0 .23-.041.44-.124.635a1.372 1.372 0 0 1-.365.502c-.161.142-.36.252-.598.33-.237.08-.511.12-.821.12a2.6 2.6 0 0 1-.482-.045 2.843 2.843 0 0 1-.451-.123 2.498 2.498 0 0 1-.4-.186 1.943 1.943 0 0 1-.324-.233l.265-.437a.375.375 0 0 1 .121-.121.34.34 0 0 1 .177-.042c.071 0 .139.02.203.06.063.04.137.084.22.13.084.047.183.09.296.13.113.041.257.061.43.061.137 0 .254-.016.352-.049a.743.743 0 0 0 .242-.127.48.48 0 0 0 .14-.184.551.551 0 0 0 .044-.217.386.386 0 0 0-.1-.274.876.876 0 0 0-.266-.186c-.11-.053-.235-.1-.377-.142a12.455 12.455 0 0 1-.432-.138 4.004 4.004 0 0 1-.433-.174 1.475 1.475 0 0 1-.377-.254 1.148 1.148 0 0 1-.265-.377 1.315 1.315 0 0 1-.1-.54c0-.195.038-.381.116-.558a1.31 1.31 0 0 1 .342-.463c.15-.132.338-.237.563-.316.225-.08.485-.12.78-.12.328 0 .628.055.898.164.27.108.495.251.675.428l-.261.414zm5.547-1.005a2.6 2.6 0 0 1 .966.172c.29.115.538.278.745.489.206.21.365.468.477.772.111.304.167.644.167 1.02 0 .378-.056.72-.167 1.023a2.085 2.085 0 0 1-1.222 1.27 2.6 2.6 0 0 1-.966.173c-.356 0-.68-.058-.972-.172a2.08 2.08 0 0 1-.747-.494 2.22 2.22 0 0 1-.48-.777 2.916 2.916 0 0 1-.17-1.024c0-.375.057-.715.17-1.019.114-.304.274-.561.48-.772.206-.211.455-.374.747-.489.291-.115.616-.172.972-.172zm0 4.035c.398 0 .692-.134.882-.4.191-.267.287-.658.287-1.173s-.096-.908-.287-1.178c-.19-.27-.484-.405-.882-.405-.403 0-.701.136-.895.408-.194.271-.291.663-.291 1.175s.097.902.29 1.17c.195.268.493.403.896.403zm4.382-.424c.13.158.272.27.426.335a1.268 1.268 0 0 0 .97 0 .921.921 0 0 0 .356-.298c.098-.133.173-.301.226-.505.053-.203.079-.442.079-.719 0-.279-.022-.515-.067-.71a1.371 1.371 0 0 0-.194-.472.763.763 0 0 0-.304-.265.95.95 0 0 0-.408-.084c-.239 0-.442.05-.61.152a1.85 1.85 0 0 0-.474.425v2.141zm-.06-2.885a2.49 2.49 0 0 1 .665-.535c.248-.137.54-.205.875-.205.26 0 .499.054.714.163a1.6 1.6 0 0 1 .559.472c.156.206.277.46.363.763.085.303.128.65.128 1.04 0 .357-.048.688-.145.992a2.426 2.426 0 0 1-.411.79 1.903 1.903 0 0 1-.647.524 1.882 1.882 0 0 1-.85.189c-.266 0-.494-.041-.684-.124a1.671 1.671 0 0 1-.507-.342v1.955h-1.15v-6.334h.703c.15 0 .247.07.294.21l.093.442zm7.271 1.187c0-.15-.02-.29-.063-.422a1.001 1.001 0 0 0-.188-.346.876.876 0 0 0-.319-.235 1.094 1.094 0 0 0-.449-.086c-.332 0-.593.094-.784.283-.191.19-.313.458-.365.806h2.168zm-2.192.693c.019.245.062.457.13.635a1.3 1.3 0 0 0 .27.442c.112.117.245.203.398.26.154.058.324.087.51.087s.347-.022.482-.065c.135-.044.252-.092.353-.144.101-.053.19-.101.266-.145a.445.445 0 0 1 .22-.065c.097 0 .168.036.215.107l.33.419a1.92 1.92 0 0 1-.428.375c-.158.1-.324.181-.496.242-.172.06-.347.103-.526.128a3.765 3.765 0 0 1-.518.037 2.55 2.55 0 0 1-.927-.165 2.073 2.073 0 0 1-.744-.49 2.293 2.293 0 0 1-.498-.8 3.098 3.098 0 0 1-.182-1.105c0-.325.053-.632.159-.919a2.21 2.21 0 0 1 .453-.75c.197-.212.438-.38.722-.504s.604-.186.96-.186c.302 0 .58.048.834.144a1.823 1.823 0 0 1 1.086 1.101c.104.268.156.574.156.919 0 .174-.018.29-.056.351-.037.06-.108.09-.214.09H98.11zm5.159-1.945a3.11 3.11 0 0 1 .305-.268 1.926 1.926 0 0 1 .723-.344c.137-.033.286-.05.447-.05.26 0 .492.045.694.133.201.089.37.213.505.373s.237.35.307.572c.07.222.104.466.104.733v3.039h-1.15v-3.039c0-.291-.066-.517-.2-.677-.133-.16-.336-.24-.609-.24-.198 0-.384.045-.558.135-.174.09-.338.213-.494.368v3.453h-1.149v-4.775h.703c.149 0 .246.07.293.21l.079.377zm7.248 1.252c0-.15-.02-.29-.063-.422a1.001 1.001 0 0 0-.188-.346.876.876 0 0 0-.319-.235 1.094 1.094 0 0 0-.449-.086c-.332 0-.593.094-.784.283-.19.19-.313.458-.365.806h2.168zm-2.192.693c.019.245.062.457.13.635a1.3 1.3 0 0 0 .27.442c.112.117.245.203.399.26.153.058.323.087.51.087.185 0 .346-.022.48-.065.136-.044.254-.092.354-.144.101-.053.19-.101.266-.145a.445.445 0 0 1 .22-.065c.097 0 .168.036.215.107l.33.419a1.92 1.92 0 0 1-.428.375c-.158.1-.323.181-.496.242-.172.06-.347.103-.525.128a3.765 3.765 0 0 1-.52.037 2.55 2.55 0 0 1-.925-.165 2.073 2.073 0 0 1-.745-.49 2.293 2.293 0 0 1-.498-.8 3.098 3.098 0 0 1-.181-1.105c0-.325.052-.632.158-.919a2.21 2.21 0 0 1 .454-.75c.197-.212.437-.38.72-.504.285-.124.605-.186.962-.186.3 0 .578.048.833.144a1.823 1.823 0 0 1 1.086 1.101c.104.268.156.574.156.919 0 .174-.018.29-.055.351-.038.06-.109.09-.215.09h-2.955zm7.081-1.312a1.131 1.131 0 0 0-.426-.335 1.256 1.256 0 0 0-.965 0 .947.947 0 0 0-.359.295c-.099.132-.175.3-.228.503a2.915 2.915 0 0 0-.079.719c0 .279.023.515.068.71.045.193.11.351.193.474a.736.736 0 0 0 .307.265.978.978 0 0 0 .405.082c.239 0 .442-.05.61-.15.167-.099.325-.24.474-.423v-2.14zm1.15-3.36v6.915h-.703c-.152 0-.248-.07-.289-.21l-.097-.46a2.41 2.41 0 0 1-.663.535 1.79 1.79 0 0 1-.873.205c-.26 0-.5-.055-.717-.163a1.597 1.597 0 0 1-.56-.472 2.264 2.264 0 0 1-.363-.766 3.866 3.866 0 0 1-.128-1.042c0-.354.048-.683.144-.987a2.4 2.4 0 0 1 .414-.791c.18-.223.396-.398.647-.524.251-.125.533-.188.847-.188.267 0 .495.042.684.126.19.083.358.197.507.34v-2.518h1.15zm8.195 5.328a.25.25 0 0 1 .182.08l.493.534a2.71 2.71 0 0 1-1.008.778c-.398.18-.877.27-1.435.27-.5 0-.949-.086-1.348-.257a2.97 2.97 0 0 1-1.67-1.8 4.088 4.088 0 0 1-.226-1.383c0-.505.08-.968.242-1.389a3.085 3.085 0 0 1 1.731-1.796 3.48 3.48 0 0 1 1.35-.254c.49 0 .925.081 1.305.242.38.162.704.373.97.633l-.418.582a.38.38 0 0 1-.096.098.27.27 0 0 1-.16.042.307.307 0 0 1-.145-.04 2.05 2.05 0 0 1-.162-.098 5.888 5.888 0 0 0-.205-.128 1.685 1.685 0 0 0-.27-.128 2.203 2.203 0 0 0-.356-.097 2.46 2.46 0 0 0-.468-.04c-.3 0-.576.054-.826.16-.25.108-.464.263-.644.466s-.32.451-.42.745a3.12 3.12 0 0 0-.148 1.002c0 .379.053.715.16 1.01.107.295.252.543.436.745.183.201.398.356.646.463a2 2 0 0 0 .8.16c.171 0 .326-.009.464-.028.138-.018.265-.048.381-.088a1.61 1.61 0 0 0 .33-.156c.105-.063.208-.142.31-.235a.441.441 0 0 1 .098-.067.236.236 0 0 1 .107-.026zm3.367-3.262a2.6 2.6 0 0 1 .966.172c.29.115.538.278.744.489.207.21.366.468.477.772.112.304.168.644.168 1.02 0 .378-.056.72-.168 1.023a2.085 2.085 0 0 1-1.222 1.27c-.29.115-.611.173-.965.173-.357 0-.68-.058-.972-.172a2.08 2.08 0 0 1-.747-.494 2.22 2.22 0 0 1-.48-.777 2.916 2.916 0 0 1-.17-1.024c0-.375.057-.715.17-1.019.114-.304.273-.561.48-.772.206-.211.455-.374.747-.489.291-.115.615-.172.972-.172zm0 4.035c.397 0 .691-.134.882-.4.19-.267.286-.658.286-1.173s-.095-.908-.286-1.178c-.19-.27-.485-.405-.882-.405-.403 0-.702.136-.896.408-.194.271-.29.663-.29 1.175s.096.902.29 1.17c.194.268.493.403.896.403zm4.307-3.374a3.11 3.11 0 0 1 .305-.268 1.926 1.926 0 0 1 .724-.344c.136-.033.285-.05.447-.05.26 0 .491.045.693.133.202.089.37.213.505.373s.237.35.307.572c.07.222.105.466.105.733v3.039h-1.15v-3.039c0-.291-.066-.517-.2-.677-.133-.16-.336-.24-.61-.24-.198 0-.384.045-.558.135-.174.09-.338.213-.493.368v3.453h-1.15v-4.775h.703c.149 0 .247.07.293.21l.08.377zm4.429 4.188v-3.91l-.415-.064a.489.489 0 0 1-.216-.096.237.237 0 0 1-.082-.193v-.47h.713v-.153c0-.292.048-.563.144-.812a1.73 1.73 0 0 1 .437-.65c.196-.183.443-.326.742-.43a3.24 3.24 0 0 1 1.06-.156c.13 0 .262.007.397.021.135.014.252.036.351.067l-.037.596c-.006.071-.045.114-.116.128-.072.014-.16.021-.265.021a3.01 3.01 0 0 0-.757.08 1.26 1.26 0 0 0-.493.234.865.865 0 0 0-.27.391 1.67 1.67 0 0 0-.081.547v.116h2.96v4.733h-1.15v-3.914h-1.773v3.914h-1.15zm8.244-3.555a1.131 1.131 0 0 0-.426-.335 1.256 1.256 0 0 0-.966 0 .947.947 0 0 0-.358.295c-.1.132-.175.3-.228.503-.053.203-.08.442-.08.719 0 .279.023.515.068.71.045.193.11.351.193.474a.736.736 0 0 0 .307.265.978.978 0 0 0 .405.082c.24 0 .442-.05.61-.15a1.8 1.8 0 0 0 .475-.423v-2.14zm1.15-3.36v6.915h-.704c-.152 0-.248-.07-.288-.21l-.098-.46a2.41 2.41 0 0 1-.663.535 1.79 1.79 0 0 1-.873.205c-.26 0-.499-.055-.716-.163a1.597 1.597 0 0 1-.561-.472 2.264 2.264 0 0 1-.363-.766 3.866 3.866 0 0 1-.128-1.042c0-.354.048-.683.144-.987a2.4 2.4 0 0 1 .414-.791c.18-.223.396-.398.647-.524a1.88 1.88 0 0 1 .847-.188c.267 0 .495.042.684.126.19.083.359.197.508.34v-2.518h1.15zm4.209 3.979c0-.15-.021-.29-.063-.422a1.001 1.001 0 0 0-.189-.346.876.876 0 0 0-.319-.235 1.094 1.094 0 0 0-.449-.086c-.332 0-.593.094-.784.283-.19.19-.312.458-.365.806h2.169zm-2.192.693c.018.245.062.457.13.635a1.3 1.3 0 0 0 .27.442c.112.117.244.203.398.26.153.058.323.087.51.087.185 0 .346-.022.481-.065.135-.044.253-.092.354-.144.1-.053.189-.101.265-.145a.445.445 0 0 1 .221-.065c.096 0 .168.036.214.107l.33.419a1.92 1.92 0 0 1-.428.375c-.158.1-.323.181-.495.242-.172.06-.348.103-.526.128a3.765 3.765 0 0 1-.519.037 2.55 2.55 0 0 1-.926-.165 2.073 2.073 0 0 1-.745-.49 2.293 2.293 0 0 1-.498-.8 3.098 3.098 0 0 1-.181-1.105c0-.325.053-.632.158-.919a2.21 2.21 0 0 1 .454-.75c.197-.212.437-.38.721-.504s.604-.186.961-.186c.301 0 .579.048.833.144.255.096.473.237.656.421.183.185.327.411.43.68.105.268.157.574.157.919 0 .174-.019.29-.056.351-.037.06-.109.09-.214.09h-2.955zm5.158-1.945a3.11 3.11 0 0 1 .305-.268 1.926 1.926 0 0 1 .724-.344c.136-.033.285-.05.447-.05.26 0 .491.045.693.133.202.089.37.213.505.373s.237.35.307.572c.07.222.105.466.105.733v3.039h-1.15v-3.039c0-.291-.066-.517-.2-.677-.133-.16-.336-.24-.61-.24-.198 0-.384.045-.558.135-.174.09-.338.213-.493.368v3.453h-1.15v-4.775h.703c.15 0 .247.07.293.21l.08.377zm8.924 4.188h-1.15v-3.914h-2.215v2.588c0 .149.037.265.11.349a.377.377 0 0 0 .3.125.54.54 0 0 0 .18-.025.986.986 0 0 0 .22-.107.16.16 0 0 1 .084-.026c.034 0 .062.009.084.026a.388.388 0 0 1 .07.077l.344.558a1.74 1.74 0 0 1-.577.316 2.148 2.148 0 0 1-.675.107c-.416 0-.734-.117-.956-.35-.222-.235-.333-.559-.333-.971v-2.667h-.489a.224.224 0 0 1-.158-.06c-.043-.04-.065-.101-.065-.182v-.456l.768-.13.242-1.298a.255.255 0 0 1 .088-.145.263.263 0 0 1 .168-.05h.595v1.502h3.365v4.733zm.2-6.185c0 .1-.02.193-.06.282a.759.759 0 0 1-.398.386.738.738 0 0 1-.57 0 .754.754 0 0 1-.384-.386.693.693 0 0 1-.058-.282.7.7 0 0 1 .058-.286.734.734 0 0 1 .384-.39.738.738 0 0 1 .807.158.77.77 0 0 1 .16.232.67.67 0 0 1 .061.286zm3.493 4.147a6.34 6.34 0 0 0-.838.086 2.233 2.233 0 0 0-.544.16.716.716 0 0 0-.293.228.495.495 0 0 0-.089.284c0 .202.06.346.18.433.119.087.275.13.467.13.236 0 .44-.042.612-.128.172-.085.34-.215.505-.388v-.805zm-2.634-2.071c.55-.503 1.21-.754 1.982-.754.28 0 .53.046.75.137.22.092.406.219.558.382.152.163.268.357.347.584.079.226.118.474.118.744v3.016h-.52a.527.527 0 0 1-.252-.049c-.059-.032-.106-.098-.14-.198l-.102-.344a4.156 4.156 0 0 1-.354.286 1.925 1.925 0 0 1-.756.335c-.141.03-.297.044-.468.044-.201 0-.387-.027-.558-.081a1.227 1.227 0 0 1-.442-.244 1.097 1.097 0 0 1-.289-.405 1.436 1.436 0 0 1-.102-.563 1.054 1.054 0 0 1 .258-.703c.092-.109.21-.211.356-.307s.325-.18.538-.251c.212-.072.46-.13.742-.175a7.36 7.36 0 0 1 .968-.081v-.28c0-.32-.068-.556-.205-.71-.136-.153-.333-.23-.59-.23-.187 0-.341.022-.464.066-.122.043-.23.092-.323.146l-.254.147a.502.502 0 0 1-.254.065.332.332 0 0 1-.204-.063.525.525 0 0 1-.135-.147l-.205-.367zm5.996-2.806v6.915h-1.15v-6.915h1.15zm.98 6.282a.716.716 0 0 1 .2-.498.704.704 0 0 1 .503-.205c.1 0 .191.019.277.056a.685.685 0 0 1 .375.372.69.69 0 0 1 .055.275.685.685 0 0 1-.207.498.707.707 0 0 1-.5.2.728.728 0 0 1-.28-.053.674.674 0 0 1-.423-.645zm3.525-.605c.13.158.273.27.426.335a1.268 1.268 0 0 0 .97 0 .921.921 0 0 0 .357-.298c.097-.133.173-.301.225-.505.053-.203.08-.442.08-.719a3.2 3.2 0 0 0-.068-.71 1.371 1.371 0 0 0-.193-.472.763.763 0 0 0-.305-.265.95.95 0 0 0-.407-.084c-.24 0-.442.05-.61.152a1.85 1.85 0 0 0-.475.425v2.141zm-.06-2.885a2.49 2.49 0 0 1 .665-.535c.249-.137.54-.205.875-.205.261 0 .5.054.715.163.215.108.401.266.558.472.157.206.278.46.363.763.085.303.128.65.128 1.04 0 .357-.048.688-.144.992a2.426 2.426 0 0 1-.412.79 1.903 1.903 0 0 1-.647.524 1.882 1.882 0 0 1-.85.189c-.266 0-.494-.041-.683-.124a1.671 1.671 0 0 1-.508-.342v1.955h-1.149v-6.334h.703c.149 0 .246.07.293.21l.093.442zm7.192.568a1.131 1.131 0 0 0-.425-.335 1.256 1.256 0 0 0-.966 0 .947.947 0 0 0-.358.295 1.4 1.4 0 0 0-.228.503c-.053.203-.08.442-.08.719 0 .279.023.515.068.71.045.193.11.351.193.474a.736.736 0 0 0 .307.265.978.978 0 0 0 .405.082c.239 0 .442-.05.61-.15.167-.099.325-.24.474-.423v-2.14zm1.15-3.36v6.915h-.703c-.152 0-.248-.07-.288-.21l-.098-.46a2.41 2.41 0 0 1-.663.535 1.79 1.79 0 0 1-.873.205c-.26 0-.5-.055-.716-.163a1.597 1.597 0 0 1-.561-.472 2.264 2.264 0 0 1-.363-.766 3.866 3.866 0 0 1-.128-1.042c0-.354.048-.683.144-.987a2.4 2.4 0 0 1 .414-.791c.18-.223.396-.398.647-.524.251-.125.534-.188.847-.188.267 0 .495.042.684.126.19.083.358.197.507.34v-2.518h1.15zm1.468 6.915v-3.91l-.414-.064a.489.489 0 0 1-.216-.096.237.237 0 0 1-.082-.193v-.47h.712v-.353c0-.273.041-.519.124-.736.082-.217.2-.402.353-.554.154-.152.34-.268.561-.349.22-.08.469-.12.745-.12.22 0 .425.029.614.088l-.023.577a.18.18 0 0 1-.038.105.206.206 0 0 1-.086.06.465.465 0 0 1-.123.028 1.5 1.5 0 0 1-.149.007c-.136 0-.258.015-.365.044a.615.615 0 0 0-.442.442c-.04.12-.058.268-.058.445v.316h1.242v.82h-1.205v3.913h-1.15z" id="Bob-has-opened-Confi" fill="#FFF"/><path d="M52.484 29.567v2.04h2.398v.643h-2.398v2.509h-.79v-5.836h3.595v.644h-2.805zm4.392 1.067v4.125h-.725v-4.125h.725zm.154-1.295c0 .07-.014.136-.042.197a.569.569 0 0 1-.114.163.523.523 0 0 1-.566.112.512.512 0 0 1-.161-.112.556.556 0 0 1-.11-.163.51.51 0 0 1 0-.4.541.541 0 0 1 .27-.278.51.51 0 0 1 .566.112.552.552 0 0 1 .115.167.489.489 0 0 1 .042.202zm1.782-.578v5.998h-.725V28.76h.725zm3.932 3.485a1.43 1.43 0 0 0-.072-.462 1.038 1.038 0 0 0-.207-.362.927.927 0 0 0-.332-.237 1.12 1.12 0 0 0-.444-.083c-.347 0-.622.101-.825.303-.202.203-.327.483-.376.841h2.256zm.586 1.934c-.09.109-.197.203-.322.283a2.04 2.04 0 0 1-.4.198 2.698 2.698 0 0 1-.894.155 2.1 2.1 0 0 1-.788-.145 1.73 1.73 0 0 1-.623-.423 1.943 1.943 0 0 1-.41-.69 2.807 2.807 0 0 1-.146-.945c0-.288.044-.557.132-.807a1.9 1.9 0 0 1 .38-.65c.166-.182.369-.326.608-.43.238-.105.507-.158.806-.158.247 0 .476.042.686.125a1.552 1.552 0 0 1 .906.936c.087.23.13.49.13.784 0 .114-.012.19-.036.228-.025.038-.071.057-.139.057h-2.757c.009.26.045.487.108.68.064.193.153.354.267.483.114.129.25.225.407.289.158.064.334.095.53.095.181 0 .338-.02.47-.063a2.238 2.238 0 0 0 .578-.272.316.316 0 0 1 .165-.064.16.16 0 0 1 .138.07l.204.264zm5.905-2.813a.324.324 0 0 1-.065.069.146.146 0 0 1-.09.024.242.242 0 0 1-.134-.05 2.365 2.365 0 0 0-.182-.113 1.259 1.259 0 0 0-.65-.163c-.203 0-.382.036-.537.108a1.034 1.034 0 0 0-.388.312 1.41 1.41 0 0 0-.237.493 2.435 2.435 0 0 0-.079.647c0 .25.028.472.086.666.057.194.137.357.242.488.104.132.23.233.378.302.148.069.315.104.5.104.176 0 .321-.021.435-.064.114-.042.208-.088.283-.14a2.59 2.59 0 0 0 .187-.14.23.23 0 0 1 .149-.064.16.16 0 0 1 .138.07l.204.264c-.09.112-.191.207-.305.285a1.881 1.881 0 0 1-.369.198c-.132.053-.27.091-.413.116-.144.024-.29.037-.44.037-.258 0-.497-.048-.719-.143a1.639 1.639 0 0 1-.576-.413 1.936 1.936 0 0 1-.383-.666 2.712 2.712 0 0 1-.138-.9c0-.307.043-.59.128-.851.086-.26.21-.485.375-.674.164-.189.366-.336.607-.442.24-.106.516-.159.828-.159.29 0 .546.047.768.141.221.094.417.226.588.397l-.191.26zm1.704.093c.13-.282.29-.503.48-.661a1.05 1.05 0 0 1 .697-.239c.087 0 .17.01.25.029.08.019.152.049.214.09l-.053.541c-.016.068-.057.102-.122.102a.84.84 0 0 1-.167-.025 1.15 1.15 0 0 0-.248-.024.99.99 0 0 0-.349.057.814.814 0 0 0-.272.169 1.21 1.21 0 0 0-.216.277c-.064.11-.122.235-.173.376v2.607h-.73v-4.125h.416c.079 0 .133.015.163.044.03.03.05.082.061.155l.049.627zm4.868.786a1.43 1.43 0 0 0-.071-.462 1.038 1.038 0 0 0-.208-.362.927.927 0 0 0-.332-.237 1.12 1.12 0 0 0-.443-.083c-.348 0-.623.101-.825.303-.202.203-.328.483-.377.841h2.256zm.587 1.934c-.09.109-.197.203-.322.283a2.05 2.05 0 0 1-.401.198 2.698 2.698 0 0 1-.894.155c-.285 0-.548-.049-.788-.145a1.73 1.73 0 0 1-.623-.423 1.943 1.943 0 0 1-.41-.69 2.807 2.807 0 0 1-.146-.945c0-.288.044-.557.133-.807a1.9 1.9 0 0 1 .38-.65c.166-.182.368-.326.607-.43.239-.105.508-.158.806-.158.247 0 .476.042.686.125a1.552 1.552 0 0 1 .906.936c.087.23.13.49.13.784 0 .114-.012.19-.036.228-.024.038-.07.057-.138.057h-2.757c.008.26.044.487.108.68.064.193.153.354.267.483.114.129.25.225.407.289.157.064.334.095.53.095.181 0 .338-.02.47-.063a2.238 2.238 0 0 0 .578-.272.316.316 0 0 1 .165-.064.16.16 0 0 1 .138.07l.204.264zm3.186-1.278c-.334.01-.618.037-.853.08a2.426 2.426 0 0 0-.574.164.793.793 0 0 0-.322.24.517.517 0 0 0-.1.31c0 .108.018.202.053.28a.522.522 0 0 0 .36.304.99.99 0 0 0 .267.035c.128 0 .245-.013.35-.039a1.32 1.32 0 0 0 .3-.112c.094-.049.183-.107.269-.175.085-.068.169-.145.25-.232v-.855zm-2.341-1.686c.228-.22.473-.384.737-.493.263-.108.555-.163.875-.163.23 0 .436.038.615.114a1.261 1.261 0 0 1 .729.81c.062.193.094.405.094.636v2.639h-.322a.316.316 0 0 1-.163-.035c-.038-.023-.068-.069-.09-.136l-.081-.391c-.109.1-.214.189-.318.266a1.818 1.818 0 0 1-.69.318 1.994 1.994 0 0 1-.43.043c-.16 0-.31-.023-.451-.067a1.044 1.044 0 0 1-.369-.202.948.948 0 0 1-.248-.34 1.188 1.188 0 0 1-.092-.487.91.91 0 0 1 .134-.47c.09-.15.235-.284.436-.401.201-.117.463-.212.786-.287a5.91 5.91 0 0 1 1.189-.128v-.322c0-.32-.07-.563-.208-.727-.138-.164-.34-.246-.606-.246-.18 0-.33.022-.45.067a1.735 1.735 0 0 0-.314.15 5.62 5.62 0 0 0-.228.151.329.329 0 0 1-.19.067.208.208 0 0 1-.125-.038.355.355 0 0 1-.09-.096l-.13-.232zm5.365 3.608c-.326 0-.577-.091-.752-.273-.175-.182-.262-.444-.262-.786V31.24h-.497a.162.162 0 0 1-.11-.038c-.03-.026-.045-.066-.045-.12v-.29l.676-.085.167-1.275a.16.16 0 0 1 .167-.138h.367v1.421h1.193v.525h-1.193v2.476c0 .174.042.303.126.387a.44.44 0 0 0 .325.126c.077 0 .142-.01.198-.03a.847.847 0 0 0 .145-.068c.04-.024.075-.046.103-.067a.136.136 0 0 1 .076-.03c.038 0 .072.023.102.069l.211.346a1.35 1.35 0 0 1-.452.275c-.176.066-.358.1-.545.1zm4.391-2.578a1.43 1.43 0 0 0-.07-.462 1.038 1.038 0 0 0-.209-.362.927.927 0 0 0-.331-.237 1.12 1.12 0 0 0-.444-.083c-.348 0-.623.101-.825.303-.202.203-.328.483-.376.841h2.255zm.587 1.934c-.09.109-.197.203-.322.283a2.05 2.05 0 0 1-.401.198 2.698 2.698 0 0 1-.894.155c-.285 0-.547-.049-.788-.145a1.73 1.73 0 0 1-.623-.423 1.943 1.943 0 0 1-.409-.69 2.807 2.807 0 0 1-.147-.945c0-.288.045-.557.133-.807a1.9 1.9 0 0 1 .38-.65c.166-.182.368-.326.607-.43.24-.105.508-.158.806-.158.247 0 .476.042.687.125a1.552 1.552 0 0 1 .906.936c.086.23.13.49.13.784 0 .114-.012.19-.037.228-.024.038-.07.057-.138.057h-2.757c.008.26.044.487.108.68.064.193.153.354.267.483.114.129.25.225.407.289.157.064.334.095.53.095.181 0 .338-.02.47-.063a2.238 2.238 0 0 0 .578-.272.316.316 0 0 1 .165-.064.16.16 0 0 1 .138.07l.204.264zm3.638-2.565a1.171 1.171 0 0 0-.44-.38 1.26 1.26 0 0 0-.529-.109c-.383 0-.677.137-.884.412-.206.274-.309.665-.309 1.172 0 .27.023.5.07.69.045.192.113.35.203.473a.8.8 0 0 0 .33.27c.13.058.278.086.443.086.24 0 .448-.054.626-.163a1.79 1.79 0 0 0 .49-.46v-1.991zm.725-2.854v5.998h-.432c-.103 0-.168-.05-.195-.151l-.065-.501a2.246 2.246 0 0 1-.603.513c-.225.13-.486.196-.782.196-.236 0-.45-.046-.643-.137a1.334 1.334 0 0 1-.493-.401 1.91 1.91 0 0 1-.313-.66 3.396 3.396 0 0 1-.11-.908c0-.304.04-.587.122-.849.081-.262.198-.489.35-.682.152-.192.339-.344.56-.454.221-.11.47-.165.747-.165.253 0 .47.043.65.129.18.085.341.204.482.356V28.76h.725zm6.674 5.31c.079 0 .141.022.188.069a.241.241 0 0 1 .069.179v.44h-3.893v-.249a.449.449 0 0 1 .134-.31l1.87-1.876c.154-.158.295-.31.423-.455.128-.145.236-.29.326-.437a2.08 2.08 0 0 0 .207-.446c.05-.15.074-.312.074-.483 0-.17-.028-.32-.082-.45a.882.882 0 0 0-.554-.509 1.305 1.305 0 0 0-.41-.063c-.15 0-.287.022-.412.065a1.067 1.067 0 0 0-.713.806c-.032.096-.076.159-.132.19a.377.377 0 0 1-.234.026l-.379-.065c.038-.266.112-.501.222-.706a1.71 1.71 0 0 1 .987-.83c.215-.073.447-.109.697-.109.247 0 .478.037.692.11.214.074.4.18.558.32.157.14.28.31.37.51.09.202.135.43.135.685 0 .217-.033.419-.098.605a2.398 2.398 0 0 1-.265.531c-.11.168-.24.333-.384.493-.146.16-.3.321-.463.484l-1.539 1.572c.109-.03.219-.054.33-.071.111-.018.219-.027.322-.027h1.954zm6.047-2.456a1.171 1.171 0 0 0-.44-.38 1.26 1.26 0 0 0-.529-.109c-.382 0-.677.137-.883.412-.207.274-.31.665-.31 1.172 0 .27.023.5.07.69.046.192.114.35.203.473a.8.8 0 0 0 .33.27c.13.058.278.086.444.086.239 0 .447-.054.625-.163a1.79 1.79 0 0 0 .49-.46v-1.991zm.725-2.854v5.998h-.431c-.104 0-.169-.05-.196-.151l-.065-.501a2.246 2.246 0 0 1-.603.513c-.225.13-.486.196-.781.196a1.49 1.49 0 0 1-.644-.137 1.334 1.334 0 0 1-.492-.401 1.91 1.91 0 0 1-.314-.66 3.396 3.396 0 0 1-.11-.908c0-.304.04-.587.122-.849.082-.262.198-.489.35-.682.152-.192.339-.344.56-.454.222-.11.47-.165.747-.165.253 0 .47.043.65.129.18.085.341.204.482.356V28.76h.725zm3.382 4.14a6.219 6.219 0 0 0-.853.08 2.426 2.426 0 0 0-.574.165.793.793 0 0 0-.322.24.517.517 0 0 0-.1.31c0 .108.018.202.053.28a.522.522 0 0 0 .36.304.99.99 0 0 0 .268.035c.127 0 .244-.013.35-.039a1.32 1.32 0 0 0 .299-.112c.094-.049.183-.107.269-.175.085-.068.169-.145.25-.232v-.855zm-2.341-1.685c.228-.22.474-.384.737-.493.263-.108.555-.163.875-.163.231 0 .436.038.615.114a1.261 1.261 0 0 1 .73.81c.062.193.093.405.093.636v2.639h-.322a.316.316 0 0 1-.163-.035c-.038-.023-.068-.069-.09-.136l-.08-.391c-.11.1-.215.189-.318.266a1.818 1.818 0 0 1-.69.318 1.994 1.994 0 0 1-.43.043 1.51 1.51 0 0 1-.452-.067 1.044 1.044 0 0 1-.369-.202.948.948 0 0 1-.248-.34 1.188 1.188 0 0 1-.092-.487c0-.163.045-.32.135-.47.09-.15.234-.284.435-.401.201-.117.463-.212.786-.287.323-.075.72-.118 1.19-.128v-.322c0-.32-.07-.563-.208-.727-.139-.164-.341-.246-.607-.246-.18 0-.33.022-.45.067-.12.045-.225.095-.314.15a5.62 5.62 0 0 0-.228.151.329.329 0 0 1-.19.067.208.208 0 0 1-.125-.038.355.355 0 0 1-.09-.096l-.13-.232zm7.613-.582l-2.301 5.342a.38.38 0 0 1-.092.13c-.036.033-.093.05-.169.05h-.537l.753-1.638-1.702-3.884h.627c.063 0 .112.015.149.046a.246.246 0 0 1 .075.104l1.104 2.598a2.9 2.9 0 0 1 .11.359c.037-.128.078-.249.122-.363l1.07-2.594a.232.232 0 0 1 .216-.15h.575zm2.966.68a.16.16 0 0 1-.15.09.283.283 0 0 1-.139-.046 3.192 3.192 0 0 0-.19-.1 1.778 1.778 0 0 0-.266-.101 1.272 1.272 0 0 0-.367-.047c-.122 0-.232.016-.33.047a.792.792 0 0 0-.25.128.567.567 0 0 0-.159.19.508.508 0 0 0-.055.234c0 .106.031.194.092.264s.142.132.242.184c.1.051.215.097.342.136.128.04.259.081.393.126.135.045.266.095.393.149.128.054.242.122.342.203.1.082.182.182.243.3.06.118.091.26.091.425 0 .19-.034.366-.102.528a1.15 1.15 0 0 1-.3.419 1.453 1.453 0 0 1-.49.279 2.007 2.007 0 0 1-.667.102c-.288 0-.549-.047-.782-.14a1.981 1.981 0 0 1-.595-.361l.171-.277a.248.248 0 0 1 .078-.081.209.209 0 0 1 .114-.029c.049 0 .1.019.154.057.055.038.12.08.198.126a1.3 1.3 0 0 0 .698.183c.141 0 .265-.018.37-.054a.778.778 0 0 0 .266-.15.589.589 0 0 0 .156-.215.67.67 0 0 0 .051-.26.432.432 0 0 0-.091-.284.773.773 0 0 0-.243-.19c-.1-.054-.215-.1-.344-.14-.129-.039-.26-.08-.395-.124a4.45 4.45 0 0 1-.395-.148 1.389 1.389 0 0 1-.344-.21.95.95 0 0 1-.242-.311 1.007 1.007 0 0 1-.092-.45 1.097 1.097 0 0 1 .383-.837c.125-.11.278-.198.46-.263s.39-.098.623-.098c.272 0 .515.043.731.129.216.085.403.203.56.352l-.163.265zm5.44 1.588c-.333.01-.618.037-.853.08a2.426 2.426 0 0 0-.574.164.793.793 0 0 0-.321.24.517.517 0 0 0-.1.31c0 .108.018.202.053.28a.522.522 0 0 0 .36.304.99.99 0 0 0 .267.035c.128 0 .244-.013.35-.039a1.32 1.32 0 0 0 .3-.112c.093-.049.183-.107.268-.175.086-.068.17-.145.25-.232v-.855zm-2.34-1.686a2.35 2.35 0 0 1 .736-.493 2.29 2.29 0 0 1 .876-.163c.23 0 .435.038.615.114a1.261 1.261 0 0 1 .728.81c.063.193.094.405.094.636v2.639h-.322a.316.316 0 0 1-.162-.035c-.038-.023-.068-.069-.09-.136l-.081-.391c-.11.1-.215.189-.318.266a1.818 1.818 0 0 1-.69.318 1.994 1.994 0 0 1-.43.043c-.16 0-.31-.023-.452-.067a1.044 1.044 0 0 1-.368-.202.948.948 0 0 1-.249-.34 1.188 1.188 0 0 1-.091-.487.9.9 0 0 1 .134-.47c.09-.15.235-.284.436-.401.2-.117.463-.212.786-.287a5.902 5.902 0 0 1 1.189-.128v-.322c0-.32-.07-.563-.208-.727-.139-.164-.34-.246-.607-.246-.179 0-.329.022-.45.067-.12.045-.225.095-.313.15a5.62 5.62 0 0 0-.228.151.329.329 0 0 1-.19.067.208.208 0 0 1-.126-.038.355.355 0 0 1-.09-.096l-.13-.232zm5.588 1.527c.147 0 .276-.02.387-.061a.789.789 0 0 0 .28-.171.7.7 0 0 0 .172-.263.954.954 0 0 0 .057-.336c0-.252-.077-.453-.23-.602-.153-.15-.375-.224-.666-.224-.293 0-.516.074-.67.224-.153.149-.23.35-.23.602 0 .122.02.234.06.336.039.102.096.19.172.263.076.073.17.13.281.17.112.042.24.062.387.062zm1.307 2.24c0-.1-.028-.182-.085-.245a.57.57 0 0 0-.23-.146 1.48 1.48 0 0 0-.336-.076 6.858 6.858 0 0 0-.405-.034l-.434-.025a5.093 5.093 0 0 1-.424-.04c-.152.07-.276.159-.372.266a.546.546 0 0 0-.073.635c.047.08.12.15.217.208.098.058.22.105.369.139.148.033.322.05.523.05.196 0 .37-.017.525-.052.155-.036.286-.086.393-.151a.74.74 0 0 0 .247-.232.542.542 0 0 0 .085-.298zm.737-4.186v.268c0 .09-.057.147-.17.171l-.47.061c.093.18.14.378.14.595a1.254 1.254 0 0 1-.436.97 1.419 1.419 0 0 1-.489.268c-.19.062-.396.093-.619.093-.193 0-.375-.023-.546-.069a.733.733 0 0 0-.2.173.306.306 0 0 0-.068.186c0 .097.04.171.12.221a.86.86 0 0 0 .315.108c.13.022.28.036.446.041.167.005.338.014.513.027.175.012.346.033.513.063.167.03.316.078.446.146a.84.84 0 0 1 .316.281c.08.12.12.274.12.464 0 .177-.044.348-.132.513a1.388 1.388 0 0 1-.381.442 1.958 1.958 0 0 1-.609.31c-.24.077-.51.116-.812.116a3.09 3.09 0 0 1-.79-.09 1.854 1.854 0 0 1-.562-.24c-.15-.1-.261-.217-.336-.348a.826.826 0 0 1-.112-.413c0-.204.064-.376.191-.518.128-.14.303-.253.526-.338a.752.752 0 0 1-.291-.217.578.578 0 0 1-.108-.369c0-.06.01-.121.032-.185a.762.762 0 0 1 .1-.192 1.023 1.023 0 0 1 .393-.331 1.268 1.268 0 0 1-.476-.454 1.246 1.246 0 0 1-.172-.658c0-.201.04-.384.117-.548a1.22 1.22 0 0 1 .323-.42 1.48 1.48 0 0 1 .495-.266c.191-.062.401-.094.63-.094.178 0 .345.02.5.06.155.039.296.097.423.173h1.12zm2.425-.229c.302 0 .573.05.815.151.241.1.448.243.619.428.17.184.302.408.393.67.09.262.136.554.136.877 0 .326-.046.619-.136.88a1.88 1.88 0 0 1-.393.667 1.723 1.723 0 0 1-.62.426 2.124 2.124 0 0 1-.814.149c-.304 0-.577-.05-.82-.15a1.72 1.72 0 0 1-.621-.425 1.88 1.88 0 0 1-.393-.667 2.659 2.659 0 0 1-.137-.88c0-.323.046-.615.137-.877.09-.262.222-.486.393-.67a1.74 1.74 0 0 1 .62-.428c.244-.1.517-.15.821-.15zm0 3.682c.407 0 .711-.137.912-.41.201-.273.302-.653.302-1.142 0-.491-.1-.874-.302-1.148-.2-.274-.505-.411-.912-.411a1.28 1.28 0 0 0-.54.105 1.01 1.01 0 0 0-.382.306 1.356 1.356 0 0 0-.228.49 2.63 2.63 0 0 0-.075.658c0 .489.1.87.303 1.142.202.273.51.41.922.41z" id="File-created-2-days" fill="#FFF" opacity=".6"/><circle id="Oval" stroke-opacity=".182" stroke="#FFF" stroke-width="1.098" fill-opacity=".4" fill="#FFF" cx="28.189" cy="26.537" r="13.604"/></g></g></g></g></g></g></g></g></svg>